<?xml version="1.0" encoding="UTF-8"?>
<svg version="1.1" xmlns="http://www.w3.org/2000/svg" width="512" height="512">
<path d="M0 0 C3.48209317 0.00478262 6.96413382 -0.00782269 10.44620943 -0.01801741 C17.24734619 -0.03511307 24.04839018 -0.03606464 30.84954283 -0.03080451 C36.38484915 -0.02674369 41.92012832 -0.02822891 47.45543337 -0.03355277 C48.24679511 -0.03430119 49.03815685 -0.03504961 49.85349925 -0.03582071 C51.46177608 -0.03735238 53.07005291 -0.03889073 54.67832974 -0.04043568 C69.72213716 -0.05412771 84.76589241 -0.04874665 99.80969861 -0.03725047 C113.53012424 -0.02732494 127.25041487 -0.04025286 140.97081968 -0.06418466 C155.10563188 -0.08865088 169.24038141 -0.09816492 183.37521434 -0.09153193 C191.29210524 -0.08805592 199.2088925 -0.09016367 207.12576723 -0.10778296 C213.86618255 -0.12259964 220.60642124 -0.12301839 227.34683344 -0.10571205 C230.77628414 -0.09727601 234.20542062 -0.09486733 237.63485384 -0.1103636 C256.2259315 -0.17678101 274.3338109 0.71495553 291.83774996 7.59433305 C292.60812593 7.88912553 293.37850191 8.18391801 294.17222261 8.4876436 C325.37503496 20.86426764 350.65048267 45.68840576 364.20884371 76.31210649 C365.74160768 79.96519395 367.11248745 83.66083623 368.40024996 87.40683305 C368.63075045 88.06925004 368.86125093 88.73166704 369.09873629 89.41415727 C374.33453998 105.60034731 374.53369363 121.45944698 374.49458301 138.31908309 C374.48980039 141.80117627 374.5024057 145.28321691 374.51260042 148.76529253 C374.52969608 155.56642928 374.53064765 162.36747328 374.52538752 169.16862592 C374.5213267 174.70393225 374.52281192 180.23921141 374.52813578 185.77451646 C374.5288842 186.5658782 374.52963262 187.35723994 374.53040372 188.17258234 C374.53193539 189.78085918 374.53347374 191.38913601 374.53501869 192.99741283 C374.54871072 208.04122025 374.54332966 223.08497551 374.53183348 238.12878171 C374.52190795 251.84920733 374.53483587 265.56949796 374.55876767 279.28990278 C374.58323389 293.42471498 374.59274793 307.55946451 374.58611494 321.69429743 C374.58263893 329.61118834 374.58474668 337.52797559 374.60236597 345.44485033 C374.61718265 352.18526564 374.6176014 358.92550433 374.60029506 365.66591653 C374.59185902 369.09536723 374.58945034 372.52450372 374.60494661 375.95393693 C374.67136403 394.5450146 373.77962748 412.652894 366.90024996 430.15683305 C366.60545748 430.92720903 366.310665 431.69758501 366.00693941 432.49130571 C356.13486544 457.37987552 337.96730112 479.44357757 315.08774996 493.40683305 C314.01524996 494.09003618 312.94274996 494.7732393 311.83774996 495.47714555 C305.45004956 499.3659539 298.94823783 502.48484403 291.96274996 505.15683305 C291.27874117 505.42640825 290.59473238 505.69598344 289.88999605 505.97372758 C271.57496724 512.61625088 252.95550458 512.98750368 233.69712496 512.92441118 C230.88921006 512.92764626 228.08132106 512.93682879 225.2734189 512.94565141 C218.48616735 512.96329401 211.69909425 512.95966107 204.91183615 512.94800085 C199.38806192 512.93890996 193.86433716 512.93776673 188.34055758 512.94209611 C187.54973779 512.94270905 186.75891801 512.94332198 185.944134 512.94395348 C184.33682329 512.94523258 182.7295126 512.94652944 181.12220192 512.94784385 C166.10506253 512.95920786 151.08802133 512.94620193 136.07089806 512.92464238 C123.22881 512.90677521 110.38686666 512.9098805 97.54478121 512.92831743 C82.57569806 512.94979842 67.60670065 512.95810962 52.63760424 512.94586837 C51.03671695 512.94459438 49.43582965 512.9433369 47.83494234 512.94209611 C47.04759258 512.94147901 46.26024282 512.94086191 45.44903398 512.94022611 C39.94182532 512.93679481 34.43467175 512.94255319 28.92747164 512.95201433 C22.20178323 512.96331652 15.47628117 512.96002387 8.75061369 512.93889135 C5.32917146 512.92848977 1.90829014 512.92627884 -1.51318693 512.93748796 C-22.88729031 513.00100847 -42.22548579 511.05828192 -61.91225004 502.40683305 C-62.56644926 502.12356157 -63.22064848 501.84029008 -63.89467192 501.54843462 C-93.98974488 488.26256094 -117.69643593 462.6852702 -129.78334379 432.21054399 C-130.63388989 429.95385314 -131.44074075 427.68745259 -132.22475004 425.40683305 C-132.57050077 424.41320756 -132.57050077 424.41320756 -132.92323637 423.39950883 C-138.15904006 407.2133188 -138.35819372 391.35421913 -138.31908309 374.49458301 C-138.31430048 371.01248984 -138.32690578 367.53044919 -138.33710051 364.04837358 C-138.35419617 357.24723682 -138.35514773 350.44619283 -138.3498876 343.64504018 C-138.34582678 338.10973386 -138.347312 332.5744547 -138.35263586 327.03914964 C-138.35338428 326.2477879 -138.3541327 325.45642616 -138.35490381 324.64108376 C-138.35643548 323.03280693 -138.35797382 321.4245301 -138.35951877 319.81625327 C-138.3732108 304.77244585 -138.36782974 289.7286906 -138.35633356 274.6848844 C-138.34640804 260.96445877 -138.35933595 247.24416814 -138.38326775 233.52376333 C-138.40773398 219.38895113 -138.41724801 205.2542016 -138.41061503 191.11936867 C-138.40713902 183.20247777 -138.40924677 175.28569051 -138.42686605 167.36881578 C-138.44168273 160.62840046 -138.44210148 153.88816178 -138.42479514 147.14774957 C-138.41635911 143.71829887 -138.41395042 140.28916239 -138.4294467 136.85972917 C-138.49586411 118.26865151 -137.60412757 100.16077211 -130.72475004 82.65683305 C-130.42995756 81.88645708 -130.13516508 81.1160811 -129.8314395 80.3223604 C-117.45481545 49.11954805 -92.63067734 23.84410034 -62.0069766 10.2857393 C-58.35388915 8.75297533 -54.65824686 7.38209556 -50.91225004 6.09433305 C-49.91862455 5.74858232 -49.91862455 5.74858232 -48.90492582 5.39584672 C-32.71873579 0.16004303 -16.85963612 -0.03911062 0 0 Z " fill="#32DC82" transform="translate(137.91225004196167,-0.40683305263519287)"/>
<path d="M0 0 C2.70381719 -0.00407144 5.40760982 -0.0093094 8.11141968 -0.01593018 C14.65889101 -0.02918806 21.20625848 -0.02642541 27.75373369 -0.01769225 C33.08120826 -0.01088397 38.40865398 -0.01001249 43.73613167 -0.0132637 C44.87868007 -0.01395325 44.87868007 -0.01395325 46.04431026 -0.01465673 C47.59227729 -0.01561602 49.14024431 -0.01658867 50.68821133 -0.0175745 C65.16395269 -0.02610527 79.63963682 -0.01633103 94.11536879 -0.0001734 C106.50190861 0.01322496 118.88836404 0.01090116 131.27490234 -0.00292969 C145.70152471 -0.01903124 160.12809704 -0.02527868 174.55472714 -0.0160929 C176.09692545 -0.01513737 177.63912377 -0.01419426 179.1813221 -0.0132637 C180.31914205 -0.01256946 180.31914205 -0.01256946 181.47994826 -0.0118612 C186.79264364 -0.00928479 192.10530695 -0.01361303 197.41799736 -0.02070236 C203.90449012 -0.02916875 210.39087416 -0.02673051 216.87735467 -0.01086013 C220.17880172 -0.00304535 223.48003365 -0.00141833 226.7814846 -0.00980759 C252.8453113 -0.06989564 276.56597927 1.89118791 296.21313477 21.01318359 C301.97014594 26.83469393 306.157112 33.15694975 310.02563477 40.38818359 C310.65405273 41.54060547 310.65405273 41.54060547 311.29516602 42.71630859 C319.37025802 59.04795534 319.2194805 79.13299231 313.63500977 96.15771484 C309.66179797 107.12387897 303.30506571 116.1946983 295.02563477 124.38818359 C294.36305664 125.08427734 293.70047852 125.78037109 293.01782227 126.49755859 C288.61526072 130.81642125 283.84302979 133.82924792 278.40063477 136.63818359 C277.79856201 136.9554541 277.19648926 137.27272461 276.57617188 137.59960938 C264.71265964 143.39508204 252.71445148 144.96543294 239.66625977 144.82177734 C238.25998335 144.82407189 236.85370907 144.82884902 235.44744873 144.83595276 C230.30659262 144.85731503 225.16608477 144.84010841 220.02526855 144.81445312 C215.6384774 144.79306689 211.25261208 144.79102793 206.8658371 144.81736946 C204.82281448 144.8217103 202.78142399 144.79715037 200.73858643 144.77183533 C199.50590027 144.77856766 198.27321411 144.78529999 197.00317383 144.79223633 C195.91812561 144.78683334 194.83307739 144.78143036 193.71514893 144.77586365 C190.81270773 145.13888159 190.81270773 145.13888159 189.1461792 147.79310608 C187.8647749 150.24180532 187.8647749 150.24180532 188.11938477 152.50537109 C189.24232885 154.83838423 190.49505751 155.90967219 192.52563477 157.51318359 C213.78618914 175.43874905 226.54779837 202.90376142 229.02563477 230.38818359 C229.02563477 233.68818359 229.02563477 236.98818359 229.02563477 240.38818359 C155.10563477 240.38818359 81.18563477 240.38818359 5.02563477 240.38818359 C5.02563477 222.18203431 8.73861523 205.6491111 17.02563477 189.38818359 C17.68499023 188.02113281 17.68499023 188.02113281 18.35766602 186.62646484 C24.18350831 175.12588279 32.68904447 165.19294279 42.02563477 156.38818359 C43.69588693 154.72511016 45.36325808 153.05912923 47.02563477 151.38818359 C7.80481435 159.47339753 -28.10591247 178.94464675 -57.97436523 205.38818359 C-59.33174805 206.57927734 -59.33174805 206.57927734 -60.71655273 207.79443359 C-69.65854966 215.73079561 -77.55201636 224.00801982 -84.97436523 233.38818359 C-86.14805664 234.83644531 -86.14805664 234.83644531 -87.34545898 236.31396484 C-94.65731863 245.52105851 -100.93505339 255.30811831 -106.97436523 265.38818359 C-107.5428418 266.33467773 -107.5428418 266.33467773 -108.12280273 267.30029297 C-115.21280692 279.30798803 -120.06271798 292.37847191 -124.97436523 305.38818359 C-125.40241455 306.51885254 -125.40241455 306.51885254 -125.83911133 307.67236328 C-129.23471832 316.79148187 -131.31714514 326.03987156 -133.17749023 335.56396484 C-133.97436523 339.38818359 -133.97436523 339.38818359 -134.97436523 341.38818359 C-136.73451279 351.0002394 -137.45584463 360.64545442 -137.97436523 370.38818359 C-138.30436523 370.38818359 -138.63436523 370.38818359 -138.97436523 370.38818359 C-139.06583181 337.86096457 -139.13651504 305.33378294 -139.17862655 272.80646445 C-139.18362872 268.95675083 -139.18880608 265.10703746 -139.1940918 261.25732422 C-139.19514104 260.49099182 -139.19619028 259.72465941 -139.19727132 258.93510482 C-139.21462458 246.56517808 -139.2461339 234.19532654 -139.28297642 221.82544425 C-139.32052787 209.11045284 -139.34263092 196.3955005 -139.35071921 183.68045592 C-139.35617773 175.84950763 -139.37334777 168.01877195 -139.4060311 160.18788919 C-139.42989421 154.15918729 -139.43214962 148.13066404 -139.42679596 142.10190964 C-139.42788727 139.64630967 -139.4357203 137.19070088 -139.45118713 134.73514938 C-139.55802536 116.88224265 -138.38806984 99.43433741 -131.78686523 82.63818359 C-131.49207275 81.86780762 -131.19728027 81.09743164 -130.89355469 80.30371094 C-118.51693064 49.1008986 -93.69279253 23.82545088 -63.0690918 10.26708984 C-59.41600434 8.73432588 -55.72036205 7.3634461 -51.97436523 6.07568359 C-50.98073975 5.72993286 -50.98073975 5.72993286 -49.96704102 5.37719727 C-33.43170115 0.02845285 -17.21035928 -0.04369593 0 0 Z " fill="#4BF49B" transform="translate(138.974365234375,-0.38818359375)"/>
<path d="M0 0 C0.33 0 0.66 0 1 0 C1.09176643 33.41897614 1.16214537 66.83792067 1.20426132 100.25699504 C1.20926351 104.21185757 1.21444086 108.16671986 1.21972656 112.12158203 C1.2207758 112.90884874 1.22182505 113.69611544 1.22290608 114.50723872 C1.24026142 127.21665701 1.27177191 139.92600215 1.30861118 152.6353772 C1.3461568 165.69841256 1.36826447 178.76140989 1.37635398 191.82449698 C1.38181368 199.87040902 1.39899039 207.91611421 1.43166587 215.96196249 C1.4555201 222.1551678 1.45778581 228.34821889 1.45243073 234.54146385 C1.45352245 237.06479087 1.46136116 239.58812644 1.4768219 242.11140633 C1.58188305 260.15793653 0.48678451 277.76790114 -6.1875 294.75 C-6.48229248 295.52037598 -6.77708496 296.29075195 -7.08081055 297.08447266 C-16.95288452 321.97304247 -35.12044884 344.03674451 -58 358 C-59.0725 358.68320312 -60.145 359.36640625 -61.25 360.0703125 C-88.1270584 376.43296611 -122.0210146 381.96550193 -152.73046875 374.8359375 C-153.80941406 374.56007813 -154.88835937 374.28421875 -156 374 C-156.98613281 373.80664062 -157.97226562 373.61328125 -158.98828125 373.4140625 C-188.68066075 367.22647597 -217.10267896 345.70299143 -233.72265625 320.66796875 C-246.19304506 300.99795865 -255.09876368 278.83708837 -255.02075195 255.26928711 C-255.01775589 254.09603378 -255.01475983 252.92278046 -255.01167297 251.713974 C-255.00589485 250.37055687 -255.00589485 250.37055687 -255 249 C-253.76051605 248.99413376 -252.5210321 248.98826752 -251.24398804 248.98222351 C-239.56111008 248.92500229 -227.87841837 248.85224355 -216.19573021 248.76428509 C-210.18958249 248.71956409 -204.18350288 248.68031156 -198.17724609 248.65356445 C-192.38051082 248.62754906 -186.58403739 248.58715862 -180.78746414 248.53681374 C-178.57633344 248.52013319 -176.36515744 248.50862633 -174.15397263 248.50238609 C-171.05598269 248.49275818 -167.95866444 248.46471362 -164.86083984 248.43237305 C-163.49058655 248.43452568 -163.49058655 248.43452568 -162.09265137 248.4367218 C-156.98515968 248.36135256 -153.41751809 247.84671168 -149 245 C-145.19051762 240.88164067 -143.88416075 237.82505788 -143.84178162 232.27339172 C-143.8319928 231.30164001 -143.82220398 230.32988831 -143.81211853 229.32868958 C-143.80636307 228.26414047 -143.8006076 227.19959137 -143.79467773 226.1027832 C-143.78477814 224.98068451 -143.77487854 223.85858582 -143.76467896 222.70248413 C-143.73303507 218.98527146 -143.70829501 215.26804601 -143.68359375 211.55078125 C-143.66302673 208.9767371 -143.64203032 206.40269634 -143.62062073 203.82865906 C-143.57102405 197.74077642 -143.52576545 191.65287562 -143.48259836 185.56494445 C-143.43321177 178.63389954 -143.37829892 171.70290188 -143.32291877 164.77190268 C-143.20912426 150.51464617 -143.1022797 136.25734353 -143 122 C-139.46355074 121.25796706 -136.18647154 120.85767196 -132.5703125 120.7890625 C-120.70522695 120.48814311 -109.53642899 119.97760698 -98 117 C-96.60394531 116.67708984 -96.60394531 116.67708984 -95.1796875 116.34765625 C-79.46024825 112.47508302 -64.74597122 105.24019062 -51.5625 95.9375 C-50.99523193 95.53821289 -50.42796387 95.13892578 -49.84350586 94.72753906 C-46.88094074 92.57533422 -44.26519628 90.32360478 -41.71484375 87.69140625 C-39 85 -39 85 -37 85 C-36.64421875 84.15695313 -36.64421875 84.15695313 -36.28125 83.296875 C-34.71225291 80.48416071 -32.75651045 78.54935558 -30.5 76.25 C-16.65959992 61.2312686 -8.42080948 42.47239799 -3 23 C-2.76410156 22.16984375 -2.52820313 21.3396875 -2.28515625 20.484375 C-0.58506314 13.78327807 -0.37184426 6.87911889 0 0 Z " fill="#19C369" transform="translate(511,135)"/>
<path d="M0 0 C73.92 0 147.84 0 224 0 C224.061875 19.01625 224.12375 38.0325 224.1875 57.625 C224.21481201 63.6263916 224.24212402 69.6277832 224.27026367 75.81103516 C224.28381348 83.1472168 224.28381348 83.1472168 224.28633118 86.58309937 C224.29093378 88.97951936 224.30147643 91.37593246 224.31672668 93.77230835 C224.33868711 97.40513149 224.34171796 101.03753057 224.34057617 104.67041016 C224.3513705 105.73555155 224.36216482 106.80069294 224.37328625 107.89811134 C224.34707868 114.12745613 223.88766993 118.83409104 219.5 123.64453125 C214.25634539 127.72748106 210.50003277 128.14871714 204.0488739 128.14717102 C203.22975 128.15084771 202.41062609 128.1545244 201.56668025 128.1583125 C198.81226947 128.16935656 196.05789641 128.17319438 193.3034668 128.17700195 C191.33248779 128.18326598 189.36150997 128.18991273 187.39053345 128.19691467 C182.02891309 128.21432816 176.66730164 128.22487708 171.30566001 128.2331202 C167.95724377 128.23826891 164.60883031 128.24434466 161.26041603 128.25063133 C150.78779601 128.26968314 140.31518305 128.28391512 129.84254903 128.2922433 C117.74629813 128.30202107 105.65022996 128.32835478 93.55404347 128.36874419 C84.20874203 128.39887974 74.86349305 128.41370968 65.51814395 128.41702431 C59.93436856 128.41937742 54.3507884 128.42837208 48.76706505 128.45348549 C43.51476664 128.47672678 38.26279254 128.48101527 33.01045609 128.47072411 C31.08273173 128.4702277 29.15499163 128.47657888 27.2273159 128.49028015 C24.59517934 128.50794185 21.96421393 128.50092144 19.33207703 128.48774719 C18.56951983 128.49871644 17.80696263 128.50968568 17.02129763 128.52098733 C11.86638973 128.45870902 8.98021651 127.23067002 5 124 C1.21554232 119.80641176 -0.12631822 116.84435259 -0.12025452 111.23542786 C-0.12163201 110.25729787 -0.12300951 109.27916788 -0.12442875 108.27139759 C-0.11903159 106.65749402 -0.11903159 106.65749402 -0.11352539 105.01098633 C-0.11364593 103.86081119 -0.11376646 102.71063604 -0.11389065 101.52560711 C-0.11314295 97.79439563 -0.10552118 94.06323382 -0.09765625 90.33203125 C-0.09618639 88.03169784 -0.09516595 85.73136409 -0.09460449 83.43103027 C-0.08935674 74.89151509 -0.07539559 66.35200706 -0.0625 57.8125 C-0.041875 38.734375 -0.02125 19.65625 0 0 Z " fill="#FEFEFE" transform="translate(144,256)"/>
<path d="M0 0 C4.81539388 1.00320706 7.16411751 4.36853782 9.81762695 8.35717773 C10.64460083 9.81812866 10.64460083 9.81812866 11.48828125 11.30859375 C12.10888428 12.39527344 12.7294873 13.48195313 13.36889648 14.6015625 C14.01028564 15.74367188 14.6516748 16.88578125 15.3125 18.0625 C15.9798483 19.23867973 16.64790109 20.41446003 17.31665039 21.58984375 C18.62473702 23.89096852 19.92826851 26.19447749 21.22949219 28.49951172 C22.7229073 31.13584656 24.23175339 33.76139573 25.7578125 36.37890625 C26.13639404 37.02996338 26.51497559 37.68102051 26.9050293 38.35180664 C27.86195324 39.99525394 28.81961684 41.6382705 29.77734375 43.28125 C31 45.625 31 45.625 31 47.625 C31.88300781 47.16609375 32.76601562 46.7071875 33.67578125 46.234375 C61.59144328 31.88534917 91.72228795 28.30282036 121.83935547 37.67871094 C129.9628483 40.30376976 137.51646442 43.48704503 145 47.625 C145.2693335 46.74448975 145.53866699 45.86397949 145.81616211 44.95678711 C146.93700347 41.80229709 148.24345648 39.19203014 149.94140625 36.31640625 C150.81091919 34.83454834 150.81091919 34.83454834 151.69799805 33.32275391 C152.31328369 32.28812012 152.92856934 31.25348633 153.5625 30.1875 C154.19003174 29.12450684 154.81756348 28.06151367 155.46411133 26.96630859 C156.72196258 24.8378855 157.98225634 22.71090378 159.24511719 20.58544922 C160.78234683 17.99217617 162.30516558 15.39136457 163.8203125 12.78515625 C164.60898073 11.43987295 165.39800911 10.09480068 166.1875 8.75 C166.5369165 8.14486572 166.88633301 7.53973145 167.24633789 6.91625977 C168.97953683 3.99549063 170.10862782 2.55258145 173 0.625 C175.875 0.1875 175.875 0.1875 179 0.625 C181.875 2.75 181.875 2.75 184 5.625 C184.53871139 10.4421789 183.51818641 13.18479126 181.0703125 17.30078125 C180.44382812 18.3686084 179.81734375 19.43643555 179.171875 20.53662109 C178.49640625 21.65891113 177.8209375 22.78120117 177.125 23.9375 C176.43875333 25.10158101 175.75386444 26.2664635 175.0703125 27.43212891 C172.00777421 32.64078265 168.89066286 37.81546551 165.7421875 42.97265625 C165.27280762 43.74891357 164.80342773 44.5251709 164.31982422 45.32495117 C163.46113083 46.74006391 162.59090396 48.14826345 161.70751953 49.5480957 C159.59143317 52.97261272 159.59143317 52.97261272 159.03125 56.875 C160.2350876 59.04967438 161.54793975 60.20849211 163.5 61.75 C184.76055437 79.67556545 197.5221636 107.14057783 200 134.625 C200 137.925 200 141.225 200 144.625 C126.08 144.625 52.16 144.625 -24 144.625 C-24 126.41885072 -20.28701954 109.88592751 -12 93.625 C-11.56042969 92.71363281 -11.12085938 91.80226563 -10.66796875 90.86328125 C-4.28385248 78.26063098 5.55036359 65.95429594 17 57.625 C16.32313971 54.13883846 14.93012425 51.44750989 13.19140625 48.36328125 C12.61342285 47.33436768 12.03543945 46.3054541 11.43994141 45.24536133 C10.82038574 44.15376709 10.20083008 43.06217285 9.5625 41.9375 C8.93520996 40.82076904 8.30791992 39.70403809 7.66162109 38.5534668 C4.79081359 33.46204615 1.89032965 28.39713824 -1.15234375 23.40625 C-1.61648682 22.64143311 -2.08062988 21.87661621 -2.55883789 21.08862305 C-3.4117843 19.6945754 -4.2762117 18.30746207 -5.15405273 16.92895508 C-7.55648863 13.0074742 -8.6604942 10.22864459 -8 5.625 C-5.54405875 2.30225596 -4.0743356 0.84881992 0 0 Z " fill="#FEFEFE" transform="translate(168,95.375)"/>
<path d="M0 0 C5.55904282 3.81423376 10.10226719 9.00930021 12.140625 15.46875 C12.43563119 18.39525268 12.43440627 21.30752569 12.43115234 24.24707031 C12.43786957 25.12091873 12.44458679 25.99476715 12.45150757 26.89509583 C12.47047793 29.77908037 12.47441156 32.66283197 12.4765625 35.546875 C12.48299207 37.55841161 12.48972056 39.56994728 12.49673462 41.58148193 C12.50870569 45.79799567 12.51241571 50.0144275 12.51123047 54.23095703 C12.51102752 59.61880551 12.53830599 65.00612511 12.57277489 70.39384842 C12.59507848 74.5495848 12.59906691 78.70519471 12.59801102 82.8609848 C12.60036267 84.84640064 12.60916151 86.8318202 12.62467575 88.81717682 C12.64440173 91.60277147 12.63847146 94.38723642 12.62646484 97.17285156 C12.63770386 97.98355606 12.64894287 98.79426056 12.66052246 99.62953186 C12.58572203 106.5026853 10.48718215 112.17239592 6.5 117.7734375 C0.75315866 123.3807924 -4.32252156 125.55102996 -12.359375 125.90625 C-20.33537153 125.62021426 -24.82976746 122.84766791 -30.234375 117.09375 C-35.54655474 111.10432026 -36.15842746 105.24344132 -36.14990234 97.56103516 C-36.15661957 96.68543442 -36.16333679 95.80983368 -36.17025757 94.90769958 C-36.18919492 92.02434555 -36.19315951 89.14122479 -36.1953125 86.2578125 C-36.20174301 84.24530951 -36.20847156 82.23280744 -36.21548462 80.2203064 C-36.22744645 76.00557285 -36.23116653 71.7909212 -36.22998047 67.57617188 C-36.22977726 62.18713322 -36.25708671 56.79862177 -36.29152489 51.40970802 C-36.31380881 47.25401416 -36.31781756 43.09844692 -36.31676102 38.94269943 C-36.31911444 36.95645708 -36.32792331 34.97021111 -36.34342575 32.98402786 C-36.36311737 30.20073193 -36.35723547 27.4185698 -36.34521484 24.63525391 C-36.35645386 23.82252518 -36.36769287 23.00979645 -36.37927246 22.17243958 C-36.30436288 15.3144358 -34.23652266 10.14782518 -29.67578125 5.0078125 C-28.56009766 4.06035156 -28.56009766 4.06035156 -27.421875 3.09375 C-26.68066406 2.44664062 -25.93945312 1.79953125 -25.17578125 1.1328125 C-17.68122943 -4.25113198 -8.10718954 -4.08275732 0 0 Z " fill="#FEFEFE" transform="translate(419.859375,258.53125)"/>
<path d="M0 0 C5.55904282 3.81423376 10.10226719 9.00930021 12.140625 15.46875 C12.43563119 18.39525268 12.43440627 21.30752569 12.43115234 24.24707031 C12.43786957 25.12091873 12.44458679 25.99476715 12.45150757 26.89509583 C12.47047793 29.77908037 12.47441156 32.66283197 12.4765625 35.546875 C12.48299207 37.55841161 12.48972056 39.56994728 12.49673462 41.58148193 C12.50870569 45.79799567 12.51241571 50.0144275 12.51123047 54.23095703 C12.51102752 59.61880551 12.53830599 65.00612511 12.57277489 70.39384842 C12.59507848 74.5495848 12.59906691 78.70519471 12.59801102 82.8609848 C12.60036267 84.84640064 12.60916151 86.8318202 12.62467575 88.81717682 C12.64440173 91.60277147 12.63847146 94.38723642 12.62646484 97.17285156 C12.63770386 97.98355606 12.64894287 98.79426056 12.66052246 99.62953186 C12.58572203 106.5026853 10.48718215 112.17239592 6.5 117.7734375 C0.75315866 123.3807924 -4.32252156 125.55102996 -12.359375 125.90625 C-20.33537153 125.62021426 -24.82976746 122.84766791 -30.234375 117.09375 C-35.54655474 111.10432026 -36.15842746 105.24344132 -36.14990234 97.56103516 C-36.15661957 96.68543442 -36.16333679 95.80983368 -36.17025757 94.90769958 C-36.18919492 92.02434555 -36.19315951 89.14122479 -36.1953125 86.2578125 C-36.20174301 84.24530951 -36.20847156 82.23280744 -36.21548462 80.2203064 C-36.22744645 76.00557285 -36.23116653 71.7909212 -36.22998047 67.57617188 C-36.22977726 62.18713322 -36.25708671 56.79862177 -36.29152489 51.40970802 C-36.31380881 47.25401416 -36.31781756 43.09844692 -36.31676102 38.94269943 C-36.31911444 36.95645708 -36.32792331 34.97021111 -36.34342575 32.98402786 C-36.36311737 30.20073193 -36.35723547 27.4185698 -36.34521484 24.63525391 C-36.35645386 23.82252518 -36.36769287 23.00979645 -36.37927246 22.17243958 C-36.30436288 15.3144358 -34.23652266 10.14782518 -29.67578125 5.0078125 C-28.56009766 4.06035156 -28.56009766 4.06035156 -27.421875 3.09375 C-26.68066406 2.44664062 -25.93945312 1.79953125 -25.17578125 1.1328125 C-17.68122943 -4.25113198 -8.10718954 -4.08275732 0 0 Z " fill="#FEFEFE" transform="translate(115.859375,258.53125)"/>
<path d="M0 0 C3.3258409 2.062783 6.23502468 4.47004936 8 8 C8.79674298 14.71540516 8.79674298 14.71540516 6.73046875 18.046875 C3.40766769 21.95985727 1.56547947 23.81426515 -3.6875 24.4375 C-8.22744391 24.41264629 -10.43982485 22.53738613 -13.65234375 19.5078125 C-16.20699781 16.64956187 -16.44655204 13.96600649 -16.42578125 10.171875 C-15.65151767 6.2224204 -12.92865376 3.61757913 -10 1 C-6.7374887 -0.63125565 -3.5120384 -0.68851113 0 0 Z " fill="#37DC85" transform="translate(312,184)"/>
<path d="M0 0 C3.3258409 2.062783 6.23502468 4.47004936 8 8 C8.79674298 14.71540516 8.79674298 14.71540516 6.73046875 18.046875 C3.40766769 21.95985727 1.56547947 23.81426515 -3.6875 24.4375 C-8.22744391 24.41264629 -10.43982485 22.53738613 -13.65234375 19.5078125 C-16.20699781 16.64956187 -16.44655204 13.96600649 -16.42578125 10.171875 C-15.65151767 6.2224204 -12.92865376 3.61757913 -10 1 C-6.7374887 -0.63125565 -3.5120384 -0.68851113 0 0 Z " fill="#37DC85" transform="translate(208,184)"/>
</svg>
