<?xml version="1.0" encoding="UTF-8"?>
<svg version="1.1" xmlns="http://www.w3.org/2000/svg" width="512" height="512">
<path d="M0 0 C1.36344334 -0.00346793 2.72688387 -0.00824002 4.09031868 -0.01418173 C7.79006702 -0.02656582 11.48957963 -0.02057973 15.18932819 -0.01122308 C19.19758415 -0.00438055 23.20580211 -0.01493936 27.21405029 -0.02316284 C35.04770911 -0.03644734 42.88128131 -0.03364613 50.71494341 -0.02492492 C57.08603147 -0.01812787 63.45709539 -0.01724036 69.82818604 -0.02049637 C71.19244506 -0.02118592 71.19244506 -0.02118592 72.58426487 -0.0218894 C74.4323659 -0.02284865 76.28046692 -0.02382129 78.12856793 -0.02480717 C95.42601653 -0.03334559 112.7234173 -0.0235513 130.02085805 -0.00740607 C144.83733425 0.0059957 159.65373992 0.00366717 174.47021484 -0.01016235 C191.70912015 -0.02624559 208.94798361 -0.03252176 226.18689537 -0.02332556 C228.02789687 -0.02236999 229.86889839 -0.02142688 231.7098999 -0.02049637 C232.61552079 -0.02003354 233.52114168 -0.01957072 234.45420563 -0.01909386 C240.81178621 -0.0165122 247.16934007 -0.02085714 253.5269165 -0.02793503 C261.2830619 -0.03638078 269.0391163 -0.03400559 276.79525137 -0.0180928 C280.74653469 -0.01025124 284.69766674 -0.00704747 288.64894867 -0.01704025 C292.27606908 -0.02607396 295.90290005 -0.02091411 299.52999473 -0.0051076 C301.44187262 -0.00024472 303.35377112 -0.00987804 305.26562691 -0.02027929 C333.07795717 0.16566716 357.15248179 12.22569324 377.33154297 30.88485718 C397.06215816 51.089766 407.30279211 77.52603036 407.1499939 105.61190796 C407.15346183 106.9753513 407.15823392 108.33879183 407.16417563 109.70222664 C407.17655971 113.40197498 407.17057363 117.10148759 407.16121697 120.80123615 C407.15437445 124.80949211 407.16493326 128.81771007 407.17315674 132.82595825 C407.18644124 140.65961707 407.18364002 148.49318927 407.17491882 156.32685137 C407.16812176 162.69793943 407.16723426 169.06900334 407.17049026 175.44009399 C407.17094996 176.34960001 407.17140966 177.25910603 407.17188329 178.19617283 C407.17284255 180.04427386 407.17381519 181.89237488 407.17480107 183.74047589 C407.18333948 201.03792449 407.17354519 218.33532526 407.15739997 235.63276601 C407.1439982 250.44924221 407.14632673 265.26564787 407.16015625 280.0821228 C407.17623949 297.32102811 407.18251565 314.55989157 407.17331946 331.79880333 C407.17236389 333.63980483 407.17142078 335.48080634 407.17049026 337.32180786 C407.17002744 338.22742875 407.16956461 339.13304964 407.16908776 340.06611359 C407.16650609 346.42369417 407.17085104 352.78124803 407.17792892 359.13882446 C407.18637468 366.89496985 407.18399949 374.65102425 407.16808669 382.40715933 C407.16024514 386.35844265 407.15704137 390.3095747 407.16703415 394.26085663 C407.17606785 397.88797704 407.170908 401.514808 407.15510149 405.14190269 C407.15023862 407.05378058 407.15987194 408.96567908 407.17027318 410.87753487 C406.98432674 438.68986513 394.92430066 462.76438975 376.26513672 482.94345093 C356.0602279 502.67406612 329.62396354 512.91470007 301.53808594 512.76190186 C300.17464259 512.76536978 298.81120207 512.77014188 297.44776726 512.77608359 C293.74801892 512.78846767 290.04850631 512.78248158 286.34875774 512.77312493 C282.34050178 512.76628241 278.33228382 512.77684121 274.32403564 512.7850647 C266.49037683 512.79834919 258.65680463 512.79554798 250.82314253 512.78682677 C244.45205447 512.78002972 238.08099055 512.77914221 231.7098999 512.78239822 C230.34564088 512.78308777 230.34564088 512.78308777 228.95382106 512.78379125 C227.10572004 512.7847505 225.25761902 512.78572315 223.409518 512.78670903 C206.11206941 512.79524744 188.81466864 512.78545315 171.51722789 512.76930793 C156.70075169 512.75590616 141.88434602 512.75823469 127.06787109 512.77206421 C109.82896579 512.78814745 92.59010233 512.79442361 75.35119057 512.78522742 C73.51018906 512.78427185 71.66918755 512.78332874 69.82818604 512.78239822 C68.92256514 512.7819354 68.01694425 512.78147257 67.08388031 512.78099572 C60.72629973 512.77841405 54.36874587 512.782759 48.01116943 512.78983688 C40.25502404 512.79828264 32.49896964 512.79590745 24.74283457 512.77999465 C20.79155125 512.7721531 16.8404192 512.76894933 12.88913727 512.77894211 C9.26201686 512.78797581 5.63518589 512.78281596 2.00809121 512.76700945 C0.09621331 512.76214657 -1.81568518 512.7717799 -3.72754097 512.78218114 C-31.53987123 512.5962347 -55.61439585 500.53620862 -75.79345703 481.87704468 C-95.52407222 461.67213585 -105.76470617 435.2358715 -105.61190796 407.1499939 C-105.61537589 405.78655055 -105.62014798 404.42311002 -105.62608969 403.05967522 C-105.63847378 399.35992687 -105.63248769 395.66041427 -105.62313104 391.9606657 C-105.61628851 387.95240974 -105.62684732 383.94419178 -105.6350708 379.9359436 C-105.6483553 372.10228479 -105.64555409 364.26871259 -105.63683288 356.43505049 C-105.63003583 350.06396243 -105.62914832 343.69289851 -105.63240433 337.32180786 C-105.63286403 336.41230184 -105.63332373 335.50279583 -105.63379735 334.56572902 C-105.63475661 332.717628 -105.63572925 330.86952698 -105.63671513 329.02142596 C-105.64525354 311.72397736 -105.63545925 294.4265766 -105.61931403 277.12913585 C-105.60591226 262.31265965 -105.60824079 247.49625398 -105.62207031 232.67977905 C-105.63815355 215.44087375 -105.64442972 198.20201028 -105.63523352 180.96309853 C-105.63427795 179.12209702 -105.63333484 177.28109551 -105.63240433 175.44009399 C-105.6319415 174.5344731 -105.63147867 173.62885221 -105.63100182 172.69578826 C-105.62842016 166.33820769 -105.6327651 159.98065383 -105.63984299 153.62307739 C-105.64828874 145.866932 -105.64591355 138.1108776 -105.63000076 130.35474253 C-105.6221592 126.40345921 -105.61895543 122.45232716 -105.62894821 118.50104523 C-105.63798192 114.87392481 -105.63282207 111.24709385 -105.61701556 107.61999917 C-105.61215268 105.70812127 -105.621786 103.79622278 -105.63218725 101.88436699 C-105.4462408 74.07203673 -93.38621472 49.99751211 -74.72705078 29.81845093 C-54.52214196 10.08783574 -28.0858776 -0.15279822 0 0 Z " fill="#00C3FF" transform="translate(105.23095703125,-0.380950927734375)"/>
<path d="M0 0 C40.77323628 -0.1209091 40.77323628 -0.1209091 57.91992188 -0.14648438 C69.73758877 -0.16425316 81.55519128 -0.18508939 93.37280273 -0.22631836 C101.98128067 -0.25633692 110.58970614 -0.27560242 119.19823498 -0.28226548 C123.75113008 -0.28615675 128.30387514 -0.29522186 132.85672188 -0.31719017 C137.15358526 -0.33775274 141.45023869 -0.34379445 145.74714661 -0.33932304 C147.31310103 -0.3401395 148.87906345 -0.34598627 150.4449749 -0.35761642 C179.98824535 -0.56602891 204.89660676 10.4698992 226.5625 30.50390625 C246.29311519 50.70881507 256.53374914 77.14507943 256.38095093 105.23095703 C256.38441886 106.59440038 256.38919095 107.9578409 256.39513266 109.32127571 C256.40751675 113.02102405 256.40153066 116.72053666 256.39217401 120.42028522 C256.38533148 124.42854118 256.39589029 128.43675914 256.40411377 132.44500732 C256.41739827 140.27866614 256.41459706 148.11223834 256.40587585 155.94590044 C256.39907879 162.3169885 256.39819129 168.68805242 256.4014473 175.05914307 C256.401907 175.96864908 256.40236669 176.8781551 256.40284032 177.81522191 C256.40379958 179.66332293 256.40477222 181.51142395 256.4057581 183.35952497 C256.41429651 200.65697356 256.40450222 217.95437433 256.388357 235.25181508 C256.37495523 250.06829128 256.37728376 264.88469695 256.39111328 279.70117188 C256.40719652 296.94007718 256.41347268 314.17894064 256.40427649 331.4178524 C256.40332092 333.25885391 256.40237781 335.09985542 256.4014473 336.94085693 C256.40098447 337.84647782 256.40052164 338.75209872 256.40004479 339.68516266 C256.39746312 346.04274324 256.40180807 352.4002971 256.40888596 358.75787354 C256.41733171 366.51401893 256.41495652 374.27007333 256.39904372 382.0262084 C256.39120217 385.97749172 256.3879984 389.92862377 256.39799118 393.8799057 C256.40702489 397.50702611 256.40186504 401.13385708 256.38605852 404.76095176 C256.38119565 406.67282966 256.39082897 408.58472815 256.40123022 410.49658394 C256.21528377 438.3089142 244.15525769 462.38343882 225.49609375 482.5625 C204.32729377 503.2343798 177.34408851 512.55684613 148.15063477 512.34057617 C146.49677775 512.33965453 144.84291956 512.34006212 143.18906307 512.34167194 C138.80785124 512.34234208 134.42689123 512.32510709 130.04573822 512.30384064 C125.91651216 512.28660302 121.78734364 512.28594306 117.65808105 512.28381348 C105.62618807 512.2681464 93.59434074 512.22626259 81.5625 512.1875 C54.646875 512.125625 27.73125 512.06375 0 512 C0 455.57 0 399.14 0 341 C14.52 341 29.04 341 44 341 C41.6075 336.813125 39.215 332.62625 36.75 328.3125 C34.7109375 324.74414062 34.7109375 324.74414062 32.671875 321.17578125 C32.30441162 320.56661865 31.93694824 319.95745605 31.55834961 319.32983398 C29.25429027 315.45419484 27.40758055 311.61811136 25.75097656 307.4206543 C23.29020796 301.6296154 20.8712175 296.14784901 16 292 C7.26575593 288.5490752 -2.56777144 289.70331805 -11.75 290.1875 C-14.29667639 290.24468682 -16.8435867 290.29230425 -19.390625 290.33007812 C-25.60074477 290.44289886 -31.79758179 290.6745004 -38 291 C-36.83139604 288.04221486 -35.65369481 285.19922484 -34.109375 282.41796875 C-33.55068726 281.40972046 -33.55068726 281.40972046 -32.98071289 280.38110352 C-32.57457764 279.65721436 -32.16844238 278.9333252 -31.75 278.1875 C-31.31743896 277.41269287 -30.88487793 276.63788574 -30.43920898 275.83959961 C-24.97714789 266.10645315 -19.31472757 256.4891038 -13.67236328 246.85986328 C-11.26778388 242.74785698 -8.8825999 238.62476827 -6.5 234.5 C-2.43578283 227.46793823 1.65308849 220.45055872 5.75 213.4375 C12.56591848 201.76562532 19.32327313 190.06049492 26.06933594 178.34814453 C28.06627117 174.88507299 30.06773242 171.42465217 32.0703125 167.96484375 C32.74556772 166.79738851 33.42077973 165.62990829 34.09594727 164.46240234 C35.36364232 162.27072993 36.63228769 160.07960678 37.90209961 157.88916016 C40.76022007 152.94450459 43.59364873 147.98656995 46.37109375 142.99609375 C46.85376709 142.13040771 47.33644043 141.26472168 47.83374023 140.37280273 C50.52111533 134.90522924 50.95656482 129.19644185 49.2109375 123.36328125 C47.59999588 119.15146823 46.23246575 116.15836911 43 113 C43 112.34 43 111.68 43 111 C34.68959752 106.72395398 26.13908893 104.09454922 16.8046875 106.5859375 C9.35792622 109.76906291 4.71743725 116.71008366 0 123 C0 82.41 0 41.82 0 0 Z " fill="#00AAF0" transform="translate(256,0)"/>
<path d="M0 0 C4.89268909 3.00414297 8.95162556 7.53769488 11.4921875 12.69140625 C12.26950709 14.65585399 12.26950709 14.65585399 14.3984375 15.47265625 C14.5840625 14.81265625 14.7696875 14.15265625 14.9609375 13.47265625 C18.32702006 6.4477883 23.49568275 1.85635956 30.3984375 -1.52734375 C31.0584375 -1.85734375 31.7184375 -2.18734375 32.3984375 -2.52734375 C39.4236226 -3.15180465 46.03703209 -2.75302609 52.3984375 0.47265625 C55.2109375 2.84765625 55.2109375 2.84765625 57.3984375 5.47265625 C58.0996875 6.23578125 58.8009375 6.99890625 59.5234375 7.78515625 C63.4514517 13.41530994 65.53338379 19.55181985 64.3984375 26.47265625 C61.8362231 34.75686449 57.36524494 42.15108909 53.0234375 49.59765625 C52.30748869 50.83676763 51.59208454 52.07619385 50.87719727 53.31591797 C48.72667107 57.04012545 46.56359062 60.75693941 44.3984375 64.47265625 C43.471521 66.0659375 43.471521 66.0659375 42.52587891 67.69140625 C39.66006667 72.61555858 36.78732927 77.53560379 33.91015625 82.453125 C30.12896799 88.92311078 26.38780395 95.41593687 22.6484375 101.91015625 C18.59473787 108.94876413 14.53099776 115.98002751 10.3984375 122.97265625 C4.32341053 133.25523493 -1.62026316 143.61375993 -7.58007812 153.96337891 C-10.72547943 159.42481715 -13.87602987 164.88328584 -17.02603149 170.34207153 C-18.63342187 173.1276822 -20.24052757 175.91345709 -21.84765625 178.69921875 C-22.76562364 180.29036537 -23.68359215 181.88151134 -24.6015625 183.47265625 C-23.95613495 183.41936157 -23.3107074 183.36606689 -22.64572144 183.31115723 C24.23138715 179.61094247 24.23138715 179.61094247 33.10449219 185.44140625 C38.26722354 190.65848214 40.25569649 197.05152886 42.23144531 203.98925781 C44.28834075 210.12896161 47.85709481 215.38484097 51.2734375 220.84765625 C52.46850748 222.84942969 53.65434523 224.85676254 54.828125 226.87109375 C55.32554199 227.71333496 55.82295898 228.55557617 56.33544922 229.42333984 C57.3984375 231.47265625 57.3984375 231.47265625 57.3984375 233.47265625 C32.14636042 233.58953778 6.89432397 233.67766819 -18.35796928 233.73171711 C-30.08346482 233.75748174 -41.80879213 233.79259919 -53.53417969 233.84985352 C-63.75587139 233.89974153 -73.97744123 233.93195992 -84.19925129 233.94309872 C-89.61000667 233.94960828 -95.02041348 233.96487166 -100.43105698 234.00130653 C-105.52823534 234.03535109 -110.62492294 234.04569205 -115.72220421 234.03819466 C-117.58859744 234.03956542 -119.45500781 234.04944727 -121.32130241 234.06868362 C-132.49967817 234.17820917 -141.06431518 233.909886 -150.0390625 226.4453125 C-150.5546875 225.81496094 -151.0703125 225.18460938 -151.6015625 224.53515625 C-152.1378125 223.90738281 -152.6740625 223.27960938 -153.2265625 222.6328125 C-157.38082062 216.10637858 -157.31639971 208.9509532 -156.6015625 201.47265625 C-154.87929152 194.8451831 -150.17418011 190.22254374 -144.6015625 186.47265625 C-138.13120442 182.83369702 -132.64666081 183.36622967 -125.37890625 183.83984375 C-101.28041958 186.3739931 -101.28041958 186.3739931 -78.87890625 180.37158203 C-73.65789375 174.84291713 -71.65097098 168.15141787 -69.68652344 160.93261719 C-67.91062474 155.26924266 -64.7974427 150.53643266 -61.6640625 145.53515625 C-60.49087044 143.54810913 -59.32423128 141.55717899 -58.1640625 139.5625 C-57.58011719 138.56589355 -56.99617188 137.56928711 -56.39453125 136.54248047 C-53.29719222 131.23938393 -50.2303985 125.91872138 -47.1640625 120.59765625 C-46.54660156 119.52620361 -45.92914063 118.45475098 -45.29296875 117.35083008 C-44.03632835 115.169834 -42.77981876 112.98876255 -41.5234375 110.80761719 C-38.89006176 106.23801446 -36.2529698 101.67056456 -33.61474609 97.10375977 C-32.33128486 94.87914717 -31.05029057 92.65310916 -29.77197266 90.42553711 C-27.16664045 85.88806257 -24.55562866 81.3620679 -21.8125 76.90625 C-21.41925537 76.25688477 -21.02601074 75.60751953 -20.62084961 74.93847656 C-19.63671501 73.32068455 -18.63381209 71.71434732 -17.62890625 70.109375 C-16.35476991 67.56474666 -16.35476991 67.56474666 -17.12109375 65.16015625 C-17.85392578 63.82984375 -17.85392578 63.82984375 -18.6015625 62.47265625 C-18.93728271 61.84012939 -19.27300293 61.20760254 -19.61889648 60.5559082 C-20.83540021 58.28264887 -22.08908478 56.03318712 -23.3515625 53.78515625 C-23.79822266 52.98368164 -24.24488281 52.18220703 -24.70507812 51.35644531 C-27.49894206 46.36509215 -30.37129361 41.43877602 -33.4453125 36.61328125 C-37.32862506 29.42390529 -38.03794067 20.99998489 -35.984375 13.09765625 C-33.03516248 6.41625443 -27.42356959 2.09269736 -21.2265625 -1.46484375 C-13.77191854 -3.6498256 -7.1175248 -3.13215997 0 0 Z " fill="#FEFEFF" transform="translate(242.6015625,107.52734375)"/>
<path d="M0 0 C2.98885268 2.77737346 5.01050908 5.43928991 6.9609375 9.015625 C7.78053955 10.50219604 7.78053955 10.50219604 8.61669922 12.01879883 C9.48705811 13.61824341 9.48705811 13.61824341 10.375 15.25 C11.63360283 17.53094971 12.89406605 19.81087373 14.15625 22.08984375 C14.47689423 22.66977585 14.79753845 23.24970795 15.12789917 23.84721375 C18.29019616 29.55366857 21.57039091 35.18765363 24.875 40.8125 C31.40482148 51.94473259 37.81906622 63.13979448 44.2109375 74.3515625 C44.85820801 75.42704346 45.50547852 76.50252441 46.17236328 77.6105957 C47.55482941 80.17441848 48.43844906 82.19481822 49.29248047 84.91088867 C50.76010384 89.05755281 52.22426176 92.51545011 56 95 C64.77940085 97.40814709 74.37950992 96.40666828 83.375 96.0625 C87.14160396 95.96575338 90.90694529 95.88938025 94.67446899 95.83995056 C97.01252865 95.80435359 99.3503917 95.73940329 101.68661499 95.64015198 C110.35955064 95.43397864 116.76247451 97.41440151 123.4375 103.0625 C124.2109375 104.0215625 124.2109375 104.0215625 125 105 C125.804375 105.9590625 125.804375 105.9590625 126.625 106.9375 C130.83568823 113.25353234 130.56539193 119.64078572 130 127 C128.18929757 133.49722636 124.02263877 139.52528975 118.21020508 143.10107422 C111.60274935 146.47390509 105.24855816 146.65718795 97.9375 146.75 C96.78572266 146.77964844 95.63394531 146.80929687 94.44726562 146.83984375 C91.63144257 146.90994723 88.81641885 146.96293765 86 147 C86.94359375 148.59714844 86.94359375 148.59714844 87.90625 150.2265625 C90.15917624 154.04376301 92.40316577 157.86614538 94.64404297 161.69042969 C95.50763734 163.16137005 96.37359478 164.63092745 97.24267578 166.09863281 C98.35587506 167.97864064 99.46017349 169.86360263 100.5625 171.75 C101.20316406 172.83796875 101.84382812 173.9259375 102.50390625 175.046875 C105.49708044 180.95507261 106.2151666 187.99127104 104.28125 194.37109375 C101.28132417 201.54430351 97.49617902 206.98374194 90.234375 210.24609375 C82.43077603 212.87912627 74.34535729 212.63717817 66.94140625 208.984375 C60.91117708 205.08177055 57.76863792 199.43514845 54.30078125 193.29638672 C52.78183833 190.61485948 51.23540273 187.95007081 49.6875 185.28515625 C46.77675389 180.26654838 43.88085168 175.23961098 40.99205017 170.20834351 C37.5037711 164.13365511 34.00210291 158.06672546 30.5 152 C29.24993888 149.83336859 27.999939 147.66670186 26.75 145.5 C26.13125 144.4275 25.5125 143.355 24.875 142.25 C4.25 106.5 4.25 106.5 2.37280273 103.24609375 C1.13023981 101.0923828 -0.11243489 98.93873633 -1.35522461 96.78515625 C-4.25314623 91.76315738 -7.15003349 86.74057193 -10.04275513 81.71557617 C-11.05947198 79.94954478 -12.07655658 78.18372569 -13.09375 76.41796875 C-14.36400873 74.21265845 -15.63359018 72.00695784 -16.90234375 69.80078125 C-17.48242188 68.79402344 -18.0625 67.78726563 -18.66015625 66.75 C-19.2133252 65.78449219 -19.76649414 64.81898438 -20.33642578 63.82421875 C-21.45288817 61.92882149 -22.60849318 60.05598563 -23.80029297 58.20703125 C-24.35990723 57.33433594 -24.91952148 56.46164063 -25.49609375 55.5625 C-26.00197021 54.80066406 -26.50784668 54.03882813 -27.02905273 53.25390625 C-28.29092691 50.32465746 -27.98237286 49.01053468 -27 46 C-26.12981406 44.18047359 -25.18617912 42.39514113 -24.19140625 40.640625 C-23.61366455 39.61477295 -23.03592285 38.5889209 -22.44067383 37.53198242 C-21.82087646 36.44892822 -21.2010791 35.36587402 -20.5625 34.25 C-19.93303467 33.13923096 -19.30356934 32.02846191 -18.6550293 30.8840332 C-14.9120605 24.29684584 -11.13692602 17.72775909 -7.3125 11.1875 C-6.91554932 10.5078418 -6.51859863 9.82818359 -6.10961914 9.12792969 C-4.22974017 5.94691089 -2.29804944 2.89627184 0 0 Z " fill="#F0F1F1" transform="translate(296,195)"/>
<path d="M0 0 C3.97098927 1.50770181 6.38315076 3.52228091 9.125 6.8125 C9.82625 7.575625 10.5275 8.33875 11.25 9.125 C15.1780142 14.75515369 17.25994629 20.8916636 16.125 27.8125 C13.5627856 36.09670824 9.09180744 43.49093284 4.75 50.9375 C4.03405119 52.17661138 3.31864704 53.4160376 2.60375977 54.65576172 C0.45323357 58.3799692 -1.70984688 62.09678316 -3.875 65.8125 C-4.49294434 66.8746875 -5.11088867 67.936875 -5.74755859 69.03125 C-8.03661765 72.96440213 -10.32775177 76.89629456 -12.62744141 80.82324219 C-15.77985535 86.20699811 -18.90948367 91.60285589 -22.01171875 97.015625 C-22.35634659 97.6161972 -22.70097443 98.21676941 -23.05604553 98.83554077 C-24.73387723 101.7595265 -26.40869478 104.68510937 -28.07836914 107.61376953 C-28.97543579 109.17780518 -28.97543579 109.17780518 -29.890625 110.7734375 C-30.41946289 111.69946777 -30.94830078 112.62549805 -31.49316406 113.57958984 C-32.875 115.8125 -32.875 115.8125 -34.875 117.8125 C-35.205 84.4825 -35.535 51.1525 -35.875 16.8125 C-35.215 16.8125 -34.555 16.8125 -33.875 16.8125 C-33.689375 16.1525 -33.50375 15.4925 -33.3125 14.8125 C-29.94641744 7.78763205 -24.77775475 3.19620331 -17.875 -0.1875 C-12.71094643 -2.76952679 -5.36287451 -1.5953425 0 0 Z " fill="#F0F1F2" transform="translate(290.875,106.1875)"/>
<path d="M0 0 C1.9204438 0.01697937 1.9204438 0.01697937 3.87968445 0.03430176 C7.27245572 0.06474961 10.66245665 0.14323346 14.05413818 0.23193359 C17.51943479 0.31399331 20.98518231 0.35035518 24.45117188 0.390625 C31.24338552 0.47880492 38.03355112 0.61265293 44.82421875 0.78125 C40.67067043 8.40473752 36.50161546 16.01786859 32.26171875 23.59375 C31.71064453 24.59083984 31.15957031 25.58792969 30.59179688 26.61523438 C25.27093687 36.10189225 20.75486811 41.98233391 10.57421875 46.09375 C3.30430061 47.42656833 -3.9034683 46.76809017 -10.39453125 43.0703125 C-16.04121721 38.98389503 -19.65656493 33.57974303 -21.17578125 26.78125 C-21.99608669 20.38970343 -20.91107361 14.59724707 -18.17578125 8.78125 C-17.93081909 8.13438736 -17.68585693 7.48752472 -17.43347168 6.82106018 C-13.70639948 -1.12079507 -7.99009922 -0.26544427 0 0 Z " fill="#FCFEFF" transform="translate(132.17578125,360.21875)"/>
<path d="M0 0 C5.28 0 10.56 0 16 0 C19.56316434 3.79891245 21.05445646 5.95512555 23.125 10.5 C24.25317398 12.6911528 25.38344879 14.88122498 26.515625 17.0703125 C27.07830078 18.20758789 27.64097656 19.34486328 28.22070312 20.51660156 C31.17106398 26.29263733 34.54224927 31.81391224 37.875 37.375 C39.0656884 39.37938278 40.25109492 41.3869185 41.4296875 43.3984375 C41.92710449 44.24067871 42.42452148 45.08291992 42.93701172 45.95068359 C44 48 44 48 44 50 C29.48 50 14.96 50 0 50 C0 33.5 0 17 0 0 Z " fill="#F1F1F2" transform="translate(256,291)"/>
<path d="M0 0 C0.33 0 0.66 0 1 0 C1 21.78 1 43.56 1 66 C-11.54 66 -24.08 66 -37 66 C-35.76540872 62.9135218 -34.68785459 60.26074518 -33.109375 57.41796875 C-32.7369165 56.74580322 -32.36445801 56.0736377 -31.98071289 55.38110352 C-31.57457764 54.65721436 -31.16844238 53.9333252 -30.75 53.1875 C-30.31743896 52.41269287 -29.88487793 51.63788574 -29.43920898 50.83959961 C-24.56528374 42.15448469 -19.53005393 33.56333352 -14.4921875 24.97265625 C-12.20737615 21.0745529 -9.94126769 17.1667121 -7.6953125 13.24609375 C-7.18605225 12.35849365 -6.67679199 11.47089355 -6.15209961 10.55639648 C-5.19420602 8.88443387 -4.23917012 7.21082997 -3.28735352 5.53540039 C-2.21923516 3.67411472 -1.11394621 1.834226 0 0 Z " fill="#01C3FF" transform="translate(255,225)"/>
</svg>
