<?xml version="1.0" encoding="UTF-8"?>
<svg version="1.1" xmlns="http://www.w3.org/2000/svg" width="512" height="512">
<path d="M0 0 C3.48209317 0.00478262 6.96413382 -0.00782269 10.44620943 -0.01801741 C17.24734619 -0.03511307 24.04839018 -0.03606464 30.84954283 -0.03080451 C36.38484915 -0.02674369 41.92012832 -0.02822891 47.45543337 -0.03355277 C48.24679511 -0.03430119 49.03815685 -0.03504961 49.85349925 -0.03582071 C51.46177608 -0.03735238 53.07005291 -0.03889073 54.67832974 -0.04043568 C69.72213716 -0.05412771 84.76589241 -0.04874665 99.80969861 -0.03725047 C113.53012424 -0.02732494 127.25041487 -0.04025286 140.97081968 -0.06418466 C155.10563188 -0.08865088 169.24038141 -0.09816492 183.37521434 -0.09153193 C191.29210524 -0.08805592 199.2088925 -0.09016367 207.12576723 -0.10778296 C213.86618255 -0.12259964 220.60642124 -0.12301839 227.34683344 -0.10571205 C230.77628414 -0.09727601 234.20542062 -0.09486733 237.63485384 -0.1103636 C256.2259315 -0.17678101 274.3338109 0.71495553 291.83774996 7.59433305 C292.60812593 7.88912553 293.37850191 8.18391801 294.17222261 8.4876436 C325.37503496 20.86426764 350.65048267 45.68840576 364.20884371 76.31210649 C365.74160768 79.96519395 367.11248745 83.66083623 368.40024996 87.40683305 C368.63075045 88.06925004 368.86125093 88.73166704 369.09873629 89.41415727 C374.33453998 105.60034731 374.53369363 121.45944698 374.49458301 138.31908309 C374.48980039 141.80117627 374.5024057 145.28321691 374.51260042 148.76529253 C374.52969608 155.56642928 374.53064765 162.36747328 374.52538752 169.16862592 C374.5213267 174.70393225 374.52281192 180.23921141 374.52813578 185.77451646 C374.5288842 186.5658782 374.52963262 187.35723994 374.53040372 188.17258234 C374.53193539 189.78085918 374.53347374 191.38913601 374.53501869 192.99741283 C374.54871072 208.04122025 374.54332966 223.08497551 374.53183348 238.12878171 C374.52190795 251.84920733 374.53483587 265.56949796 374.55876767 279.28990278 C374.58323389 293.42471498 374.59274793 307.55946451 374.58611494 321.69429743 C374.58263893 329.61118834 374.58474668 337.52797559 374.60236597 345.44485033 C374.61718265 352.18526564 374.6176014 358.92550433 374.60029506 365.66591653 C374.59185902 369.09536723 374.58945034 372.52450372 374.60494661 375.95393693 C374.67136403 394.5450146 373.77962748 412.652894 366.90024996 430.15683305 C366.60545748 430.92720903 366.310665 431.69758501 366.00693941 432.49130571 C356.13486544 457.37987552 337.96730112 479.44357757 315.08774996 493.40683305 C314.01524996 494.09003618 312.94274996 494.7732393 311.83774996 495.47714555 C305.45004956 499.3659539 298.94823783 502.48484403 291.96274996 505.15683305 C291.27874117 505.42640825 290.59473238 505.69598344 289.88999605 505.97372758 C271.57496724 512.61625088 252.95550458 512.98750368 233.69712496 512.92441118 C230.88921006 512.92764626 228.08132106 512.93682879 225.2734189 512.94565141 C218.48616735 512.96329401 211.69909425 512.95966107 204.91183615 512.94800085 C199.38806192 512.93890996 193.86433716 512.93776673 188.34055758 512.94209611 C187.54973779 512.94270905 186.75891801 512.94332198 185.944134 512.94395348 C184.33682329 512.94523258 182.7295126 512.94652944 181.12220192 512.94784385 C166.10506253 512.95920786 151.08802133 512.94620193 136.07089806 512.92464238 C123.22881 512.90677521 110.38686666 512.9098805 97.54478121 512.92831743 C82.57569806 512.94979842 67.60670065 512.95810962 52.63760424 512.94586837 C51.03671695 512.94459438 49.43582965 512.9433369 47.83494234 512.94209611 C47.04759258 512.94147901 46.26024282 512.94086191 45.44903398 512.94022611 C39.94182532 512.93679481 34.43467175 512.94255319 28.92747164 512.95201433 C22.20178323 512.96331652 15.47628117 512.96002387 8.75061369 512.93889135 C5.32917146 512.92848977 1.90829014 512.92627884 -1.51318693 512.93748796 C-22.88729031 513.00100847 -42.22548579 511.05828192 -61.91225004 502.40683305 C-62.56644926 502.12356157 -63.22064848 501.84029008 -63.89467192 501.54843462 C-93.98974488 488.26256094 -117.69643593 462.6852702 -129.78334379 432.21054399 C-130.63388989 429.95385314 -131.44074075 427.68745259 -132.22475004 425.40683305 C-132.57050077 424.41320756 -132.57050077 424.41320756 -132.92323637 423.39950883 C-138.15904006 407.2133188 -138.35819372 391.35421913 -138.31908309 374.49458301 C-138.31430048 371.01248984 -138.32690578 367.53044919 -138.33710051 364.04837358 C-138.35419617 357.24723682 -138.35514773 350.44619283 -138.3498876 343.64504018 C-138.34582678 338.10973386 -138.347312 332.5744547 -138.35263586 327.03914964 C-138.35338428 326.2477879 -138.3541327 325.45642616 -138.35490381 324.64108376 C-138.35643548 323.03280693 -138.35797382 321.4245301 -138.35951877 319.81625327 C-138.3732108 304.77244585 -138.36782974 289.7286906 -138.35633356 274.6848844 C-138.34640804 260.96445877 -138.35933595 247.24416814 -138.38326775 233.52376333 C-138.40773398 219.38895113 -138.41724801 205.2542016 -138.41061503 191.11936867 C-138.40713902 183.20247777 -138.40924677 175.28569051 -138.42686605 167.36881578 C-138.44168273 160.62840046 -138.44210148 153.88816178 -138.42479514 147.14774957 C-138.41635911 143.71829887 -138.41395042 140.28916239 -138.4294467 136.85972917 C-138.49586411 118.26865151 -137.60412757 100.16077211 -130.72475004 82.65683305 C-130.42995756 81.88645708 -130.13516508 81.1160811 -129.8314395 80.3223604 C-117.45481545 49.11954805 -92.63067734 23.84410034 -62.0069766 10.2857393 C-58.35388915 8.75297533 -54.65824686 7.38209556 -50.91225004 6.09433305 C-49.91862455 5.74858232 -49.91862455 5.74858232 -48.90492582 5.39584672 C-32.71873579 0.16004303 -16.85963612 -0.03911062 0 0 Z " fill="#2D2D2D" transform="translate(137.91225004196167,-0.40683305263519287)"/>
<path d="M0 0 C2.75145505 -0.00572257 5.50289042 -0.01584868 8.2543335 -0.02566528 C14.91843325 -0.04658794 21.58244576 -0.05126782 28.24657451 -0.0494774 C33.66938965 -0.04816336 39.09217786 -0.05200641 44.51498795 -0.05940247 C46.08437955 -0.06150193 47.65377116 -0.06359953 49.22316277 -0.06569529 C50.3952924 -0.06726058 50.3952924 -0.06726058 51.59110142 -0.06885749 C66.32677186 -0.08770594 81.06239237 -0.08672597 95.79806985 -0.07988816 C109.24181241 -0.07431378 122.68536436 -0.0951433 136.1290624 -0.12824863 C149.97684416 -0.16208099 163.82453483 -0.17714232 177.67235863 -0.1725316 C185.42936719 -0.17029691 193.1861995 -0.17538283 200.94317245 -0.20042419 C207.5460644 -0.22156096 214.14868339 -0.22490769 220.75158702 -0.2061246 C224.11211828 -0.19704273 227.47173155 -0.19836137 230.83228683 -0.21648026 C255.54234691 -0.34043658 276.67543702 2.74954012 294.93408203 20.74804688 C295.80806641 21.62976563 296.68205078 22.51148437 297.58251953 23.41992188 C298.25025391 24.05414062 298.91798828 24.68835938 299.60595703 25.34179688 C312.28057857 38.30317455 316.90344333 57.90688893 316.96533203 75.4465332 C316.57607403 94.49381902 307.96829261 111.17310146 294.58251953 124.41992188 C293.91994141 125.11601563 293.25736328 125.81210938 292.57470703 126.52929688 C279.90951189 138.95370884 261.93037788 144.61209869 244.57324219 144.51416016 C242.51681533 144.5113749 240.46038832 144.50870485 238.40396118 144.50613403 C237.3194228 144.50308384 236.23488441 144.50003365 235.11748123 144.49689102 C229.3557947 144.48551319 223.59418556 144.50605209 217.83251953 144.52148438 C210.50913043 144.53977845 203.1861638 144.5484263 195.86279297 144.51953125 C189.93575267 144.4969834 184.00962757 144.50843197 178.08265305 144.54253769 C175.82848757 144.54930083 173.57424847 144.54364387 171.32014847 144.52518082 C168.16260287 144.50097816 165.00802909 144.5202524 161.85058594 144.54931641 C160.46317955 144.52323555 160.46317955 144.52323555 159.04774475 144.49662781 C152.76872211 144.61651412 149.69901036 146.26790467 145.28700829 150.73121452 C142.94348632 153.05303845 140.36492963 154.3396635 137.39501953 155.73242188 C136.41146484 156.20292969 135.42791016 156.6734375 134.41455078 157.15820312 C133.47998047 157.57457031 132.54541016 157.9909375 131.58251953 158.41992188 C130.76396484 158.78730469 129.94541016 159.1546875 129.10205078 159.53320312 C126.1966506 160.55572381 123.52034248 160.98019571 120.45751953 161.29492188 C119.42369141 161.41609375 118.38986328 161.53726563 117.32470703 161.66210938 C114.58251953 161.41992188 114.58251953 161.41992188 112.73095703 159.70898438 C111.46823029 157.19212087 111.23683589 155.71388433 111.33251953 152.91992188 C111.34798828 152.16710937 111.36345703 151.41429687 111.37939453 150.63867188 C111.57787343 148.47067156 112.03232557 146.52146433 112.58251953 144.41992188 C83.63057823 145.59162173 55.28496071 147.1457851 27.58251953 156.41992188 C26.21571045 156.8767334 26.21571045 156.8767334 24.82128906 157.34277344 C-6.27286959 167.89535689 -33.80624858 183.63077791 -58.41748047 205.41992188 C-59.77486328 206.61101562 -59.77486328 206.61101562 -61.15966797 207.82617188 C-70.10166489 215.76253389 -77.99513159 224.0397581 -85.41748047 233.41992188 C-86.59117188 234.86818359 -86.59117188 234.86818359 -87.78857422 236.34570312 C-117.70634045 274.01815436 -132.38843086 318.19384432 -138.41748047 365.41992188 C-138.74748047 365.41992188 -139.07748047 365.41992188 -139.41748047 365.41992188 C-139.50895354 333.52967363 -139.5796336 301.63946309 -139.62174179 269.74911408 C-139.62674394 265.97450683 -139.63192129 262.19989983 -139.63720703 258.42529297 C-139.63825627 257.67391364 -139.63930551 256.92253431 -139.64038655 256.14838591 C-139.65773826 244.02095311 -139.6892467 231.89359703 -139.72609165 219.76620957 C-139.76364748 207.29982098 -139.78574707 194.83347226 -139.79383445 182.36702943 C-139.79929207 174.68962657 -139.81645712 167.01244066 -139.84914634 159.33510467 C-139.87301599 153.42393039 -139.87526376 147.51286428 -139.86991119 141.6016407 C-139.87100219 139.19441719 -139.87883098 136.78718465 -139.89430237 134.3800106 C-140.00246892 116.66590845 -138.77874115 99.33263698 -132.22998047 82.66992188 C-131.93518799 81.8995459 -131.64039551 81.12916992 -131.33666992 80.33544922 C-118.96004588 49.13263688 -94.13590776 23.85718916 -63.51220703 10.29882812 C-59.85911957 8.76606416 -56.16347729 7.39518438 -52.41748047 6.10742188 C-51.42385498 5.76167114 -51.42385498 5.76167114 -50.41015625 5.40893555 C-33.74107545 0.01692949 -17.35032038 -0.02199714 0 0 Z " fill="#454545" transform="translate(139.41748046875,-0.419921875)"/>
<path d="M0 0 C0.33 0 0.66 0 1 0 C1.09176643 33.41897614 1.16214537 66.83792067 1.20426132 100.25699504 C1.20926351 104.21185757 1.21444086 108.16671986 1.21972656 112.12158203 C1.2207758 112.90884874 1.22182505 113.69611544 1.22290608 114.50723872 C1.24026142 127.21665701 1.27177191 139.92600215 1.30861118 152.6353772 C1.3461568 165.69841256 1.36826447 178.76140989 1.37635398 191.82449698 C1.38181368 199.87040902 1.39899039 207.91611421 1.43166587 215.96196249 C1.4555201 222.1551678 1.45778581 228.34821889 1.45243073 234.54146385 C1.45352245 237.06479087 1.46136116 239.58812644 1.4768219 242.11140633 C1.58188305 260.15793653 0.48678451 277.76790114 -6.1875 294.75 C-6.48229248 295.52037598 -6.77708496 296.29075195 -7.08081055 297.08447266 C-16.95288452 321.97304247 -35.12044884 344.03674451 -58 358 C-59.0725 358.68320312 -60.145 359.36640625 -61.25 360.0703125 C-88.21407953 376.48594425 -122.4082633 381.9987153 -153.24609375 374.96484375 C-154.48488281 374.64644531 -155.72367187 374.32804687 -157 374 C-157.6408252 373.83902832 -158.28165039 373.67805664 -158.94189453 373.51220703 C-180.93299254 367.83303734 -199.66710547 356.64188745 -216 341 C-216.845625 340.195625 -217.69125 339.39125 -218.5625 338.5625 C-219.366875 337.716875 -220.17125 336.87125 -221 336 C-221.96292969 335.02933594 -221.96292969 335.02933594 -222.9453125 334.0390625 C-247.36313409 308.43012766 -255.77837092 274.27306709 -255.04760742 239.93334961 C-255.03189697 239.29534424 -255.01618652 238.65733887 -255 238 C-244.16774961 237.36176593 -235.13780051 239.18232465 -225.25 243.625 C-214.87481255 248.01450238 -201.92244129 248.96622405 -191.125 245.5 C-168.4288371 235.78278055 -152.53096287 206.92414313 -142.99609375 185.21875 C-141.39319957 180.03920174 -141.28631147 174.86543821 -143.63671875 169.875 C-146.17703677 166.38115287 -149.70022753 163.95662553 -153.08203125 161.31640625 C-160.76446944 155.21776388 -166.48382619 148.71491688 -171 140 C-171.35191406 139.32453125 -171.70382812 138.6490625 -172.06640625 137.953125 C-173.20346031 135.56684114 -174.03078871 133.6032307 -173.89453125 130.93359375 C-173 129 -173 129 -170.734375 127.83984375 C-169.25710938 127.39318359 -169.25710938 127.39318359 -167.75 126.9375 C-166.31914062 126.48697266 -166.31914062 126.48697266 -164.859375 126.02734375 C-163.58578125 125.68832031 -162.3121875 125.34929687 -161 125 C-160.09870361 124.75137207 -159.19740723 124.50274414 -158.26879883 124.24658203 C-149.25842974 121.93601542 -140.42705699 121.35524842 -131.1875 121 C-96.7604164 119.66648837 -62.41753824 109.52742635 -38 84 C-37.34 84 -36.68 84 -36 84 C-35.62875 83.14148438 -35.62875 83.14148438 -35.25 82.265625 C-33.806706 79.64965463 -32.0900239 77.88481013 -30 75.75 C-11.22433539 55.19336399 -1.68608234 27.44244354 0 0 Z " fill="#141414" transform="translate(511,135)"/>
<path d="M0 0 C1.06734375 0.35191406 2.1346875 0.70382813 3.234375 1.06640625 C12.51632521 4.3673815 24.05474935 8.96212813 29 18 C29.89177163 22.92564488 30.1316481 27.64205686 27.92578125 32.23828125 C25.86208697 35.05960575 23.49478433 37.48922264 21.06640625 39.99609375 C10.11958497 51.62575768 5.63872229 64.64533849 5.75 80.4375 C5.74226562 81.53126953 5.73453125 82.62503906 5.7265625 83.75195312 C5.76688768 100.49698327 12.16145631 115.14931423 23.8125 127.125 C27.02817827 130.26781547 30.30490129 133.04292081 33.9375 135.6875 C38.06421754 138.80076571 39.65785897 140.98934016 41 146 C41.39997766 151.46198997 40.38188609 155.53044989 38.125 160.4375 C37.81473877 161.12561768 37.50447754 161.81373535 37.18481445 162.52270508 C31.19163231 175.38736794 23.05121912 187.10982473 14 198 C13.56042969 198.53141602 13.12085938 199.06283203 12.66796875 199.61035156 C5.02209201 208.72701295 -3.07784065 216.2585409 -15 219 C-28.65343814 220.09170793 -39.67765423 217.51139522 -52.21484375 212.140625 C-70.39556805 204.69494268 -88.7032491 210.462352 -106.19116211 216.98095703 C-116.59759249 220.82036831 -126.70225892 221.46077264 -137 217 C-157.62195591 205.1713212 -171.20321835 182.51794408 -182 162 C-182.31710938 161.39994141 -182.63421875 160.79988281 -182.9609375 160.18164062 C-193.49023113 139.91050054 -200.43377658 115.87542609 -201 93 C-201.03109863 92.15276367 -201.06219727 91.30552734 -201.09423828 90.43261719 C-201.92293614 66.42120089 -197.18378894 45.77032845 -183 26 C-182.5771875 25.39285156 -182.154375 24.78570312 -181.71875 24.16015625 C-171.29486913 10.65360329 -153.96223794 1.23486861 -137.375 -1.625 C-121.66782562 -3.29275018 -108.61120573 -0.58722041 -94.19921875 5.34375 C-78.68739913 11.61718438 -67.33338653 8.57410767 -52.33837891 2.87207031 C-49.14892551 1.682602 -45.93780136 0.63720458 -42.6875 -0.375 C-41.74261719 -0.67148438 -40.79773438 -0.96796875 -39.82421875 -1.2734375 C-27.01276251 -4.56933081 -12.49637298 -4.2508154 0 0 Z " fill="#FEFEFE" transform="translate(329,164)"/>
<path d="M0 0 C2.67583812 2.67583812 2.32978061 4.07285617 2.375 7.8125 C2.1062026 24.04786284 -5.49038884 37.17668745 -16 49 C-16.639375 49.73476562 -17.27875 50.46953125 -17.9375 51.2265625 C-27.49731719 61.54319855 -39.65248446 66.75002068 -53.36328125 68.27734375 C-56 68 -56 68 -57.83203125 66.25390625 C-60.99583603 60.14850372 -58.82660588 52.54114256 -57.08984375 46.234375 C-50.78840259 27.53332381 -38.90052475 14.25711723 -21.4609375 5.15234375 C-14.13736843 1.6558768 -8.20671423 -0.46453099 0 0 Z " fill="#FDFDFD" transform="translate(310,93)"/>
</svg>
