<?xml version="1.0" encoding="UTF-8"?>
<svg version="1.1" xmlns="http://www.w3.org/2000/svg" width="1080" height="1080">
<path d="M0 0 C25.22864258 -0.61936111 51.2573616 10.83308232 70.66616631 26.50350952 C71.54184438 27.20978863 72.41752246 27.91606773 73.31973624 28.64374924 C74.83789258 29.87390196 74.83789258 29.87390196 76.38671875 31.12890625 C77.5814104 32.09405845 78.77615183 33.05914904 79.97093415 34.024189 C144.33020404 86.06533311 206.84674137 140.10814456 276.8446781 204.73694915 C279.28532697 206.99522029 281.72759248 209.25172028 284.17142755 211.50654298 C343.38378374 266.14266941 402.05950111 322.73389453 511.61469412 583.97714961 C512.75421329 615.93118675 511.16858597 647.70386489 508.82421875 679.56640625 C508.65000468 681.99902788 508.47601321 684.43166546 508.30224323 686.86431885 C507.0896204 703.6392267 505.66165937 720.38901367 504.05712891 737.13085938 C503.95628761 738.19451442 503.85544631 739.25816946 503.75154921 740.35405648 C499.56327477 784.13436908 491.13409432 826.70933949 483.38671875 870.12890625 C421.67671875 870.12890625 359.96671875 870.12890625 296.38671875 870.12890625 C296.38671875 932.16890625 296.38671875 994.20890625 296.38671875 1058.12890625 C197.62152562 1075.07739096 197.62152562 1075.07739096 160.23901367 1078.49584961 C159.09842077 1078.60128516 157.95782788 1078.70672072 156.78267156 1078.81535129 C139.59341017 1080.39527093 122.39233081 1081.74868303 105.17155689 1082.93451041 C102.69515226 1083.10541859 100.21890333 1083.27859827 97.74281842 1083.45407754 C0.00453501 1090.37766818 -104.32172772 1090.3146778 -236.57959976 991.98192564 C-283.62476492 950.94738257 -327.02024255 906.26027466 -369.26729254 860.36688849 C-371.4829743 857.96150844 -373.70165641 855.55890612 -375.92033286 853.15628859 C-429.53088227 795.09418004 -481.31577481 735.59442378 -531.02778625 674.15623474 C-531.65358156 673.3839612 -532.27937687 672.61168766 -532.92413567 671.81601189 C-554.91423938 644.63829746 -554.91423938 644.63829746 -560.42578125 633.81640625 C-560.78559082 633.12111816 -561.14540039 632.42583008 -561.51611328 631.70947266 C-565.4626725 623.81811687 -568.24364315 615.61221065 -570.61328125 607.12890625 C-570.95359375 605.93265625 -571.29390625 604.73640625 -571.64453125 603.50390625 C-576.01703166 585.36612676 -574.75887203 566.63226565 -568.61328125 549.12890625 C-568.35579102 548.38382813 -568.09830078 547.63875 -567.83300781 546.87109375 C-562.56212637 531.99762467 -555.32967859 517.91398362 -548.38047791 503.77392578 C-545.52105727 497.95345641 -542.71466106 492.10849942 -539.92578125 486.25390625 C-539.04572662 484.41008288 -538.16551867 482.56633268 -537.28515625 480.72265625 C-536.63256836 479.35560547 -536.63256836 479.35560547 -535.96679688 477.9609375 C-533.54272311 472.88892169 -531.10913902 467.82147286 -528.67578125 462.75390625 C-528.17667236 461.71443848 -527.67756348 460.6749707 -527.16333008 459.60400391 C-526.15206277 457.49802548 -525.14075081 455.39206851 -524.12939453 453.28613281 C-521.62333217 448.0673891 -519.11835829 442.84812299 -516.61328125 437.62890625 C-515.61328654 435.54557038 -514.61328654 433.46223704 -513.61328125 431.37890625 C-513.11828125 430.34765625 -512.62328125 429.31640625 -512.11328125 428.25390625 C-459.61328125 318.87890625 -459.61328125 318.87890625 -458.11425781 315.75610352 C-457.11083339 313.66552717 -456.10757911 311.57486916 -455.10449219 309.48413086 C-452.65825015 304.38594366 -450.20940795 299.28904699 -447.75390625 294.1953125 C-443.46634887 285.2935267 -439.19280695 276.38618796 -435.00390625 267.4375 C-434.53347649 266.43277145 -434.53347649 266.43277145 -434.05354309 265.40774536 C-433.73463608 264.72662689 -433.41572906 264.04550842 -433.0871582 263.34375 C-425.45014025 247.03422646 -417.63574021 230.81828376 -409.703125 214.65039062 C-409.29944199 213.82675522 -408.89575897 213.00311981 -408.47984314 212.15452576 C-407.74568912 210.65722906 -407.01048318 209.16044714 -406.2736969 207.66444397 C-405.92500046 206.95348068 -405.57630402 206.2425174 -405.21704102 205.51000977 C-404.82120158 204.75814738 -404.42536215 204.006285 -404.01752758 203.23163891 C-402.89862531 200.7593842 -402.18792241 198.64872304 -401.4973793 196.05858994 C-398.04840915 184.9378941 -392.0222288 179.0601775 -381.92798399 173.5947231 C-376.17968371 170.57038167 -370.36110005 167.70651685 -364.50724065 164.89293444 C-360.418461 162.91167974 -356.36382049 160.86261566 -352.30445862 158.82196045 C-345.27908894 155.30170235 -338.23387571 151.82427455 -331.17305565 148.37570763 C-320.95167716 143.38340657 -310.76334547 138.32651524 -300.581664 133.25383768 C-284.04125105 125.01530791 -267.47565179 116.8288173 -250.89331055 108.67504883 C-234.82347139 100.77314488 -218.76593937 92.84707854 -202.72436523 84.88793945 C-201.73585806 84.39749536 -200.74735089 83.90705126 -199.72888895 83.40174522 C-194.7677373 80.94009921 -189.80682629 78.47796869 -184.84603727 76.01559198 C-150.65708304 59.04588782 -116.44330229 42.12708444 -82.2024231 25.2624054 C-81.47078346 24.90201097 -80.73914382 24.54161654 -79.98533328 24.17030107 C-76.61118466 22.50825403 -73.23688143 20.84652364 -69.86211842 19.18572444 C-68.0894238 18.31279033 -68.0894238 18.31279033 -66.28091717 17.42222118 C-64.6057213 16.59761066 -64.6057213 16.59761066 -62.8966831 15.75634134 C-58.64933321 13.65112043 -54.42142705 11.50804215 -50.19822961 9.35481101 C-46.45886904 7.58142938 -42.6771447 6.39793229 -38.67578125 5.37890625 C-37.90782227 5.17555664 -37.13986328 4.97220703 -36.34863281 4.76269531 C-24.35824832 1.67630932 -12.33853673 0.60862737 0 0 Z " fill="#02579B" transform="translate(583.61328125,9.87109375)"/>
<path d="M0 0 C4.14782925 1.58571421 6.63485176 4.63018856 9.50310981 7.87024474 C10.57817985 9.05917685 11.65505136 10.24648214 12.73358975 11.43226883 C13.27902635 12.03215365 13.82446295 12.63203846 14.38642793 13.25010161 C18.76338204 17.99685269 23.38017901 22.51663811 27.950243 27.07608414 C29.10817693 28.23506437 30.26589215 29.39426316 31.42341173 30.55365723 C34.57971656 33.71382357 37.73908446 36.87091136 40.89899958 40.02746714 C44.34560581 43.47152169 47.78929469 46.91849134 51.2333678 50.36507869 C57.2614206 56.39673348 63.29131911 62.42653809 69.32245064 68.45511436 C78.29051313 77.41938762 87.25570715 86.38652557 96.2203482 95.35422024 C112.23003459 111.36916718 128.24257474 127.38125836 144.25633674 143.39212986 C158.26341182 157.39668903 172.26955665 171.4021777 186.27477646 185.40859222 C187.20390002 186.33779217 188.13302359 187.26699212 189.09030241 188.22434965 C192.86183007 191.99618864 196.63335449 195.76803086 200.4048725 199.5398795 C210.94619609 210.08211994 221.48769275 220.62418731 232.02932549 231.16611862 C232.74927673 231.88609034 232.74927673 231.88609034 233.48377245 232.62060694 C248.77001554 247.9072591 264.05702591 263.19314372 279.34456062 278.47850418 C279.84018583 278.97405914 280.33581104 279.4696141 280.84645519 279.98018588 C288.89478991 288.02737569 296.94316191 296.07452821 304.99153707 304.12167758 C336.93888435 336.06416439 368.88368359 368.00919716 400.82617188 399.95654297 C408.88239106 408.01398332 416.93861531 416.07141861 424.99487495 424.12881851 C425.49091178 424.62492579 425.98694861 425.12103306 426.49801686 425.63217389 C441.77757498 440.91388719 457.05775285 456.19498056 472.33860588 471.47539902 C472.81808486 471.95486441 473.29756384 472.4343298 473.79157248 472.92832445 C484.31509924 483.45153878 494.83878654 493.97459255 505.36261876 504.4975014 C509.59621349 508.730726 513.82979736 512.96396146 518.0633812 517.19719696 C518.98958232 518.12331901 519.91578344 519.04944105 520.87005126 520.0036274 C534.87734334 534.00978038 548.88339804 548.01716992 562.8888588 562.02515411 C578.79962847 577.93877621 594.71216998 593.85062416 610.62708552 609.7601001 C619.54210942 618.67217771 628.45574132 627.58564232 637.36741214 636.50107289 C643.30929071 642.44518265 649.25296483 648.38749282 655.1981447 654.32830068 C658.59225989 657.72002208 661.98555694 661.11255166 665.37669148 664.50725344 C668.45535767 667.58912538 671.53627324 670.66872903 674.61907884 673.74646015 C675.73292233 674.85928799 676.84591051 675.97297266 677.95798303 677.08757027 C679.45735787 678.59011049 680.95972666 680.08958945 682.46293938 681.58828855 C683.29724653 682.42252794 684.13155369 683.25676733 684.99114288 684.11628671 C686.86132985 686.04965685 686.86132985 686.04965685 689 687 C689 749.04 689 811.08 689 875 C582.8488147 884.55107099 582.8488147 884.55107099 543.96362305 886.4777832 C542.77701143 886.5371922 541.59039981 886.5966012 540.36783026 886.65781046 C522.56928403 887.54405526 504.76723137 888.30814292 486.95934814 888.97997433 C484.40755089 889.07649037 481.85580152 889.17428107 479.30410248 889.27335972 C251.18009268 898.13046718 251.18009268 898.13046718 157.03957176 813.67395568 C140.41348175 798.23515061 125.20186977 781.54824764 110.43299711 764.34533727 C108.68207159 762.30617798 106.92673951 760.27087898 105.17081928 758.23602009 C74.2462093 722.34016159 44.33922618 684.75893139 20 644 C18.76044381 642.36701946 17.50971811 640.74247806 16.25 639.125 C3.44034677 621.48817965 -0.18420731 600.98062206 -0.12304783 579.55527306 C-0.12420167 578.54759414 -0.12535552 577.53991522 -0.12654433 576.50170058 C-0.12918563 573.13404127 -0.12470937 569.76643003 -0.12025452 566.39877319 C-0.12069073 563.95651031 -0.12156655 561.51424747 -0.12284368 559.07198489 C-0.12461239 553.7668018 -0.12328359 548.46163301 -0.11920547 543.15645218 C-0.11315841 535.26790337 -0.11287079 527.37936162 -0.11374746 519.49081092 C-0.11505998 506.21957345 -0.1117252 492.94834097 -0.10573006 479.67710495 C-0.09981044 466.53935089 -0.09596359 453.40159892 -0.09487724 440.26384354 C-0.0948085 439.44658633 -0.09473976 438.62932913 -0.09466894 437.78730656 C-0.0943306 433.63676964 -0.09402922 429.48623273 -0.09374207 425.33569582 C-0.09164237 395.94726585 -0.08490701 366.5588386 -0.07543945 337.17041016 C-0.06625321 308.62223322 -0.05917048 280.07405703 -0.05493164 251.52587891 C-0.05480011 250.64570118 -0.05466859 249.76552345 -0.05453308 248.85867367 C-0.05321454 240.01946392 -0.05193873 231.18025417 -0.05069422 222.3410444 C-0.04815809 204.33499839 -0.04533684 186.32895243 -0.04234314 168.32290649 C-0.04220585 167.49504093 -0.04206856 166.66717536 -0.04192711 165.81422296 C-0.03272844 110.54281417 -0.01686265 55.27140692 0 0 Z " fill="#2AB6F5" transform="translate(191,193)"/>
<path d="M0 0 C206.91 0 413.82 0 627 0 C627 62.04 627 124.08 627 188 C519.21247418 195.90200836 519.21247418 195.90200836 479.98242188 197.49633789 C478.18711389 197.57005495 478.18711389 197.57005495 476.35553706 197.64526124 C458.42214388 198.37765827 440.48638586 199.01008346 422.54672527 199.56728154 C418.69848533 199.6871578 414.85035659 199.8102559 411.00222015 199.93340445 C184.04896292 207.08175945 184.04896292 207.08175945 102.1315155 133.99049377 C89.6461251 122.2198655 78.33720643 109.44956599 67.39726788 96.24831063 C65.99486926 94.55630974 64.58799084 92.86811392 63.1805377 91.18031645 C0 15.25849989 0 15.25849989 0 0 Z " fill="#40C4FF" transform="translate(253,880)"/>
<path d="M0 0 C28.30716807 -0.69493866 57.8018419 13.70314158 78.15653086 32.78833771 C83.3108858 37.75854074 88.35172274 42.84332426 93.40283203 47.91796875 C95.10828893 49.62399049 96.81418773 51.32957058 98.52049255 53.03474426 C102.65242535 57.1661646 106.77976576 61.30213049 110.90505584 65.44018286 C115.71018159 70.25967219 120.52101967 75.07344279 125.33219169 79.88689506 C133.91028015 88.46934872 142.48390311 97.05624874 151.0546875 105.64599609 C159.37491944 113.98461735 167.69727267 122.32111211 176.02246094 130.65478516 C176.53658394 131.1694336 177.05070694 131.68408205 177.58040942 132.2143259 C180.15991288 134.79643965 182.73945782 137.37851195 185.31902337 139.96056366 C206.68135527 161.34359144 228.03635192 182.73393127 249.38671875 204.12890625 C245.38315968 204.12890625 243.19527868 202.18491342 240.01171875 200.00390625 C227.34598882 191.60963923 214.24690812 186.51178595 199.19921875 184.50390625 C198.36841797 184.38273438 197.53761719 184.2615625 196.68164062 184.13671875 C181.20444617 181.98743288 165.72544511 181.97715963 150.13331604 181.97068787 C147.78985716 181.9661151 145.44639908 181.96111405 143.10294193 181.9557243 C137.36474275 181.94362718 131.62655017 181.93602276 125.88834133 181.93035752 C119.00831064 181.92330463 112.12829347 181.91053338 105.24827178 181.89757961 C92.55387641 181.87383615 79.85947801 181.85460397 67.16507149 181.83798027 C54.60361885 181.8215158 42.04217186 181.8030233 29.48072624 181.781847 C28.69847141 181.78052939 27.91621657 181.77921179 27.11025704 181.77785425 C23.137266 181.77115178 19.16427501 181.76441331 15.19128405 181.75766099 C-12.91877714 181.70995104 -41.02884363 181.66675084 -69.13891602 181.6262207 C-96.44035222 181.58684612 -123.74178405 181.54541764 -151.04321289 181.5012207 C-151.88538159 181.49985817 -152.72755029 181.49849564 -153.59523925 181.49709183 C-162.05296597 181.48340596 -170.51069262 181.46967847 -178.96841923 181.45592048 C-196.19639877 181.42789709 -213.42437875 181.40015144 -230.65235901 181.37257385 C-231.4444009 181.37130565 -232.23644279 181.37003745 -233.05248595 181.36873083 C-285.90607728 181.28413472 -338.75967856 181.20603261 -391.61328125 181.12890625 C-388.58463718 178.71157361 -385.49575016 176.94576218 -382.03211212 175.21527386 C-380.31743579 174.35494912 -380.31743579 174.35494912 -378.56811953 173.47724408 C-377.29907003 172.84557229 -376.02998361 172.21397467 -374.76086426 171.58244324 C-373.4128589 170.9080045 -372.06502939 170.23321419 -370.71736097 169.55810243 C-367.01164171 167.70300441 -363.30344319 165.85291104 -359.5948267 164.00361335 C-355.59591082 162.00846961 -351.59930442 160.00870955 -347.60241699 158.00950623 C-340.67387759 154.54471176 -333.7438774 151.08285393 -326.81288147 147.6229763 C-316.77873131 142.61403177 -306.74679572 137.60066538 -296.71539348 132.5862203 C-280.42315319 124.44229006 -264.12912943 116.30193473 -247.83398438 108.16381836 C-232.03357597 100.27277361 -216.23399634 92.38007344 -200.43554688 84.48510742 C-199.46364806 83.99942074 -198.49174924 83.51373405 -197.49039894 83.01332959 C-192.61298573 80.5759284 -187.73558915 78.13849393 -182.85820103 75.70104253 C-149.19964689 58.88038219 -115.53934914 42.06321508 -81.87719727 25.24975586 C-81.15686915 24.88996596 -80.43654103 24.53017607 -79.69438478 24.15948345 C-76.37240457 22.50021919 -73.0504135 20.84097666 -69.72839022 19.18179864 C-68.56441068 18.60042557 -67.40043115 18.0190525 -66.2011795 17.42006207 C-65.09964822 16.87075382 -63.99811693 16.32144557 -62.86320591 15.75549161 C-60.65655866 14.65106597 -58.45309717 13.54025672 -56.25253963 12.42374671 C-54.66098852 11.61827385 -54.66098852 11.61827385 -53.03728485 10.79652882 C-51.63533096 10.08298684 -51.63533096 10.08298684 -50.20505476 9.35502988 C-46.46237275 7.58443116 -42.67903046 6.39841254 -38.67578125 5.37890625 C-37.90782227 5.17555664 -37.13986328 4.97220703 -36.34863281 4.76269531 C-24.35824832 1.67630932 -12.33853673 0.60862737 0 0 Z " fill="#40C3FE" transform="translate(583.61328125,9.87109375)"/>
<path d="M0 0 C93.06 -0.04125 186.12 -0.0825 282 -0.125 C326.07433594 -0.15231201 326.07433594 -0.15231201 371.0390625 -0.18017578 C406.921875 -0.18920898 406.921875 -0.18920898 423.72070312 -0.19088745 C436.22350726 -0.19287307 448.72628963 -0.20148332 461.22908767 -0.21334685 C473.99823401 -0.22529843 486.76736673 -0.22966282 499.53651845 -0.2268899 C506.45804389 -0.22558627 513.37952617 -0.22754861 520.30104446 -0.23843026 C526.57396419 -0.24823184 532.84681457 -0.24860231 539.11973763 -0.24180222 C541.37392757 -0.24096181 543.62812204 -0.24343077 545.88230324 -0.24976516 C578.59238307 -0.33619423 612.45729212 0.58012331 639.28125 21.6875 C641.13074009 23.15475717 641.13074009 23.15475717 643.875 24.6875 C646 26 646 26 648 29 C645.5888804 27.83313718 643.26022065 26.58264037 640.92578125 25.265625 C620.24571954 13.63562107 598.44470543 8.77924973 574.77226543 8.89371204 C573.78803336 8.89435578 572.80380128 8.89499951 571.78974399 8.89566275 C568.50178594 8.89902292 565.21389143 8.90959828 561.9259491 8.92012024 C559.54087288 8.92398209 557.15579588 8.92738173 554.7707184 8.93035954 C549.59034429 8.93779975 544.40998596 8.94831906 539.22962379 8.96154404 C531.52640934 8.98115314 523.82319245 8.99480994 516.11996308 9.00699996 C506.31780868 9.02254629 496.51565715 9.03922512 486.71350992 9.0587908 C485.54771079 9.06111578 485.54771079 9.06111578 484.35836017 9.06348773 C483.18783961 9.06582252 483.18783961 9.06582252 481.99367217 9.06820448 C461.89688422 9.1082551 441.80009761 9.13601168 421.70328234 9.15799955 C418.41902409 9.16160147 415.13476592 9.16527446 411.85050774 9.16894487 C406.0356039 9.17544118 400.2207 9.18189648 394.40579605 9.18829433 C375.60361834 9.20898915 356.80144202 9.23066973 337.99926758 9.25415039 C336.71070521 9.25575155 336.71070521 9.25575155 335.39611129 9.25738506 C307.51231274 9.29215718 279.62857324 9.34387366 251.74481731 9.40325025 C223.07386227 9.46419251 194.40294105 9.50529443 165.73192493 9.52239793 C161.68595612 9.52482717 157.63998749 9.52749847 153.59401894 9.53032494 C152.79774323 9.53087597 152.00146752 9.53142701 151.18106224 9.53199475 C138.3526975 9.54148693 125.52446673 9.57221653 112.69616081 9.611031 C99.81488923 9.64959763 86.93373504 9.66665855 74.05240538 9.66149507 C66.39472908 9.65910103 58.73751043 9.67358954 51.07992744 9.71192205 C45.37108359 9.73867287 39.66260871 9.73431892 33.9537423 9.71760609 C31.63766674 9.71575558 29.3215568 9.72417921 27.00556209 9.74362031 C23.86912958 9.76849001 20.73493721 9.75675738 17.59852886 9.73549366 C16.2339582 9.75956555 16.2339582 9.75956555 14.84182045 9.78412375 C8.83220628 9.6890094 8.83220628 9.6890094 6.36978755 7.65029653 C5.02509195 6.01653165 5.02509195 6.01653165 3 3 C2.34 2.67 1.68 2.34 1 2 C1 191.75 1 381.5 1 577 C0.67 577 0.34 577 0 577 C0 386.59 0 196.18 0 0 Z " fill="#307BB3" transform="translate(190,191)"/>
<path d="M0 0 C2.86580965 1.28467329 5.04797331 2.50527829 7 5 C7.37569884 6.8793596 7.37569884 6.8793596 7.37670618 9.04176033 C7.38436903 9.86876978 7.39203188 10.69577924 7.39992693 11.5478496 C7.39307854 12.45806873 7.38623015 13.36828787 7.37917423 14.3060894 C7.38372495 15.27576265 7.38827566 16.2454359 7.39296427 17.24449319 C7.40466447 20.52534356 7.39482614 23.8057869 7.38526917 27.0866394 C7.38927245 29.45014956 7.39459656 31.81365779 7.40113491 34.17716229 C7.41237716 39.33254406 7.41427376 44.48784375 7.40807533 49.64323044 C7.39892046 57.31026197 7.40691649 64.97720765 7.41857243 72.64423238 C7.43773699 85.54555056 7.4432143 98.44684047 7.44125557 111.34817123 C7.43941634 124.14004686 7.44462181 136.9318906 7.45893669 149.7237587 C7.45982657 150.5190406 7.46071645 151.31432251 7.46163329 152.13370387 C7.46620328 156.17291663 7.47092044 160.21212921 7.47570812 164.25134172 C7.48540929 172.46695876 7.49414036 180.68257683 7.50257015 188.89819527 C7.50383653 190.13207475 7.50383653 190.13207475 7.5051285 191.39088109 C7.52498959 210.98275168 7.53497217 230.57462568 7.54370117 250.16650391 C7.54408584 251.0239387 7.5444705 251.88137349 7.54486683 252.76479116 C7.54798233 259.71072591 7.55107343 266.65666067 7.55412453 273.60259545 C7.56290902 293.5640037 7.57413314 313.52541018 7.58666992 333.48681641 C7.58720327 334.3410537 7.58773662 335.195291 7.58828614 336.07541428 C7.60051356 355.5967887 7.61482757 375.11815956 7.63422298 394.63952827 C7.63503784 395.4612837 7.6358527 396.28303913 7.63669225 397.12969624 C7.64486191 405.3368162 7.65329937 413.54393584 7.66218215 421.75105506 C7.68113923 439.35598763 7.69415702 456.96089756 7.69517689 474.56584087 C7.69597256 487.41350633 7.70340783 500.26115272 7.71770663 513.10881041 C7.72521899 520.06215807 7.72951243 527.01547149 7.72458839 533.96882248 C7.72036435 540.34638729 7.72540261 546.7238781 7.73749625 553.10143222 C7.74024246 555.3971234 7.73968632 557.69282169 7.73531515 559.98851036 C7.67852599 592.46094877 10.13062194 623.49888517 29 651 C28.01 651.33 27.02 651.66 26 652 C24.16327232 650.33819876 22.90097944 648.83327308 21.62890625 646.69140625 C19.99824054 643.99709289 18.18394442 641.60818464 16.25 639.125 C3.44034677 621.48817965 -0.18420731 600.98062206 -0.12304783 579.55527306 C-0.12420167 578.54759414 -0.12535552 577.53991522 -0.12654433 576.50170058 C-0.12918563 573.13404127 -0.12470937 569.76643003 -0.12025452 566.39877319 C-0.12069073 563.95651031 -0.12156655 561.51424747 -0.12284368 559.07198489 C-0.12461239 553.7668018 -0.12328359 548.46163301 -0.11920547 543.15645218 C-0.11315841 535.26790337 -0.11287079 527.37936162 -0.11374746 519.49081092 C-0.11505998 506.21957345 -0.1117252 492.94834097 -0.10573006 479.67710495 C-0.09981044 466.53935089 -0.09596359 453.40159892 -0.09487724 440.26384354 C-0.0948085 439.44658633 -0.09473976 438.62932913 -0.09466894 437.78730656 C-0.0943306 433.63676964 -0.09402922 429.48623273 -0.09374207 425.33569582 C-0.09164237 395.94726585 -0.08490701 366.5588386 -0.07543945 337.17041016 C-0.06625321 308.62223322 -0.05917048 280.07405703 -0.05493164 251.52587891 C-0.05480011 250.64570118 -0.05466859 249.76552345 -0.05453308 248.85867367 C-0.05321454 240.01946392 -0.05193873 231.18025417 -0.05069422 222.3410444 C-0.04815809 204.33499839 -0.04533684 186.32895243 -0.04234314 168.32290649 C-0.04220585 167.49504093 -0.04206856 166.66717536 -0.04192711 165.81422296 C-0.03272844 110.54281417 -0.01686265 55.27140692 0 0 Z " fill="#54C4F7" transform="translate(191,193)"/>
<path d="M0 0 C7 6 7 6 7.86938947 9.51518762 C7.86673143 10.82522276 7.86407339 12.1352579 7.8613348 13.48499107 C7.86941171 14.22129157 7.87748862 14.95759207 7.88581029 15.7162047 C7.90435473 18.18589341 7.87293818 20.65239283 7.84178162 23.12191772 C7.84483413 24.90901742 7.85096318 26.69611407 7.85990578 28.48319399 C7.87557219 33.39551859 7.84754073 38.30677662 7.81245935 43.21896529 C7.78225841 48.51543261 7.79245771 53.81183873 7.79777527 59.10836792 C7.80144755 68.28539684 7.77946644 77.46207766 7.7401104 86.63901901 C7.68324528 99.9073098 7.66499276 113.17543208 7.65619446 126.44383152 C7.64087023 147.97029953 7.59427525 169.49658198 7.52807617 191.02294922 C7.46383295 211.93504914 7.41427909 232.84709868 7.38452148 253.75927734 C7.38268242 255.04808309 7.38084336 256.33688884 7.37894856 257.66474931 C7.36981337 264.13024397 7.36096739 270.59573898 7.35226524 277.06123424 C7.27968625 330.70761776 7.15638369 384.35379983 7 438 C-17.55612636 438.11674531 -42.1122112 438.20494511 -66.66855907 438.25906086 C-78.0702307 438.2848544 -89.47172999 438.32002707 -100.87329102 438.37719727 C-110.80963816 438.42699682 -120.74586053 438.45928264 -130.682329 438.47044247 C-135.94481654 438.47696704 -141.20694706 438.49232573 -146.4693203 438.52865028 C-151.42120962 438.56255515 -156.37259441 438.57306405 -161.32458878 438.56553841 C-163.14309365 438.56691542 -164.96161516 438.57688071 -166.78001976 438.59602737 C-169.26182035 438.6208802 -171.74171243 438.6149348 -174.22355652 438.60127258 C-174.94438154 438.61583679 -175.66520656 438.630401 -176.40787476 438.64540654 C-180.32077341 438.58712005 -181.89871794 438.08183147 -184.98602772 435.58742046 C-187 433 -187 433 -187 431 C-125.29 431 -63.58 431 0 431 C0 288.77 0 146.54 0 0 Z " fill="#085087" transform="translate(1060,442)"/>
</svg>
