<!DOCTYPE svg PUBLIC "-//W3C//DTD SVG 1.1//EN" "http://www.w3.org/Graphics/SVG/1.1/DTD/svg11.dtd">

<!-- Uploaded to: SVG Repo, www.svgrepo.com, Transformed by: SVG Repo Mixer Tools -->
<svg fill="#ffffff" height="800px" width="800px" version="1.1" id="Layer_1" xmlns="http://www.w3.org/2000/svg" xmlns:xlink="http://www.w3.org/1999/xlink" viewBox="-15.36 -15.36 542.61 542.61" xml:space="preserve" stroke="#ffffff" stroke-width="21.499547999999997">

<g id="SVGRepo_bgCarrier" stroke-width="0"/>

<g id="SVGRepo_tracerCarrier" stroke-linecap="round" stroke-linejoin="round"/>

<g id="SVGRepo_iconCarrier"> <g> <g> <path d="M477.973,53.28H34.027C15.253,53.28,0,68.534,0,87.307v337.28c0,18.773,15.253,34.027,34.027,34.027h443.84 c18.773,0,34.027-15.253,34.027-34.027V87.307C512,68.534,496.747,53.28,477.973,53.28z M475.733,74.614L270.72,283.147 c-8.107,7.893-21.013,8-29.227,0.213L36.267,74.614H475.733z M21.333,422.667v-332.8l169.92,172.8L21.333,422.667z M36.907,437.28 l169.387-159.36l20.16,20.587c7.893,7.68,18.453,12.053,29.44,12.053c11.093,0,21.867-4.373,29.76-12.16l15.147-15.467 L474.667,437.28H36.907z M490.667,423.094L315.84,267.574L490.667,89.867V423.094z"/> </g> </g> </g>

</svg>