<?xml version="1.0" encoding="UTF-8"?>
<svg version="1.1" xmlns="http://www.w3.org/2000/svg" width="826" height="1042">
<path d="M0 0 C2.55096686 1.46825836 4.14602008 3.2342017 6.07421875 5.4609375 C6.86570312 6.37101563 7.6571875 7.28109375 8.47265625 8.21875 C11.50290808 11.81778696 14.48433487 15.45321131 17.4453125 19.109375 C20.17202159 22.43377873 22.95744835 25.70198109 25.76171875 28.9609375 C31.04667536 35.10298203 36.29204602 41.27686028 41.51904297 47.46826172 C42.91131292 49.11502729 44.30677348 50.75903817 45.703125 52.40234375 C49.95411934 57.40828402 54.18236167 62.4263413 58.32421875 67.5234375 C62.7358493 72.94164329 67.27995517 78.238646 71.8359375 83.53515625 C78.08099196 90.79624753 84.28303025 98.09147179 90.32421875 105.5234375 C93.77946026 109.76986132 97.31369709 113.93890044 100.88671875 118.0859375 C105.20600831 123.09913238 109.43768994 128.1713107 113.609375 133.30859375 C116.16875929 136.42990117 118.77265666 139.5104378 121.38671875 142.5859375 C125.5108322 147.43905012 129.56337546 152.34406879 133.58203125 157.28515625 C136.1070495 160.35369537 138.68156644 163.37633562 141.26171875 166.3984375 C145.04463787 170.83444673 148.69217977 175.3518463 152.26171875 179.9609375 C156.66628418 185.64350746 161.30477986 191.07646734 166.0480957 196.4777832 C170.13531975 201.15625235 173.99433493 205.97278837 177.79296875 210.88671875 C181.03783307 215.06271805 184.41936388 219.09336071 187.88671875 223.0859375 C192.36110434 228.23983081 196.6301658 233.51355547 200.8125 238.90625 C203.90977178 242.8846422 207.10678578 246.75712016 210.38671875 250.5859375 C214.6555313 255.57013422 218.7355449 260.67405751 222.76171875 265.85546875 C225.87820779 269.84847034 229.09229049 273.73883133 232.38671875 277.5859375 C237.10811198 283.10497082 241.6154731 288.7668432 246.078125 294.49609375 C248.93494146 298.1608583 251.84728914 301.77945716 254.76171875 305.3984375 C259.63912809 311.46783809 264.39086767 317.62585943 269.10327148 323.82397461 C272.03262042 327.67363864 274.9869718 331.49884694 277.99560547 335.28686523 C342.37924994 416.41120374 387.73004992 512.60431079 387.24609375 668.41479492 C379.32029846 734.81626394 356.28896189 799.11363027 317.88671875 854.0859375 C317.49597168 854.65393066 317.10522461 855.22192383 316.70263672 855.80712891 C310.3777824 864.99587312 303.49950314 873.66170507 296.39257812 882.25537109 C295.02821911 883.91392556 293.67986099 885.58348116 292.33984375 887.26171875 C288.38372141 892.19322987 284.31806903 896.79271889 279.78125 901.1953125 C277.90432032 903.06837222 276.17350306 905.00979054 274.44921875 907.0234375 C268.76646153 913.61026973 262.56450179 919.63257128 255.9609375 925.2890625 C253.68514157 927.2605618 251.47749208 929.29728145 249.26171875 931.3359375 C243.64872224 936.3927682 237.75951852 941.04269618 231.76953125 945.64013672 C230.51696588 946.60197439 229.26694613 947.56713648 228.01953125 948.53564453 C171.93032296 992.04260044 104.88540166 1018.76493552 34.88671875 1029.0859375 C33.82727051 1029.25109863 32.76782227 1029.41625977 31.67626953 1029.58642578 C-4.15708827 1034.99301916 -43.31802151 1034.56057003 -79.11328125 1029.0859375 C-80.23911621 1028.91964844 -81.36495117 1028.75335937 -82.52490234 1028.58203125 C-160.74625881 1016.71199261 -235.92741696 982.99665757 -294.53125 929.421875 C-295.94811678 928.14004999 -297.37144051 926.86480037 -298.82250977 925.62182617 C-304.71499334 920.56655048 -310.19942062 915.1482515 -315.67578125 909.6484375 C-316.58263672 908.74544922 -317.48949219 907.84246094 -318.42382812 906.91210938 C-323.52933296 901.7991999 -328.45049974 896.60527871 -333.11328125 891.0859375 C-333.92502808 890.13424683 -333.92502808 890.13424683 -334.75317383 889.16333008 C-343.77163162 878.52942685 -352.14687916 867.5263698 -360.11328125 856.0859375 C-360.76973633 855.14766113 -360.76973633 855.14766113 -361.43945312 854.19042969 C-398.9844863 800.21578371 -422.4338842 737.13745366 -430.36328125 671.9609375 C-430.48817932 670.93545303 -430.48817932 670.93545303 -430.61560059 669.88925171 C-432.52096763 654.01143251 -433.32184037 638.25126315 -433.30078125 622.2734375 C-433.300177 621.42010834 -433.29957275 620.56677917 -433.2989502 619.68759155 C-433.27102774 605.0788702 -432.77191946 590.61214037 -431.11328125 576.0859375 C-430.92789795 574.45615967 -430.92789795 574.45615967 -430.73876953 572.79345703 C-425.19112995 526.09241838 -411.50053466 481.43031189 -391.11328125 439.0859375 C-390.40437744 437.57918457 -390.40437744 437.57918457 -389.68115234 436.04199219 C-388.29177191 433.1039574 -386.86552763 430.18706545 -385.42578125 427.2734375 C-385.01086426 426.38954346 -384.59594727 425.50564941 -384.16845703 424.5949707 C-382.16909968 420.664354 -380.65076882 417.85454767 -376.44921875 416.16796875 C-375.01447661 415.76730534 -373.5674634 415.40900167 -372.11328125 415.0859375 C-371.30238037 414.87735107 -370.49147949 414.66876465 -369.65600586 414.45385742 C-366.92225977 413.77571293 -364.1808172 413.17141777 -361.42578125 412.5859375 C-360.42772461 412.37163086 -359.42966797 412.15732422 -358.40136719 411.93652344 C-348.37453408 409.84009002 -338.28670304 408.27158883 -328.11328125 407.0859375 C-327.3560376 406.99022461 -326.59879395 406.89451172 -325.81860352 406.79589844 C-315.77526412 405.68670826 -305.64206956 405.84202156 -295.55078125 405.8359375 C-294.54640015 405.83526276 -293.54201904 405.83458801 -292.50720215 405.83389282 C-266.83413033 405.86126338 -242.04906887 408.71337844 -217.11328125 415.0859375 C-217.14808594 413.94640625 -217.18289062 412.806875 -217.21875 411.6328125 C-217.21147118 404.16183526 -216.26289439 396.74999595 -215.42578125 389.3359375 C-215.29281647 388.14775925 -215.29281647 388.14775925 -215.15716553 386.93557739 C-212.38015665 362.34859575 -207.92317169 338.13888392 -202.11328125 314.0859375 C-201.83677734 312.93641602 -201.56027344 311.78689453 -201.27539062 310.60253906 C-193.87532653 280.3257531 -183.84320074 250.54163713 -171.11328125 222.0859375 C-170.67274414 221.0949707 -170.23220703 220.10400391 -169.77832031 219.08300781 C-166.63738826 212.0454475 -163.41086475 205.05140195 -160.11328125 198.0859375 C-159.7064209 197.22548828 -159.29956055 196.36503906 -158.88037109 195.47851562 C-152.08153015 181.21848248 -144.24819257 167.62014614 -136.11328125 154.0859375 C-135.56236816 153.16603027 -135.01145508 152.24612305 -134.44384766 151.29833984 C-119.76438367 126.87965854 -103.20173145 103.46105351 -84.5390625 81.91015625 C-82.24888741 79.24381713 -80.05231393 76.52292753 -77.86328125 73.7734375 C-67.33082053 60.91467676 -55.4018231 49.2787275 -43.67578125 37.5234375 C-43.06600433 36.91098175 -42.45622742 36.298526 -41.82797241 35.66751099 C-35.4356669 29.25393038 -29.0533973 22.91307998 -22.11328125 17.0859375 C-20.90151875 16.0426241 -19.69057561 14.99835827 -18.48046875 13.953125 C-17.31677302 12.95530127 -16.15271389 11.95790118 -14.98828125 10.9609375 C-14.11623047 10.21263672 -14.11623047 10.21263672 -13.2265625 9.44921875 C-12.08005344 8.46686311 -10.93008302 7.48853005 -9.77636719 6.51464844 C-8.66074039 5.55624444 -7.56483678 4.57442976 -6.48925781 3.57128906 C-2.68300645 0.10910562 -2.68300645 0.10910562 0 0 Z " fill="#DD2C00" transform="translate(435.11328125,5.9140625)"/>
<path d="M0 0 C1.0043811 -0.00067474 2.00876221 -0.00134949 3.0435791 -0.00204468 C18.70805432 0.01465552 33.9680468 0.57471569 49.4375 3.25 C50.5085498 3.43224121 51.57959961 3.61448242 52.68310547 3.80224609 C64.09263238 5.79628956 75.1871654 8.1238233 86.09375 12.06640625 C89.5717764 13.29753008 93.06430733 14.28629079 96.625 15.25 C103.16235233 17.0918153 109.22292797 19.53199366 115.4375 22.25 C116.99638409 22.89697445 118.55637325 23.54128976 120.1171875 24.18359375 C139.27844392 32.12708915 157.33305178 41.4963282 174.4375 53.25 C175.06769043 53.68199707 175.69788086 54.11399414 176.34716797 54.55908203 C187.21077959 62.05426401 197.35819538 70.24703535 207.11328125 79.14453125 C209.15023925 80.98977555 211.22020847 82.7808167 213.3125 84.5625 C221.61607311 91.80496742 229.39207918 99.78413143 236.4375 108.25 C237.07945312 108.99733398 237.07945312 108.99733398 237.734375 109.75976562 C271.59365274 149.21674654 294.24127434 197.13221227 304.92285156 247.84008789 C305.41496665 250.1444845 305.94176739 252.43865991 306.47265625 254.734375 C322.03590973 325.24214474 305.0916976 404.46548752 269.4375 466.25 C268.64486254 467.39127647 267.84192704 468.52555682 267.0234375 469.6484375 C265.27014958 472.03875913 265.27014958 472.03875913 265.3828125 474.33203125 C266.91304741 477.11479178 268.93059916 478.84237192 271.3125 480.9375 C271.80790283 481.37537842 272.30330566 481.81325684 272.8137207 482.2644043 C276.92221842 485.86934268 281.12723631 489.35537884 285.3828125 492.78515625 C287.6206158 494.59085175 289.84231899 496.40979312 292.0546875 498.24609375 C338.12586015 536.35434767 390.70151084 564.76442985 445.4375 588.25 C443.01729477 591.03507293 440.6128548 592.22987123 437.22265625 593.6328125 C435.62659546 594.29361816 435.62659546 594.29361816 433.99829102 594.96777344 C432.84385498 595.4321582 431.68941895 595.89654297 430.5 596.375 C429.29722412 596.86000977 428.09444824 597.34501953 426.85522461 597.84472656 C395.78852255 610.22785629 363.49062713 618.37645987 330.4375 623.25 C329.37805176 623.41516113 328.31860352 623.58032227 327.22705078 623.75048828 C291.39369298 629.15708166 252.23275974 628.72463253 216.4375 623.25 C215.31166504 623.08371094 214.18583008 622.91742187 213.02587891 622.74609375 C134.80452244 610.87605511 59.62336429 577.16072007 1.01953125 523.5859375 C-0.39733553 522.30411249 -1.82065926 521.02886287 -3.27172852 519.78588867 C-9.16421209 514.73061298 -14.64863937 509.312314 -20.125 503.8125 C-21.03185547 502.90951172 -21.93871094 502.00652344 -22.87304688 501.07617188 C-27.97855171 495.9632624 -32.89971849 490.76934121 -37.5625 485.25 C-38.37424683 484.29830933 -38.37424683 484.29830933 -39.20239258 483.32739258 C-48.22085037 472.69348935 -56.59609791 461.6904323 -64.5625 450.25 C-65.00013672 449.62448242 -65.43777344 448.99896484 -65.88867188 448.35449219 C-103.43370505 394.37984621 -126.88310295 331.30151616 -134.8125 266.125 C-134.89576538 265.44134369 -134.97903076 264.75768738 -135.06481934 264.05331421 C-136.97018638 248.17549501 -137.77105912 232.41532565 -137.75 216.4375 C-137.74939575 215.58417084 -137.7487915 214.73084167 -137.74816895 213.85165405 C-137.72024649 199.2429327 -137.22113821 184.77620287 -135.5625 170.25 C-135.43891113 169.16348145 -135.31532227 168.07696289 -135.18798828 166.95751953 C-129.6403487 120.25648088 -115.94975341 75.59437439 -95.5625 33.25 C-95.08989746 32.24549805 -94.61729492 31.24099609 -94.13037109 30.20605469 C-92.74099066 27.2680199 -91.31474638 24.35112795 -89.875 21.4375 C-89.46008301 20.55360596 -89.04516602 19.66971191 -88.61767578 18.7590332 C-86.61831843 14.8284165 -85.09998757 12.01861017 -80.8984375 10.33203125 C-79.46369536 9.93136784 -78.01668215 9.57306417 -76.5625 9.25 C-75.34614868 8.93712036 -75.34614868 8.93712036 -74.10522461 8.61791992 C-71.37147852 7.93977543 -68.63003595 7.33548027 -65.875 6.75 C-64.87694336 6.53569336 -63.87888672 6.32138672 -62.85058594 6.10058594 C-52.82375283 4.00415252 -42.73592179 2.43565133 -32.5625 1.25 C-31.80525635 1.15428711 -31.0480127 1.05857422 -30.26782227 0.95996094 C-20.22448287 -0.14922924 -10.09128831 0.00608406 0 0 Z " fill="#FFC300" transform="translate(139.5625,411.75)"/>
<path d="M0 0 C14.51620652 3.61447712 28.26285322 8.08645314 42 14 C43.1439624 14.48339844 43.1439624 14.48339844 44.31103516 14.9765625 C75.4496241 28.15238341 103.68583628 46.10150451 128.67578125 68.89453125 C130.71273925 70.73977555 132.78270847 72.5308167 134.875 74.3125 C143.17857311 81.55496742 150.95457918 89.53413143 158 98 C158.42796875 98.49822266 158.8559375 98.99644531 159.296875 99.50976562 C193.15615274 138.96674654 215.80377434 186.88221227 226.48535156 237.59008789 C226.97746665 239.8944845 227.50426739 242.18865991 228.03515625 244.484375 C243.59840973 314.99214474 226.6541976 394.21548752 191 456 C190.20736254 457.14127647 189.40442704 458.27555682 188.5859375 459.3984375 C186.83264958 461.78875913 186.83264958 461.78875913 186.9453125 464.08203125 C188.47554741 466.86479178 190.49309916 468.59237192 192.875 470.6875 C193.61810425 471.34431763 193.61810425 471.34431763 194.3762207 472.0144043 C198.48471842 475.61934268 202.68973631 479.10537884 206.9453125 482.53515625 C209.1831158 484.34085175 211.40481899 486.15979312 213.6171875 487.99609375 C259.68836015 526.10434767 312.26401084 554.51442985 367 578 C364.57979477 580.78507293 362.1753548 581.97987123 358.78515625 583.3828125 C357.18909546 584.04361816 357.18909546 584.04361816 355.56079102 584.71777344 C353.82913696 585.41435059 353.82913696 585.41435059 352.0625 586.125 C350.25833618 586.85251465 350.25833618 586.85251465 348.41772461 587.59472656 C317.35102255 599.97785629 285.05312713 608.12645987 252 613 C250.94055176 613.16516113 249.88110352 613.33032227 248.78955078 613.50048828 C212.95619298 618.90708166 173.79525974 618.47463253 138 613 C136.31124756 612.75056641 136.31124756 612.75056641 134.58837891 612.49609375 C109.69439158 608.71844779 85.24575113 602.65754646 61.375 594.6875 C60.73725647 594.47485504 60.09951294 594.26221008 59.44244385 594.04312134 C53.41184233 592.01810387 47.65460513 589.93675333 42 587 C44.8205543 584.75346179 47.58832491 583.12608316 50.859375 581.6171875 C51.80232422 581.17689209 52.74527344 580.73659668 53.71679688 580.28295898 C54.71775391 579.81833252 55.71871094 579.35370605 56.75 578.875 C83.70320726 566.14966862 107.73764046 549.81551733 130 530 C130.54221191 529.52095215 131.08442383 529.0419043 131.64306641 528.54833984 C145.14317301 516.57211198 157.18906723 503.4431877 168 489 C168.48130371 488.3596582 168.96260742 487.71931641 169.45849609 487.05957031 C178.9866865 476.24932081 178.9866865 476.24932081 183.8215332 464.00756836 C182.81085352 461.53778559 181.5881827 460.34798632 179.60546875 458.56640625 C178.90325195 457.92429199 178.20103516 457.28217773 177.47753906 456.62060547 C176.72182617 455.94143066 175.96611328 455.26225586 175.1875 454.5625 C168.26006564 448.19428907 161.75872183 441.63361989 155.47998047 434.6328125 C153.902861 432.89282982 152.30101957 431.17870163 150.69140625 429.46875 C144.15878244 422.52854481 137.95580216 415.44722194 132 408 C131.01871778 406.80841891 130.03551955 405.61841404 129.05078125 404.4296875 C105.36167411 375.75378195 84.88144761 344.54131132 67.44091797 311.70556641 C66.03780399 309.07098336 64.61629622 306.44707361 63.19140625 303.82421875 C38.1513685 257.36550841 20.12126589 204.78714379 10 153 C9.75894531 151.77764648 9.51789063 150.55529297 9.26953125 149.29589844 C2.04026923 112.29752276 -1.02991034 75.35597184 -1.125 37.6875 C-1.12786011 36.84495667 -1.13072021 36.00241333 -1.13366699 35.13433838 C-1.16175887 23.38820881 -0.77414592 11.72063979 0 0 Z " fill="#FE9000" transform="translate(218,422)"/>
</svg>
