<?xml version="1.0" encoding="UTF-8"?>
<svg version="1.1" xmlns="http://www.w3.org/2000/svg" width="512" height="512">
<path d="M0 0 C3.48209317 0.00478262 6.96413382 -0.00782269 10.44620943 -0.01801741 C17.24734619 -0.03511307 24.04839018 -0.03606464 30.84954283 -0.03080451 C36.38484915 -0.02674369 41.92012832 -0.02822891 47.45543337 -0.03355277 C48.24679511 -0.03430119 49.03815685 -0.03504961 49.85349925 -0.03582071 C51.46177608 -0.03735238 53.07005291 -0.03889073 54.67832974 -0.04043568 C69.72213716 -0.05412771 84.76589241 -0.04874665 99.80969861 -0.03725047 C113.53012424 -0.02732494 127.25041487 -0.04025286 140.97081968 -0.06418466 C155.10563188 -0.08865088 169.24038141 -0.09816492 183.37521434 -0.09153193 C191.29210524 -0.08805592 199.2088925 -0.09016367 207.12576723 -0.10778296 C213.86618255 -0.12259964 220.60642124 -0.12301839 227.34683344 -0.10571205 C230.77628414 -0.09727601 234.20542062 -0.09486733 237.63485384 -0.1103636 C256.2259315 -0.17678101 274.3338109 0.71495553 291.83774996 7.59433305 C292.60812593 7.88912553 293.37850191 8.18391801 294.17222261 8.4876436 C325.37503496 20.86426764 350.65048267 45.68840576 364.20884371 76.31210649 C365.74160768 79.96519395 367.11248745 83.66083623 368.40024996 87.40683305 C368.63075045 88.06925004 368.86125093 88.73166704 369.09873629 89.41415727 C374.33453998 105.60034731 374.53369363 121.45944698 374.49458301 138.31908309 C374.48980039 141.80117627 374.5024057 145.28321691 374.51260042 148.76529253 C374.52969608 155.56642928 374.53064765 162.36747328 374.52538752 169.16862592 C374.5213267 174.70393225 374.52281192 180.23921141 374.52813578 185.77451646 C374.5288842 186.5658782 374.52963262 187.35723994 374.53040372 188.17258234 C374.53193539 189.78085918 374.53347374 191.38913601 374.53501869 192.99741283 C374.54871072 208.04122025 374.54332966 223.08497551 374.53183348 238.12878171 C374.52190795 251.84920733 374.53483587 265.56949796 374.55876767 279.28990278 C374.58323389 293.42471498 374.59274793 307.55946451 374.58611494 321.69429743 C374.58263893 329.61118834 374.58474668 337.52797559 374.60236597 345.44485033 C374.61718265 352.18526564 374.6176014 358.92550433 374.60029506 365.66591653 C374.59185902 369.09536723 374.58945034 372.52450372 374.60494661 375.95393693 C374.67136403 394.5450146 373.77962748 412.652894 366.90024996 430.15683305 C366.60545748 430.92720903 366.310665 431.69758501 366.00693941 432.49130571 C356.13486544 457.37987552 337.96730112 479.44357757 315.08774996 493.40683305 C314.01524996 494.09003618 312.94274996 494.7732393 311.83774996 495.47714555 C305.45004956 499.3659539 298.94823783 502.48484403 291.96274996 505.15683305 C291.27874117 505.42640825 290.59473238 505.69598344 289.88999605 505.97372758 C271.57496724 512.61625088 252.95550458 512.98750368 233.69712496 512.92441118 C230.88921006 512.92764626 228.08132106 512.93682879 225.2734189 512.94565141 C218.48616735 512.96329401 211.69909425 512.95966107 204.91183615 512.94800085 C199.38806192 512.93890996 193.86433716 512.93776673 188.34055758 512.94209611 C187.54973779 512.94270905 186.75891801 512.94332198 185.944134 512.94395348 C184.33682329 512.94523258 182.7295126 512.94652944 181.12220192 512.94784385 C166.10506253 512.95920786 151.08802133 512.94620193 136.07089806 512.92464238 C123.22881 512.90677521 110.38686666 512.9098805 97.54478121 512.92831743 C82.57569806 512.94979842 67.60670065 512.95810962 52.63760424 512.94586837 C51.03671695 512.94459438 49.43582965 512.9433369 47.83494234 512.94209611 C47.04759258 512.94147901 46.26024282 512.94086191 45.44903398 512.94022611 C39.94182532 512.93679481 34.43467175 512.94255319 28.92747164 512.95201433 C22.20178323 512.96331652 15.47628117 512.96002387 8.75061369 512.93889135 C5.32917146 512.92848977 1.90829014 512.92627884 -1.51318693 512.93748796 C-22.88729031 513.00100847 -42.22548579 511.05828192 -61.91225004 502.40683305 C-62.56644926 502.12356157 -63.22064848 501.84029008 -63.89467192 501.54843462 C-93.98974488 488.26256094 -117.69643593 462.6852702 -129.78334379 432.21054399 C-130.63388989 429.95385314 -131.44074075 427.68745259 -132.22475004 425.40683305 C-132.57050077 424.41320756 -132.57050077 424.41320756 -132.92323637 423.39950883 C-138.15904006 407.2133188 -138.35819372 391.35421913 -138.31908309 374.49458301 C-138.31430048 371.01248984 -138.32690578 367.53044919 -138.33710051 364.04837358 C-138.35419617 357.24723682 -138.35514773 350.44619283 -138.3498876 343.64504018 C-138.34582678 338.10973386 -138.347312 332.5744547 -138.35263586 327.03914964 C-138.35338428 326.2477879 -138.3541327 325.45642616 -138.35490381 324.64108376 C-138.35643548 323.03280693 -138.35797382 321.4245301 -138.35951877 319.81625327 C-138.3732108 304.77244585 -138.36782974 289.7286906 -138.35633356 274.6848844 C-138.34640804 260.96445877 -138.35933595 247.24416814 -138.38326775 233.52376333 C-138.40773398 219.38895113 -138.41724801 205.2542016 -138.41061503 191.11936867 C-138.40713902 183.20247777 -138.40924677 175.28569051 -138.42686605 167.36881578 C-138.44168273 160.62840046 -138.44210148 153.88816178 -138.42479514 147.14774957 C-138.41635911 143.71829887 -138.41395042 140.28916239 -138.4294467 136.85972917 C-138.49586411 118.26865151 -137.60412757 100.16077211 -130.72475004 82.65683305 C-130.42995756 81.88645708 -130.13516508 81.1160811 -129.8314395 80.3223604 C-117.45481545 49.11954805 -92.63067734 23.84410034 -62.0069766 10.2857393 C-58.35388915 8.75297533 -54.65824686 7.38209556 -50.91225004 6.09433305 C-49.91862455 5.74858232 -49.91862455 5.74858232 -48.90492582 5.39584672 C-32.71873579 0.16004303 -16.85963612 -0.03911062 0 0 Z " fill="#464646" transform="translate(137.91225004196167,-0.40683305263519287)"/>
<path d="M0 0 C0.33 0 0.66 0 1 0 C1.09176643 33.41897614 1.16214537 66.83792067 1.20426132 100.25699504 C1.20926351 104.21185757 1.21444086 108.16671986 1.21972656 112.12158203 C1.22130043 113.30248209 1.22130043 113.30248209 1.22290608 114.50723872 C1.24026142 127.21665701 1.27177191 139.92600215 1.30861118 152.6353772 C1.3461568 165.69841256 1.36826447 178.76140989 1.37635398 191.82449698 C1.38181368 199.87040902 1.39899039 207.91611421 1.43166587 215.96196249 C1.4555201 222.1551678 1.45778581 228.34821889 1.45243073 234.54146385 C1.45352245 237.06479087 1.46136116 239.58812644 1.4768219 242.11140633 C1.58188305 260.15793653 0.48678451 277.76790114 -6.1875 294.75 C-6.48229248 295.52037598 -6.77708496 296.29075195 -7.08081055 297.08447266 C-16.95288452 321.97304247 -35.12044884 344.03674451 -58 358 C-59.0725 358.68320312 -60.145 359.36640625 -61.25 360.0703125 C-67.6377004 363.95912084 -74.13951213 367.07801098 -81.125 369.75 C-81.80900879 370.0195752 -82.49301758 370.28915039 -83.19775391 370.56689453 C-101.51278272 377.20941783 -120.13224538 377.58067063 -139.390625 377.51757812 C-142.1985399 377.5208132 -145.0064289 377.52999573 -147.81433105 377.53881836 C-154.60158261 377.55646096 -161.3886557 377.55282802 -168.17591381 377.5411678 C-173.69968804 377.53207691 -179.22341279 377.53093368 -184.74719238 377.53526306 C-185.53801216 377.53587599 -186.32883194 377.53648893 -187.14361596 377.53712043 C-188.75092667 377.53839953 -190.35823736 377.53969639 -191.96554804 377.5410108 C-206.98268743 377.55237481 -221.99972862 377.53936888 -237.0168519 377.51780933 C-249.85893996 377.49994216 -262.7008833 377.50304745 -275.54296875 377.52148438 C-290.51205189 377.54296537 -305.48104931 377.55127657 -320.45014572 377.53903532 C-322.05103301 377.53776133 -323.65192031 377.53650384 -325.25280762 377.53526306 C-326.04015738 377.53464596 -326.82750714 377.53402886 -327.63871598 377.53339306 C-333.14592464 377.52996175 -338.6530782 377.53572014 -344.16027832 377.54518127 C-350.88596672 377.55648346 -357.61146879 377.55319082 -364.33713627 377.5320583 C-367.7585785 377.52165672 -371.17945982 377.51944578 -374.60093689 377.53065491 C-395.97504027 377.59417542 -415.31323575 375.65144887 -435 367 C-435.65419922 366.71672852 -436.30839844 366.43345703 -436.98242188 366.14160156 C-467.07749484 352.85572789 -490.78418589 327.27843714 -502.87109375 296.80371094 C-503.72163984 294.54702009 -504.5284907 292.28061954 -505.3125 290 C-505.65825073 289.00637451 -505.65825073 289.00637451 -506.01098633 287.99267578 C-510.22376724 274.96910263 -511.55930223 261.91799954 -511.4375 248.3125 C-511.43379395 247.56120819 -511.43008789 246.80991638 -511.42626953 246.03585815 C-511.15882789 207.50855956 -501.24708492 169.93317546 -483 136 C-482.65888184 135.35256836 -482.31776367 134.70513672 -481.96630859 134.03808594 C-473.4851606 117.99224377 -463.01406891 103.57245492 -451 90 C-450.21753906 89.10667969 -449.43507813 88.21335937 -448.62890625 87.29296875 C-440.70426171 78.35199198 -432.49389909 70.27403125 -423 63 C-421.64878592 65.70242816 -422.31993545 66.78574099 -423.14453125 69.6640625 C-423.40943359 70.623125 -423.67433594 71.5821875 -423.94726562 72.5703125 C-424.50887939 74.5530753 -425.07379116 76.53490802 -425.64257812 78.515625 C-429.42661062 92.27244337 -430.39049861 105.99029287 -430.3125 120.1875 C-430.31034485 120.90167084 -430.3081897 121.61584167 -430.30596924 122.35165405 C-430.21187816 141.90220206 -427.28505698 159.494654 -421 178 C-420.76941895 178.69931641 -420.53883789 179.39863281 -420.30126953 180.11914062 C-405.66785959 224.11501366 -372.87545814 257.88514525 -332.28125 278.95703125 C-325.92736052 282.06839686 -320.86888142 284.33541722 -313.70703125 282.37109375 C-313.08183594 282.06300781 -312.45664062 281.75492187 -311.8125 281.4375 C-311.17957031 281.14746094 -310.54664063 280.85742188 -309.89453125 280.55859375 C-305.67629009 277.08832937 -304.21839162 273.85548128 -303.59106445 268.52563477 C-303.38219697 264.36736565 -303.29037054 260.22489046 -303.25 256.0625 C-303.22180773 254.60087654 -303.19187579 253.13928554 -303.16015625 251.67773438 C-303.08667461 248.11864155 -303.03686485 244.55968224 -303 241 C-303.9163623 241.02392822 -304.83272461 241.04785645 -305.77685547 241.07250977 C-324.12151329 241.35097053 -339.29584266 235.03327116 -352.75 222.3984375 C-356.32741544 218.58501202 -359.12144305 214.34735909 -362 210 C-365.90792193 204.70574823 -369.02873709 202.20843277 -375.5625 201.125 C-378.46031051 200.50540236 -379.77069135 200.19456492 -382.0625 198.25 C-383.34129749 195.18088602 -383.53845078 193.29801106 -383 190 C-381.04784291 187.10325078 -379.55658979 185.39391252 -376.0859375 184.515625 C-368.22645433 184.0011861 -359.81758595 187.49366238 -353.6875 192.3125 C-350.89758572 195.10241428 -348.34603786 198.02736432 -345.7734375 201.015625 C-337.86603128 209.86355972 -327.33857915 215.5880707 -315.37890625 216.4140625 C-313.77382269 216.49267884 -312.16830699 216.56288982 -310.5625 216.625 C-309.32209961 216.68300781 -309.32209961 216.68300781 -308.05664062 216.7421875 C-306.03808927 216.83553092 -304.01907669 216.91880961 -302 217 C-301.88785156 216.10861328 -301.88785156 216.10861328 -301.7734375 215.19921875 C-300.09651115 204.62800657 -295.46338363 196.69641859 -287.5390625 189.55859375 C-285.76578854 188.12788586 -285.76578854 188.12788586 -286 186 C-287.12535156 185.91363281 -288.25070312 185.82726562 -289.41015625 185.73828125 C-308.41455748 184.08083594 -324.19885145 178.28721301 -339 166 C-339.88945312 165.32904297 -339.88945312 165.32904297 -340.796875 164.64453125 C-355.29159998 153.30806057 -364.12074655 133.91535478 -367 116 C-369.01230173 96.82138426 -365.70555295 75.23983207 -353.234375 59.81640625 C-351.64906643 57.48359458 -351.83741528 56.49493394 -352.3125 53.75 C-353.69322679 43.01798724 -353.51864608 32.88645125 -351.3125 22.3125 C-351.16401611 21.55839844 -351.01553223 20.80429688 -350.86254883 20.02734375 C-349.72373042 15.0911646 -348.17939534 12.16261707 -344 9 C-340.89742238 8.44740733 -338.05035569 9.29004563 -335 10 C-334.24847656 10.15597656 -333.49695313 10.31195313 -332.72265625 10.47265625 C-324.42990082 12.5561938 -314.00744862 17.0351232 -307.88566589 23.09187317 C-303.75584182 25.82269109 -300.26372666 25.58340117 -295.41137695 25.56518555 C-294.45135269 25.5770137 -293.49132843 25.58884186 -292.50221252 25.60102844 C-289.33066905 25.63390516 -286.15998392 25.63687234 -282.98828125 25.63671875 C-280.77735546 25.64703615 -278.56643303 25.65809956 -276.35551453 25.6698761 C-271.71942338 25.68931317 -267.08363389 25.69272895 -262.44750977 25.6862793 C-256.52350649 25.68029392 -250.60107603 25.72444964 -244.67739582 25.78216839 C-240.10894278 25.81925502 -235.54086522 25.8240635 -230.9722805 25.81989479 C-228.78949847 25.82275791 -226.60670022 25.83676238 -224.42406654 25.86237144 C-208.30744998 26.25811046 -208.30744998 26.25811046 -195 18 C-186.5723029 12.93614711 -177.05034866 8.80482746 -167.125 9.125 C-163.46220216 10.1505834 -162.94727805 10.84649139 -161 14 C-160.0859375 16.55078125 -160.0859375 16.55078125 -159.375 19.3125 C-159.13523437 20.21613281 -158.89546875 21.11976563 -158.6484375 22.05078125 C-157.33888683 28.00687014 -156.86303767 33.71769525 -156.875 39.8125 C-156.87185791 40.51463623 -156.86871582 41.21677246 -156.86547852 41.94018555 C-156.87582125 45.84929088 -157.2067602 49.48072154 -157.9375 53.3125 C-158.59851518 58.73644647 -155.94570351 61.85639264 -152.9140625 66.15625 C-142.834268 81.13194469 -140.6747678 100.98323825 -143.39111328 118.52587891 C-146.30320988 132.85316097 -152.47894202 145.89209902 -162 157 C-162.44601562 157.58910156 -162.89203125 158.17820312 -163.3515625 158.78515625 C-175.59271203 174.49821076 -196.53485643 182.86086641 -215.8125 185.52734375 C-218.54711435 185.76275277 -221.2565268 185.94082705 -224 186 C-222.54869245 189.31940087 -220.69370053 191.52775203 -218.1875 194.125 C-208.43754159 204.91896485 -206.71393399 216.35048861 -206.7265625 230.4453125 C-206.70628611 232.84505685 -206.68543559 235.24479641 -206.6640625 237.64453125 C-206.64142644 241.39473558 -206.6249693 245.14474988 -206.61914062 248.89501953 C-206.60961505 252.53712487 -206.57585463 256.17839475 -206.5390625 259.8203125 C-206.54663071 261.49554489 -206.54663071 261.49554489 -206.55435181 263.20462036 C-206.47252964 269.69168273 -205.85729412 273.71764873 -202 279 C-200.43353348 280.58901279 -200.43353348 280.58901279 -198.6875 281.4375 C-198.15511719 281.74558594 -197.62273437 282.05367188 -197.07421875 282.37109375 C-189.5137597 284.66343632 -183.72607536 281.47966285 -177.0625 278.1875 C-176.04704102 277.69266113 -175.03158203 277.19782227 -173.98535156 276.68798828 C-165.05000163 272.22595967 -156.93111084 267.04688539 -149 261 C-148.05640625 260.29746094 -147.1128125 259.59492188 -146.140625 258.87109375 C-111.05584834 231.51950011 -86.80123407 189.15650068 -81 145 C-80.09700539 137.47089898 -79.71822547 129.94998576 -79.4375 122.375 C-79.39431641 121.27542969 -79.35113281 120.17585938 -79.30664062 119.04296875 C-79.20173594 116.36207118 -79.09957274 113.68109999 -79 111 C-77.97003906 110.56171875 -76.94007813 110.1234375 -75.87890625 109.671875 C-67.71517152 106.08126293 -60.16635488 102.09466109 -52.875 96.9375 C-52.18994385 96.45571289 -51.5048877 95.97392578 -50.79907227 95.47753906 C-46.60572545 92.42839228 -42.98464917 89.11639385 -39.44970703 85.32250977 C-38 84 -38 84 -36 84 C-35.62875 83.14148438 -35.62875 83.14148438 -35.25 82.265625 C-33.806706 79.64965463 -32.0900239 77.88481013 -30 75.75 C-11.22433539 55.19336399 -1.68608234 27.44244354 0 0 Z " fill="#2D2D2D" transform="translate(511,135)"/>
<path d="M0 0 C3.21371808 2.7619494 6.30913007 5.63392958 9.37890625 8.5546875 C11.94592075 11.01259196 11.94592075 11.01259196 14.6484375 13.11328125 C18.26353795 16.01376882 21.04294595 19.44507163 24 23 C24.4429541 23.52529297 24.8859082 24.05058594 25.34228516 24.59179688 C56.53118379 61.72193533 70.39175982 107.90832196 66.76123047 156.17431641 C65.62058448 167.36467367 63.37593997 178.27160144 60 189 C59.77892578 189.72944824 59.55785156 190.45889648 59.33007812 191.21044922 C51.31805313 217.31466887 37.61460369 241.00382039 18.47363281 260.48681641 C17.02661617 261.97266948 15.61703993 263.48720248 14.2109375 265.01171875 C2.51945164 277.46869439 -11.87919321 287.16591685 -27 295 C-27.64130859 295.33290039 -28.28261719 295.66580078 -28.94335938 296.00878906 C-42.05077508 302.72809109 -42.05077508 302.72809109 -49 302 C-51.546875 300.8984375 -51.546875 300.8984375 -53.75 299.375 C-54.48734375 298.88773437 -55.2246875 298.40046875 -55.984375 297.8984375 C-60.11148887 294.01127211 -61.18309152 290.06695049 -61.38476562 284.53637695 C-61.40588055 282.35376877 -61.41216056 280.17098356 -61.40625 277.98828125 C-61.41708618 276.82427292 -61.42792236 275.66026459 -61.43908691 274.46098328 C-61.47329778 270.74476577 -61.48892294 267.02885409 -61.5 263.3125 C-61.51464746 258.43330306 -61.5485155 253.5547801 -61.59375 248.67578125 C-61.59072876 247.57019363 -61.58770752 246.46460602 -61.58459473 245.32551575 C-61.71515687 231.62604911 -65.55245919 219.1871959 -75.375 209.3125 C-76.57095185 208.1949345 -77.77472313 207.08533408 -79 206 C-78.67 205.01 -78.34 204.02 -78 203 C-77.34257812 202.98582031 -76.68515625 202.97164062 -76.0078125 202.95703125 C-57.17287286 202.01273211 -39.35490843 195.23157822 -25 183 C-24.01 182.278125 -23.02 181.55625 -22 180.8125 C-8.32262064 169.14315694 0.49110705 149.01811508 2.27050781 131.30761719 C3.43870462 112.70130934 0.30649192 92.76910504 -11.765625 77.8125 C-13.35236849 75.48259816 -13.16230495 74.49331748 -12.6875 71.75 C-10.88389591 57.94938892 -10.61570959 41.30715068 -18 29 C-25.49349019 26.34605556 -33.12616241 29.62266485 -40.01953125 32.80859375 C-47.90672057 36.54641571 -47.90672057 36.54641571 -55.01707458 41.53598022 C-59.48500577 44.71999609 -63.46379293 44.72048154 -68.81567383 44.67871094 C-69.77599014 44.69068512 -70.73630646 44.7026593 -71.72572327 44.71499634 C-74.8865736 44.74708251 -78.04604592 44.74237431 -81.20703125 44.734375 C-83.4150998 44.74282907 -85.62316409 44.75247062 -87.83122253 44.76324463 C-92.45543108 44.77962251 -97.07916078 44.77693892 -101.70336914 44.76171875 C-107.61166883 44.74445282 -113.51818826 44.78154691 -119.42622852 44.83398056 C-123.98612754 44.86716198 -128.54560276 44.86764537 -133.10559654 44.85883331 C-135.282782 44.8591919 -137.4599951 44.87040304 -139.63706398 44.89293671 C-160.60134072 45.08110169 -160.60134072 45.08110169 -169 37 C-177.49788036 31.89527199 -186.90281983 28 -196.875 28 C-200.20553357 28.68810634 -200.20553357 28.68810634 -201.58984375 31.6328125 C-206.71529405 43.87142235 -207.46136949 58.35450412 -205.0625 71.3125 C-204.40134725 76.73757534 -207.05666372 79.85762198 -210.0859375 84.16015625 C-220.06085195 98.95967219 -222.35488929 119.10334081 -219.60888672 136.47412109 C-216.66296459 150.85576495 -210.52945221 163.8162908 -201 175 C-200.278125 175.99 -199.55625 176.98 -198.8125 178 C-184.00456731 195.29184398 -161.52973587 201.00650594 -140 203 C-140 207 -140 207 -141.28515625 208.46484375 C-141.87167969 208.95082031 -142.45820313 209.43679688 -143.0625 209.9375 C-150.20141579 216.67013603 -153.90110029 225.5907862 -156 235 C-175.66628374 235.77886272 -175.66628374 235.77886272 -185 231 C-185.83660156 230.5875 -186.67320312 230.175 -187.53515625 229.75 C-195.54062301 225.39463014 -201.30229043 218.94305523 -207.47265625 212.36328125 C-209.95023847 210.04653126 -212.07362937 208.68703693 -215.125 207.25 C-215.97320312 206.84265625 -216.82140625 206.4353125 -217.6953125 206.015625 C-222.52809496 203.88592425 -226.77161039 203.32993563 -232 204 C-234.69138543 205.44014926 -234.69138543 205.44014926 -236 208 C-236.58688021 211.52128126 -236.49243724 213.22922867 -234.5625 216.25 C-231.97659157 218.01598625 -230.68911039 218.35253539 -227.6875 218.875 C-221.59842391 220.04290476 -218.05850643 223.13714144 -214.48046875 228.11328125 C-213.48019037 229.64141102 -212.48686027 231.17410822 -211.5 232.7109375 C-202.93472335 245.78190655 -188.4236079 254.10341727 -173.34472656 257.63354492 C-170.14973522 258.13288707 -166.96040367 258.33558792 -163.734375 258.55078125 C-162.47334961 258.63626221 -161.21232422 258.72174316 -159.91308594 258.80981445 C-158.95176758 258.87257568 -157.99044922 258.93533691 -157 259 C-156.87543141 263.26829471 -156.7852136 267.53559796 -156.7253418 271.80517578 C-156.70035764 273.25425674 -156.66635731 274.70321375 -156.62280273 276.15185547 C-156.19859865 290.63468181 -156.19859865 290.63468181 -160.53881836 296.56835938 C-164.26639827 300.22057802 -168.11606585 301.82401573 -173.26171875 302.3046875 C-177.7737393 301.93693661 -180.92579594 300.61984502 -184.9375 298.625 C-185.67331299 298.26704346 -186.40912598 297.90908691 -187.16723633 297.5402832 C-210.45859089 285.94560163 -232.40329902 268.92099223 -248 248 C-248.39493652 247.48002441 -248.78987305 246.96004883 -249.19677734 246.42431641 C-272.22673655 215.99603892 -285.49385076 178.91834525 -285.26074219 140.64819336 C-285.2500211 138.56659732 -285.26071965 136.48586717 -285.2734375 134.40429688 C-285.28950073 120.90592472 -283.88521038 107.75723067 -280.375 94.6875 C-280.11557617 93.71458008 -279.85615234 92.74166016 -279.58886719 91.73925781 C-276.91093313 82.09428969 -273.31561067 73.0209696 -269 64 C-268.61827637 63.20078125 -268.23655273 62.4015625 -267.84326172 61.578125 C-262.31104459 50.18252892 -255.93264622 39.87222941 -248 30 C-247.53416504 29.41992188 -247.06833008 28.83984375 -246.58837891 28.2421875 C-220.32545919 -4.14844422 -185.37116224 -24.63040876 -145 -34 C-144.32404785 -34.16661133 -143.6480957 -34.33322266 -142.95166016 -34.50488281 C-94.95748398 -46.03494354 -37.90281693 -30.77404513 0 0 Z " fill="#FEFEFE" transform="translate(365,117)"/>
<path d="M0 0 C0.33 0 0.66 0 1 0 C1.09176643 33.41897614 1.16214537 66.83792067 1.20426132 100.25699504 C1.20926351 104.21185757 1.21444086 108.16671986 1.21972656 112.12158203 C1.2207758 112.90884874 1.22182505 113.69611544 1.22290608 114.50723872 C1.24026142 127.21665701 1.27177191 139.92600215 1.30861118 152.6353772 C1.3461568 165.69841256 1.36826447 178.76140989 1.37635398 191.82449698 C1.38181368 199.87040902 1.39899039 207.91611421 1.43166587 215.96196249 C1.4555201 222.1551678 1.45778581 228.34821889 1.45243073 234.54146385 C1.45352245 237.06479087 1.46136116 239.58812644 1.4768219 242.11140633 C1.58188305 260.15793653 0.48678451 277.76790114 -6.1875 294.75 C-6.48229248 295.52037598 -6.77708496 296.29075195 -7.08081055 297.08447266 C-16.95288452 321.97304247 -35.12044884 344.03674451 -58 358 C-59.0725 358.68320312 -60.145 359.36640625 -61.25 360.0703125 C-88.21407953 376.48594425 -122.4082633 381.9987153 -153.24609375 374.96484375 C-154.48488281 374.64644531 -155.72367187 374.32804687 -157 374 C-157.6408252 373.83902832 -158.28165039 373.67805664 -158.94189453 373.51220703 C-180.93299254 367.83303734 -199.66710547 356.64188745 -216 341 C-216.845625 340.195625 -217.69125 339.39125 -218.5625 338.5625 C-219.366875 337.716875 -220.17125 336.87125 -221 336 C-221.96292969 335.02933594 -221.96292969 335.02933594 -222.9453125 334.0390625 C-245.55101429 310.33064355 -255.84039581 277.23981717 -255.15625 245.03125 C-255.10684898 243.35408551 -255.05507349 241.6769878 -255 240 C-254.9690625 238.8553125 -254.938125 237.710625 -254.90625 236.53125 C-253.29248182 207.16066904 -237.54414055 177.50685536 -217 157 C-213.44771772 153.84362094 -209.76246446 150.90098984 -206 148 C-205.15824219 147.33097656 -204.31648438 146.66195312 -203.44921875 145.97265625 C-187.88098406 134.04252192 -166.10291181 122.64855049 -146 123 C-146.50323264 135.58081591 -153.27446463 146.4682982 -161 156 C-161.54269531 156.70640625 -162.08539063 157.4128125 -162.64453125 158.140625 C-175.50530375 174.03666498 -195.91371281 182.77495003 -215.8125 185.52734375 C-218.54711435 185.76275277 -221.2565268 185.94082705 -224 186 C-222.54869245 189.31940087 -220.69370053 191.52775203 -218.1875 194.125 C-208.43754159 204.91896485 -206.71393399 216.35048861 -206.7265625 230.4453125 C-206.70628611 232.84505685 -206.68543559 235.24479641 -206.6640625 237.64453125 C-206.64142644 241.39473558 -206.6249693 245.14474988 -206.61914062 248.89501953 C-206.60961505 252.53712487 -206.57585463 256.17839475 -206.5390625 259.8203125 C-206.54410797 260.93713409 -206.54915344 262.05395569 -206.55435181 263.20462036 C-206.47252964 269.69168273 -205.85729412 273.71764873 -202 279 C-200.43353348 280.58901279 -200.43353348 280.58901279 -198.6875 281.4375 C-198.15511719 281.74558594 -197.62273437 282.05367188 -197.07421875 282.37109375 C-189.5137597 284.66343632 -183.72607536 281.47966285 -177.0625 278.1875 C-176.04704102 277.69266113 -175.03158203 277.19782227 -173.98535156 276.68798828 C-165.05000163 272.22595967 -156.93111084 267.04688539 -149 261 C-148.05640625 260.29746094 -147.1128125 259.59492188 -146.140625 258.87109375 C-111.05584834 231.51950011 -86.80123407 189.15650068 -81 145 C-80.09700539 137.47089898 -79.71822547 129.94998576 -79.4375 122.375 C-79.37272461 120.72564453 -79.37272461 120.72564453 -79.30664062 119.04296875 C-79.20173594 116.36207118 -79.09957274 113.68109999 -79 111 C-77.97003906 110.56171875 -76.94007813 110.1234375 -75.87890625 109.671875 C-67.71517152 106.08126293 -60.16635488 102.09466109 -52.875 96.9375 C-52.18994385 96.45571289 -51.5048877 95.97392578 -50.79907227 95.47753906 C-46.60572545 92.42839228 -42.98464917 89.11639385 -39.44970703 85.32250977 C-38 84 -38 84 -36 84 C-35.62875 83.14148438 -35.62875 83.14148438 -35.25 82.265625 C-33.806706 79.64965463 -32.0900239 77.88481013 -30 75.75 C-11.22433539 55.19336399 -1.68608234 27.44244354 0 0 Z " fill="#141414" transform="translate(511,135)"/>
<path d="M0 0 C33.77632858 0.66703701 63.44514317 18.28360093 86.34765625 41.9765625 C109.12577726 66.42456402 119.21690523 99.27700375 118.12548828 132.16210938 C116.57898004 167.1360623 102.43454532 197.8061642 77 222 C76.35289062 222.64195312 75.70578125 223.28390625 75.0390625 223.9453125 C66.72882127 231.86903088 50.04864105 246 38 246 C37.91024902 245.32759277 37.82049805 244.65518555 37.72802734 243.96240234 C32.97196693 209.07080599 23.2555863 175.88953924 0.484375 148.25 C-0.25039063 147.13625 -0.25039063 147.13625 -1 146 C-0.67 145.01 -0.34 144.02 0 143 C2.30078125 142.2265625 2.30078125 142.2265625 5.3125 141.625 C24.26787875 137.26795797 39.92384509 126.96730188 50.4375 110.4375 C53.5133447 105.1144055 56.107819 99.85022145 58 94 C58.29777344 93.113125 58.59554687 92.22625 58.90234375 91.3125 C64.45111367 72.49270894 60.58264655 52.23234968 51.5078125 35.19921875 C41.85106373 18.86591401 26.67293959 8.16597715 8.57421875 3.02734375 C5.72380524 2.30720403 2.87230383 1.62640669 0 1 C0 0.67 0 0.34 0 0 Z " fill="#2D2D2D" transform="translate(394,0)"/>
<path d="M0 0 C11.66375644 2.76922519 11.66375644 2.76922519 14.484375 5.58984375 C11.11096406 6.57454178 7.73538718 7.55160478 4.359375 8.52734375 C3.40804687 8.80513672 2.45671875 9.08292969 1.4765625 9.36914062 C-3.1699534 10.70824069 -7.70944717 11.95063828 -12.515625 12.58984375 C-12.28055933 7.96688551 -12.06774128 5.4352718 -9.515625 1.52734375 C-5.84557237 -0.84289858 -4.18320785 -0.73697454 0 0 Z " fill="#4A4A4A" transform="translate(173.515625,144.41015625)"/>
</svg>
