<?xml version="1.0" encoding="UTF-8"?>
<svg version="1.1" xmlns="http://www.w3.org/2000/svg" width="512" height="512">
<path d="M0 0 C3.48209317 0.00478262 6.96413382 -0.00782269 10.44620943 -0.01801741 C17.24734619 -0.03511307 24.04839018 -0.03606464 30.84954283 -0.03080451 C36.38484915 -0.02674369 41.92012832 -0.02822891 47.45543337 -0.03355277 C48.24679511 -0.03430119 49.03815685 -0.03504961 49.85349925 -0.03582071 C51.46177608 -0.03735238 53.07005291 -0.03889073 54.67832974 -0.04043568 C69.72213716 -0.05412771 84.76589241 -0.04874665 99.80969861 -0.03725047 C113.53012424 -0.02732494 127.25041487 -0.04025286 140.97081968 -0.06418466 C155.10563188 -0.08865088 169.24038141 -0.09816492 183.37521434 -0.09153193 C191.29210524 -0.08805592 199.2088925 -0.09016367 207.12576723 -0.10778296 C213.86618255 -0.12259964 220.60642124 -0.12301839 227.34683344 -0.10571205 C230.77628414 -0.09727601 234.20542062 -0.09486733 237.63485384 -0.1103636 C256.2259315 -0.17678101 274.3338109 0.71495553 291.83774996 7.59433305 C292.60812593 7.88912553 293.37850191 8.18391801 294.17222261 8.4876436 C325.37503496 20.86426764 350.65048267 45.68840576 364.20884371 76.31210649 C365.74160768 79.96519395 367.11248745 83.66083623 368.40024996 87.40683305 C368.63075045 88.06925004 368.86125093 88.73166704 369.09873629 89.41415727 C374.33453998 105.60034731 374.53369363 121.45944698 374.49458301 138.31908309 C374.48980039 141.80117627 374.5024057 145.28321691 374.51260042 148.76529253 C374.52969608 155.56642928 374.53064765 162.36747328 374.52538752 169.16862592 C374.5213267 174.70393225 374.52281192 180.23921141 374.52813578 185.77451646 C374.5288842 186.5658782 374.52963262 187.35723994 374.53040372 188.17258234 C374.53193539 189.78085918 374.53347374 191.38913601 374.53501869 192.99741283 C374.54871072 208.04122025 374.54332966 223.08497551 374.53183348 238.12878171 C374.52190795 251.84920733 374.53483587 265.56949796 374.55876767 279.28990278 C374.58323389 293.42471498 374.59274793 307.55946451 374.58611494 321.69429743 C374.58263893 329.61118834 374.58474668 337.52797559 374.60236597 345.44485033 C374.61718265 352.18526564 374.6176014 358.92550433 374.60029506 365.66591653 C374.59185902 369.09536723 374.58945034 372.52450372 374.60494661 375.95393693 C374.67136403 394.5450146 373.77962748 412.652894 366.90024996 430.15683305 C366.60545748 430.92720903 366.310665 431.69758501 366.00693941 432.49130571 C356.13486544 457.37987552 337.96730112 479.44357757 315.08774996 493.40683305 C314.01524996 494.09003618 312.94274996 494.7732393 311.83774996 495.47714555 C305.45004956 499.3659539 298.94823783 502.48484403 291.96274996 505.15683305 C291.27874117 505.42640825 290.59473238 505.69598344 289.88999605 505.97372758 C271.57496724 512.61625088 252.95550458 512.98750368 233.69712496 512.92441118 C230.88921006 512.92764626 228.08132106 512.93682879 225.2734189 512.94565141 C218.48616735 512.96329401 211.69909425 512.95966107 204.91183615 512.94800085 C199.38806192 512.93890996 193.86433716 512.93776673 188.34055758 512.94209611 C187.54973779 512.94270905 186.75891801 512.94332198 185.944134 512.94395348 C184.33682329 512.94523258 182.7295126 512.94652944 181.12220192 512.94784385 C166.10506253 512.95920786 151.08802133 512.94620193 136.07089806 512.92464238 C123.22881 512.90677521 110.38686666 512.9098805 97.54478121 512.92831743 C82.57569806 512.94979842 67.60670065 512.95810962 52.63760424 512.94586837 C51.03671695 512.94459438 49.43582965 512.9433369 47.83494234 512.94209611 C47.04759258 512.94147901 46.26024282 512.94086191 45.44903398 512.94022611 C39.94182532 512.93679481 34.43467175 512.94255319 28.92747164 512.95201433 C22.20178323 512.96331652 15.47628117 512.96002387 8.75061369 512.93889135 C5.32917146 512.92848977 1.90829014 512.92627884 -1.51318693 512.93748796 C-22.88729031 513.00100847 -42.22548579 511.05828192 -61.91225004 502.40683305 C-62.56644926 502.12356157 -63.22064848 501.84029008 -63.89467192 501.54843462 C-93.98974488 488.26256094 -117.69643593 462.6852702 -129.78334379 432.21054399 C-130.63388989 429.95385314 -131.44074075 427.68745259 -132.22475004 425.40683305 C-132.57050077 424.41320756 -132.57050077 424.41320756 -132.92323637 423.39950883 C-138.15904006 407.2133188 -138.35819372 391.35421913 -138.31908309 374.49458301 C-138.31430048 371.01248984 -138.32690578 367.53044919 -138.33710051 364.04837358 C-138.35419617 357.24723682 -138.35514773 350.44619283 -138.3498876 343.64504018 C-138.34582678 338.10973386 -138.347312 332.5744547 -138.35263586 327.03914964 C-138.35338428 326.2477879 -138.3541327 325.45642616 -138.35490381 324.64108376 C-138.35643548 323.03280693 -138.35797382 321.4245301 -138.35951877 319.81625327 C-138.3732108 304.77244585 -138.36782974 289.7286906 -138.35633356 274.6848844 C-138.34640804 260.96445877 -138.35933595 247.24416814 -138.38326775 233.52376333 C-138.40773398 219.38895113 -138.41724801 205.2542016 -138.41061503 191.11936867 C-138.40713902 183.20247777 -138.40924677 175.28569051 -138.42686605 167.36881578 C-138.44168273 160.62840046 -138.44210148 153.88816178 -138.42479514 147.14774957 C-138.41635911 143.71829887 -138.41395042 140.28916239 -138.4294467 136.85972917 C-138.49586411 118.26865151 -137.60412757 100.16077211 -130.72475004 82.65683305 C-130.42995756 81.88645708 -130.13516508 81.1160811 -129.8314395 80.3223604 C-117.45481545 49.11954805 -92.63067734 23.84410034 -62.0069766 10.2857393 C-58.35388915 8.75297533 -54.65824686 7.38209556 -50.91225004 6.09433305 C-49.91862455 5.74858232 -49.91862455 5.74858232 -48.90492582 5.39584672 C-32.71873579 0.16004303 -16.85963612 -0.03911062 0 0 Z " fill="#2864B4" transform="translate(137.91225004196167,-0.40683305263519287)"/>
<path d="M0 0 C2.75145505 -0.00572257 5.50289042 -0.01584868 8.2543335 -0.02566528 C14.91843325 -0.04658794 21.58244576 -0.05126782 28.24657451 -0.0494774 C33.66938965 -0.04816336 39.09217786 -0.05200641 44.51498795 -0.05940247 C46.08437955 -0.06150193 47.65377116 -0.06359953 49.22316277 -0.06569529 C50.3952924 -0.06726058 50.3952924 -0.06726058 51.59110142 -0.06885749 C66.32677186 -0.08770594 81.06239237 -0.08672597 95.79806985 -0.07988816 C109.24181241 -0.07431378 122.68536436 -0.0951433 136.1290624 -0.12824863 C149.97684416 -0.16208099 163.82453483 -0.17714232 177.67235863 -0.1725316 C185.42936719 -0.17029691 193.1861995 -0.17538283 200.94317245 -0.20042419 C207.5460644 -0.22156096 214.14868339 -0.22490769 220.75158702 -0.2061246 C224.11211828 -0.19704273 227.47173155 -0.19836137 230.83228683 -0.21648026 C255.54234691 -0.34043658 276.67543702 2.74954012 294.93408203 20.74804688 C295.80806641 21.62976563 296.68205078 22.51148437 297.58251953 23.41992188 C298.25025391 24.05414062 298.91798828 24.68835938 299.60595703 25.34179688 C311.43730117 37.44081849 316.88314558 55.90926674 317.08251953 72.41992188 C316.85190572 91.51762837 309.80202179 109.38988878 296.21923828 122.87695312 C295.34912109 123.71613281 294.47900391 124.5553125 293.58251953 125.41992188 C292.94958984 126.08378906 292.31666016 126.74765625 291.66455078 127.43164062 C276.59106009 142.23893281 255.56585911 144.57433975 235.5925293 144.54589844 C233.97003633 144.54729523 232.34754373 144.54919586 230.72505188 144.55155945 C227.23737356 144.55604362 223.74970696 144.55791226 220.26202583 144.55802155 C214.71167713 144.55917054 209.1613937 144.5720778 203.61106873 144.58758545 C202.66981992 144.5901583 201.72857111 144.59273116 200.75879961 144.59538198 C198.83375099 144.60064894 196.90870242 144.60593442 194.9836539 144.611238 C182.07722775 144.64613637 169.17088167 144.6729229 156.2644043 144.67041016 C147.5420645 144.66880338 138.81994808 144.68528225 130.09767956 144.72111678 C125.50180374 144.739299 120.90629927 144.74917093 116.31039619 144.73664093 C86.79051846 144.66425045 58.12052242 146.45920406 29.83007812 155.69677734 C27.5873623 156.41836373 25.33468243 157.0844923 23.07080078 157.73632812 C16.60482882 159.62019582 10.56145195 161.59393779 4.79418945 165.16821289 C2.55482775 166.43559422 0.36359161 167.33304353 -2.04638672 168.22851562 C-7.46595275 170.3577018 -12.44482112 173.00831526 -17.47998047 175.91992188 C-18.38683594 176.44255615 -19.29369141 176.96519043 -20.22802734 177.50366211 C-33.97339359 185.54788004 -46.50623972 194.8745034 -58.41748047 205.41992188 C-59.77486328 206.61101562 -59.77486328 206.61101562 -61.15966797 207.82617188 C-70.10166489 215.76253389 -77.99513159 224.0397581 -85.41748047 233.41992188 C-86.59117188 234.86818359 -86.59117188 234.86818359 -87.78857422 236.34570312 C-95.10043387 245.55279679 -101.37816863 255.33985659 -107.41748047 265.41992188 C-107.98595703 266.36641602 -107.98595703 266.36641602 -108.56591797 267.33203125 C-118.40229328 283.99100523 -125.21238456 302.83871157 -130.41748047 321.41992188 C-130.65466797 322.21769043 -130.89185547 323.01545898 -131.13623047 323.83740234 C-133.23000725 331.08802509 -134.48440287 338.32912634 -135.54248047 345.79492188 C-135.71134766 346.92414063 -135.88021484 348.05335938 -136.05419922 349.21679688 C-137.17581032 356.9356008 -137.91448011 364.637076 -138.41748047 372.41992188 C-138.74748047 372.41992188 -139.07748047 372.41992188 -139.41748047 372.41992188 C-139.50925315 339.6379159 -139.57962899 306.85594354 -139.62174179 274.07383819 C-139.62674396 270.19408202 -139.63192132 266.3143261 -139.63720703 262.43457031 C-139.63825627 261.66225668 -139.63930551 260.88994305 -139.64038655 260.09422597 C-139.65774042 247.62730166 -139.68925008 235.16045194 -139.72609165 222.69357172 C-139.76364141 209.87913917 -139.7857458 197.06474541 -139.79383445 184.25026011 C-139.79929331 176.35789362 -139.81646529 168.46573807 -139.84914634 160.57343659 C-139.87300686 154.49773293 -139.87526528 148.42220655 -139.86991119 142.34645081 C-139.87100262 139.87150025 -139.87883731 137.39654096 -139.89430237 134.92163849 C-140.0006233 117.01332726 -138.85210536 99.51930543 -132.22998047 82.66992188 C-131.93518799 81.8995459 -131.64039551 81.12916992 -131.33666992 80.33544922 C-118.96004588 49.13263688 -94.13590776 23.85718916 -63.51220703 10.29882812 C-59.85911957 8.76606416 -56.16347729 7.39518438 -52.41748047 6.10742188 C-51.42385498 5.76167114 -51.42385498 5.76167114 -50.41015625 5.40893555 C-33.74107545 0.01692949 -17.35032038 -0.02199714 0 0 Z " fill="#417CCC" transform="translate(139.41748046875,-0.419921875)"/>
<path d="M0 0 C0.33 0 0.66 0 1 0 C1.09146657 32.52721903 1.16214981 65.05440065 1.20426132 97.58171915 C1.20926349 101.43143277 1.21444084 105.28114613 1.21972656 109.13085938 C1.2207758 109.89719178 1.22182505 110.66352418 1.22290608 111.45307878 C1.24025935 123.82300551 1.27176866 136.19285705 1.30861118 148.56273934 C1.34616264 161.27773076 1.36826569 173.99268309 1.37635398 186.70772767 C1.38181249 194.53867596 1.39898253 202.36941164 1.43166587 210.20029441 C1.45552897 216.2289963 1.45778439 222.25751956 1.45243073 228.28627396 C1.45352203 230.74187392 1.46135507 233.19748271 1.4768219 235.65303421 C1.58366013 253.50594095 0.41370461 270.95384618 -6.1875 287.75 C-6.48229248 288.52037598 -6.77708496 289.29075195 -7.08081055 290.08447266 C-16.95288452 314.97304247 -35.12044884 337.03674451 -58 351 C-59.0725 351.68320312 -60.145 352.36640625 -61.25 353.0703125 C-88.1270584 369.43296611 -122.0210146 374.96550193 -152.73046875 367.8359375 C-153.80941406 367.56007813 -154.88835937 367.28421875 -156 367 C-156.98613281 366.80664062 -157.97226562 366.61328125 -158.98828125 366.4140625 C-178.40684549 362.36743342 -195.78429416 351.2746835 -211 339 C-211.70253906 338.44183594 -212.40507812 337.88367188 -213.12890625 337.30859375 C-229.55467274 323.82256176 -240.21232125 304.41959384 -248 285 C-248.37511719 284.09378906 -248.75023437 283.18757813 -249.13671875 282.25390625 C-250.18371881 279.52033595 -250.50746234 277.89978483 -250 275 C-247.75 272.5 -247.75 272.5 -245 270 C-241.23527757 265.60782383 -239.87515969 262.78364803 -239.87542725 257.01246643 C-239.87286423 255.98232925 -239.87030121 254.95219208 -239.86766052 253.89083862 C-239.86976028 252.76098541 -239.87186005 251.6311322 -239.87402344 250.46704102 C-239.8721553 249.2764357 -239.87028717 248.08583038 -239.86836243 246.85914612 C-239.86435325 244.2678658 -239.86228312 241.67658193 -239.86190033 239.08529854 C-239.86075799 234.97771845 -239.84790243 230.87022786 -239.83233643 226.76268005 C-239.82976357 226.06853125 -239.82719072 225.37438244 -239.8245399 224.65919882 C-239.81927302 223.23949235 -239.81398753 221.81978594 -239.80868387 220.40007961 C-239.77364019 210.83970432 -239.74701304 201.27943902 -239.74951172 191.71899414 C-239.75110702 185.26824108 -239.73490492 178.81779288 -239.69880509 172.36713737 C-239.68044522 168.95838806 -239.67091306 165.55014697 -239.68328094 162.14135933 C-239.69294887 158.32627437 -239.67162806 154.51247862 -239.64355469 150.69750977 C-239.65375137 149.58587463 -239.66394806 148.4742395 -239.67445374 147.32891846 C-239.51557426 135.21391031 -234.81710699 124.91357549 -226.34375 116.3203125 C-218.13175888 108.81753879 -208.5688079 105.48577431 -197.51171875 105.6875 C-185.90000273 106.72080065 -176.08850931 111.35594133 -168.1875 119.875 C-165.1009004 123.618931 -162.80500438 127.50032083 -161 132 C-160.65859482 132.78552246 -160.31718964 133.57104492 -159.96543884 134.38037109 C-158.57713422 139.58541083 -158.71662299 144.6038622 -158.72875977 149.96875 C-158.72353302 151.16943115 -158.71830627 152.3701123 -158.71292114 153.60717773 C-158.70002715 156.88814212 -158.695629 160.16899685 -158.69407773 163.44998169 C-158.68959419 166.89052321 -158.67159106 170.33098749 -158.65428162 173.77148438 C-158.60518866 183.99962789 -158.57421143 194.22781641 -158.55297852 204.45605469 C-158.53644258 212.41058468 -158.51360214 220.36497088 -158.46995777 228.3194046 C-158.45177794 231.74122361 -158.4395607 235.16284534 -158.44125557 238.5847168 C-158.44106374 242.40041057 -158.42281339 246.21562983 -158.40063477 250.03125 C-158.40521194 251.15974365 -158.40978912 252.2882373 -158.414505 253.45092773 C-158.36295287 259.02372426 -158.24790219 263.2397603 -155 268 C-149.64342259 272.83398449 -146.08368124 273.16865888 -139.046875 273.203125 C-138.15389709 273.20882507 -137.26091919 273.21452515 -136.34088135 273.22039795 C-134.44780667 273.22985486 -132.55471548 273.23638467 -130.66162109 273.24023438 C-127.77542024 273.24991474 -124.88993911 273.28092091 -122.00390625 273.3125 C-120.16406673 273.31903264 -118.32422211 273.32428209 -116.484375 273.328125 C-115.19500031 273.3466452 -115.19500031 273.3466452 -113.87957764 273.36553955 C-108.83030283 273.34692229 -105.37336008 272.80343595 -101 270 C-96.91472676 265.58348839 -95.87525761 262.41944238 -95.87301636 256.49443054 C-95.87019653 255.34938553 -95.86737671 254.20434052 -95.86447144 253.02459717 C-95.86649567 251.76697571 -95.8685199 250.50935425 -95.87060547 249.21362305 C-95.8692504 247.87630668 -95.86746986 246.5389907 -95.86529541 245.20167542 C-95.86072887 241.56465613 -95.86250873 237.92766516 -95.8656745 234.29064536 C-95.86820785 230.47483478 -95.8658573 226.65902662 -95.86428833 222.84321594 C-95.86246706 216.42306078 -95.86486929 210.00291709 -95.86962891 203.58276367 C-95.87504597 196.19110168 -95.8733274 188.79946739 -95.8678025 181.4078061 C-95.86323959 175.04579359 -95.86263704 168.68378935 -95.86524117 162.32177573 C-95.86678984 158.52970001 -95.86703732 154.73763722 -95.86370468 150.94556236 C-95.86078053 147.36770422 -95.86288363 143.78988103 -95.86859894 140.2120266 C-95.87051824 138.29675721 -95.86760976 136.38148482 -95.86447144 134.46621704 C-95.88413735 126.2641629 -96.31694212 118.17286725 -97 110 C-96.06542969 109.74347656 -95.13085938 109.48695313 -94.16796875 109.22265625 C-73.00207214 103.15730315 -54.92473072 93.27527188 -39 78 C-38.17886719 77.24203125 -37.35773438 76.4840625 -36.51171875 75.703125 C-14.9018841 55.13513308 -5.44420192 28.63545179 0 0 Z " fill="#0F4B9B" transform="translate(511,142)"/>
<path d="M0 0 C0.79148437 0.41765625 1.58296875 0.8353125 2.3984375 1.265625 C18.41075102 10.23252057 30.43058141 25.44529677 35.62109375 43.11425781 C36.93459592 48.03130598 38.10119141 52.98966865 39 58 C39.16962753 58.92361832 39.33925507 59.84723663 39.51402283 60.79884338 C40.33084466 66.6196981 40.15591177 72.50208129 40.16113281 78.36743164 C40.16576771 79.71831903 40.17079327 81.06920512 40.17617798 82.42008972 C40.1892324 86.07285368 40.19573232 89.72559931 40.20018864 93.37838292 C40.2031284 95.66279992 40.2072347 97.947212 40.21169281 100.23162651 C40.22534443 107.38635675 40.23502459 114.54107565 40.2388947 121.69581801 C40.24338104 129.94274368 40.26096531 138.18950407 40.2898953 146.43637949 C40.31151663 152.82212762 40.32159909 159.20782923 40.32293582 165.59361356 C40.32398279 169.40332027 40.3298684 173.2128711 40.34775543 177.02253914 C40.36424584 180.60377839 40.3663871 184.18474466 40.35761642 187.76600838 C40.35648056 189.70188508 40.3701872 191.63775279 40.3843689 193.57357788 C40.35211669 200.28725688 40.23921109 205.44867743 35.5 210.64453125 C31.62520456 213.66162457 28.87835306 215.10862171 23.9909668 215.17700195 C23.18970871 215.18983719 22.38845062 215.20267242 21.56291199 215.21589661 C20.70039322 215.22328354 19.83787445 215.23067047 18.94921875 215.23828125 C18.05765579 215.246353 17.16609283 215.25442474 16.24751282 215.26274109 C14.36042214 215.27656906 12.47330658 215.28729697 10.58618164 215.29516602 C7.708662 215.31237345 4.83229319 215.35626988 1.95507812 215.40039062 C0.1198001 215.41051855 -1.71548768 215.41903434 -3.55078125 215.42578125 C-4.40722733 215.44328934 -5.2636734 215.46079742 -6.14607239 215.47883606 C-11.59969747 215.45915595 -14.66823431 214.61870761 -19 211 C-22.86274874 206.71965681 -24.1248377 203.72732416 -24.12457275 198.01246643 C-24.12713577 196.98232925 -24.12969879 195.95219208 -24.13233948 194.89083862 C-24.13023972 193.76098541 -24.12813995 192.6311322 -24.12597656 191.46704102 C-24.12877876 189.68113304 -24.12877876 189.68113304 -24.13163757 187.85914612 C-24.13564675 185.2678658 -24.13771688 182.67658193 -24.13809967 180.08529854 C-24.13924201 175.97771845 -24.15209757 171.87022786 -24.16766357 167.76268005 C-24.17023643 167.06853125 -24.17280928 166.37438244 -24.1754601 165.65919882 C-24.18072698 164.23949235 -24.18601247 162.81978594 -24.19131613 161.40007961 C-24.22635981 151.83970432 -24.25298696 142.27943902 -24.25048828 132.71899414 C-24.24889298 126.26824108 -24.26509508 119.81779288 -24.30119491 113.36713737 C-24.31955478 109.95838806 -24.32908694 106.55014697 -24.31671906 103.14135933 C-24.30705113 99.32627437 -24.32837194 95.51247862 -24.35644531 91.69750977 C-24.34624863 90.58587463 -24.33605194 89.4742395 -24.32554626 88.32891846 C-24.47037237 77.28551934 -28.33696189 67.07970448 -36 59 C-45.14949989 50.50262429 -56.26396412 47.54537524 -68.515625 47.65625 C-79.43644085 48.7336399 -88.80902878 54.95518529 -95.75 63.1875 C-102.11545443 72.03175325 -103.59219432 80.8337298 -103.49829102 91.53637695 C-103.50380981 92.73778824 -103.50932861 93.93919952 -103.51501465 95.17701721 C-103.52669254 98.43719341 -103.52119712 101.69679703 -103.50871015 104.95695138 C-103.5006052 108.38413248 -103.51754768 111.8111822 -103.53245544 115.23832703 C-103.5631237 123.19165425 -103.5647812 131.14485301 -103.56280518 139.09822845 C-103.56140744 149.23979425 -103.57180756 159.38126247 -103.6113829 169.52275628 C-103.62384006 172.92776482 -103.62953758 176.33252001 -103.61987495 179.73754311 C-103.61065318 183.52870106 -103.6191308 187.31945432 -103.63110352 191.1105957 C-103.62338425 192.23123413 -103.61566498 193.35187256 -103.60771179 194.50646973 C-103.64928595 200.87843693 -104.00807759 205.7197934 -108.5 210.64453125 C-112.37479544 213.66162457 -115.12164694 215.10862171 -120.0090332 215.17700195 C-120.81029129 215.18983719 -121.61154938 215.20267242 -122.43708801 215.21589661 C-123.29960678 215.22328354 -124.16212555 215.23067047 -125.05078125 215.23828125 C-125.94234421 215.246353 -126.83390717 215.25442474 -127.75248718 215.26274109 C-129.63957786 215.27656906 -131.52669342 215.28729697 -133.41381836 215.29516602 C-136.291338 215.31237345 -139.16770681 215.35626988 -142.04492188 215.40039062 C-143.8801999 215.41051855 -145.71548768 215.41903434 -147.55078125 215.42578125 C-148.40722733 215.44328934 -149.2636734 215.46079742 -150.14607239 215.47883606 C-155.59969747 215.45915595 -158.66823431 214.61870761 -163 211 C-167.61423299 205.88693101 -168.1488394 202.03219681 -168.14717102 195.35258484 C-168.15084771 194.56612935 -168.1545244 193.77967387 -168.1583125 192.9693864 C-168.1693542 190.32553164 -168.17319398 187.68171617 -168.17700195 185.0378418 C-168.18326616 183.14567947 -168.18991293 181.25351838 -168.19691467 179.36135864 C-168.21432653 174.21460763 -168.22487665 169.06786591 -168.2331202 163.92109275 C-168.23826929 160.70668422 -168.24434502 157.49227858 -168.25063133 154.27787209 C-168.26968275 144.22385797 -168.28391477 134.1698512 -168.2922433 124.11582249 C-168.30202072 112.50405251 -168.32835368 100.89247289 -168.36874419 89.28077 C-168.39888241 80.30913844 -168.41370994 71.33756152 -168.41702431 62.36588031 C-168.41937713 57.00566689 -168.42836794 51.64565686 -168.45348549 46.28549767 C-168.47673147 41.2433139 -168.4810134 36.20146796 -168.47072411 31.15924454 C-168.47022781 29.30892248 -168.47657571 27.45858398 -168.49028015 25.60831261 C-168.50794979 23.08125763 -168.50091778 20.55542157 -168.48774719 18.02836609 C-168.50420106 16.93122167 -168.50420106 16.93122167 -168.52098733 15.81191272 C-168.45728743 10.74620699 -167.15939767 7.9133903 -164 4 C-158.5749223 -0.77923511 -155.12882608 -1.16843776 -148.046875 -1.203125 C-147.15389709 -1.20882507 -146.26091919 -1.21452515 -145.34088135 -1.22039795 C-143.44780667 -1.22985486 -141.55471548 -1.23638467 -139.66162109 -1.24023438 C-136.77542024 -1.24991474 -133.88993911 -1.28092091 -131.00390625 -1.3125 C-129.16406673 -1.31903264 -127.32422211 -1.32428209 -125.484375 -1.328125 C-124.62479187 -1.3404718 -123.76520874 -1.3528186 -122.87957764 -1.36553955 C-117.13521605 -1.34435943 -112.73049154 -0.54889115 -108.35546875 3.53515625 C-104.45548469 8.6351354 -103.77008424 11.81135166 -103.4375 18.125 C-103.39431641 18.87910156 -103.35113281 19.63320312 -103.30664062 20.41015625 C-103.2005168 22.27321888 -103.09974999 24.13658524 -103 26 C-102.50371094 25.28714844 -102.00742187 24.57429688 -101.49609375 23.83984375 C-91.78203393 10.14430969 -79.37645065 -0.97540719 -63 -6 C-62.1853125 -6.29519531 -61.370625 -6.59039062 -60.53125 -6.89453125 C-41.38525825 -12.91891658 -17.50008636 -9.62156143 0 0 Z " fill="#FEFEFE" transform="translate(376,201)"/>
<path d="M0 0 C0.89297791 -0.00570007 1.78595581 -0.01140015 2.70599365 -0.01727295 C4.59906833 -0.02672986 6.49215952 -0.03325967 8.38525391 -0.03710938 C11.27145476 -0.04678974 14.15693589 -0.07779591 17.04296875 -0.109375 C18.88280827 -0.11590764 20.72265289 -0.12115709 22.5625 -0.125 C23.42208313 -0.1373468 24.28166626 -0.1496936 25.16729736 -0.16241455 C30.91165895 -0.14123443 35.31638346 0.65423385 39.69140625 4.73828125 C43.54065021 9.77190797 44.19559367 12.50858653 44.19404602 18.72355652 C44.19772271 19.50845201 44.2013994 20.29334751 44.2051875 21.10202771 C44.21624916 23.74665455 44.22007239 26.39124213 44.22387695 29.03588867 C44.23013979 30.92628098 44.23678642 32.81667206 44.24378967 34.70706177 C44.26121742 39.85393912 44.27175651 45.00080718 44.2799952 50.14770675 C44.28514215 53.3622852 44.29121805 56.57686074 44.29750633 59.79143715 C44.31656432 69.84599069 44.33079353 79.90053687 44.3391183 89.95510501 C44.34889058 101.56687511 44.37520738 113.17845457 44.41561919 124.7901575 C44.4457698 133.76093528 44.46058622 142.73165839 44.46389931 151.70248586 C44.46625122 157.06218718 44.47522985 162.42168499 44.50036049 167.78133202 C44.52362733 172.82514713 44.52787996 177.86862455 44.51759911 182.9124794 C44.51710328 184.76238057 44.52343747 186.61229829 44.53715515 188.46214867 C44.55485717 190.99109519 44.5477767 193.51882763 44.53462219 196.04777527 C44.54559144 196.77697416 44.55656068 197.50617305 44.56786233 198.25746888 C44.4990666 203.74932477 43.05493991 206.76981426 40.046875 211.203125 C36.21436776 214.75520489 33.24983269 216.30720511 28.0378418 216.38012695 C27.23658371 216.39296219 26.43532562 216.40579742 25.60978699 216.41902161 C24.74726822 216.42640854 23.88474945 216.43379547 22.99609375 216.44140625 C22.10453079 216.449478 21.21296783 216.45754974 20.29438782 216.46586609 C18.40729714 216.47969406 16.52018158 216.49042197 14.63305664 216.49829102 C11.755537 216.51549845 8.87916819 216.55939488 6.00195312 216.60351562 C4.1666751 216.61364355 2.33138732 216.62215934 0.49609375 216.62890625 C-0.36035233 216.64641434 -1.2167984 216.66392242 -2.09919739 216.68196106 C-7.55282247 216.66228095 -10.62135931 215.82183261 -14.953125 212.203125 C-19.56735799 207.09005601 -20.1019644 203.23532181 -20.10029602 196.55570984 C-20.10397271 195.76925435 -20.1076494 194.98279887 -20.1114375 194.1725114 C-20.1224792 191.52865664 -20.12631898 188.88484117 -20.13012695 186.2409668 C-20.13639116 184.34880447 -20.14303793 182.45664338 -20.15003967 180.56448364 C-20.16745153 175.41773263 -20.17800165 170.27099091 -20.1862452 165.12421775 C-20.19139429 161.90980922 -20.19747002 158.69540358 -20.20375633 155.48099709 C-20.22280775 145.42698297 -20.23703977 135.3729762 -20.2453683 125.31894749 C-20.25514572 113.70717751 -20.28147868 102.09559789 -20.32186919 90.483895 C-20.35200741 81.51226344 -20.36683494 72.54068652 -20.37014931 63.56900531 C-20.37250213 58.20879189 -20.38149294 52.84878186 -20.40661049 47.48862267 C-20.42985647 42.4464389 -20.4341384 37.40459296 -20.42384911 32.36236954 C-20.42335281 30.51204748 -20.42970071 28.66170898 -20.44340515 26.81143761 C-20.46107479 24.28438263 -20.45404278 21.75854657 -20.44087219 19.23149109 C-20.45732606 18.13434667 -20.45732606 18.13434667 -20.47411233 17.01503772 C-20.41041243 11.94933199 -19.11252267 9.1165153 -15.953125 5.203125 C-10.5280473 0.42388989 -7.08195108 0.03468724 0 0 Z " fill="#FEFEFE" transform="translate(115.953125,199.796875)"/>
<path d="M0 0 C8.95850358 5.36331464 15.80572833 13.29511423 18.6875 23.4140625 C21.41730632 35.66027698 20.02111038 47.03382327 13.25 57.875 C6.82881336 66.66783095 -1.70635608 72.66160707 -12.4609375 74.67578125 C-24.66175505 76.2337318 -34.24395984 74.27632247 -44.375 67.125 C-52.99605919 60.0568024 -58.28032694 51.16918967 -60 40 C-61.12752198 27.99994461 -58.22758417 18.12868768 -50.59375 8.7421875 C-37.05888121 -6.05328181 -17.93726281 -9.26108678 0 0 Z " fill="#FDFEFE" transform="translate(148,93)"/>
<path d="M0 0 C4.2998761 2.72348945 7.22922942 5.5004132 10.32421875 9.57421875 C9.19886719 10.04730469 8.07351563 10.52039063 6.9140625 11.0078125 C-8.1550186 17.45183831 -21.25631585 24.7845503 -33.67578125 35.57421875 C-34.30742187 36.07308594 -34.9390625 36.57195312 -35.58984375 37.0859375 C-44.3196232 44.04185765 -50.49991147 53.51199164 -56.48950195 62.79858398 C-57.52931101 64.4051067 -58.59953238 65.99187666 -59.67578125 67.57421875 C-60.00578125 67.57421875 -60.33578125 67.57421875 -60.67578125 67.57421875 C-60.80055903 61.95499522 -60.89066946 56.33660026 -60.95043945 50.71630859 C-60.97538808 48.80958994 -61.00935984 46.90296496 -61.05297852 44.99658203 C-61.38422487 30.13336306 -60.16324172 18.0384525 -49.67578125 6.57421875 C-36.06608581 -7.22806672 -16.98787503 -9.05193341 0 0 Z " fill="#2964B4" transform="translate(332.67578125,253.42578125)"/>
</svg>
