<?xml version="1.0" encoding="UTF-8"?>
<svg version="1.1" xmlns="http://www.w3.org/2000/svg" width="3000" height="3000">
<path d="M0 0 C4.75040572 0.00464385 9.50079745 -0.00242741 14.25120027 -0.00793364 C22.59553537 -0.01601137 30.93984554 -0.01670626 39.28418313 -0.01252175 C51.77619628 -0.00629172 64.26818665 -0.01160954 76.76019815 -0.01911917 C98.05362128 -0.0315772 119.34703627 -0.03453278 140.6404625 -0.03228422 C162.21617379 -0.03003455 183.79187751 -0.03209139 205.36758767 -0.03942915 C206.74468313 -0.03989314 208.12177859 -0.04035708 209.49887406 -0.04082099 C215.0516166 -0.04270013 220.60435914 -0.04461273 226.15710166 -0.04656337 C241.80819128 -0.05205335 257.45928109 -0.05681242 273.11037109 -0.06106731 C274.18606376 -0.06135996 274.18606376 -0.06135996 275.28348759 -0.06165852 C316.04594892 -0.0726631 356.80841062 -0.07327757 397.57087316 -0.07410024 C403.80100225 -0.07422674 410.03113134 -0.07435978 416.26126043 -0.07450134 C417.82285813 -0.07453673 419.38445583 -0.07457148 420.94605353 -0.07460559 C456.01137579 -0.07538155 491.07669726 -0.07974022 526.14201912 -0.0848661 C533.97096038 -0.08600922 541.79990165 -0.08711718 549.62884291 -0.08822736 C550.40598555 -0.0883376 551.1831282 -0.08844785 551.98382062 -0.08856143 C556.70129047 -0.08923044 561.41876033 -0.08989798 566.13623018 -0.09056456 C568.49948214 -0.09089872 570.86273409 -0.09123374 573.22598605 -0.09156883 C609.9693589 -0.09677241 646.71273182 -0.10123307 683.45610485 -0.10493322 C684.25666839 -0.10501397 685.05723193 -0.10509471 685.88205496 -0.10517789 C736.89060511 -0.11030351 787.8991548 -0.11210297 838.90770519 -0.11157723 C841.41558768 -0.11155172 843.92347017 -0.11152779 846.43135266 -0.1115044 C864.04967055 -0.11133973 881.66798843 -0.11113431 899.28630631 -0.11091865 C904.33770484 -0.11085711 909.38910338 -0.11079698 914.44050191 -0.11073702 C918.65402461 -0.11068683 922.86754731 -0.11063525 927.08107001 -0.11058079 C1006.65074031 -0.10955812 1086.22040655 -0.11238969 1165.79007492 -0.13127562 C1167.04637487 -0.13157369 1167.04637487 -0.13157369 1168.32805462 -0.13187779 C1194.49652681 -0.13810048 1220.66499888 -0.14483347 1246.83347092 -0.15166136 C1273.68528547 -0.15866447 1300.53710003 -0.16560553 1327.38891468 -0.17219015 C1328.21575036 -0.1723932 1329.04258604 -0.17259626 1329.89447735 -0.17280546 C1381.69796346 -0.18550887 1433.50144842 -0.1933485 1485.30493603 -0.19590613 C1486.1053336 -0.19594618 1486.90573116 -0.19598624 1487.7303832 -0.1960275 C1522.88608864 -0.19777836 1558.04179402 -0.19841762 1593.19749949 -0.19784573 C1607.34173712 -0.19761718 1621.48597476 -0.19750504 1635.6302124 -0.19743909 C1637.97530257 -0.19742629 1640.32039274 -0.19740814 1642.66548292 -0.19738879 C1678.50870557 -0.19711601 1714.35192452 -0.19979555 1750.19514547 -0.21147915 C1750.96730521 -0.21173049 1751.73946496 -0.21198184 1752.53502349 -0.2122408 C1764.95489821 -0.21629847 1777.37477285 -0.22058662 1789.79464748 -0.22489441 C1825.07733909 -0.23712208 1860.3600257 -0.24719427 1895.64271973 -0.24295207 C1896.35960169 -0.24286664 1897.07648365 -0.24278122 1897.8150893 -0.2426932 C1913.46039223 -0.24078586 1929.10569474 -0.2377535 1944.75099723 -0.23361977 C1950.99210957 -0.23198728 1957.23322195 -0.23049997 1963.47433434 -0.22905775 C1964.15510548 -0.22889645 1964.83587663 -0.22873514 1965.5372772 -0.22856895 C1987.73151027 -0.2233807 2009.92571003 -0.23162364 2032.11993859 -0.24640013 C2053.28818333 -0.26021159 2074.45638787 -0.25965912 2095.62463174 -0.24401585 C2108.02119191 -0.23527903 2120.41763342 -0.2373339 2132.81418365 -0.25574942 C2141.06760708 -0.26690379 2149.32094275 -0.26330914 2157.57435955 -0.24818386 C2162.23984855 -0.24003297 2166.90510567 -0.23768464 2171.5705797 -0.25368524 C2232.49049741 -0.4485738 2290.60293196 11.40579655 2346.40646897 36.25995973 C2347.59973801 36.78323854 2347.59973801 36.78323854 2348.8171135 37.31708864 C2381.64729644 51.76412829 2412.03692899 72.21329667 2439.40646897 95.25995973 C2439.89295914 95.66493685 2440.37944931 96.06991396 2440.88068161 96.4871631 C2449.63374117 103.78294371 2457.90299015 111.43849711 2465.93112717 119.52387575 C2467.72862701 121.33217581 2469.53669213 123.12941951 2471.34592209 124.92597536 C2478.16066734 131.73299098 2484.4229387 138.70410341 2490.40646897 146.25995973 C2491.34095034 147.36204078 2492.28233537 148.45835859 2493.23459397 149.54511598 C2514.5157944 173.94984745 2531.35088195 202.21614063 2545.44309006 231.27997927 C2546.40505621 233.25705617 2547.38392732 235.22515266 2548.36350022 237.19355348 C2564.8633011 270.79262898 2575.42270726 307.87014993 2581.21896897 344.75995973 C2581.51130417 346.61633058 2581.51130417 346.61633058 2581.80954514 348.51020388 C2582.39215132 352.42103453 2582.90608919 356.33803459 2583.40646897 360.25995973 C2583.53876067 361.25662258 2583.53876067 361.25662258 2583.67372493 362.27342002 C2585.96479316 380.10944824 2585.69249395 398.01955605 2585.6664287 415.96395912 C2585.66178124 420.71281226 2585.66885779 425.46165147 2585.67436234 430.21050171 C2585.68243687 438.55054271 2585.68313641 446.89055877 2585.67895045 455.23060226 C2585.67271829 467.71617141 2585.67803986 480.2017178 2585.68554787 492.6872853 C2585.69800354 513.97011966 2585.70096184 535.25294587 2585.69871292 556.53578333 C2585.69646301 578.09978668 2585.69852096 599.66378246 2585.70585785 621.22778467 C2585.70632184 622.60429302 2585.70678578 623.98080136 2585.70724969 625.3573097 C2585.70912884 630.90771139 2585.71104144 636.45811306 2585.71299207 642.00851471 C2585.71848195 657.65277079 2585.72324105 673.29702704 2585.72749601 688.9412835 C2585.72778866 690.01648909 2585.72778866 690.01648909 2585.72808722 691.11341601 C2585.73909093 731.85416661 2585.73970624 772.5949176 2585.74052894 813.33566943 C2585.74065544 819.5622892 2585.74078849 825.78890898 2585.74093004 832.01552875 C2585.74096543 833.57625102 2585.74100018 835.13697329 2585.74103429 836.69769557 C2585.74181029 871.74526515 2585.74616911 906.79283394 2585.7512948 941.84040312 C2585.75243793 949.66567146 2585.75354588 957.49093981 2585.75465606 965.31620815 C2585.75476631 966.09298695 2585.75487655 966.86976575 2585.75499013 967.6700833 C2585.75565914 972.38534835 2585.75632668 977.1006134 2585.75699326 981.81587845 C2585.75732742 984.17802907 2585.75766244 986.5401797 2585.75799754 988.90233032 C2585.76320107 1025.62831278 2585.76766175 1062.35429531 2585.77136193 1099.08027796 C2585.77144267 1099.8804567 2585.77152341 1100.68063545 2585.7716066 1101.50506204 C2585.77673209 1152.48787453 2585.77853168 1203.47068657 2585.77800593 1254.4534993 C2585.77798042 1256.96005795 2585.77795649 1259.4666166 2585.77793311 1261.97317525 C2585.77776843 1279.58214983 2585.77756301 1297.19112442 2585.77734735 1314.800099 C2585.77728581 1319.84880778 2585.77722568 1324.89751655 2585.77716572 1329.94622533 C2585.77711553 1334.15750383 2585.77706395 1338.36878234 2585.77700949 1342.58006085 C2585.77598681 1422.10851465 2585.77881886 1501.6369644 2585.79770432 1581.16541628 C2585.79790304 1582.00253676 2585.79810175 1582.83965725 2585.79830649 1583.70214502 C2585.8045292 1609.85780992 2585.81126218 1636.01347468 2585.81809006 1662.16913942 C2585.82509318 1689.00788259 2585.83203424 1715.84662578 2585.83861885 1742.68536905 C2585.83892343 1743.92502036 2585.83892343 1743.92502036 2585.83923416 1745.18971513 C2585.85193756 1796.96798917 2585.8597772 1848.74626206 2585.86233483 1900.5245376 C2585.86237488 1901.32454359 2585.86241494 1902.12454958 2585.86245621 1902.94879817 C2585.86420706 1938.08725966 2585.86484632 1973.2257211 2585.86427444 2008.36418263 C2585.86404588 2022.50144957 2585.86393374 2036.6387165 2585.86386779 2050.77598344 C2585.86385499 2053.11991435 2585.86383684 2055.46384526 2585.86381749 2057.80777618 C2585.86354471 2093.63301822 2585.86622415 2129.45825656 2585.87790785 2165.28349689 C2585.87815919 2166.05526242 2585.87841054 2166.82702794 2585.8786695 2167.6221803 C2585.88272716 2180.03568993 2585.88701532 2192.44919947 2585.89132312 2204.86270901 C2585.90355076 2240.12717753 2585.91362298 2275.39164105 2585.90938077 2310.65611199 C2585.90929535 2311.37262274 2585.90920992 2312.08913349 2585.9091219 2312.82735668 C2585.90721457 2328.46454447 2585.90418221 2344.10173184 2585.90004847 2359.7389192 C2585.89841598 2365.97678608 2585.89692867 2372.214653 2585.89548645 2378.45251993 C2585.89532515 2379.13293677 2585.89516385 2379.81335361 2585.89499766 2380.51438914 C2585.88980942 2402.69700269 2585.8980523 2424.87958292 2585.91282883 2447.06219197 C2585.92664032 2468.21935071 2585.92608778 2489.37646924 2585.91044455 2510.53362712 C2585.90170778 2522.92365381 2585.90376249 2535.31356178 2585.92217812 2547.70357852 C2585.93333257 2555.95266607 2585.92973774 2564.20166582 2585.91461256 2572.45074674 C2585.90646175 2577.11376706 2585.90411312 2581.77655538 2585.92011394 2586.43956072 C2586.11508883 2647.35340908 2574.25795592 2705.46243151 2549.40646897 2761.25995973 C2548.88319016 2762.45322878 2548.88319016 2762.45322878 2548.34934006 2763.67060427 C2533.90230042 2796.50078721 2513.45313203 2826.89041976 2490.40646897 2854.25995973 C2490.00149186 2854.74644991 2489.59651474 2855.23294008 2489.1792656 2855.73417238 C2481.88348499 2864.48723194 2474.22793159 2872.75648091 2466.14255295 2880.78461794 C2464.33425289 2882.58211778 2462.53700919 2884.39018289 2460.74045334 2886.19941286 C2453.93343772 2893.01415811 2446.9623253 2899.27642946 2439.40646897 2905.25995973 C2438.30438792 2906.19444111 2437.20807011 2907.13582614 2436.12131272 2908.08808473 C2411.71658125 2929.36928517 2383.45028807 2946.20437272 2354.38644944 2960.29658083 C2352.40937254 2961.25854697 2350.44127604 2962.23741809 2348.47287522 2963.21699098 C2314.87379972 2979.71679187 2277.79627877 2990.27619803 2240.90646897 2996.07245973 C2239.6688884 2996.26734987 2238.43130783 2996.46224001 2237.15622483 2996.66303591 C2233.2453941 2997.2456421 2229.32839662 2997.75959817 2225.40646897 2998.25995973 C2224.74192918 2998.3481542 2224.07738938 2998.43634867 2223.39271202 2998.52721569 C2205.56221419 3000.81718149 2187.65821025 3000.5459906 2169.71940988 3000.51991947 C2164.97305492 3000.51527196 2160.2267139 3000.52234858 2155.48036183 3000.52785311 C2147.14472041 3000.5359276 2138.80910396 3000.5366272 2130.47346005 3000.53244122 C2117.99446243 3000.52620903 2105.51548759 3000.53153065 2093.03649162 3000.53903864 C2071.76481908 3000.55149429 2050.49315468 3000.55445261 2029.22147904 3000.55220369 C2007.66876274 3000.54995377 1986.11605401 3000.55201174 1964.56333886 3000.55934862 C1963.18754811 3000.55981261 1961.81175736 3000.56027655 1960.43596661 3000.56074046 C1954.88845589 3000.56261961 1949.34094517 3000.56453221 1943.79343447 3000.56648284 C1928.1573054 3000.57197272 1912.52117615 3000.57673183 1896.8850467 3000.58098678 C1896.16861459 3000.58118188 1895.45218249 3000.58137698 1894.71404032 3000.58157799 C1853.99431753 3000.59258172 1813.27459437 3000.59319701 1772.55487036 3000.59401971 C1766.33143557 3000.59414621 1760.10800078 3000.59427925 1753.884566 3000.59442081 C1752.32464023 3000.5944562 1750.76471447 3000.59449095 1749.2047887 3000.59452506 C1714.17480143 3000.59530107 1679.14481495 3000.59965991 1644.11482807 3000.60478557 C1636.29342745 3000.6059287 1628.47202681 3000.60703665 1620.65062618 3000.60814683 C1619.48603294 3000.6083122 1619.48603294 3000.6083122 1618.29791256 3000.6084809 C1613.58497195 3000.60914991 1608.87203133 3000.60981745 1604.15909071 3000.61048403 C1601.79810298 3000.61081819 1599.43711525 3000.61115321 1597.07612751 3000.6114883 C1560.36817227 3000.61669184 1523.66021697 3000.62115252 1486.95226155 3000.62485269 C1486.15247446 3000.62493344 1485.35268737 3000.62501418 1484.52866431 3000.62509736 C1433.57066827 3000.63022287 1382.61267269 3000.63202245 1331.65467642 3000.6314967 C1329.14933505 3000.63147119 1326.64399368 3000.63144726 1324.13865232 3000.63142387 C1306.53824502 3000.6312592 1288.93783773 3000.63105378 1271.33743043 3000.63083812 C1266.29118241 3000.63077658 1261.24493438 3000.63071645 1256.19868635 3000.63065649 C1251.98946033 3000.6306063 1247.78023431 3000.63055472 1243.57100829 3000.63050026 C1164.08270852 3000.62947759 1084.59441281 3000.63230915 1005.10611496 3000.65119509 C1003.85109984 3000.65149316 1003.85109984 3000.65149316 1002.57073088 3000.65179726 C976.42898137 3000.65801995 950.287232 3000.66475294 924.14548264 3000.67158083 C897.32100167 3000.67858396 870.49652068 3000.68552503 843.67203961 3000.69210962 C842.43304337 3000.6924142 842.43304337 3000.6924142 841.16901691 3000.69272493 C789.4168692 3000.70542863 737.66472265 3000.71326803 685.91257344 3000.71582559 C685.11295227 3000.71586565 684.3133311 3000.71590571 683.48947899 3000.71594697 C648.36765217 3000.71769784 613.2458254 3000.71833709 578.12399853 3000.7177652 C563.9933454 3000.71753665 549.86269227 3000.71742451 535.73203913 3000.71735856 C533.38920801 3000.71734576 531.04637688 3000.71732761 528.70354576 3000.71730826 C492.89649425 3000.71703549 457.08944645 3000.71971429 421.28239665 3000.73139862 C420.12539816 3000.73177563 420.12539816 3000.73177563 418.94502596 3000.73216027 C406.5385405 3000.73621791 394.13205512 3000.74050608 381.72556975 3000.74481388 C346.47962509 3000.75704205 311.23368543 3000.76711344 275.98773835 3000.76287154 C274.91345902 3000.7627434 274.91345902 3000.7627434 273.81747707 3000.76261267 C258.18708648 3000.7607053 242.55669632 3000.75767291 226.92630617 3000.75353924 C220.69107581 3000.75190676 214.45584541 3000.75041945 208.22061501 3000.74897722 C207.20042309 3000.74873527 207.20042309 3000.74873527 206.15962123 3000.74848842 C183.98928257 3000.74330085 161.81897878 3000.75154157 139.64864419 3000.7663196 C118.50156674 3000.78013351 97.35452953 3000.77957577 76.20745294 3000.76393532 C63.8244536 3000.75520082 51.44157304 3000.75724777 39.05858365 3000.77566889 C30.81287639 3000.78682804 22.56725691 3000.78322263 14.32155627 3000.76810333 C9.66127681 3000.75995696 5.00122939 3000.75759151 0.34096497 3000.77360471 C-60.98326181 3000.97017219 -119.36827748 2989.19580228 -175.59353103 2964.25995973 C-176.39339431 2963.909657 -177.1932576 2963.55935427 -178.01735916 2963.1984363 C-210.84207824 2948.75145314 -241.22790329 2928.30332849 -268.59353103 2905.25995973 C-269.08002121 2904.85498262 -269.56651138 2904.45000551 -270.06774368 2904.03275637 C-278.82080324 2896.73697576 -287.09005221 2889.08142236 -295.11818924 2880.99604372 C-296.91568908 2879.18774366 -298.72375419 2877.39049996 -300.53298416 2875.59394411 C-307.34772941 2868.78692849 -313.61000076 2861.81581606 -319.59353103 2854.25995973 C-320.52801241 2853.15787869 -321.46939744 2852.06156088 -322.42165603 2850.97480348 C-343.70285647 2826.57007202 -360.53794402 2798.30377884 -374.63015213 2769.2399402 C-375.59211827 2767.2628633 -376.57098939 2765.29476681 -377.55056228 2763.32636598 C-396.07451418 2725.60544664 -406.93199641 2683.93800658 -412.31481745 2642.39101182 C-412.57512411 2640.40069957 -412.84901644 2638.4121773 -413.12393704 2636.42383099 C-415.24296778 2619.57224894 -414.87686893 2602.59903782 -414.85091956 2585.64843024 C-414.84589245 2580.8953885 -414.85259054 2576.14235983 -414.85772323 2571.38932017 C-414.86514425 2563.04037015 -414.86517915 2554.69144565 -414.86033374 2546.34249411 C-414.85311579 2533.84367745 -414.85746486 2521.34488271 -414.86401509 2508.84606663 C-414.87483967 2487.54129494 -414.87617404 2466.2365321 -414.87231674 2444.93175844 C-414.86843957 2423.34476552 -414.8688814 2401.75777986 -414.87462654 2380.17078737 C-414.87480579 2379.48936105 -414.87498504 2378.80793473 -414.87516972 2378.10585912 C-414.87681264 2371.86077126 -414.87849824 2365.61568341 -414.88023535 2359.37059557 C-414.88458433 2343.71163884 -414.88821994 2328.05268198 -414.89136769 2312.39372496 C-414.89151215 2311.67624197 -414.8916566 2310.95875898 -414.89180543 2310.21953409 C-414.89885288 2274.86712894 -414.89821564 2239.5147244 -414.89668693 2204.16231874 C-414.89665386 2203.39623781 -414.89662079 2202.63015689 -414.89658671 2201.84086138 C-414.8964524 2198.73935006 -414.89631725 2195.63783873 -414.89618133 2192.53632741 C-414.89580616 2183.96855088 -414.89544849 2175.40077436 -414.89511361 2166.83299784 C-414.89508289 2166.0594272 -414.89505218 2165.28585656 -414.89502053 2164.48884438 C-414.89364592 2129.41035905 -414.89617778 2094.33187441 -414.89963967 2059.25338926 C-414.90010291 2054.55930082 -414.90055477 2049.86521238 -414.9010038 2045.17112394 C-414.90107808 2044.39516374 -414.90115236 2043.61920353 -414.90122889 2042.81972939 C-414.90137904 2041.25101855 -414.90152916 2039.68230771 -414.90167925 2038.11359687 C-414.90205532 2034.18558581 -414.90243279 2030.25757474 -414.90281033 2026.32956368 C-414.90288513 2025.55074542 -414.90295994 2024.77192716 -414.90303701 2023.96950834 C-414.90341548 2020.03109593 -414.90379541 2016.09268351 -414.90417795 2012.1542711 C-414.90774596 1975.39976426 -414.91061036 1938.64525739 -414.91277065 1901.89075045 C-414.91281789 1901.0899524 -414.91286513 1900.28915435 -414.9129138 1899.46408969 C-414.9159082 1848.44162518 -414.91578381 1797.41916119 -414.91334987 1746.39669666 C-414.91323029 1743.88815322 -414.9131119 1741.37960977 -414.91299378 1738.87106633 C-414.91212238 1720.40631488 -414.91119178 1701.94156343 -414.91024315 1683.47681198 C-414.91015677 1681.79288006 -414.91007039 1680.10894814 -414.90998403 1678.42501622 C-414.9098976 1676.74039811 -414.90981115 1675.05578 -414.9097247 1673.37116189 C-414.90968191 1672.53703266 -414.90963912 1671.70290343 -414.90959504 1670.84349755 C-414.90937865 1666.62881517 -414.9091612 1662.41413279 -414.90894181 1658.19945041 C-414.9048034 1578.59819982 -414.90372505 1498.99695188 -414.91610183 1419.39570192 C-414.91623212 1418.55768958 -414.9163624 1417.71967724 -414.91649663 1416.85627058 C-414.92044855 1391.51520477 -414.92480811 1366.17413902 -414.92926779 1340.83307329 C-414.93414396 1313.12291365 -414.93897794 1285.41275401 -414.94354953 1257.70259432 C-414.94368631 1256.87529467 -414.94382308 1256.04799502 -414.94396399 1255.19562569 C-414.95252058 1203.37158848 -414.95742254 1151.54755203 -414.9582571 1099.72351412 C-414.95827037 1098.92292906 -414.95828364 1098.12234401 -414.95829732 1097.29749881 C-414.95887268 1062.13540716 -414.95858777 1026.97331555 -414.9573786 991.81122392 C-414.95691941 978.44775198 -414.95652716 965.08428004 -414.95616784 951.7208081 C-414.95608358 948.59257074 -414.95599431 945.46433338 -414.95590102 942.33609602 C-414.95484596 906.47790502 -414.95592032 870.61971597 -414.96357598 834.76152567 C-414.96374062 833.98875902 -414.96390527 833.21599238 -414.9640749 832.41980856 C-414.96673302 819.98978482 -414.96955217 807.55976111 -414.97237892 795.12973741 C-414.98039701 759.82808418 -414.98673868 724.52643382 -414.98231008 689.22477964 C-414.98222068 688.50786986 -414.98213128 687.79096008 -414.98203917 687.05232576 C-414.98005525 671.40838305 -414.97721951 655.76444061 -414.97354865 640.12049821 C-414.97209652 633.88044569 -414.97075226 627.64039314 -414.96944084 621.40034059 C-414.96929477 620.7196761 -414.9691487 620.03901161 -414.96899821 619.33772092 C-414.96428406 597.12728088 -414.96964583 574.91685914 -414.97988103 552.70642107 C-414.98942592 531.53393068 -414.98823284 510.36146332 -414.97567481 489.18897427 C-414.96863426 476.78220119 -414.9697322 464.37549437 -414.98302319 451.96872604 C-414.99103713 443.71745309 -414.9880709 435.46623005 -414.97637355 427.21496165 C-414.97005433 422.54499589 -414.96819445 417.87516053 -414.97994076 413.20520229 C-415.03940747 387.8759487 -414.01661827 363.0450169 -409.28103103 338.07245973 C-408.96355911 336.35869142 -408.96355911 336.35869142 -408.63967361 334.61030153 C-404.736021 314.03269878 -399.42602926 294.05717066 -392.59353103 274.25995973 C-392.25482986 273.27704958 -391.91612869 272.29413942 -391.56716385 271.28144411 C-375.56166588 225.46893617 -350.8057015 183.32661641 -319.59353103 146.25995973 C-319.18855392 145.77346956 -318.78357681 145.28697939 -318.36632766 144.78574709 C-311.07054706 136.03268753 -303.41499366 127.76343855 -295.32961502 119.73530153 C-293.52131496 117.93780169 -291.72407126 116.12973658 -289.92751541 114.32050661 C-283.12049979 107.50576136 -276.14938736 101.24349001 -268.59353103 95.25995973 C-267.49144999 94.32547836 -266.39513218 93.38409333 -265.30837478 92.43183473 C-240.90364332 71.1506343 -212.63735014 54.31554675 -183.5735115 40.22333864 C-181.5964346 39.2613725 -179.62833811 38.28250138 -177.65993728 37.30292848 C-139.93903924 18.77898705 -98.27163259 7.92152918 -56.72466904 2.53866105 C-54.73410559 2.27834349 -52.74532291 2.00450856 -50.75671487 1.72965193 C-33.91114122 -0.38793944 -16.94454354 -0.02457984 0 0 Z " fill="#FEFEFE" transform="translate(414.5935310330242,-0.25995973497629166)"/>
<path d="M0 0 C5.66150646 3.36155863 11.36884005 6.64333216 17.07421875 9.9296875 C18.73469238 10.88645386 18.73469238 10.88645386 20.42871094 11.86254883 C22.69959149 13.1707735 24.9705886 14.47879587 27.24169922 15.78662109 C32.70841855 18.93550804 38.17246762 22.08902014 43.63671875 25.2421875 C45.80337186 26.492211 47.97003854 27.74221097 50.13671875 28.9921875 C82.63671875 47.7421875 82.63671875 47.7421875 115.13671875 66.4921875 C116.20937988 67.11101807 117.28204102 67.72984863 118.38720703 68.36743164 C120.55228946 69.61654268 122.71732857 70.86572879 124.88232422 72.11499023 C130.32287581 75.25421059 135.76419091 78.39209313 141.20703125 81.52734375 C151.65878074 87.54966079 162.09971423 93.58888087 172.51171875 99.6796875 C181.18934116 104.75493873 189.90277443 109.76477517 198.63671875 114.7421875 C208.35787492 120.2822048 218.04566533 125.87593559 227.70361328 131.52563477 C238.227565 137.67985492 248.79052012 143.76588746 259.35449219 149.85107422 C264.78331817 152.97898898 270.20991156 156.11077198 275.63671875 159.2421875 C277.80337458 160.49220629 279.97004125 161.74220628 282.13671875 162.9921875 C347.13671875 200.4921875 412.13671875 237.9921875 477.13671875 275.4921875 C478.20937988 276.11101807 479.28204102 276.72984863 480.38720703 277.36743164 C482.55228946 278.61654268 484.71732857 279.86572879 486.88232422 281.11499023 C492.32287581 284.25421059 497.76419091 287.39209313 503.20703125 290.52734375 C513.65878074 296.54966079 524.09971423 302.58888087 534.51171875 308.6796875 C543.18934116 313.75493873 551.90277443 318.76477517 560.63671875 323.7421875 C570.35787492 329.2822048 580.04566533 334.87593559 589.70361328 340.52563477 C600.227565 346.67985492 610.79052012 352.76588746 621.35449219 358.85107422 C626.78331817 361.97898898 632.20991156 365.11077198 637.63671875 368.2421875 C639.80337458 369.49220629 641.97004125 370.74220628 644.13671875 371.9921875 C700.47005208 404.4921875 756.80338542 436.9921875 813.13671875 469.4921875 C814.21066895 470.11174316 815.28461914 470.73129883 816.39111328 471.36962891 C818.54324005 472.61130277 820.69525948 473.85316272 822.84716797 475.09521484 C827.88702852 478.00385573 832.92789367 480.91070648 837.97271729 483.81072998 C839.75421453 484.83494415 841.53536197 485.85976401 843.31640625 486.88476562 C845.547485 488.16852125 847.77921448 489.45114689 850.01171875 490.73242188 C855.6253724 493.96420085 861.16963313 497.26790048 866.63671875 500.7421875 C862.50706897 505.65312237 858.22280467 510.40611384 853.87768555 515.12597656 C850.94379645 518.31363148 848.02948939 521.51703388 845.13671875 524.7421875 C841.36134658 528.94903077 837.54691427 533.11893603 833.72265625 537.28125 C830.84249268 540.41885836 827.98140261 543.57239691 825.13671875 546.7421875 C821.36134658 550.94903077 817.54691427 555.11893603 813.72265625 559.28125 C810.84249268 562.41885836 807.98140261 565.57239691 805.13671875 568.7421875 C801.36134658 572.94903077 797.54691427 577.11893603 793.72265625 581.28125 C790.84249268 584.41885836 787.98140261 587.57239691 785.13671875 590.7421875 C781.36134658 594.94903077 777.54691427 599.11893603 773.72265625 603.28125 C770.84249268 606.41885836 767.98140261 609.57239691 765.13671875 612.7421875 C761.36134658 616.94903077 757.54691427 621.11893603 753.72265625 625.28125 C750.84249268 628.41885836 747.98140261 631.57239691 745.13671875 634.7421875 C741.36134658 638.94903077 737.54691427 643.11893603 733.72265625 647.28125 C730.84249268 650.41885836 727.98140261 653.57239691 725.13671875 656.7421875 C721.36134658 660.94903077 717.54691427 665.11893603 713.72265625 669.28125 C710.84249268 672.41885836 707.98140261 675.57239691 705.13671875 678.7421875 C701.36134658 682.94903077 697.54691427 687.11893603 693.72265625 691.28125 C690.84249268 694.41885836 687.98140261 697.57239691 685.13671875 700.7421875 C681.36134658 704.94903077 677.54691427 709.11893603 673.72265625 713.28125 C670.84249268 716.41885836 667.98140261 719.57239691 665.13671875 722.7421875 C661.36134658 726.94903077 657.54691427 731.11893603 653.72265625 735.28125 C650.84249268 738.41885836 647.98140261 741.57239691 645.13671875 744.7421875 C641.36134658 748.94903077 637.54691427 753.11893603 633.72265625 757.28125 C630.84249268 760.41885836 627.98140261 763.57239691 625.13671875 766.7421875 C621.36134658 770.94903077 617.54691427 775.11893603 613.72265625 779.28125 C610.84249268 782.41885836 607.98140261 785.57239691 605.13671875 788.7421875 C601.36134658 792.94903077 597.54691427 797.11893603 593.72265625 801.28125 C590.84249268 804.41885836 587.98140261 807.57239691 585.13671875 810.7421875 C581.36134658 814.94903077 577.54691427 819.11893603 573.72265625 823.28125 C570.84249268 826.41885836 567.98140261 829.57239691 565.13671875 832.7421875 C561.36134658 836.94903077 557.54691427 841.11893603 553.72265625 845.28125 C550.84249268 848.41885836 547.98140261 851.57239691 545.13671875 854.7421875 C541.36134658 858.94903077 537.54691427 863.11893603 533.72265625 867.28125 C530.84249268 870.41885836 527.98140261 873.57239691 525.13671875 876.7421875 C521.82670101 880.43049298 518.48952292 884.09279803 515.13671875 887.7421875 C509.12935346 894.2839119 503.1403399 900.84162236 497.32421875 907.5546875 C493.69523527 911.72254555 489.93842904 915.76817114 486.18261719 919.82128906 C482.38813289 923.918764 478.6414079 928.05612383 474.9140625 932.21484375 C472.338621 935.07300953 469.73986111 937.90929011 467.13671875 940.7421875 C463.78378758 944.39145921 460.44673518 948.05388348 457.13671875 951.7421875 C453.36134658 955.94903077 449.54691427 960.11893603 445.72265625 964.28125 C442.84249268 967.41885836 439.98140261 970.57239691 437.13671875 973.7421875 C433.36134658 977.94903077 429.54691427 982.11893603 425.72265625 986.28125 C422.84249268 989.41885836 419.98140261 992.57239691 417.13671875 995.7421875 C413.36134658 999.94903077 409.54691427 1004.11893603 405.72265625 1008.28125 C402.84249268 1011.41885836 399.98140261 1014.57239691 397.13671875 1017.7421875 C393.36134658 1021.94903077 389.54691427 1026.11893603 385.72265625 1030.28125 C382.84249268 1033.41885836 379.98140261 1036.57239691 377.13671875 1039.7421875 C373.36134658 1043.94903077 369.54691427 1048.11893603 365.72265625 1052.28125 C362.84249268 1055.41885836 359.98140261 1058.57239691 357.13671875 1061.7421875 C353.36134658 1065.94903077 349.54691427 1070.11893603 345.72265625 1074.28125 C342.84249268 1077.41885836 339.98140261 1080.57239691 337.13671875 1083.7421875 C333.36134658 1087.94903077 329.54691427 1092.11893603 325.72265625 1096.28125 C322.84249268 1099.41885836 319.98140261 1102.57239691 317.13671875 1105.7421875 C313.36134658 1109.94903077 309.54691427 1114.11893603 305.72265625 1118.28125 C302.84249268 1121.41885836 299.98140261 1124.57239691 297.13671875 1127.7421875 C293.36134658 1131.94903077 289.54691427 1136.11893603 285.72265625 1140.28125 C282.84249268 1143.41885836 279.98140261 1146.57239691 277.13671875 1149.7421875 C273.36134658 1153.94903077 269.54691427 1158.11893603 265.72265625 1162.28125 C262.84249268 1165.41885836 259.98140261 1168.57239691 257.13671875 1171.7421875 C253.36134658 1175.94903077 249.54691427 1180.11893603 245.72265625 1184.28125 C242.84249268 1187.41885836 239.98140261 1190.57239691 237.13671875 1193.7421875 C233.36134658 1197.94903077 229.54691427 1202.11893603 225.72265625 1206.28125 C222.84249268 1209.41885836 219.98140261 1212.57239691 217.13671875 1215.7421875 C213.36134658 1219.94903077 209.54691427 1224.11893603 205.72265625 1228.28125 C202.84249268 1231.41885836 199.98140261 1234.57239691 197.13671875 1237.7421875 C193.36134658 1241.94903077 189.54691427 1246.11893603 185.72265625 1250.28125 C182.84249268 1253.41885836 179.98140261 1256.57239691 177.13671875 1259.7421875 C173.36134658 1263.94903077 169.54691427 1268.11893603 165.72265625 1272.28125 C162.84249268 1275.41885836 159.98140261 1278.57239691 157.13671875 1281.7421875 C153.36134658 1285.94903077 149.54691427 1290.11893603 145.72265625 1294.28125 C142.84249268 1297.41885836 139.98140261 1300.57239691 137.13671875 1303.7421875 C133.36134658 1307.94903077 129.54691427 1312.11893603 125.72265625 1316.28125 C122.84249268 1319.41885836 119.98140261 1322.57239691 117.13671875 1325.7421875 C113.36134658 1329.94903077 109.54691427 1334.11893603 105.72265625 1338.28125 C102.84249268 1341.41885836 99.98140261 1344.57239691 97.13671875 1347.7421875 C93.36134658 1351.94903077 89.54691427 1356.11893603 85.72265625 1360.28125 C82.84249268 1363.41885836 79.98140261 1366.57239691 77.13671875 1369.7421875 C73.36134658 1373.94903077 69.54691427 1378.11893603 65.72265625 1382.28125 C62.84249268 1385.41885836 59.98140261 1388.57239691 57.13671875 1391.7421875 C53.36134658 1395.94903077 49.54691427 1400.11893603 45.72265625 1404.28125 C42.84249268 1407.41885836 39.98140261 1410.57239691 37.13671875 1413.7421875 C33.36134658 1417.94903077 29.54691427 1422.11893603 25.72265625 1426.28125 C22.84249268 1429.41885836 19.98140261 1432.57239691 17.13671875 1435.7421875 C13.36134658 1439.94903077 9.54691427 1444.11893603 5.72265625 1448.28125 C2.84249268 1451.41885836 -0.01859739 1454.57239691 -2.86328125 1457.7421875 C-6.63865342 1461.94903077 -10.45308573 1466.11893603 -14.27734375 1470.28125 C-17.15750732 1473.41885836 -20.01859739 1476.57239691 -22.86328125 1479.7421875 C-26.63865342 1483.94903077 -30.45308573 1488.11893603 -34.27734375 1492.28125 C-37.15750732 1495.41885836 -40.01859739 1498.57239691 -42.86328125 1501.7421875 C-46.63865342 1505.94903077 -50.45308573 1510.11893603 -54.27734375 1514.28125 C-57.15750732 1517.41885836 -60.01859739 1520.57239691 -62.86328125 1523.7421875 C-66.63865342 1527.94903077 -70.45308573 1532.11893603 -74.27734375 1536.28125 C-77.15750732 1539.41885836 -80.01859739 1542.57239691 -82.86328125 1545.7421875 C-86.63865342 1549.94903077 -90.45308573 1554.11893603 -94.27734375 1558.28125 C-97.15750732 1561.41885836 -100.01859739 1564.57239691 -102.86328125 1567.7421875 C-106.63865342 1571.94903077 -110.45308573 1576.11893603 -114.27734375 1580.28125 C-117.15750732 1583.41885836 -120.01859739 1586.57239691 -122.86328125 1589.7421875 C-126.63865342 1593.94903077 -130.45308573 1598.11893603 -134.27734375 1602.28125 C-137.15750732 1605.41885836 -140.01859739 1608.57239691 -142.86328125 1611.7421875 C-146.63865342 1615.94903077 -150.45308573 1620.11893603 -154.27734375 1624.28125 C-157.15750732 1627.41885836 -160.01859739 1630.57239691 -162.86328125 1633.7421875 C-166.63865342 1637.94903077 -170.45308573 1642.11893603 -174.27734375 1646.28125 C-177.15750732 1649.41885836 -180.01859739 1652.57239691 -182.86328125 1655.7421875 C-186.63865342 1659.94903077 -190.45308573 1664.11893603 -194.27734375 1668.28125 C-197.15750732 1671.41885836 -200.01859739 1674.57239691 -202.86328125 1677.7421875 C-206.63865342 1681.94903077 -210.45308573 1686.11893603 -214.27734375 1690.28125 C-217.15750732 1693.41885836 -220.01859739 1696.57239691 -222.86328125 1699.7421875 C-226.63865342 1703.94903077 -230.45308573 1708.11893603 -234.27734375 1712.28125 C-237.15750732 1715.41885836 -240.01859739 1718.57239691 -242.86328125 1721.7421875 C-246.63865342 1725.94903077 -250.45308573 1730.11893603 -254.27734375 1734.28125 C-257.15750732 1737.41885836 -260.01859739 1740.57239691 -262.86328125 1743.7421875 C-266.17329899 1747.43049298 -269.51047708 1751.09279803 -272.86328125 1754.7421875 C-280.12952786 1762.65477155 -287.31778491 1770.63193769 -294.36328125 1778.7421875 C-306.99389841 1762.53487999 -314.08227646 1741.50050187 -319.17578125 1721.8671875 C-319.46614258 1720.76947021 -319.75650391 1719.67175293 -320.05566406 1718.54077148 C-324.70454718 1699.69413347 -324.65357251 1680.46095668 -324.61496353 1661.16305828 C-324.61705321 1658.50598579 -324.61993641 1655.84892464 -324.62377226 1653.19185516 C-324.63051287 1647.42642152 -324.62992845 1641.6610258 -324.62440518 1635.8955914 C-324.61617425 1627.26460048 -324.61959038 1618.63363996 -324.62517046 1610.0026483 C-324.63434614 1595.28849114 -324.63408233 1580.57434783 -324.6286087 1565.86018944 C-324.62309868 1550.95725728 -324.62195154 1536.05433423 -324.62608337 1521.15140152 C-324.62634172 1520.2087564 -324.62660006 1519.26611129 -324.62686624 1518.29490117 C-324.62793282 1514.4554201 -324.62903025 1510.61593903 -324.63016679 1506.77645798 C-324.64073578 1471.04696113 -324.64146719 1435.31747038 -324.63587189 1399.58797264 C-324.6357063 1398.53006319 -324.63554071 1397.47215374 -324.6353701 1396.38218642 C-324.63520424 1395.32258056 -324.63503838 1394.2629747 -324.63486749 1393.17125956 C-324.62981992 1360.88189094 -324.62851891 1328.59252484 -324.63091278 1296.3031559 C-324.63106774 1294.14040155 -324.63122205 1291.9776472 -324.63137572 1289.81489286 C-324.63199666 1281.12360028 -324.63263399 1272.43230771 -324.63329525 1263.74101514 C-324.63512918 1239.44617794 -324.63627044 1215.15134074 -324.63686752 1190.85650349 C-324.63689481 1189.75021856 -324.63692211 1188.64393364 -324.63695022 1187.50412493 C-324.63776867 1152.25791054 -324.63551553 1117.01169702 -324.63116837 1081.7654829 C-324.63102787 1080.62244344 -324.63088737 1079.47940398 -324.63074261 1078.30172696 C-324.62845275 1059.73978259 -324.62601381 1041.17783824 -324.62356227 1022.6158939 C-324.61384801 948.98554467 -324.61430202 875.35520271 -324.62402344 801.72485352 C-324.62646582 783.16629379 -324.62888792 764.60773406 -324.63116837 746.04917431 C-324.63130926 744.90645502 -324.63145016 743.76373572 -324.63159532 742.58638857 C-324.63590746 707.37222754 -324.63773629 672.15806712 -324.63686752 636.94390583 C-324.63684035 635.83850188 -324.63681319 634.73309794 -324.63678519 633.5941969 C-324.63616025 609.32937149 -324.634893 585.06454614 -324.63304652 560.79972079 C-324.63238824 552.11780123 -324.63176207 543.43588167 -324.6311451 534.75396212 C-324.63099032 532.59413711 -324.63083286 530.43431211 -324.6306727 528.27448711 C-324.62828537 495.9903125 -324.63031866 463.70614072 -324.6353701 431.42196646 C-324.63553569 430.36364303 -324.63570128 429.3053196 -324.63587189 428.21492577 C-324.63603725 427.15855557 -324.63620262 426.10218537 -324.63637299 425.01380396 C-324.64188821 389.39245891 -324.63986265 353.77112119 -324.6293104 318.1497772 C-324.62820569 314.3251742 -324.62713228 310.50057119 -324.62608337 306.67596817 C-324.62582296 305.73734462 -324.62556255 304.79872107 -324.62529424 303.83165438 C-324.62134874 288.96645072 -324.62409671 274.10125616 -324.62962139 259.23605331 C-324.63491059 244.62114207 -324.63305729 230.00624619 -324.62359321 215.39133689 C-324.61825607 206.82255927 -324.61836715 198.25382378 -324.6265564 189.68504817 C-324.63144953 183.99186116 -324.62907139 178.29870689 -324.6208227 172.60552383 C-324.61635072 169.3798356 -324.61603427 166.15424715 -324.62245573 162.92855979 C-324.72471102 107.64227246 -304.42066343 56.9084716 -265.42578125 17.4296875 C-258.85784321 10.93377432 -251.80908499 5.19614752 -244.36328125 -0.2578125 C-242.77580078 -1.42763672 -242.77580078 -1.42763672 -241.15625 -2.62109375 C-232.91885219 -8.5020473 -224.31781664 -13.55562045 -215.36328125 -18.2578125 C-214.70908203 -18.60199219 -214.05488281 -18.94617188 -213.38085938 -19.30078125 C-195.22702798 -28.69255527 -175.49939771 -34.90331648 -155.36328125 -38.2578125 C-154.07679688 -38.48210938 -152.7903125 -38.70640625 -151.46484375 -38.9375 C-95.54624767 -47.08531939 -47.03737004 -27.97704776 0 0 Z " fill="#4285F4" transform="translate(1077.36328125,583.2578125)"/>
<path d="M0 0 C2.94305178 0.89824084 5.27659652 2.10611375 7.92944336 3.66577148 C8.95231445 4.26196289 9.97518555 4.8581543 11.02905273 5.47241211 C12.67550781 6.44597656 12.67550781 6.44597656 14.35522461 7.43920898 C15.51689383 8.11899817 16.67901154 8.79802146 17.84155273 9.47631836 C20.25589907 10.88579201 22.66828383 12.29853886 25.0793457 13.71362305 C30.59091044 16.94476419 36.13071841 20.12693894 41.66772461 23.31420898 C43.83452426 24.56397846 46.00119051 25.81397923 48.16772461 27.06420898 C49.77647461 27.99233398 49.77647461 27.99233398 51.41772461 28.93920898 C80.66772461 45.81420898 109.91772461 62.68920898 139.16772461 79.56420898 C140.24038574 80.18303955 141.31304688 80.80187012 142.41821289 81.43945312 C144.58329532 82.68856417 146.74833443 83.93775028 148.91333008 85.18701172 C154.35388167 88.32623208 159.79519677 91.46411461 165.23803711 94.59936523 C175.6897866 100.62168227 186.13072009 106.66090236 196.54272461 112.75170898 C205.22034702 117.82696022 213.93378029 122.83679665 222.66772461 127.81420898 C232.38888078 133.35422628 242.07667119 138.94795707 251.73461914 144.59765625 C262.25857086 150.7518764 272.82152598 156.83790894 283.38549805 162.9230957 C288.81432403 166.05101047 294.24091742 169.18279346 299.66772461 172.31420898 C301.83438044 173.56422777 304.00104711 174.81422777 306.16772461 176.06420898 C327.83439128 188.56420898 349.50105794 201.06420898 371.16772461 213.56420898 C372.24103027 214.18336182 373.31433594 214.80251465 374.42016602 215.44042969 C376.57891164 216.68598469 378.73744162 217.93191352 380.89575195 219.17822266 C386.43186887 222.37438742 391.97199804 225.56325004 397.51928711 228.73999023 C418.53572396 240.78700613 438.55784349 252.53842901 456.14086914 269.35473633 C457.17088236 270.33929326 458.2058492 271.31869038 459.24536133 272.29321289 C492.65651634 303.69299402 515.54592488 350.97006944 517.77415466 397.01344299 C517.8305064 399.25605335 517.85796001 401.4967135 517.87084961 403.73999023 C517.88137108 404.97198402 517.88137108 404.97198402 517.8921051 406.22886658 C517.90949883 408.86153721 517.91595635 411.49398302 517.91772461 414.12670898 C517.91873672 415.47520935 517.91873672 415.47520935 517.91976929 416.85095215 C517.90436328 429.74880657 517.54863069 442.19323165 514.66772461 454.81420898 C514.41829102 456.00022705 514.41829102 456.00022705 514.16381836 457.21020508 C510.09251624 476.43956816 502.99925735 494.54698336 493.66772461 511.81420898 C493.34304199 512.42345215 493.01835937 513.03269531 492.68383789 513.66040039 C488.05812271 522.28785423 482.74701476 530.14121604 476.66772461 537.81420898 C476.02834961 538.65854492 475.38897461 539.50288086 474.73022461 540.37280273 C458.24308709 561.52914912 437.69701227 577.44903587 414.66772461 590.81420898 C413.70721191 591.37333984 412.74669922 591.9324707 411.75708008 592.50854492 C405.19977634 596.31975129 398.62592585 600.10166992 392.04663086 603.87475586 C386.58148259 607.01168778 381.12495246 610.16352547 375.66772461 613.31420898 C373.50110132 614.56428418 371.3344346 615.81428409 369.16772461 617.06420898 C367.55897461 617.99233398 367.55897461 617.99233398 365.91772461 618.93920898 C304.16772459 654.564209 304.16772459 654.564209 300.91723633 656.43945312 C298.7521539 657.68856417 296.58711479 658.93775028 294.42211914 660.18701172 C288.98156755 663.32623208 283.54025245 666.46411461 278.09741211 669.59936523 C267.64566261 675.62168227 257.20472913 681.66090236 246.79272461 687.75170898 C237.52272684 693.17342076 228.20940709 698.51625814 218.87927246 703.83343506 C209.75489621 709.03466027 200.66639687 714.29448776 191.60083008 719.59765625 C181.07687836 725.7518764 170.51392323 731.83790894 159.94995117 737.9230957 C154.52112519 741.05101047 149.0945318 744.18279346 143.66772461 747.31420898 C141.50106878 748.56422777 139.33440211 749.81422777 137.16772461 751.06420898 C135.55897461 751.99233398 135.55897461 751.99233398 133.91772461 752.93920898 C-161.83227539 923.56420898 -161.83227539 923.56420898 -165.08276367 925.43945312 C-167.2478461 926.68856417 -169.41288521 927.93775028 -171.57788086 929.18701172 C-177.01843245 932.32623208 -182.45974755 935.46411461 -187.90258789 938.59936523 C-198.35433739 944.62168227 -208.79527087 950.66090236 -219.20727539 956.75170898 C-228.47727316 962.17342076 -237.79059291 967.51625814 -247.12072754 972.83343506 C-256.24510379 978.03466027 -265.33360313 983.29448776 -274.39916992 988.59765625 C-284.92312164 994.7518764 -295.48607677 1000.83790894 -306.05004883 1006.9230957 C-311.47887481 1010.05101047 -316.9054682 1013.18279346 -322.33227539 1016.31420898 C-324.49893122 1017.56422777 -326.66559789 1018.81422777 -328.83227539 1020.06420898 C-330.44102539 1020.99233398 -330.44102539 1020.99233398 -332.08227539 1021.93920898 C-497.8322754 1117.56420899 -497.8322754 1117.56420899 -501.08276367 1119.43945312 C-503.2478461 1120.68856417 -505.41288521 1121.93775028 -507.57788086 1123.18701172 C-513.01843245 1126.32623208 -518.45974755 1129.46411461 -523.90258789 1132.59936523 C-534.35433739 1138.62168227 -544.79527087 1144.66090236 -555.20727539 1150.75170898 C-564.47727316 1156.17342076 -573.79059291 1161.51625814 -583.12072754 1166.83343506 C-592.24510379 1172.03466027 -601.33360313 1177.29448776 -610.39916992 1182.59765625 C-620.92312164 1188.7518764 -631.48607677 1194.83790894 -642.05004883 1200.9230957 C-647.47887481 1204.05101047 -652.9054682 1207.18279346 -658.33227539 1210.31420898 C-660.49893122 1211.56422777 -662.66559789 1212.81422777 -664.83227539 1214.06420898 C-665.90477539 1214.68295898 -666.97727539 1215.30170898 -668.08227539 1215.93920898 C-750.95727539 1263.75170898 -750.95727539 1263.75170898 -833.83227539 1311.56420898 C-834.90517822 1312.18320068 -835.97808105 1312.80219238 -837.08349609 1313.43994141 C-839.24606122 1314.68755638 -841.40865878 1315.93511515 -843.57128906 1317.18261719 C-850.16144013 1320.98422651 -856.7503239 1324.78802124 -863.33837891 1328.59326172 C-866.60076247 1330.47630479 -869.86482328 1332.3564126 -873.12915039 1334.23608398 C-877.10511056 1336.52602013 -881.07347286 1338.82821441 -885.03540039 1341.14233398 C-908.86606506 1355.01711464 -933.76724565 1365.95199013 -961.33227539 1369.81420898 C-962.4009082 1370.01530273 -963.46954102 1370.21639648 -964.57055664 1370.42358398 C-1013.4144221 1378.76140646 -1066.93149945 1364.072161 -1107.02734375 1335.75292969 C-1126.25319506 1321.80743559 -1142.88510739 1305.58506843 -1156.83227539 1286.37670898 C-1157.48280884 1285.4897937 -1157.48280884 1285.4897937 -1158.14648438 1284.58496094 C-1162.49181293 1278.4997576 -1162.49181293 1278.4997576 -1162.33227539 1275.81420898 C-1160.61107777 1273.56996191 -1158.93964455 1271.67860056 -1156.95727539 1269.68920898 C-1155.83561392 1268.52178543 -1154.71452459 1267.35381192 -1153.59399414 1266.18530273 C-1152.75747314 1265.32461182 -1152.75747314 1265.32461182 -1151.90405273 1264.4465332 C-1149.80278767 1262.26432472 -1147.78340565 1260.01475064 -1145.76977539 1257.75170898 C-1142.48173819 1254.08313945 -1139.16553773 1250.44166721 -1135.83227539 1246.81420898 C-1132.47934422 1243.16493727 -1129.14229182 1239.50251301 -1125.83227539 1235.81420898 C-1122.05690322 1231.60736571 -1118.24247091 1227.43746046 -1114.41821289 1223.27514648 C-1111.53804932 1220.13753813 -1108.67695925 1216.98399957 -1105.83227539 1213.81420898 C-1102.05690322 1209.60736571 -1098.24247091 1205.43746046 -1094.41821289 1201.27514648 C-1091.53804932 1198.13753813 -1088.67695925 1194.98399957 -1085.83227539 1191.81420898 C-1082.05690322 1187.60736571 -1078.24247091 1183.43746046 -1074.41821289 1179.27514648 C-1071.53804932 1176.13753813 -1068.67695925 1172.98399957 -1065.83227539 1169.81420898 C-1062.05690322 1165.60736571 -1058.24247091 1161.43746046 -1054.41821289 1157.27514648 C-1051.53804932 1154.13753813 -1048.67695925 1150.98399957 -1045.83227539 1147.81420898 C-1042.05690322 1143.60736571 -1038.24247091 1139.43746046 -1034.41821289 1135.27514648 C-1031.53804932 1132.13753813 -1028.67695925 1128.98399957 -1025.83227539 1125.81420898 C-1022.05690322 1121.60736571 -1018.24247091 1117.43746046 -1014.41821289 1113.27514648 C-1011.53804932 1110.13753813 -1008.67695925 1106.98399957 -1005.83227539 1103.81420898 C-1002.05690322 1099.60736571 -998.24247091 1095.43746046 -994.41821289 1091.27514648 C-991.53804932 1088.13753813 -988.67695925 1084.98399957 -985.83227539 1081.81420898 C-982.05690322 1077.60736571 -978.24247091 1073.43746046 -974.41821289 1069.27514648 C-971.53804932 1066.13753813 -968.67695925 1062.98399957 -965.83227539 1059.81420898 C-962.05690322 1055.60736571 -958.24247091 1051.43746046 -954.41821289 1047.27514648 C-951.53804932 1044.13753813 -948.67695925 1040.98399957 -945.83227539 1037.81420898 C-942.05690322 1033.60736571 -938.24247091 1029.43746046 -934.41821289 1025.27514648 C-931.53804932 1022.13753813 -928.67695925 1018.98399957 -925.83227539 1015.81420898 C-922.05690322 1011.60736571 -918.24247091 1007.43746046 -914.41821289 1003.27514648 C-911.53804932 1000.13753813 -908.67695925 996.98399957 -905.83227539 993.81420898 C-902.05690322 989.60736571 -898.24247091 985.43746046 -894.41821289 981.27514648 C-891.53804932 978.13753813 -888.67695925 974.98399957 -885.83227539 971.81420898 C-882.05690322 967.60736571 -878.24247091 963.43746046 -874.41821289 959.27514648 C-871.53804932 956.13753813 -868.67695925 952.98399957 -865.83227539 949.81420898 C-862.05690322 945.60736571 -858.24247091 941.43746046 -854.41821289 937.27514648 C-851.53804932 934.13753813 -848.67695925 930.98399957 -845.83227539 927.81420898 C-842.05690322 923.60736571 -838.24247091 919.43746046 -834.41821289 915.27514648 C-831.53804932 912.13753813 -828.67695925 908.98399957 -825.83227539 905.81420898 C-822.05690322 901.60736571 -818.24247091 897.43746046 -814.41821289 893.27514648 C-811.53804932 890.13753813 -808.67695925 886.98399957 -805.83227539 883.81420898 C-802.05690322 879.60736571 -798.24247091 875.43746046 -794.41821289 871.27514648 C-791.53804932 868.13753813 -788.67695925 864.98399957 -785.83227539 861.81420898 C-782.05690322 857.60736571 -778.24247091 853.43746046 -774.41821289 849.27514648 C-771.53804932 846.13753813 -768.67695925 842.98399957 -765.83227539 839.81420898 C-762.05690322 835.60736571 -758.24247091 831.43746046 -754.41821289 827.27514648 C-751.53804932 824.13753813 -748.67695925 820.98399957 -745.83227539 817.81420898 C-742.05690322 813.60736571 -738.24247091 809.43746046 -734.41821289 805.27514648 C-731.53804932 802.13753813 -728.67695925 798.98399957 -725.83227539 795.81420898 C-722.05690322 791.60736571 -718.24247091 787.43746046 -714.41821289 783.27514648 C-711.53804932 780.13753813 -708.67695925 776.98399957 -705.83227539 773.81420898 C-702.05690322 769.60736571 -698.24247091 765.43746046 -694.41821289 761.27514648 C-691.53804932 758.13753813 -688.67695925 754.98399957 -685.83227539 751.81420898 C-682.05690322 747.60736571 -678.24247091 743.43746046 -674.41821289 739.27514648 C-671.53804932 736.13753813 -668.67695925 732.98399957 -665.83227539 729.81420898 C-662.05690322 725.60736571 -658.24247091 721.43746046 -654.41821289 717.27514648 C-651.53804932 714.13753813 -648.67695925 710.98399957 -645.83227539 707.81420898 C-642.05690322 703.60736571 -638.24247091 699.43746046 -634.41821289 695.27514648 C-631.53804932 692.13753813 -628.67695925 688.98399957 -625.83227539 685.81420898 C-622.05690322 681.60736571 -618.24247091 677.43746046 -614.41821289 673.27514648 C-611.53804932 670.13753813 -608.67695925 666.98399957 -605.83227539 663.81420898 C-602.05690322 659.60736571 -598.24247091 655.43746046 -594.41821289 651.27514648 C-591.53804932 648.13753813 -588.67695925 644.98399957 -585.83227539 641.81420898 C-582.05690322 637.60736571 -578.24247091 633.43746046 -574.41821289 629.27514648 C-571.53804932 626.13753813 -568.67695925 622.98399957 -565.83227539 619.81420898 C-562.05690322 615.60736571 -558.24247091 611.43746046 -554.41821289 607.27514648 C-551.53804932 604.13753813 -548.67695925 600.98399957 -545.83227539 597.81420898 C-542.05690322 593.60736571 -538.24247091 589.43746046 -534.41821289 585.27514648 C-531.53804932 582.13753813 -528.67695925 578.98399957 -525.83227539 575.81420898 C-522.05690322 571.60736571 -518.24247091 567.43746046 -514.41821289 563.27514648 C-511.53804932 560.13753813 -508.67695925 556.98399957 -505.83227539 553.81420898 C-502.05690322 549.60736571 -498.24247091 545.43746046 -494.41821289 541.27514648 C-491.53804932 538.13753813 -488.67695925 534.98399957 -485.83227539 531.81420898 C-482.05690322 527.60736571 -478.24247091 523.43746046 -474.41821289 519.27514648 C-471.53804932 516.13753813 -468.67695925 512.98399957 -465.83227539 509.81420898 C-462.05690322 505.60736571 -458.24247091 501.43746046 -454.41821289 497.27514648 C-451.53804932 494.13753813 -448.67695925 490.98399957 -445.83227539 487.81420898 C-442.05690322 483.60736571 -438.24247091 479.43746046 -434.41821289 475.27514648 C-431.53804932 472.13753813 -428.67695925 468.98399957 -425.83227539 465.81420898 C-422.05690322 461.60736571 -418.24247091 457.43746046 -414.41821289 453.27514648 C-411.53804932 450.13753813 -408.67695925 446.98399957 -405.83227539 443.81420898 C-402.05690322 439.60736571 -398.24247091 435.43746046 -394.41821289 431.27514648 C-391.53804932 428.13753813 -388.67695925 424.98399957 -385.83227539 421.81420898 C-382.52225765 418.1259035 -379.18507956 414.46359846 -375.83227539 410.81420898 C-369.8249101 404.27248459 -363.83589654 397.71477412 -358.01977539 391.00170898 C-354.39079192 386.83385093 -350.63398568 382.78822535 -346.87817383 378.73510742 C-343.08368953 374.63763248 -339.33696454 370.50027265 -335.60961914 366.34155273 C-333.03417764 363.48338695 -330.43541775 360.64710637 -327.83227539 357.81420898 C-324.47934422 354.16493727 -321.14229182 350.50251301 -317.83227539 346.81420898 C-314.05690322 342.60736571 -310.24247091 338.43746046 -306.41821289 334.27514648 C-303.53804932 331.13753813 -300.67695925 327.98399957 -297.83227539 324.81420898 C-294.05690322 320.60736571 -290.24247091 316.43746046 -286.41821289 312.27514648 C-283.53804932 309.13753813 -280.67695925 305.98399957 -277.83227539 302.81420898 C-274.05690322 298.60736571 -270.24247091 294.43746046 -266.41821289 290.27514648 C-263.53804932 287.13753813 -260.67695925 283.98399957 -257.83227539 280.81420898 C-254.05690322 276.60736571 -250.24247091 272.43746046 -246.41821289 268.27514648 C-243.53804932 265.13753813 -240.67695925 261.98399957 -237.83227539 258.81420898 C-234.05690322 254.60736571 -230.24247091 250.43746046 -226.41821289 246.27514648 C-223.53804932 243.13753813 -220.67695925 239.98399957 -217.83227539 236.81420898 C-214.05690322 232.60736571 -210.24247091 228.43746046 -206.41821289 224.27514648 C-203.53804932 221.13753813 -200.67695925 217.98399957 -197.83227539 214.81420898 C-194.05690322 210.60736571 -190.24247091 206.43746046 -186.41821289 202.27514648 C-183.53804932 199.13753813 -180.67695925 195.98399957 -177.83227539 192.81420898 C-174.05690322 188.60736571 -170.24247091 184.43746046 -166.41821289 180.27514648 C-163.53804932 177.13753813 -160.67695925 173.98399957 -157.83227539 170.81420898 C-154.05690322 166.60736571 -150.24247091 162.43746046 -146.41821289 158.27514648 C-143.53804932 155.13753813 -140.67695925 151.98399957 -137.83227539 148.81420898 C-134.05690322 144.60736571 -130.24247091 140.43746046 -126.41821289 136.27514648 C-123.53804932 133.13753813 -120.67695925 129.98399957 -117.83227539 126.81420898 C-114.05690322 122.60736571 -110.24247091 118.43746046 -106.41821289 114.27514648 C-103.53804932 111.13753813 -100.67695925 107.98399957 -97.83227539 104.81420898 C-94.05690322 100.60736571 -90.24247091 96.43746046 -86.41821289 92.27514648 C-83.53804932 89.13753813 -80.67695925 85.98399957 -77.83227539 82.81420898 C-74.05690322 78.60736571 -70.24247091 74.43746046 -66.41821289 70.27514648 C-63.53804932 67.13753813 -60.67695925 63.98399957 -57.83227539 60.81420898 C-54.05690322 56.60736571 -50.24247091 52.43746046 -46.41821289 48.27514648 C-43.53804932 45.13753813 -40.67695925 41.98399957 -37.83227539 38.81420898 C-34.05690322 34.60736571 -30.24247091 30.43746046 -26.41821289 26.27514648 C-23.53804932 23.13753813 -20.67695925 19.98399957 -17.83227539 16.81420898 C-17.11555664 16.02401367 -16.39883789 15.23381836 -15.66040039 14.41967773 C-13.91207975 12.463084 -12.2017003 10.48969489 -10.50415039 8.48999023 C-9.53034871 7.36876041 -8.55639252 6.24766476 -7.58227539 5.12670898 C-7.13432617 4.5846582 -6.68637695 4.04260742 -6.22485352 3.48413086 C-2.95279525 -0.23522215 -2.95279525 -0.23522215 0 0 Z " fill="#EA4132" transform="translate(1945.332275390625,1085.185791015625)"/>
<path d="M0 0 C3.97939214 0.46192092 6.83302624 1.83577074 10.26171875 3.8515625 C11.28458984 4.44775391 12.30746094 5.04394531 13.36132812 5.65820312 C14.45896484 6.30724609 15.55660156 6.95628906 16.6875 7.625 C17.84916922 8.30478918 19.01128693 8.98381248 20.17382812 9.66210938 C22.58817446 11.07158303 25.00055922 12.48432987 27.41162109 13.89941406 C32.92318583 17.13055521 38.4629938 20.31272995 44 23.5 C46.16679965 24.74976947 48.3334659 25.99977024 50.5 27.25 C52.10875 28.178125 52.10875 28.178125 53.75 29.125 C83 46 112.25 62.875 141.5 79.75 C142.57266113 80.36883057 143.64532227 80.98766113 144.75048828 81.62524414 C146.91557071 82.87435518 149.08060982 84.12354129 151.24560547 85.37280273 C156.68615706 88.51202309 162.12747216 91.64990563 167.5703125 94.78515625 C178.02206199 100.80747329 188.46299548 106.84669337 198.875 112.9375 C207.55262241 118.01275123 216.26605568 123.02258767 225 128 C234.72115617 133.5400173 244.40894658 139.13374809 254.06689453 144.78344727 C264.59084625 150.93766742 275.15380137 157.02369996 285.71777344 163.10888672 C291.14659942 166.23680148 296.57319281 169.36858448 302 172.5 C304.16665583 173.75001879 306.3333225 175.00001878 308.5 176.25 C330.16666667 188.75 351.83333333 201.25 373.5 213.75 C374.57330566 214.36915283 375.64661133 214.98830566 376.75244141 215.6262207 C378.91118703 216.87177571 381.06971701 218.11770454 383.22802734 219.36401367 C388.76414426 222.56017844 394.30427343 225.74904106 399.8515625 228.92578125 C420.86799935 240.97279715 440.89011888 252.72422003 458.47314453 269.54052734 C459.50315775 270.52508427 460.53812459 271.5044814 461.57763672 272.47900391 C494.98879173 303.87878503 517.87820027 351.15586045 520.10643005 397.19923401 C520.16278179 399.44184436 520.19023541 401.68250451 520.203125 403.92578125 C520.21013931 404.74711044 520.21715363 405.56843964 520.22438049 406.41465759 C520.24177422 409.04732823 520.24823174 411.67977403 520.25 414.3125 C520.25101212 415.66100037 520.25101212 415.66100037 520.25204468 417.03674316 C520.23663867 429.93459758 519.88090608 442.37902267 517 455 C516.75056641 456.18601807 516.75056641 456.18601807 516.49609375 457.39599609 C512.42479163 476.62535918 505.33153274 494.73277438 496 512 C495.67531738 512.60924316 495.35063477 513.21848633 495.01611328 513.84619141 C490.39039811 522.47364525 485.07929015 530.32700705 479 538 C478.360625 538.84433594 477.72125 539.68867187 477.0625 540.55859375 C460.57536248 561.71494013 440.02928766 577.63482688 417 591 C416.0394873 591.55913086 415.07897461 592.11826172 414.08935547 592.69433594 C407.53205174 596.50554231 400.95820124 600.28746094 394.37890625 604.06054688 C388.91375798 607.1974788 383.45722785 610.34931649 378 613.5 C375.83337671 614.75007519 373.66670999 616.00007511 371.5 617.25 C369.89125 618.178125 369.89125 618.178125 368.25 619.125 C306.49999999 654.75 306.49999999 654.75 303.24951172 656.62524414 C301.08442929 657.87435518 298.91939018 659.12354129 296.75439453 660.37280273 C291.31384294 663.51202309 285.87252784 666.64990563 280.4296875 669.78515625 C269.97793801 675.80747329 259.53700452 681.84669337 249.125 687.9375 C239.85500223 693.35921178 230.54168248 698.70204915 221.21154785 704.01922607 C212.0871716 709.22045129 202.99867226 714.48027878 193.93310547 719.78344727 C183.40915375 725.93766742 172.84619863 732.02369996 162.28222656 738.10888672 C156.85340058 741.23680148 151.42680719 744.36858448 146 747.5 C143.83334417 748.75001879 141.6666775 750.00001878 139.5 751.25 C137.89125 752.178125 137.89125 752.178125 136.25 753.125 C74.5 788.75 74.5 788.75 71.24609375 790.62719727 C69.0923828 791.86976019 66.93873633 793.11243489 64.78515625 794.35522461 C59.76315738 797.25314623 54.74057193 800.15003349 49.71557617 803.04275513 C47.94954478 804.05947198 46.18372569 805.07655658 44.41796875 806.09375 C42.21265845 807.36400873 40.00695784 808.63359018 37.80078125 809.90234375 C36.79402344 810.48242188 35.78726562 811.0625 34.75 811.66015625 C33.78578125 812.2133252 32.8215625 812.76649414 31.828125 813.33642578 C29.92249151 814.4573673 28.03692901 815.61305987 26.171875 816.80029297 C25.29015625 817.35990723 24.4084375 817.91952148 23.5 818.49609375 C22.7265625 819.00197021 21.953125 819.50784668 21.15625 820.02905273 C19 821 19 821 16.87817383 820.80908203 C13.78657459 819.47727911 11.85439417 816.92641872 9.6875 814.4375 C9.19894531 813.89029297 8.71039062 813.34308594 8.20703125 812.77929688 C6.79544288 811.19406073 5.39563378 809.59928399 4 808 C3.37738281 807.28972656 2.75476562 806.57945312 2.11328125 805.84765625 C1.03155307 804.60877628 -0.0478514 803.36786377 -1.125 802.125 C-3.54550075 799.38176582 -6.02200642 796.69115432 -8.5 794 C-12.10012756 790.09018405 -15.64417605 786.14133532 -19.125 782.125 C-21.54550075 779.38176582 -24.02200642 776.69115432 -26.5 774 C-30.10012756 770.09018405 -33.64417605 766.14133532 -37.125 762.125 C-39.54550075 759.38176582 -42.02200642 756.69115432 -44.5 754 C-48.10012756 750.09018405 -51.64417605 746.14133532 -55.125 742.125 C-57.54550075 739.38176582 -60.02200642 736.69115432 -62.5 734 C-66.10012756 730.09018405 -69.64417605 726.14133532 -73.125 722.125 C-75.54550075 719.38176582 -78.02200642 716.69115432 -80.5 714 C-84.10012756 710.09018405 -87.64417605 706.14133532 -91.125 702.125 C-93.54550075 699.38176582 -96.02200642 696.69115432 -98.5 694 C-102.10012756 690.09018405 -105.64417605 686.14133532 -109.125 682.125 C-111.54550075 679.38176582 -114.02200642 676.69115432 -116.5 674 C-120.10012756 670.09018405 -123.64417605 666.14133532 -127.125 662.125 C-129.54550075 659.38176582 -132.02200642 656.69115432 -134.5 654 C-138.10012756 650.09018405 -141.64417605 646.14133532 -145.125 642.125 C-147.54550075 639.38176582 -150.02200642 636.69115432 -152.5 634 C-156.10012756 630.09018405 -159.64417605 626.14133532 -163.125 622.125 C-165.54550075 619.38176582 -168.02200642 616.69115432 -170.5 614 C-174.10012756 610.09018405 -177.64417605 606.14133532 -181.125 602.125 C-183.54550075 599.38176582 -186.02200642 596.69115432 -188.5 594 C-192.10012756 590.09018405 -195.64417605 586.14133532 -199.125 582.125 C-201.54550075 579.38176582 -204.02200642 576.69115432 -206.5 574 C-210.10012756 570.09018405 -213.64417605 566.14133532 -217.125 562.125 C-219.54550075 559.38176582 -222.02200642 556.69115432 -224.5 554 C-228.10012756 550.09018405 -231.64417605 546.14133532 -235.125 542.125 C-237.54550108 539.38176544 -240.0220241 536.69117094 -242.5 534 C-246.12090134 530.06715159 -249.68958925 526.09785988 -253.19140625 522.05859375 C-255.4301125 519.5104335 -257.71410212 517.00589407 -260 514.5 C-262.84524228 511.38092989 -265.6719958 508.25244609 -268.4375 505.0625 C-271.86768576 501.11332633 -275.41003518 497.26977695 -278.95288086 493.42211914 C-282.06599299 490.03537381 -285.11252082 486.60093751 -288.125 483.125 C-290.54550075 480.38176582 -293.02200642 477.69115432 -295.5 475 C-299.10012756 471.09018405 -302.64417605 467.14133532 -306.125 463.125 C-308.54550075 460.38176582 -311.02200642 457.69115432 -313.5 455 C-317.10012756 451.09018405 -320.64417605 447.14133532 -324.125 443.125 C-326.54550075 440.38176582 -329.02200642 437.69115432 -331.5 435 C-335.10012756 431.09018405 -338.64417605 427.14133532 -342.125 423.125 C-344.54551235 420.38175267 -347.02261279 417.69172436 -349.5 415 C-350.44423739 413.97026016 -351.38825193 412.94031593 -352.33203125 411.91015625 C-353.97101075 410.12239676 -355.61346028 408.33780194 -357.26171875 406.55859375 C-358.21498047 405.50865234 -358.21498047 405.50865234 -359.1875 404.4375 C-359.73792969 403.83808594 -360.28835938 403.23867187 -360.85546875 402.62109375 C-362 401 -362 401 -362 398 C-360.24220318 395.87934157 -358.47176541 393.91316469 -356.5625 391.9375 C-355.44998768 390.76092056 -354.33801268 389.58383284 -353.2265625 388.40625 C-352.67516602 387.82617188 -352.12376953 387.24609375 -351.55566406 386.6484375 C-349.47713464 384.44595309 -347.45439671 382.19642432 -345.4375 379.9375 C-342.1494628 376.26893046 -338.83326234 372.62745822 -335.5 369 C-332.14706883 365.35072829 -328.81001643 361.68830402 -325.5 358 C-321.72462783 353.79315673 -317.91019552 349.62325147 -314.0859375 345.4609375 C-311.20577393 342.32332914 -308.34468386 339.16979059 -305.5 336 C-301.72462783 331.79315673 -297.91019552 327.62325147 -294.0859375 323.4609375 C-291.20577393 320.32332914 -288.34468386 317.16979059 -285.5 314 C-281.72462783 309.79315673 -277.91019552 305.62325147 -274.0859375 301.4609375 C-271.20577393 298.32332914 -268.34468386 295.16979059 -265.5 292 C-261.72462783 287.79315673 -257.91019552 283.62325147 -254.0859375 279.4609375 C-251.20577393 276.32332914 -248.34468386 273.16979059 -245.5 270 C-241.72462783 265.79315673 -237.91019552 261.62325147 -234.0859375 257.4609375 C-231.20577393 254.32332914 -228.34468386 251.16979059 -225.5 248 C-221.72462783 243.79315673 -217.91019552 239.62325147 -214.0859375 235.4609375 C-211.20577393 232.32332914 -208.34468386 229.16979059 -205.5 226 C-201.72462783 221.79315673 -197.91019552 217.62325147 -194.0859375 213.4609375 C-191.20577393 210.32332914 -188.34468386 207.16979059 -185.5 204 C-181.72462783 199.79315673 -177.91019552 195.62325147 -174.0859375 191.4609375 C-171.20577393 188.32332914 -168.34468386 185.16979059 -165.5 182 C-161.72462783 177.79315673 -157.91019552 173.62325147 -154.0859375 169.4609375 C-151.20577393 166.32332914 -148.34468386 163.16979059 -145.5 160 C-141.72462783 155.79315673 -137.91019552 151.62325147 -134.0859375 147.4609375 C-131.20577393 144.32332914 -128.34468386 141.16979059 -125.5 138 C-121.72462783 133.79315673 -117.91019552 129.62325147 -114.0859375 125.4609375 C-111.20577393 122.32332914 -108.34468386 119.16979059 -105.5 116 C-101.72462783 111.79315673 -97.91019552 107.62325147 -94.0859375 103.4609375 C-91.20577393 100.32332914 -88.34468386 97.16979059 -85.5 94 C-81.72462783 89.79315673 -77.91019552 85.62325147 -74.0859375 81.4609375 C-71.20577393 78.32332914 -68.34468386 75.16979059 -65.5 72 C-61.72462783 67.79315673 -57.91019552 63.62325147 -54.0859375 59.4609375 C-51.20577393 56.32332914 -48.34468386 53.16979059 -45.5 50 C-41.72462783 45.79315673 -37.91019552 41.62325147 -34.0859375 37.4609375 C-31.20577393 34.32332914 -28.34468386 31.16979059 -25.5 28 C-21.73190205 23.80126229 -17.92514965 19.6390834 -14.10791016 15.48510742 C-10.26932594 11.30391362 -6.46817948 7.08994401 -2.6796875 2.86328125 C-1.80442539 1.89235095 -0.92433473 0.92433473 0 0 Z " fill="#FEBB00" transform="translate(1943,1085)"/>
<path d="M0 0 C5.66150646 3.36155863 11.36884005 6.64333216 17.07421875 9.9296875 C18.73469238 10.88645386 18.73469238 10.88645386 20.42871094 11.86254883 C22.69959149 13.1707735 24.9705886 14.47879587 27.24169922 15.78662109 C32.70841855 18.93550804 38.17246762 22.08902014 43.63671875 25.2421875 C45.80337186 26.492211 47.97003854 27.74221097 50.13671875 28.9921875 C71.80338542 41.4921875 93.47005208 53.9921875 115.13671875 66.4921875 C116.20937988 67.11101807 117.28204102 67.72984863 118.38720703 68.36743164 C120.55228946 69.61654268 122.71732857 70.86572879 124.88232422 72.11499023 C130.32287581 75.25421059 135.76419091 78.39209313 141.20703125 81.52734375 C151.65878074 87.54966079 162.09971423 93.58888087 172.51171875 99.6796875 C181.18934116 104.75493873 189.90277443 109.76477517 198.63671875 114.7421875 C208.35787492 120.2822048 218.04566533 125.87593559 227.70361328 131.52563477 C238.227565 137.67985492 248.79052012 143.76588746 259.35449219 149.85107422 C264.78331817 152.97898898 270.20991156 156.11077198 275.63671875 159.2421875 C277.80337458 160.49220629 279.97004125 161.74220628 282.13671875 162.9921875 C379.63671875 219.2421875 379.63671875 219.2421875 477.13671875 275.4921875 C478.20937988 276.11101807 479.28204102 276.72984863 480.38720703 277.36743164 C482.55228946 278.61654268 484.71732857 279.86572879 486.88232422 281.11499023 C492.32287581 284.25421059 497.76419091 287.39209313 503.20703125 290.52734375 C513.65878074 296.54966079 524.09971423 302.58888087 534.51171875 308.6796875 C543.18934116 313.75493873 551.90277443 318.76477517 560.63671875 323.7421875 C570.35787492 329.2822048 580.04566533 334.87593559 589.70361328 340.52563477 C600.227565 346.67985492 610.79052012 352.76588746 621.35449219 358.85107422 C626.78331817 361.97898898 632.20991156 365.11077198 637.63671875 368.2421875 C639.80337458 369.49220629 641.97004125 370.74220628 644.13671875 371.9921875 C700.47005208 404.4921875 756.80338542 436.9921875 813.13671875 469.4921875 C814.21066895 470.11174316 815.28461914 470.73129883 816.39111328 471.36962891 C818.54324005 472.61130277 820.69525948 473.85316272 822.84716797 475.09521484 C827.88702852 478.00385573 832.92789367 480.91070648 837.97271729 483.81072998 C839.75421453 484.83494415 841.53536197 485.85976401 843.31640625 486.88476562 C845.547485 488.16852125 847.77921448 489.45114689 850.01171875 490.73242188 C855.6253724 493.96420085 861.16963313 497.26790048 866.63671875 500.7421875 C862.50706897 505.65312237 858.22280467 510.40611384 853.87768555 515.12597656 C850.94379645 518.31363148 848.02948939 521.51703388 845.13671875 524.7421875 C841.36134658 528.94903077 837.54691427 533.11893603 833.72265625 537.28125 C830.84249268 540.41885836 827.98140261 543.57239691 825.13671875 546.7421875 C821.36134658 550.94903077 817.54691427 555.11893603 813.72265625 559.28125 C810.84249268 562.41885836 807.98140261 565.57239691 805.13671875 568.7421875 C801.36134658 572.94903077 797.54691427 577.11893603 793.72265625 581.28125 C790.84249268 584.41885836 787.98140261 587.57239691 785.13671875 590.7421875 C781.36134658 594.94903077 777.54691427 599.11893603 773.72265625 603.28125 C770.84249268 606.41885836 767.98140261 609.57239691 765.13671875 612.7421875 C761.36134658 616.94903077 757.54691427 621.11893603 753.72265625 625.28125 C750.84249268 628.41885836 747.98140261 631.57239691 745.13671875 634.7421875 C741.36134658 638.94903077 737.54691427 643.11893603 733.72265625 647.28125 C730.84249268 650.41885836 727.98140261 653.57239691 725.13671875 656.7421875 C721.36134658 660.94903077 717.54691427 665.11893603 713.72265625 669.28125 C710.84249268 672.41885836 707.98140261 675.57239691 705.13671875 678.7421875 C701.36134658 682.94903077 697.54691427 687.11893603 693.72265625 691.28125 C690.84249268 694.41885836 687.98140261 697.57239691 685.13671875 700.7421875 C681.36134658 704.94903077 677.54691427 709.11893603 673.72265625 713.28125 C670.84249268 716.41885836 667.98140261 719.57239691 665.13671875 722.7421875 C661.36134658 726.94903077 657.54691427 731.11893603 653.72265625 735.28125 C650.84249268 738.41885836 647.98140261 741.57239691 645.13671875 744.7421875 C641.36134658 748.94903077 637.54691427 753.11893603 633.72265625 757.28125 C630.84249268 760.41885836 627.98140261 763.57239691 625.13671875 766.7421875 C621.36134658 770.94903077 617.54691427 775.11893603 613.72265625 779.28125 C610.84249268 782.41885836 607.98140261 785.57239691 605.13671875 788.7421875 C601.36134658 792.94903077 597.54691427 797.11893603 593.72265625 801.28125 C590.84249268 804.41885836 587.98140261 807.57239691 585.13671875 810.7421875 C581.36134658 814.94903077 577.54691427 819.11893603 573.72265625 823.28125 C570.84249268 826.41885836 567.98140261 829.57239691 565.13671875 832.7421875 C561.36134658 836.94903077 557.54691427 841.11893603 553.72265625 845.28125 C550.84249268 848.41885836 547.98140261 851.57239691 545.13671875 854.7421875 C541.36134658 858.94903077 537.54691427 863.11893603 533.72265625 867.28125 C530.10788445 871.2191299 526.53005615 875.18875388 522.9609375 879.16796875 C519.84173922 882.62267744 516.68823976 886.04542365 513.53149414 889.46582031 C510.97054465 892.25063061 508.4873498 895.07877318 506.07421875 897.9921875 C505.26984375 898.8996875 504.46546875 899.8071875 503.63671875 900.7421875 C501.63671875 900.7421875 501.63671875 900.7421875 500.296875 899.4140625 C499.76964844 898.77984375 499.24242187 898.145625 498.69921875 897.4921875 C495.59103673 893.83244917 492.394278 890.26885188 489.13671875 886.7421875 C485.53592285 882.8329943 481.99252859 878.88350655 478.51171875 874.8671875 C476.091218 872.12395332 473.61471233 869.43334182 471.13671875 866.7421875 C467.53659119 862.83237155 463.9925427 858.88352282 460.51171875 854.8671875 C458.091218 852.12395332 455.61471233 849.43334182 453.13671875 846.7421875 C449.53659119 842.83237155 445.9925427 838.88352282 442.51171875 834.8671875 C440.091218 832.12395332 437.61471233 829.43334182 435.13671875 826.7421875 C431.53659119 822.83237155 427.9925427 818.88352282 424.51171875 814.8671875 C422.091218 812.12395332 419.61471233 809.43334182 417.13671875 806.7421875 C413.53659119 802.83237155 409.9925427 798.88352282 406.51171875 794.8671875 C404.091218 792.12395332 401.61471233 789.43334182 399.13671875 786.7421875 C395.53659119 782.83237155 391.9925427 778.88352282 388.51171875 774.8671875 C386.091218 772.12395332 383.61471233 769.43334182 381.13671875 766.7421875 C377.53659119 762.83237155 373.9925427 758.88352282 370.51171875 754.8671875 C368.091218 752.12395332 365.61471233 749.43334182 363.13671875 746.7421875 C359.53659119 742.83237155 355.9925427 738.88352282 352.51171875 734.8671875 C350.091218 732.12395332 347.61471233 729.43334182 345.13671875 726.7421875 C341.53659119 722.83237155 337.9925427 718.88352282 334.51171875 714.8671875 C332.09121733 712.12395256 329.61467697 709.43337507 327.13671875 706.7421875 C323.49254935 702.78359027 319.89758096 698.79041918 316.37109375 694.7265625 C312.84171161 690.68844059 309.23037649 686.72304069 305.63671875 682.7421875 C304.13643196 681.07577899 302.63643003 679.40911397 301.13671875 677.7421875 C300.39421875 676.9171875 299.65171875 676.0921875 298.88671875 675.2421875 C224.63671875 592.7421875 150.38671875 510.2421875 55.89453125 405.25 C54.36963631 403.55625856 52.84356473 401.86357581 51.31640625 400.171875 C47.93759167 396.42654494 44.5677591 392.67700543 41.26171875 388.8671875 C37.80820314 384.89966026 34.24667935 381.0337111 30.68408203 377.16455078 C27.57086831 373.7777419 24.52427337 370.34321206 21.51171875 366.8671875 C19.091218 364.12395332 16.61471233 361.43334182 14.13671875 358.7421875 C10.53659119 354.83237155 6.9925427 350.88352282 3.51171875 346.8671875 C1.091218 344.12395332 -1.38528767 341.43334182 -3.86328125 338.7421875 C-7.46340881 334.83237155 -11.0074573 330.88352282 -14.48828125 326.8671875 C-16.908782 324.12395332 -19.38528767 321.43334182 -21.86328125 318.7421875 C-25.46340881 314.83237155 -29.0074573 310.88352282 -32.48828125 306.8671875 C-34.908782 304.12395332 -37.38528767 301.43334182 -39.86328125 298.7421875 C-43.46340881 294.83237155 -47.0074573 290.88352282 -50.48828125 286.8671875 C-52.908782 284.12395332 -55.38528767 281.43334182 -57.86328125 278.7421875 C-61.46340881 274.83237155 -65.0074573 270.88352282 -68.48828125 266.8671875 C-70.908782 264.12395332 -73.38528767 261.43334182 -75.86328125 258.7421875 C-79.46340881 254.83237155 -83.0074573 250.88352282 -86.48828125 246.8671875 C-88.908782 244.12395332 -91.38528767 241.43334182 -93.86328125 238.7421875 C-97.46340881 234.83237155 -101.0074573 230.88352282 -104.48828125 226.8671875 C-106.908782 224.12395332 -109.38528767 221.43334182 -111.86328125 218.7421875 C-115.46340881 214.83237155 -119.0074573 210.88352282 -122.48828125 206.8671875 C-124.908782 204.12395332 -127.38528767 201.43334182 -129.86328125 198.7421875 C-133.46340881 194.83237155 -137.0074573 190.88352282 -140.48828125 186.8671875 C-142.908782 184.12395332 -145.38528767 181.43334182 -147.86328125 178.7421875 C-151.46340881 174.83237155 -155.0074573 170.88352282 -158.48828125 166.8671875 C-160.908782 164.12395332 -163.38528767 161.43334182 -165.86328125 158.7421875 C-169.46340881 154.83237155 -173.0074573 150.88352282 -176.48828125 146.8671875 C-178.908782 144.12395332 -181.38528767 141.43334182 -183.86328125 138.7421875 C-187.46340881 134.83237155 -191.0074573 130.88352282 -194.48828125 126.8671875 C-196.908782 124.12395332 -199.38528767 121.43334182 -201.86328125 118.7421875 C-205.46340881 114.83237155 -209.0074573 110.88352282 -212.48828125 106.8671875 C-214.90878267 104.12395256 -217.38532303 101.43337507 -219.86328125 98.7421875 C-223.50745065 94.78359027 -227.10241904 90.79041918 -230.62890625 86.7265625 C-234.15828839 82.68844059 -237.76962351 78.72304069 -241.36328125 74.7421875 C-242.86356804 73.07577899 -244.36356997 71.40911397 -245.86328125 69.7421875 C-246.97703125 68.5046875 -246.97703125 68.5046875 -248.11328125 67.2421875 C-263.86328125 49.7421875 -263.86328125 49.7421875 -266.078125 47.265625 C-267.67500716 45.50223034 -269.29417141 43.75887278 -270.9296875 42.03125 C-271.75339844 41.15210938 -272.57710937 40.27296875 -273.42578125 39.3671875 C-274.17988281 38.57570313 -274.93398438 37.78421875 -275.7109375 36.96875 C-277.36328125 34.7421875 -277.36328125 34.7421875 -277.36328125 30.7421875 C-274.72182908 27.10540553 -271.48217301 23.97296775 -268.36328125 20.7421875 C-267.59371094 19.92105469 -266.82414063 19.09992187 -266.03125 18.25390625 C-259.37086915 11.32843562 -252.06068788 5.45592478 -244.36328125 -0.2578125 C-243.82300293 -0.65887207 -243.28272461 -1.05993164 -242.72607422 -1.47314453 C-234.03633057 -7.85061885 -224.89530476 -13.25237077 -215.36328125 -18.2578125 C-214.70908203 -18.60199219 -214.05488281 -18.94617188 -213.38085938 -19.30078125 C-195.22702798 -28.69255527 -175.49939771 -34.90331648 -155.36328125 -38.2578125 C-153.43355469 -38.59425781 -153.43355469 -38.59425781 -151.46484375 -38.9375 C-95.54624767 -47.08531939 -47.03737004 -27.97704776 0 0 Z " fill="#00AE45" transform="translate(1077.36328125,583.2578125)"/>
</svg>
