<?xml version="1.0" encoding="UTF-8"?>
<svg version="1.1" xmlns="http://www.w3.org/2000/svg" width="512" height="512">
<path d="M0 0 C2.8079149 -0.00323508 5.6158039 -0.01241761 8.42370605 -0.02124023 C15.21095761 -0.03888283 21.9980307 -0.03524989 28.78528881 -0.02358967 C34.30906304 -0.01449879 39.83278779 -0.01335556 45.35656738 -0.01768494 C46.14738716 -0.01829787 46.93820694 -0.0189108 47.75299096 -0.01954231 C49.36030167 -0.02082141 50.96761236 -0.02211826 52.57492304 -0.02343267 C67.59206243 -0.03479669 82.60910362 -0.02179076 97.6262269 -0.00023121 C110.46831496 0.01763597 123.3102583 0.01453068 136.15234375 -0.00390625 C151.12142689 -0.02538725 166.09042431 -0.03369844 181.05952072 -0.0214572 C182.66040801 -0.02018321 184.26129531 -0.01892572 185.86218262 -0.01768494 C187.04320726 -0.01675928 187.04320726 -0.01675928 188.24809098 -0.01581493 C193.75529964 -0.01238363 199.2624532 -0.01814201 204.76965332 -0.02760315 C211.49534172 -0.03890534 218.22084379 -0.03561269 224.94651127 -0.01448017 C228.3679535 -0.00407859 231.78883482 -0.00186766 235.21031189 -0.01307678 C253.77905216 -0.06826019 271.87682742 0.83410785 289.359375 7.70507812 C290.12975098 7.99987061 290.90012695 8.29466309 291.69384766 8.59838867 C316.64362231 18.4947396 338.53829277 36.6520695 352.609375 59.51757812 C353.2075 60.41992188 353.805625 61.32226562 354.421875 62.25195312 C358.29385523 68.37106474 361.13964146 74.8043067 363.796875 81.51757812 C364.11793213 82.30455078 364.43898926 83.09152344 364.76977539 83.90234375 C371.80968252 102.45234444 372.19116106 121.30934817 372.12695312 140.90820312 C372.1301882 143.71611803 372.13937073 146.52400703 372.14819336 149.33190918 C372.16583596 156.11916074 372.16220302 162.90623383 372.1505428 169.69349194 C372.14145191 175.21726616 372.14030868 180.74099092 372.14463806 186.26477051 C372.14525099 187.05559029 372.14586393 187.84641007 372.14649543 188.66119409 C372.14777453 190.26850479 372.14907139 191.87581549 372.1503858 193.48312616 C372.16174981 208.50026556 372.14874388 223.51730675 372.12718433 238.53443003 C372.10931716 251.37651808 372.11242245 264.21846143 372.13085938 277.06054688 C372.15234037 292.02963002 372.16065157 306.99862744 372.14841032 321.96772385 C372.14713633 323.56861113 372.14587884 325.16949843 372.14463806 326.77038574 C372.14402096 327.5577355 372.14340386 328.34508526 372.14276806 329.15629411 C372.13933675 334.66350276 372.14509514 340.17065633 372.15455627 345.67785645 C372.16585846 352.40354485 372.16256582 359.12904692 372.1414333 365.85471439 C372.13103172 369.27615662 372.12882078 372.69703794 372.14002991 376.11851501 C372.20355042 397.49261839 370.26082387 416.83081388 361.609375 436.51757812 C361.32610352 437.17177734 361.04283203 437.82597656 360.75097656 438.5 C350.80797193 461.02282818 333.62619532 480.69113631 312.609375 493.51757812 C311.536875 494.20078125 310.464375 494.88398438 309.359375 495.58789062 C302.9716746 499.47669897 296.46986287 502.5955891 289.484375 505.26757812 C288.80036621 505.53715332 288.11635742 505.80672852 287.41162109 506.08447266 C269.09659228 512.72699595 250.47712962 513.09824875 231.21875 513.03515625 C228.4108351 513.03839133 225.6029461 513.04757386 222.79504395 513.05639648 C216.00779239 513.07403908 209.2207193 513.07040614 202.43346119 513.05874592 C196.90968696 513.04965504 191.38596221 513.04851181 185.86218262 513.05284119 C185.07136284 513.05345412 184.28054306 513.05406705 183.46575904 513.05469856 C181.85844833 513.05597766 180.25113764 513.05727451 178.64382696 513.05858892 C163.62668757 513.06995294 148.60964638 513.05694701 133.5925231 513.03538746 C120.75043504 513.01752028 107.9084917 513.02062557 95.06640625 513.0390625 C80.09732311 513.0605435 65.12832569 513.06885469 50.15922928 513.05661345 C48.55834199 513.05533946 46.95745469 513.05408197 45.35656738 513.05284119 C44.56921762 513.05222408 43.78186786 513.05160698 42.97065902 513.05097118 C37.46345036 513.04753988 31.9562968 513.05329826 26.44909668 513.0627594 C19.72340828 513.07406159 12.99790621 513.07076894 6.27223873 513.04963642 C2.8507965 513.03923484 -0.57008482 513.03702391 -3.99156189 513.04823303 C-41.29778067 513.15910132 -73.88606173 503.93242019 -101.390625 477.51757812 C-102.29683594 476.67453125 -103.20304687 475.83148438 -104.13671875 474.96289062 C-110.96444725 468.42872604 -116.35487987 461.50243366 -121.390625 453.51757812 C-122.08027344 452.43863281 -122.76992187 451.3596875 -123.48046875 450.24804688 C-127.35348984 443.86239406 -130.47204439 437.36915524 -133.140625 430.39257812 C-133.4102002 429.70856934 -133.67977539 429.02456055 -133.95751953 428.31982422 C-140.60004283 410.00479541 -140.97129563 391.38533275 -140.90820312 372.12695312 C-140.9114382 369.31903822 -140.92062073 366.51114922 -140.92944336 363.70324707 C-140.94708596 356.91599551 -140.94345302 350.12892242 -140.9317928 343.34166431 C-140.92270191 337.81789009 -140.92155868 332.29416533 -140.92588806 326.77038574 C-140.92650099 325.97956596 -140.92711393 325.18874618 -140.92774543 324.37396216 C-140.92902453 322.76665146 -140.93032139 321.15934076 -140.9316358 319.55203009 C-140.94299981 304.53489069 -140.92999388 289.5178495 -140.90843433 274.50072622 C-140.89056716 261.65863817 -140.89367245 248.81669482 -140.91210938 235.97460938 C-140.93359037 221.00552623 -140.94190157 206.03652881 -140.92966032 191.0674324 C-140.92838633 189.46654512 -140.92712884 187.86565782 -140.92588806 186.26477051 C-140.92527096 185.47742075 -140.92465386 184.69007099 -140.92401806 183.87886214 C-140.92058675 178.37165349 -140.92634514 172.86449992 -140.93580627 167.3572998 C-140.94710846 160.6316114 -140.94381582 153.90610933 -140.9226833 147.18044186 C-140.91228172 143.75899963 -140.91007078 140.33811831 -140.92127991 136.91664124 C-140.97773765 117.919101 -139.94970575 99.6471969 -132.765625 81.83007812 C-132.25793579 80.539646 -132.25793579 80.539646 -131.73999023 79.22314453 C-121.77421803 54.79427221 -103.89133662 33.34528818 -81.390625 19.51757812 C-80.31683594 18.83308594 -79.24304688 18.14859375 -78.13671875 17.44335938 C-71.7494338 13.55769935 -65.24932819 10.4388845 -58.265625 7.76757812 C-57.23961182 7.36321533 -57.23961182 7.36321533 -56.19287109 6.95068359 C-37.87784228 0.3081603 -19.25837962 -0.0630925 0 0 Z " fill="#2D2C2D" transform="translate(140.390625,-0.517578125)"/>
<path d="M0 0 C2.76352429 -0.00488743 5.52701912 -0.01568872 8.29052734 -0.02610779 C14.96847878 -0.04756747 21.64625866 -0.04766835 28.32423314 -0.03948224 C33.75745535 -0.03314266 39.19062811 -0.03435518 44.62384987 -0.04075432 C45.40165901 -0.04165597 46.17946816 -0.04255763 46.98084727 -0.04348661 C48.56167017 -0.04533808 50.14249306 -0.04720064 51.72331593 -0.04907417 C66.48999144 -0.06558842 81.25657093 -0.05698657 96.0232406 -0.04008859 C109.49650926 -0.02538327 122.96955507 -0.04004303 136.44279506 -0.06885875 C150.32799692 -0.09833124 164.2130962 -0.10920311 178.09832793 -0.09967655 C179.67191905 -0.09865414 181.24551018 -0.09765953 182.81910133 -0.09669304 C183.98002835 -0.09597845 183.98002835 -0.09597845 185.16440844 -0.09524943 C190.58437906 -0.09309642 196.00425124 -0.10282913 201.42420006 -0.11746407 C208.03874614 -0.13507825 214.65300803 -0.13474035 221.2675434 -0.11211241 C224.63404472 -0.10105392 227.99964067 -0.100372 231.36618233 -0.11641312 C255.73744639 -0.22329438 276.3791857 3.12777133 294.37231445 20.86157227 C295.24629883 21.74329102 296.1202832 22.62500977 297.02075195 23.53344727 C297.68848633 24.16766602 298.3562207 24.80188477 299.04418945 25.45532227 C311.71881099 38.41669994 316.34167575 58.02041432 316.40356445 75.56005859 C316.01430646 94.60734441 307.40652503 111.28662685 294.02075195 124.53344727 C293.35817383 125.22954102 292.6955957 125.92563477 292.01293945 126.64282227 C280.44528512 137.99055921 263.04045937 144.60671659 246.9972229 144.69166565 C246.31422666 144.69660363 245.63123042 144.7015416 244.92753732 144.70662922 C242.65213331 144.72191676 240.37675732 144.73034094 238.10131836 144.73876953 C236.46498369 144.74835494 234.82865146 144.75836541 233.19232178 144.76876831 C228.75894983 144.7957516 224.32556731 144.81679668 219.89215899 144.8367703 C215.25567236 144.8586705 210.61921808 144.88603942 205.98275757 144.91282654 C197.20689841 144.96269893 188.43102124 145.00765795 179.65512693 145.0508489 C169.66241169 145.10026793 159.66972892 145.15516874 149.67704511 145.21052849 C129.12497765 145.3242648 108.57287918 145.43112197 88.02075195 145.53344727 C88.74290894 145.94856567 89.46506592 146.36368408 90.20910645 146.79138184 C92.95410717 148.37004473 95.6984946 149.94976762 98.44250488 151.53015137 C100.18786077 152.53496701 101.93388614 153.53861949 103.67993164 154.54223633 C111.34365888 158.95732812 118.95100501 163.45880527 126.52075195 168.03344727 C134.96786485 173.12910594 143.46299792 178.12574717 152.02075195 183.03344727 C163.96713955 189.88477249 175.78531993 196.93006966 187.57080078 204.05395508 C190.05127913 205.55188221 192.53535031 207.04370602 195.02075195 208.53344727 C192.97406868 212.21325146 190.74460605 215.05816208 187.76806641 218.02905273 C186.91320145 218.88699432 186.05833649 219.74493591 185.17756653 220.62887573 C183.79476753 222.00089645 183.79476753 222.00089645 182.3840332 223.40063477 C181.4206295 224.36284415 180.4575976 225.32542593 179.49491882 226.2883606 C177.47804465 228.30367394 175.45786864 230.31559617 173.43505859 232.32495117 C170.86259125 234.88050971 168.29667392 237.44251964 165.73302937 240.00692558 C163.74369892 241.99598178 161.7517546 243.98240323 159.75896263 245.96799088 C158.35789376 247.36439526 156.95826248 248.76224156 155.55867004 250.16012573 C151.84083939 253.85071252 148.13973517 257.48464969 144.12695312 260.85424805 C140.65683228 263.82837515 137.59301515 267.10743224 134.5280304 270.48742676 C128.44185483 277.13604087 122.1585091 283.56381463 115.7980957 289.94897461 C114.63025201 291.12474981 113.46257844 292.300694 112.2950592 293.47679138 C108.5197286 297.27791645 104.73932624 301.07397428 100.95825195 304.86938477 C99.64827147 306.18473618 98.33829428 307.50009087 97.02832031 308.81544876 C91.58618133 314.27912326 86.14264724 319.74140138 80.69540405 325.19998741 C72.91594129 332.99576904 65.14517942 340.80000565 57.38590717 348.61588514 C51.90731295 354.13307996 46.41926028 359.64075012 40.92398357 365.14132845 C37.64814533 368.42082381 34.37664465 371.70439171 31.11520386 374.99821091 C28.05940853 378.08392458 24.99213427 381.15773132 21.91543388 384.22259712 C20.78714421 385.35066494 19.66315456 386.48305189 18.54374886 387.61993599 C17.01997375 389.16620997 15.48173343 390.69643909 13.9387207 392.22348022 C12.65130981 393.51585633 12.65130981 393.51585633 11.33789062 394.83434105 C9.02075195 396.53344727 9.02075195 396.53344727 6.71337891 396.30282021 C5.87552856 395.9219806 5.87552856 395.9219806 5.02075195 395.53344727 C4.25102148 392.79399685 3.89311633 390.35421034 3.88208675 387.51173019 C3.87661231 386.7165186 3.87113787 385.92130701 3.86549753 385.10199809 C3.86451942 384.23429514 3.86354132 383.36659219 3.86253357 382.47259521 C3.85759559 381.54629468 3.85265761 380.61999415 3.84757 379.6656239 C3.83218461 376.55483508 3.82383153 373.44406691 3.81542969 370.33325195 C3.80585199 368.10608742 3.79584197 365.87892471 3.78543091 363.65176392 C3.75836411 357.59848647 3.73736413 351.5452012 3.71742892 345.49189663 C3.69558034 339.1684317 3.66818613 332.84499089 3.64137268 326.52154541 C3.59710844 315.90573127 3.55627576 305.28990947 3.51806641 294.67407227 C3.47870159 283.73981764 3.437273 272.80557406 3.39306641 261.87133789 C3.39034213 261.19732778 3.38761786 260.52331768 3.38481104 259.82888302 C3.37113139 256.44756532 3.35741115 253.06624778 3.34367073 249.68493032 C3.22973648 221.63445896 3.1229934 193.5839635 3.02075195 165.53344727 C0.44686379 166.81780088 -2.12674467 168.1027097 -4.70019531 169.38793945 C-5.42590981 169.74999481 -6.1516243 170.11205017 -6.89933014 170.4850769 C-25.95314023 180.00367572 -43.02907669 191.4122289 -58.97924805 205.53344727 C-60.33663086 206.72454102 -60.33663086 206.72454102 -61.72143555 207.93969727 C-70.66343247 215.87605928 -78.55689917 224.15328349 -85.97924805 233.53344727 C-87.15293945 234.98170898 -87.15293945 234.98170898 -88.3503418 236.45922852 C-95.66220144 245.66632218 -101.93993621 255.45338198 -107.97924805 265.53344727 C-108.54772461 266.47994141 -108.54772461 266.47994141 -109.12768555 267.44555664 C-127.31874711 298.25410264 -135.1835867 333.37751591 -138.97924805 368.53344727 C-139.30924805 368.53344727 -139.63924805 368.53344727 -139.97924805 368.53344727 C-140.07071719 336.2610165 -140.14139917 303.98862298 -140.18350936 271.71609266 C-140.18851153 267.89642159 -140.19368888 264.07675077 -140.19897461 260.25708008 C-140.20002385 259.49672891 -140.20107309 258.73637773 -140.20215413 257.95298561 C-140.21950678 245.68005646 -140.25101575 233.4072031 -140.28785923 221.13431874 C-140.32541241 208.51876845 -140.34751409 195.90325756 -140.35560203 183.28765368 C-140.36106019 175.51812358 -140.37822826 167.74880779 -140.41091391 159.97934374 C-140.43477964 153.9976436 -140.43703201 148.01612349 -140.43167877 142.03437042 C-140.43276996 139.59812104 -140.44060131 137.16186275 -140.45606995 134.72566223 C-140.5659817 116.50579979 -139.2387968 98.92020175 -132.35424805 81.84594727 C-131.84655884 80.55551514 -131.84655884 80.55551514 -131.32861328 79.23901367 C-121.36284108 54.81014135 -103.47995967 33.36115732 -80.97924805 19.53344727 C-79.90545898 18.84895508 -78.83166992 18.16446289 -77.7253418 17.45922852 C-71.33805685 13.5735685 -64.83795123 10.45475364 -57.85424805 7.78344727 C-56.82823486 7.37908447 -56.82823486 7.37908447 -55.78149414 6.96655273 C-37.60471342 0.37416947 -19.11463043 -0.05192026 0 0 Z " fill="#454545" transform="translate(139.979248046875,-0.533447265625)"/>
<path d="M0 0 C0.33 0 0.66 0 1 0 C1.09146657 32.52721903 1.16214981 65.05440065 1.20426132 97.58171915 C1.20926349 101.43143277 1.21444084 105.28114613 1.21972656 109.13085938 C1.2207758 109.89719178 1.22182505 110.66352418 1.22290608 111.45307878 C1.24025935 123.82300551 1.27176866 136.19285705 1.30861118 148.56273934 C1.34616264 161.27773076 1.36826569 173.99268309 1.37635398 186.70772767 C1.38181249 194.53867596 1.39898253 202.36941164 1.43166587 210.20029441 C1.45552897 216.2289963 1.45778439 222.25751956 1.45243073 228.28627396 C1.45352203 230.74187392 1.46135507 233.19748271 1.4768219 235.65303421 C1.60019801 256.26945782 -0.66064084 275.02341004 -9 294 C-9.28327148 294.65419922 -9.56654297 295.30839844 -9.85839844 295.98242188 C-19.80140307 318.50525006 -36.98317968 338.17355818 -58 351 C-59.0725 351.68320312 -60.145 352.36640625 -61.25 353.0703125 C-89.742484 370.41643123 -124.33445605 374.30945306 -156.69140625 367.1875 C-181.68346501 360.48571888 -203.14246412 347.77330695 -221 329 C-221.96292969 328.02933594 -221.96292969 328.02933594 -222.9453125 327.0390625 C-245.5494444 303.33229002 -255.8407787 270.24194849 -255.15625 238.03515625 C-255.10680157 236.35669114 -255.05501469 234.67829189 -255 233 C-254.9690625 231.84371094 -254.938125 230.68742188 -254.90625 229.49609375 C-254.74990378 226.623232 -254.41800014 223.84620092 -254 221 C-253.85820312 219.69417969 -253.71640625 218.38835937 -253.5703125 217.04296875 C-252.7436638 211.3122915 -251.73829402 206.63047246 -247.41796875 202.578125 C-244.23106051 200.66375404 -241.02372364 198.99879291 -237.68457031 197.37353516 C-232.60354852 194.77387814 -227.73564034 191.78665671 -222.83078003 188.87203979 C-219.65432487 186.98953481 -216.46508427 185.12893156 -213.27734375 183.265625 C-207.17528499 179.69327539 -201.08443785 176.10228912 -195 172.5 C-187.13888036 167.84667575 -179.26334203 163.21833999 -171.38070679 158.60159302 C-166.48767579 155.73558072 -161.59583092 152.86754386 -156.7041626 149.99920654 C-155.07680315 149.04503221 -153.44929395 148.09111329 -151.82177734 147.13720703 C-141.70159148 141.20093251 -131.60407134 135.25381071 -121.74291992 128.89282227 C-117.21077094 126 -117.21077094 126 -115 126 C-113.82880535 123.88413806 -113.0245594 122.1403047 -112.60546875 119.74609375 C-112.1193211 117.06092307 -111.5364451 115.26767109 -110 113 C-107.07013642 111.74712988 -104.25905817 111.31305884 -101.1171875 110.78125 C-69.4965729 105.32563578 -41.99913297 85.62595211 -23.265625 60.265625 C-10.81890574 42.32518138 -2.79649008 21.66236346 0 0 Z " fill="#141414" transform="translate(511,142)"/>
<path d="M0 0 C33.34715354 0.73217303 62.84948226 18.8622568 85.44140625 42.125 C90.32882916 47.32038339 94.24080538 52.93455102 98 59 C98.89912109 60.35544922 98.89912109 60.35544922 99.81640625 61.73828125 C116.27329703 87.76741275 120.85464036 120.47574739 115.9375 150.5625 C115.35570101 153.05747054 114.70480377 155.53694911 114 158 C113.77425293 158.79631836 113.54850586 159.59263672 113.31591797 160.41308594 C106.29785404 184.60300842 94.32917824 204.56492802 76 222 C75.35289062 222.64195312 74.70578125 223.28390625 74.0390625 223.9453125 C60.17425449 237.16524572 42.80725956 245.81613543 24.625 251.375 C23.80483398 251.62604492 22.98466797 251.87708984 22.13964844 252.13574219 C16.75496624 253.69819348 11.58652329 254.51859619 6 255 C5.9175 255.845625 5.835 256.69125 5.75 257.5625 C4.46568843 263.44892805 2.30591544 267.45638388 -2.74609375 270.7109375 C-4.29984978 271.61642089 -5.86456653 272.50325563 -7.4375 273.375 C-8.30004395 273.87265869 -9.16258789 274.37031738 -10.05126953 274.88305664 C-11.97196109 275.99096734 -13.89667725 277.09192116 -15.82470703 278.18701172 C-19.23044563 280.13157691 -22.61596964 282.10906174 -25.99609375 284.09765625 C-26.59636887 284.45073853 -27.19664398 284.8038208 -27.81510925 285.16760254 C-29.04548764 285.8913966 -30.27582892 286.61525376 -31.50613403 287.33917236 C-34.63412073 289.17748196 -37.76655309 291.00818554 -40.8984375 292.83984375 C-46.94233075 296.37633232 -52.97444351 299.93236984 -59 303.5 C-68.11269034 308.89421541 -77.24647246 314.25201548 -86.38427734 319.60351562 C-94.26571213 324.21963816 -102.13999759 328.84744252 -110 333.5 C-119.11275928 338.89409966 -128.2464719 344.25201516 -137.38427734 349.60351562 C-146.14289372 354.73339965 -154.88960635 359.88287889 -163.62426758 365.0534668 C-168.69501171 368.05299025 -173.77176474 371.04202697 -178.85546875 374.01953125 C-179.45179611 374.36881683 -180.04812347 374.71810242 -180.66252136 375.07797241 C-183.72613859 376.87204908 -186.7903954 378.66502589 -189.85522461 380.45703125 C-196.15773071 384.14472954 -202.44560881 387.85491013 -208.7109375 391.60546875 C-209.95806542 392.35054435 -211.20521673 393.0955808 -212.45239258 393.84057617 C-214.81238347 395.25056453 -217.16830279 396.66705404 -219.5222168 398.0871582 C-220.57836182 398.718396 -221.63450684 399.34963379 -222.72265625 400 C-224.11109741 400.8353125 -224.11109741 400.8353125 -225.52758789 401.6875 C-230.10742541 404.11874385 -234.84854532 404.73309163 -240 404 C-243.75212276 401.98497111 -245.63644095 400.54533858 -248 397 C-247.34677482 396.34769661 -246.69354963 395.69539322 -246.02052975 395.02332306 C-230.10918005 379.13419585 -214.20073167 363.24216833 -198.29530239 347.34711456 C-190.6034212 339.66038455 -182.91060805 331.97459164 -175.21557617 324.29101562 C-168.50678009 317.59220239 -161.79975744 310.89161944 -155.09483773 304.18892622 C-151.54624208 300.64163156 -147.9967787 297.09521528 -144.44518852 293.55091858 C-141.09832431 290.2108714 -137.75384693 286.86845236 -134.41113853 283.52424622 C-133.1878017 282.30118316 -131.96361587 281.07896858 -130.73849106 279.85769653 C-122.32484876 271.47255346 -122.32484876 271.47255346 -114.41261578 262.61619282 C-111.90174713 259.74347403 -109.0671109 257.22559988 -106.2421875 254.66796875 C-97.79815501 246.89845719 -89.65502538 238.84115643 -81.54248047 230.7277832 C-79.08449447 228.27203128 -76.61854085 225.82445587 -74.15234375 223.37695312 C-72.58284703 221.81038289 -71.01381815 220.24334378 -69.4453125 218.67578125 C-68.71007355 217.94772781 -67.97483459 217.21967438 -67.21731567 216.46955872 C-66.54505951 215.79422592 -65.87280334 215.11889313 -65.18017578 214.4230957 C-64.58810333 213.83244827 -63.99603088 213.24180084 -63.38601685 212.633255 C-61.77187904 210.9368444 -61.77187904 210.9368444 -61 208 C-61.89976562 207.50113281 -62.79953125 207.00226563 -63.7265625 206.48828125 C-72.54509015 201.57545248 -81.26596899 196.51279926 -89.94775391 191.36254883 C-97.16225534 187.08295703 -104.39286243 182.83180867 -111.63183594 178.59381104 C-145.73288453 158.62762926 -145.73288453 158.62762926 -160.375 149.75 C-161.14932373 149.28352051 -161.92364746 148.81704102 -162.72143555 148.33642578 C-164.49855731 147.25262978 -166.25229207 146.13061599 -168 145 C-168 144.67 -168 144.34 -168 144 C-167.15038822 143.99761165 -166.30077644 143.99522329 -165.42541885 143.99276257 C-144.71668458 143.93352997 -124.00806589 143.85792717 -103.29945755 143.76428509 C-93.2847728 143.71939121 -83.27012309 143.67996184 -73.25537109 143.65356445 C-64.52270252 143.6305324 -55.79014548 143.59707645 -47.05756545 143.55129844 C-42.43718695 143.52743629 -37.81691843 143.5086617 -33.1964798 143.50238609 C-28.83963576 143.49630339 -24.48307285 143.4761896 -20.12633324 143.44572449 C-18.53496191 143.43699502 -16.94355377 143.43321101 -15.3521595 143.43499184 C5.52594221 143.45096579 24.29084478 137.46576969 39.6875 122.875 C47.62306799 114.61067276 53.47358867 104.90291425 57 94 C57.29777344 93.113125 57.59554688 92.22625 57.90234375 91.3125 C63.45111367 72.49270894 59.58264655 52.23234968 50.5078125 35.19921875 C40.17745488 17.72658038 23.98248507 7.48876191 4.75 2.1875 C3.16879096 1.78326436 1.58622852 1.38406714 0 1 C0 0.67 0 0.34 0 0 Z " fill="#2D2D2D" transform="translate(395,0)"/>
<path d="M0 0 C7.04694144 2.52538613 13.4104666 6.52320978 19.875 10.25 C21.12401044 10.96665677 22.37303409 11.68329051 23.62207031 12.39990234 C32.76422142 17.65742977 41.82338394 23.04738744 50.85205078 28.49755859 C60.76345529 34.47828108 70.76272932 40.30215081 80.77050781 46.11962891 C86.72885814 49.58887703 92.67709241 53.0753873 98.625 56.5625 C99.55185608 57.10580963 99.55185608 57.10580963 100.49743652 57.66009521 C109.20379641 62.76440315 117.89900911 67.88726768 126.58300781 73.02954102 C131.88850617 76.16883987 137.20257536 79.29309036 142.5234375 82.40625 C143.17338684 82.78664429 143.82333618 83.16703857 144.49298096 83.55895996 C147.69621199 85.43348517 150.90022024 87.306661 154.10546875 89.17773438 C160.12792348 92.6978742 166.11139811 96.25934967 172 100 C169.95331673 103.67980419 167.7238541 106.52471481 164.74731445 109.49560547 C163.89244949 110.35354706 163.03758453 111.21148865 162.15681458 112.09542847 C160.77401558 113.46744919 160.77401558 113.46744919 159.36328125 114.8671875 C158.39987755 115.82939689 157.43684565 116.79197867 156.47416687 117.75491333 C154.4572927 119.77022668 152.43711668 121.7821489 150.41430664 123.79150391 C147.84183929 126.34706245 145.27592197 128.90907238 142.71227741 131.47347832 C140.72294697 133.46253452 138.73100265 135.44895596 136.73821068 137.43454361 C135.33714181 138.83094799 133.93751053 140.22879429 132.53791809 141.62667847 C128.82008744 145.31726526 125.11898322 148.95120242 121.10620117 152.32080078 C117.63608033 155.29492788 114.57226319 158.57398498 111.50727844 161.95397949 C105.42110288 168.6025936 99.13775714 175.03036736 92.77734375 181.41552734 C91.60950006 182.59130254 90.44182649 183.76724674 89.27430725 184.94334412 C85.49897664 188.74446918 81.71857429 192.54052702 77.9375 196.3359375 C76.62751952 197.65128891 75.31754233 198.9666436 74.00756836 200.2820015 C68.56542938 205.74567599 63.12189529 211.20795411 57.6746521 216.66654015 C49.89518933 224.46232177 42.12442747 232.26655838 34.36515522 240.08243787 C28.886561 245.5996327 23.39850833 251.10730285 17.90323162 256.60788119 C14.62739337 259.88737654 11.3558927 263.17094445 8.0944519 266.46476364 C5.03865658 269.55047731 1.97138232 272.62428405 -1.10531807 275.68914986 C-2.23360775 276.81721767 -3.35759739 277.94960463 -4.4770031 279.08648872 C-6.0007782 280.6327627 -7.53901852 282.16299183 -9.08203125 283.69003296 C-10.36944214 284.98240907 -10.36944214 284.98240907 -11.68286133 286.30089378 C-14 288 -14 288 -16.30737305 287.76937294 C-17.14522339 287.38853333 -17.14522339 287.38853333 -18 287 C-18.85869935 284.02223561 -19.12748281 281.3715681 -19.13422108 278.27664375 C-19.13867892 277.32489616 -19.14313676 276.37314856 -19.14772969 275.39256012 C-19.14754533 274.34996627 -19.14736097 273.30737242 -19.14717102 272.23318481 C-19.15084771 271.12327427 -19.1545244 270.01336372 -19.1583125 268.86981952 C-19.1693573 265.13732947 -19.1731945 261.40486724 -19.17700195 257.67236328 C-19.18326585 255.00173781 -19.18989971 252.33111533 -19.19691467 249.66049194 C-19.21666238 241.63833688 -19.22674172 233.61618059 -19.23564246 225.59400731 C-19.24002687 221.81620947 -19.24539317 218.03841304 -19.25063133 214.2606163 C-19.26763954 201.70346683 -19.28213492 189.14631823 -19.28938007 176.58915901 C-19.29128995 173.33173751 -19.29321029 170.07431601 -19.29516602 166.81689453 C-19.29564976 166.00728318 -19.2961335 165.19767183 -19.2966319 164.36352681 C-19.30493687 151.2407422 -19.33028347 138.11804861 -19.36274669 124.99530376 C-19.39580282 111.52313848 -19.41382739 98.05101949 -19.41702431 84.57881343 C-19.41919042 77.01428827 -19.42795398 69.44989596 -19.45348549 61.88541031 C-19.47517251 55.44515337 -19.48325271 49.00506157 -19.47351871 42.56477226 C-19.46896851 39.27887063 -19.4730758 35.99338167 -19.49028015 32.7075119 C-19.5078922 29.14497877 -19.50094473 25.58331519 -19.48774719 22.02078247 C-19.49871644 20.98265006 -19.50968568 19.94451765 -19.52098733 18.87492669 C-19.46755961 12.91653029 -18.95027463 9.54673596 -15 5 C-10.13684368 0.71579086 -6.54174738 -0.90827567 0 0 Z " fill="#00D1FD" transform="translate(163,108)"/>
<path d="M0 0 C3.94055687 0.58036138 6.66257955 1.76686716 10.04296875 3.8515625 C11.02217285 4.44855957 12.00137695 5.04555664 13.01025391 5.66064453 C14.58299072 6.63300049 14.58299072 6.63300049 16.1875 7.625 C18.42713662 8.99169826 20.66771271 10.35667936 22.91015625 11.71875 C23.48715271 12.06994904 24.06414917 12.42114807 24.65863037 12.7829895 C32.15569366 17.33168076 39.7801664 21.66024503 47.40698242 25.98681641 C63.94165722 35.4303666 63.94165722 35.4303666 66 41 C66.75497817 47.07757425 66.71173831 51.94277952 63.39038086 57.30810547 C60.72023792 60.5572873 57.19830512 62.35997984 53.5625 64.375 C52.69995605 64.87265869 51.83741211 65.37031738 50.94873047 65.88305664 C49.02803891 66.99096734 47.10332275 68.09192116 45.17529297 69.18701172 C41.76955437 71.13157691 38.38403036 73.10906174 35.00390625 75.09765625 C34.40363113 75.45073853 33.80335602 75.8038208 33.18489075 76.16760254 C31.95451236 76.8913966 30.72417108 77.61525376 29.49386597 78.33917236 C26.36587927 80.17748196 23.23344691 82.00818554 20.1015625 83.83984375 C14.05766925 87.37633232 8.02555649 90.93236984 2 94.5 C-7.11269034 99.89421541 -16.24647246 105.25201548 -25.38427734 110.60351562 C-33.26571213 115.21963816 -41.13999759 119.84744252 -49 124.5 C-58.11275928 129.89409966 -67.2464719 135.25201516 -76.38427734 140.60351562 C-85.14289372 145.73339965 -93.88960635 150.88287889 -102.62426758 156.0534668 C-107.69501171 159.05299025 -112.77176474 162.04202697 -117.85546875 165.01953125 C-118.45179611 165.36881683 -119.04812347 165.71810242 -119.66252136 166.07797241 C-122.72613859 167.87204908 -125.7903954 169.66502589 -128.85522461 171.45703125 C-135.15773071 175.14472954 -141.44560881 178.85491013 -147.7109375 182.60546875 C-148.95806542 183.35054435 -150.20521673 184.0955808 -151.45239258 184.84057617 C-153.81238347 186.25056453 -156.16830279 187.66705404 -158.5222168 189.0871582 C-159.57836182 189.718396 -160.63450684 190.34963379 -161.72265625 191 C-162.64828369 191.556875 -163.57391113 192.11375 -164.52758789 192.6875 C-169.10742541 195.11874385 -173.84854532 195.73309163 -179 195 C-182.75212276 192.98497111 -184.63644095 191.54533858 -187 188 C-186.34677482 187.34769661 -185.69354963 186.69539322 -185.02052975 186.02332306 C-169.10918005 170.13419585 -153.20073167 154.24216833 -137.29530239 138.34711456 C-129.6034212 130.66038455 -121.91060805 122.97459164 -114.21557617 115.29101562 C-107.50678009 108.59220239 -100.79975744 101.89161944 -94.09483773 95.18892622 C-90.54624208 91.64163156 -86.9967787 88.09521528 -83.44518852 84.55091858 C-80.09832431 81.2108714 -76.75384693 77.86845236 -73.41113853 74.52424622 C-72.1878017 73.30118316 -70.96361587 72.07896858 -69.73849106 70.85769653 C-61.32478379 62.47250392 -61.32478379 62.47250392 -53.41261578 53.61597824 C-50.90216373 50.74411744 -48.06700647 48.22821803 -45.2421875 45.671875 C-36.78618193 37.89408856 -28.65469427 29.80660075 -20.54248047 21.67285156 C-18.08287691 19.20778332 -15.61783374 16.74824193 -13.15234375 14.2890625 C-11.58301176 12.71907137 -10.0139891 11.14877097 -8.4453125 9.578125 C-7.71007355 8.84491028 -6.97483459 8.11169556 -6.21731567 7.35626221 C-5.20893143 6.34314972 -5.20893143 6.34314972 -4.18017578 5.30957031 C-3.58810333 4.71670227 -2.99603088 4.12383423 -2.38601685 3.51300049 C-0.9011993 2.03107371 -0.9011993 2.03107371 0 0 Z " fill="#FE003B" transform="translate(334,209)"/>
<path d="M0 0 C4.3341252 2.34288339 8.60696275 4.7894853 12.875 7.25 C14.12401044 7.96665677 15.37303409 8.68329051 16.62207031 9.39990234 C25.76422142 14.65742977 34.82338394 20.04738744 43.85205078 25.49755859 C53.76345529 31.47828108 63.76272932 37.30215081 73.77050781 43.11962891 C79.72885814 46.58887703 85.67709241 50.0753873 91.625 53.5625 C92.55185608 54.10580963 92.55185608 54.10580963 93.49743652 54.66009521 C102.20379641 59.76440315 110.89900911 64.88726768 119.58300781 70.02954102 C124.88850617 73.16883987 130.20257536 76.29309036 135.5234375 79.40625 C136.17338684 79.78664429 136.82333618 80.16703857 137.49298096 80.55895996 C140.69621199 82.43348517 143.90022024 84.306661 147.10546875 86.17773438 C153.12792348 89.6978742 159.11139811 93.25934967 165 97 C162.94716596 100.69543688 160.70630767 103.53830411 157.7121582 106.51489258 C156.85149246 107.37540726 155.99082672 108.23592194 155.1040802 109.12251282 C154.17899155 110.0372789 153.25390289 110.95204498 152.30078125 111.89453125 C151.34056128 112.85101713 150.38078484 113.80794846 149.4214325 114.76530457 C146.90563979 117.27349205 144.38389751 119.77561276 141.86083984 122.27648926 C139.28314122 124.83366221 136.71115468 127.39656633 134.13867188 129.95898438 C129.09800262 134.97825865 124.05102141 139.99114174 119 145 C114.4892731 141.22152362 110.18121007 137.32539622 106.03309631 133.15335083 C105.47583577 132.59694471 104.91857523 132.04053859 104.344428 131.46727169 C102.49815549 129.62263192 100.65545405 127.77446764 98.81274414 125.92626953 C97.48189422 124.59513724 96.15082347 123.26422571 94.81954956 121.93351746 C91.22072925 118.33498316 87.62499285 114.73338173 84.02981496 111.1312089 C80.26666264 107.36179037 76.50066387 103.59521789 72.73497009 99.82833862 C65.61104394 92.70130878 58.48967 85.57173442 51.36921638 78.44123542 C43.25994302 70.32077103 35.14781799 62.20315792 27.03545582 54.08577943 C10.35380245 37.39368345 -6.32427841 20.6980218 -23 4 C-16.29868196 -4.57048733 -9.50098701 -4.7531207 0 0 Z " fill="#00FE63" transform="translate(170,111)"/>
<path d="M0 0 C3.94055687 0.58036138 6.66257955 1.76686716 10.04296875 3.8515625 C11.02217285 4.44855957 12.00137695 5.04555664 13.01025391 5.66064453 C14.58299072 6.63300049 14.58299072 6.63300049 16.1875 7.625 C18.42713662 8.99169826 20.66771271 10.35667936 22.91015625 11.71875 C23.48715271 12.06994904 24.06414917 12.42114807 24.65863037 12.7829895 C32.15569366 17.33168076 39.7801664 21.66024503 47.40698242 25.98681641 C63.94165722 35.4303666 63.94165722 35.4303666 66 41 C66.75497817 47.07757425 66.71173831 51.94277952 63.39038086 57.30810547 C60.72027365 60.55724383 57.19833695 62.36008896 53.5625 64.375 C52.70865723 64.86758301 51.85481445 65.36016602 50.97509766 65.86767578 C49.06317994 66.9704336 47.1472348 68.06622848 45.22802734 69.15625 C41.66341035 71.19224966 38.12061362 73.26295328 34.58203125 75.34375 C33.9453804 75.71811188 33.30872955 76.09247375 32.65278625 76.47817993 C31.36393799 77.23614655 30.07512467 77.99417261 28.78634644 78.7522583 C26.91833875 79.84954244 25.04857349 80.94375436 23.17797852 82.03662109 C22.28783806 82.55719589 22.28783806 82.55719589 21.37971497 83.08828735 C19.65687223 84.09402098 17.93149139 85.09540279 16.20605469 86.09667969 C14.13070569 87.32874036 12.07699108 88.59832012 10.05175781 89.91113281 C9.17100586 90.47928711 8.29025391 91.04744141 7.3828125 91.6328125 C6.24803467 92.39295654 6.24803467 92.39295654 5.09033203 93.16845703 C3 94 3 94 1.13572693 93.30415344 C-1.3622523 91.77879542 -3.19761352 90.04202763 -5.26196289 87.96508789 C-6.09284927 87.13405045 -6.92373566 86.303013 -7.77980042 85.4467926 C-8.66844284 84.54782761 -9.55708527 83.64886261 -10.47265625 82.72265625 C-11.39211533 81.80036728 -12.3115744 80.87807831 -13.25889587 79.92784119 C-15.70018159 77.4789346 -18.13540569 75.024086 -20.56939697 72.56793213 C-23.0433057 70.07359543 -25.52284981 67.58487513 -28.00195312 65.09570312 C-32.36301719 60.71551591 -36.71911973 56.33043478 -41.07167053 51.94178772 C-42.71099368 50.29102336 -44.35363411 48.64373582 -46 47 C-45.43845718 46.4406778 -44.87691437 45.88135559 -44.2983551 45.30508423 C-39.0130756 40.03982156 -33.73019145 34.77217272 -28.4499979 29.50181007 C-25.73515825 26.79219444 -23.01939396 24.08351911 -20.30151367 21.37695312 C-17.67984752 18.76613289 -15.06061432 16.15289479 -12.44306755 13.53794479 C-11.44277591 12.53950431 -10.44160291 11.54194604 -9.43954659 10.54527664 C-8.03884614 9.15180913 -6.64153199 7.75494024 -5.24438477 6.35791016 C-4.04858543 5.16544174 -4.04858543 5.16544174 -2.82862854 3.94888306 C-0.94418832 2.12661186 -0.94418832 2.12661186 0 0 Z " fill="#FEC700" transform="translate(334,209)"/>
</svg>
