<?xml version="1.0" encoding="UTF-8"?>
<svg version="1.1" xmlns="http://www.w3.org/2000/svg" width="512" height="512">
<path d="M0 0 C2.39632831 -0.0043531 4.79265523 -0.00953823 7.1889801 -0.01548767 C12.9972276 -0.02744419 18.80542124 -0.03003661 24.61367955 -0.02768741 C29.34148078 -0.02589622 34.06926807 -0.02767096 38.79706764 -0.03191185 C39.47284813 -0.03250704 40.14862861 -0.03310223 40.84488729 -0.03371545 C42.21826619 -0.03492735 43.59164508 -0.03614149 44.96502397 -0.03735783 C57.81504021 -0.04820833 70.66503013 -0.04608301 83.51504783 -0.03997298 C95.23237341 -0.03480897 106.94961573 -0.04605009 118.66692486 -0.0650712 C130.73822364 -0.08451457 142.80948316 -0.09269408 154.88079768 -0.08894795 C161.6418242 -0.08704535 168.40277994 -0.08943056 175.16379356 -0.10366249 C181.52755292 -0.11631316 187.89114674 -0.11422865 194.25490379 -0.1012516 C196.57749998 -0.09890178 198.90010808 -0.1015626 201.22269058 -0.10987473 C244.31047067 -0.25284106 282.09874014 14.03185124 313.2277832 44.2746582 C315.70462678 46.83654362 317.98528589 49.50620203 320.2277832 52.2746582 C320.98704102 53.19633789 321.74629883 54.11801758 322.52856445 55.06762695 C337.9533505 74.17685145 348.22948657 96.24698065 353.2277832 120.2746582 C353.40145007 121.09062879 353.57511694 121.90659937 353.75404644 122.74729633 C355.83393852 134.11219391 355.51629363 145.53404235 355.50244141 157.046875 C355.5067945 159.44320331 355.51197964 161.83953023 355.51792908 164.2358551 C355.52988559 170.0441026 355.53247802 175.85229624 355.53012881 181.66055455 C355.52833762 186.38835578 355.53011236 191.11614307 355.53435326 195.84394264 C355.53494845 196.51972313 355.53554363 197.19550361 355.53615686 197.89176229 C355.53736876 199.26514119 355.53858289 200.63852008 355.53979924 202.01189897 C355.55064974 214.86191521 355.54852442 227.71190513 355.54241439 240.56192283 C355.53725038 252.27924841 355.54849149 263.99649073 355.56751261 275.71379986 C355.58695598 287.78509864 355.59513548 299.85635816 355.59138936 311.92767268 C355.58948676 318.6886992 355.59187197 325.44965494 355.6061039 332.21066856 C355.61875456 338.57442792 355.61667006 344.93802174 355.60369301 351.30177879 C355.60134318 353.62437498 355.604004 355.94698308 355.61231613 358.26956558 C355.74474937 398.18283851 343.92517792 433.2771101 317.2277832 463.2746582 C316.16246576 464.56400213 315.0993834 465.85520241 314.0402832 467.1496582 C310.76994674 470.92809779 307.08941331 474.11398406 303.2277832 477.2746582 C301.83946289 478.4193457 301.83946289 478.4193457 300.4230957 479.5871582 C281.31096307 495.00193972 259.25253905 505.27696935 235.2277832 510.2746582 C234.41181262 510.44832507 233.59584204 510.62199194 232.75514507 510.80092144 C221.3902475 512.88081352 209.96839906 512.56316863 198.45556641 512.54931641 C196.0592381 512.5536695 193.66291118 512.55885464 191.2665863 512.56480408 C185.45833881 512.57676059 179.65014517 512.57935302 173.84188686 512.57700381 C169.11408562 512.57521262 164.38629834 512.57698736 159.65849876 512.58122826 C158.98271828 512.58182345 158.3069378 512.58241863 157.61067912 512.58303186 C156.23730022 512.58424376 154.86392133 512.58545789 153.49054243 512.58667424 C140.6405262 512.59752474 127.79053628 512.59539942 114.94051858 512.58928939 C103.22319299 512.58412538 91.50595067 512.59536649 79.78864155 512.61438761 C67.71734277 512.63383098 55.64608324 512.64201048 43.57476872 512.63826436 C36.81374221 512.63636176 30.05278646 512.63874697 23.29177284 512.6529789 C16.92801349 512.66562956 10.56441967 512.66354506 4.20066261 512.65056801 C1.87806643 512.64821818 -0.44454167 512.650879 -2.76712418 512.65919113 C-42.68039711 512.79162437 -77.7746687 500.97205292 -107.7722168 474.2746582 C-109.06156073 473.20934076 -110.352761 472.1462584 -111.6472168 471.0871582 C-115.42565638 467.81682174 -118.61154265 464.13628831 -121.7722168 460.2746582 C-122.9169043 458.88633789 -122.9169043 458.88633789 -124.0847168 457.4699707 C-139.49949831 438.35783807 -149.77452795 416.29941405 -154.7722168 392.2746582 C-154.94588367 391.45868762 -155.11955053 390.64271704 -155.29848003 389.80202007 C-157.37837212 378.4371225 -157.06072722 367.01527406 -157.046875 355.50244141 C-157.0512281 353.1061131 -157.05641323 350.70978618 -157.06236267 348.3134613 C-157.07431919 342.50521381 -157.07691161 336.69702017 -157.07456241 330.88876186 C-157.07277122 326.16096062 -157.07454596 321.43317334 -157.07878685 316.70537376 C-157.07967963 315.69170304 -157.07967963 315.69170304 -157.08059045 314.65755412 C-157.08180235 313.28417522 -157.08301649 311.91079633 -157.08423283 310.53741743 C-157.09508333 297.6874012 -157.09295801 284.83741128 -157.08684798 271.98739358 C-157.08168397 260.27006799 -157.09292509 248.55282567 -157.1119462 236.83551655 C-157.13138957 224.76421777 -157.13956908 212.69295824 -157.13582295 200.62164372 C-157.13392035 193.86061721 -157.13630556 187.09966146 -157.15053749 180.33864784 C-157.16318816 173.97488849 -157.16110365 167.61129467 -157.1481266 161.24753761 C-157.14577678 158.92494143 -157.1484376 156.60233333 -157.15674973 154.27975082 C-157.28440569 115.80627168 -146.43112974 80.56586735 -120.7722168 51.2746582 C-120.09288086 50.47415039 -119.41354492 49.67364258 -118.71362305 48.84887695 C-114.4079308 43.8549454 -109.88633679 39.43205506 -104.7722168 35.2746582 C-103.84924805 34.51411133 -102.9262793 33.75356445 -101.9753418 32.9699707 C-82.86515422 17.54851498 -60.79891651 7.27275142 -36.7722168 2.2746582 C-35.95624621 2.10099133 -35.14027563 1.92732447 -34.29957867 1.74839497 C-22.93468109 -0.33149712 -11.51283265 -0.01385222 0 0 Z M-81.0222168 89.9543457 C-95.45769014 109.0942367 -90.7722168 133.36340541 -90.7722168 156.2746582 C34.6277832 156.2746582 160.0277832 156.2746582 289.2277832 156.2746582 C291.91088242 120.46053286 291.91088242 120.46053286 277.9777832 88.3996582 C265.89116242 77.46287081 252.5613516 76.11967013 236.95733643 76.14094543 C235.12218495 76.1375471 235.12218495 76.1375471 233.24995971 76.13408011 C229.87071204 76.12886054 226.49151776 76.12809255 223.11226988 76.12927449 C219.46115459 76.12947917 215.81004715 76.12395329 212.15893555 76.11921692 C205.01182771 76.11092439 197.86472812 76.10816271 190.71761587 76.10760454 C184.90555122 76.10712871 179.09348927 76.1050706 173.28142548 76.10190392 C156.78821872 76.09310108 140.29501846 76.08848395 123.80180934 76.08923439 C122.46917519 76.08929432 122.46917519 76.08929432 121.10961914 76.08935547 C120.22010645 76.08939635 119.33059375 76.08943723 118.41412613 76.08947935 C104.00237628 76.08988569 89.59065257 76.08031811 75.17891029 76.0662171 C60.36639466 76.0518388 45.55389178 76.04494772 30.74136901 76.04581088 C22.43116765 76.04614235 14.1209937 76.04341714 5.81079865 76.03263283 C-1.26522747 76.02350867 -8.34121375 76.02136827 -15.41724321 76.02814225 C-19.02378788 76.03139783 -22.63025621 76.03149912 -26.23679352 76.022789 C-30.15584243 76.01342193 -34.07478104 76.01972514 -37.99383545 76.02742004 C-39.12070888 76.02227648 -40.24758232 76.01713292 -41.40860343 76.01183349 C-56.3047587 76.07621865 -70.52525749 78.45142779 -81.0222168 89.9543457 Z M-90.7722168 166.2746582 C-90.8134668 203.9771582 -90.8547168 241.6796582 -90.8972168 280.5246582 C-90.9154248 292.42302734 -90.93363281 304.32139648 -90.95239258 316.58032227 C-90.95908204 327.25924625 -90.95908204 327.25924625 -90.96310425 337.93817139 C-90.9649652 342.68932977 -90.97245096 347.44044331 -90.98336792 352.19158936 C-90.9971246 358.25933986 -91.00119193 364.32702552 -90.99836135 370.39479017 C-90.99895292 372.61704735 -91.0028959 374.83930688 -91.01064706 377.06155062 C-91.12389566 403.23485197 -91.12389566 403.23485197 -78.0144043 425.23168945 C-66.57219468 435.65725675 -53.22974554 436.42845184 -38.50177002 436.40837097 C-37.2783357 436.41063653 -36.05490139 436.41290208 -34.7943933 436.41523629 C-31.41514563 436.42045586 -28.03595135 436.42122386 -24.65670347 436.42004192 C-21.00558819 436.41983724 -17.35448074 436.42536312 -13.70336914 436.43009949 C-6.5562613 436.43839201 0.59083829 436.4411537 7.73795053 436.44171187 C13.55001519 436.4421877 19.36207713 436.4442458 25.17414093 436.44741249 C41.66734769 436.45621532 58.16054794 436.46083246 74.65375707 436.46008202 C75.98639121 436.46002208 75.98639121 436.46002208 77.34594727 436.45996094 C78.23545996 436.45992006 79.12497265 436.45987918 80.04144028 436.45983706 C94.45319013 436.45943071 108.86491383 436.46899829 123.27665612 436.4830993 C138.08917174 436.49747761 152.90167462 436.50436868 167.7141974 436.50350553 C176.02439875 436.50317406 184.33457271 436.50589926 192.64476776 436.51668358 C199.72079387 436.52580774 206.79678016 436.52794814 213.87280962 436.52117416 C217.47935428 436.51791858 221.08582261 436.51781728 224.69235992 436.5265274 C228.61140884 436.53589448 232.53034745 436.52959127 236.44940186 436.52189636 C238.13971201 436.52961171 238.13971201 436.52961171 239.86416984 436.53748292 C254.84450439 436.47273391 267.01236101 433.99720026 278.18481445 423.5168457 C287.88629916 412.86932712 289.39422267 400.39779332 289.34803772 386.58093262 C289.34889374 385.63714752 289.34974976 384.69336243 289.35063171 383.72097778 C289.35228005 380.56502361 289.34677442 377.40912311 289.34130859 374.25317383 C289.34100212 371.94936881 289.34113599 369.6455637 289.34167385 367.34175873 C289.34189932 361.18048819 289.33610957 355.01923714 289.32906342 348.85797119 C289.32336234 343.07336364 289.32309996 337.2887608 289.3223877 331.50415039 C289.31714341 314.59431709 289.30318223 297.6844874 289.2902832 280.7746582 C289.2696582 242.9896582 289.2490332 205.2046582 289.2277832 166.2746582 C163.8277832 166.2746582 38.4277832 166.2746582 -90.7722168 166.2746582 Z " fill="#126AD6" transform="translate(156.772216796875,-0.274658203125)"/>
<path d="M0 0 C1.44444194 -0.00576114 2.88887655 -0.01370222 4.33329582 -0.02363622 C8.30309603 -0.04453437 12.27229627 -0.03418128 16.24209881 -0.01870513 C20.52303345 -0.00740754 24.80386381 -0.02484639 29.08477783 -0.03860474 C37.47129206 -0.06085875 45.85758277 -0.05602636 54.24410582 -0.04154153 C61.05889441 -0.03025778 67.87362028 -0.02871464 74.68841553 -0.03416061 C75.6576709 -0.03492678 76.62692627 -0.03569294 77.62555301 -0.03648233 C79.5944667 -0.03808092 81.56338038 -0.03970199 83.53229403 -0.04134528 C102.00258179 -0.05560912 120.47274554 -0.0392001 138.94301295 -0.01234345 C154.79751997 0.0099959 170.65184395 0.00611595 186.50634766 -0.01693726 C204.90972725 -0.04368405 223.31299811 -0.05423577 241.71639442 -0.03887594 C243.67813744 -0.03728316 245.63988048 -0.03571131 247.60162354 -0.03416061 C248.56688363 -0.03338924 249.53214372 -0.03261786 250.52665412 -0.03182311 C257.33467011 -0.02750274 264.14261724 -0.0347999 270.95062256 -0.04655838 C279.24533816 -0.06056948 287.53981713 -0.05681279 295.83450556 -0.03015466 C300.06809929 -0.01699765 304.30129825 -0.0118959 308.53488922 -0.02840042 C312.40878025 -0.04327446 316.28190974 -0.0351549 320.15573144 -0.00851266 C321.55874955 -0.00291674 322.96183169 -0.00579315 324.3648088 -0.0178916 C334.90624645 -0.10183795 334.90624645 -0.10183795 339.47085285 2.61294651 C341.75581722 6.73744484 341.84429309 9.97159341 341.78666687 14.62138367 C341.79517239 15.52782118 341.80367791 16.43425869 341.81244117 17.368164 C341.83473318 20.40677731 341.82126699 23.44416851 341.80786133 26.4828186 C341.81627354 28.66111123 341.82679822 30.83939657 341.83927917 33.01766968 C341.86637791 38.93754066 341.86161128 44.85699101 341.84957862 50.77689672 C341.84245234 55.72184775 341.85094385 60.66672074 341.85948402 65.61166567 C341.88059651 77.9517366 341.87141414 90.29158003 341.84800772 102.63163852 C341.82737458 113.99226995 341.84909821 125.35238979 341.88485593 136.71297652 C341.91613605 147.04697886 341.92399075 157.38081518 341.91290218 167.71485895 C341.90642523 173.88345223 341.90836824 180.0517358 341.93222618 186.22029305 C341.95354146 192.02765287 341.94541717 197.83425829 341.91513252 203.64157104 C341.90882538 205.76671766 341.91261664 207.89192335 341.92754364 210.0170269 C342.00754354 222.41698764 341.98645569 232.63783832 333.52176952 242.53236485 C325.58022732 250.06632681 316.6971446 251.22303602 306.14689636 251.15631104 C304.85727078 251.16396213 303.5676452 251.17161322 302.23894006 251.17949617 C298.67942032 251.19998267 295.12030511 251.19571179 291.56075275 251.18713498 C287.71397599 251.18218695 283.86729494 251.20024559 280.02055359 251.21520996 C272.49187511 251.24067133 264.9633394 251.24429541 257.43462511 251.23960944 C251.31269143 251.23603891 245.19080097 251.2395513 239.06887245 251.24805832 C237.76037735 251.24984389 237.76037735 251.24984389 236.425448 251.25166553 C234.65311858 251.25408911 232.88078916 251.25651738 231.10845975 251.25895028 C214.49784748 251.28068906 197.88731647 251.27638226 181.27669964 251.26418059 C166.09540543 251.25384491 150.914368 251.27634804 135.73312458 251.31437702 C120.12954619 251.35316303 104.52608918 251.36964062 88.92246228 251.36213052 C80.16842372 251.35831063 71.41460362 251.36324074 62.66060448 251.3915596 C55.20754144 251.41542675 47.75483133 251.41815344 40.30176326 251.39397927 C36.50260975 251.38222848 32.70410112 251.37992595 28.90499115 251.40398407 C24.77751818 251.42981671 20.65156955 251.40871018 16.52409363 251.38336182 C15.33564714 251.39811039 14.14720065 251.41285896 12.92274064 251.42805445 C3.90330513 251.31189106 -3.78292286 248.90060445 -10.78514034 243.01162112 C-17.14133354 236.17213486 -19.45961655 228.27018733 -19.36964417 219.12033081 C-19.37658969 218.20553664 -19.38353522 217.29074247 -19.39069122 216.34822726 C-19.40887843 213.30584213 -19.39872015 210.26424408 -19.38842773 207.22183228 C-19.39549013 205.03159505 -19.40423649 202.8413627 -19.41453552 200.65113831 C-19.43699626 194.71962622 -19.43409846 188.78838136 -19.42521405 182.85684299 C-19.42009904 177.9035851 -19.42740044 172.95037718 -19.43468612 167.99712443 C-19.45264288 155.64910256 -19.44628485 143.30122577 -19.42851632 130.95320901 C-19.41380296 120.2323196 -19.42847532 109.51171003 -19.45728648 98.79085663 C-19.48667803 87.77176378 -19.49714621 76.75280643 -19.48810428 65.73367667 C-19.48317018 59.55142673 -19.48541796 53.36939463 -19.5058918 47.18717194 C-19.5242076 41.37904382 -19.51834009 35.57143791 -19.4936924 29.76333809 C-19.48867271 27.63040746 -19.49220411 25.49743729 -19.50484085 23.36453819 C-19.52071076 20.45627735 -19.50587788 17.54974925 -19.48316956 14.64157104 C-19.49500528 13.79459286 -19.50684101 12.94761467 -19.5190354 12.07497048 C-19.45800629 8.23694717 -19.06644168 6.01696976 -17.18165493 2.6116848 C-11.77049789 -0.60371682 -6.14828658 -0.05301923 0 0 Z M-8.85498047 10.63491821 C-8.89623047 45.11991821 -8.93748047 79.60491821 -8.97998047 115.13491821 C-8.99818848 126.02556274 -9.01639648 136.91620728 -9.03515625 148.13687134 C-9.04184492 157.89511045 -9.04184492 157.89511045 -9.04586792 167.65335083 C-9.04773197 172.00135334 -9.05523006 176.34930707 -9.06613159 180.69729614 C-9.07985625 186.2448073 -9.08396153 191.79224757 -9.08112502 197.33977413 C-9.0817181 199.37484604 -9.08568011 201.40992045 -9.09341073 203.44497776 C-9.10337822 206.19689778 -9.10095318 208.94854347 -9.0954895 211.70046997 C-9.10131483 212.49403648 -9.10714016 213.287603 -9.11314201 214.10521698 C-9.07248997 221.73865113 -7.9288822 228.62635037 -2.85498047 234.63491821 C5.25331942 241.04532625 13.22538187 240.78213175 23.20187378 240.76863098 C24.42642151 240.77089654 25.65096924 240.77316209 26.91262448 240.7754963 C30.30411319 240.78072703 33.69554883 240.78148195 37.0870378 240.78030193 C40.74765511 240.78009766 44.40826454 240.78561916 48.06887817 240.7903595 C55.23764447 240.79866064 62.40640254 240.80141409 69.57517324 240.80197188 C75.40257564 240.80244725 81.22997532 240.80450308 87.05737686 240.8076725 C103.58266256 240.81647729 120.10794177 240.8210921 136.63322984 240.82034203 C137.5238343 240.82030207 138.41443877 240.82026211 139.33203125 240.82022095 C140.66957066 240.82015963 140.66957066 240.82015963 142.03413107 240.82009707 C156.48750944 240.81969055 170.94086177 240.82926186 185.39423262 240.84335931 C200.23830595 240.85772352 215.08236658 240.86462949 229.92644703 240.86376554 C238.25890714 240.8634336 246.59133994 240.8661792 254.92379379 240.87694359 C262.01754968 240.88604912 269.11126586 240.88822337 276.20502506 240.88143416 C279.82321173 240.87816935 283.44132223 240.8781109 287.05950165 240.88678741 C290.98443569 240.89610264 294.90925854 240.88987543 298.834198 240.88215637 C299.97408704 240.88729994 301.11397608 240.8924435 302.28840721 240.89774293 C310.81344086 240.86066087 318.35892712 240.36539625 325.14501953 234.63491821 C330.78134435 227.50572898 331.29739557 220.75685246 331.26527405 211.940979 C331.26613007 211.08037872 331.26698608 210.21977844 331.26786804 209.33309937 C331.26951993 206.44751906 331.26400493 203.5619971 331.25854492 200.67642212 C331.25823853 198.57310678 331.25837218 196.46979135 331.25891018 194.36647606 C331.25913588 188.73548395 331.25334126 183.1045131 331.24629974 177.473526 C331.24060356 172.1890252 331.24033655 166.90452956 331.23962402 161.62002563 C331.23437732 146.16665368 331.22041617 130.71328568 331.20751953 115.25991821 C331.18689453 80.73366821 331.16626953 46.20741821 331.14501953 10.63491821 C218.94501953 10.63491821 106.74501953 10.63491821 -8.85498047 10.63491821 Z " fill="#1066D2" transform="translate(94.85498046875,175.36508178710938)"/>
<path d="M0 0 C6.02906638 3.73040273 10.97773387 9.51210394 13.00496387 16.35217953 C15.01938415 25.09217423 12.37127097 33.88330839 10.45825195 42.40795898 C10.13061853 43.9002614 9.80378174 45.3927389 9.47767639 46.88537598 C8.59383252 50.91840931 7.69794593 54.94867491 6.79906869 58.97838092 C6.04761299 62.35211851 5.30196004 65.72712797 4.5562312 69.10213524 C2.79563619 77.06947248 1.02509807 85.03455486 -0.75170898 92.99829102 C-2.57977976 101.19260132 -4.39117388 109.39047076 -6.19434327 117.59029335 C-7.74742048 124.65004559 -9.31082804 131.70745607 -10.88243705 138.76310593 C-11.81904401 142.96841015 -12.75183148 147.17446543 -13.67468834 151.38281059 C-14.54352435 155.34263511 -15.42531899 159.29935978 -16.31681252 163.25414276 C-16.64021863 164.69861515 -16.95920196 166.1440867 -17.27320862 167.59063148 C-21.94272874 189.06347038 -21.94272874 189.06347038 -31.5 195.5 C-38.68831541 199.71632235 -46.96479047 199.87086965 -55.0078125 197.87890625 C-61.56610229 194.98554311 -66.64906013 189.09057652 -69.4375 182.5625 C-72.23086624 173.13740461 -69.54626444 163.89648426 -67.45825195 154.59204102 C-67.13061853 153.0997386 -66.80378174 151.6072611 -66.47767639 150.11462402 C-65.59383252 146.08159069 -64.69794593 142.05132509 -63.79906869 138.02161908 C-63.04761299 134.64788149 -62.30196004 131.27287203 -61.5562312 127.89786476 C-59.79563619 119.93052752 -58.02509807 111.96544514 -56.24829102 104.00170898 C-54.42022024 95.80739868 -52.60882612 87.60952924 -50.80565673 79.40970665 C-49.25257952 72.34995441 -47.68917196 65.29254393 -46.11756295 58.23689407 C-45.18095599 54.03158985 -44.24816852 49.82553457 -43.32531166 45.61718941 C-42.45647565 41.65736489 -41.57468101 37.70064022 -40.68318748 33.74585724 C-40.35978137 32.30138485 -40.04079804 30.8559133 -39.72679138 29.40936852 C-37.43048398 18.84977406 -35.05906953 8.72716962 -26.34375 1.65625 C-19.12389342 -2.87145667 -7.85946439 -3.48966395 0 0 Z M-22.5 13.5 C-25.33421091 17.48209515 -26.43889599 21.52862836 -27.4543457 26.23779297 C-27.62762485 27.00659538 -27.80090399 27.7753978 -27.97943401 28.56749725 C-28.55337335 31.12391213 -29.1145388 33.68295775 -29.67578125 36.2421875 C-30.08140946 38.06028467 -30.48783968 39.87820307 -30.89501953 41.69595337 C-31.98583957 46.57631295 -33.06562587 51.45904952 -34.14279556 56.34243774 C-35.25897643 61.396739 -36.38313362 66.44926541 -37.5065918 71.50195312 C-38.86546439 77.61557439 -40.22328424 83.72942145 -41.57649231 89.84429932 C-44.16025106 101.51442349 -46.77928784 113.17558699 -49.44826698 124.82651138 C-50.4469573 129.19182484 -51.4380756 133.55886391 -52.42909527 137.9259243 C-53.19017666 141.27665236 -53.95615645 144.62609954 -54.73355103 147.9730835 C-55.58157851 151.63546277 -56.41194384 155.30142611 -57.23828125 158.96875 C-57.6101355 160.54240829 -57.6101355 160.54240829 -57.98950195 162.14785767 C-59.46254542 168.79100696 -60.67279351 175.64851762 -57.16015625 181.875 C-56.63292969 182.41125 -56.10570312 182.9475 -55.5625 183.5 C-55.03785156 184.056875 -54.51320312 184.61375 -53.97265625 185.1875 C-50.65194362 188.14707412 -47.30551652 187.8304569 -43.04296875 187.78125 C-39.30819582 187.36818756 -37.26058172 185.99125668 -34.5 183.5 C-31.66578909 179.51790485 -30.56110401 175.47137164 -29.5456543 170.76220703 C-29.37237515 169.99340462 -29.19909601 169.2246022 -29.02056599 168.43250275 C-28.44662665 165.87608787 -27.8854612 163.31704225 -27.32421875 160.7578125 C-26.91859054 158.93971533 -26.51216032 157.12179693 -26.10498047 155.30404663 C-25.01416043 150.42368705 -23.93437413 145.54095048 -22.85720444 140.65756226 C-21.74102357 135.603261 -20.61686638 130.55073459 -19.4934082 125.49804688 C-18.13453561 119.38442561 -16.77671576 113.27057855 -15.42350769 107.15570068 C-12.83974894 95.48557651 -10.22071216 83.82441301 -7.55173302 72.17348862 C-6.5530427 67.80817516 -5.5619244 63.44113609 -4.57090473 59.0740757 C-3.80982334 55.72334764 -3.04384355 52.37390046 -2.26644897 49.0269165 C-1.41842149 45.36453723 -0.58805616 41.69857389 0.23828125 38.03125 C0.6101355 36.45759171 0.6101355 36.45759171 0.98950195 34.85214233 C2.46254542 28.20899304 3.67279351 21.35148238 0.16015625 15.125 C-0.36707031 14.58875 -0.89429688 14.0525 -1.4375 13.5 C-1.96214844 12.943125 -2.48679687 12.38625 -3.02734375 11.8125 C-6.34805638 8.85292588 -9.69448348 9.1695431 -13.95703125 9.21875 C-17.69180418 9.63181244 -19.73941828 11.00874332 -22.5 13.5 Z " fill="#1066D2" transform="translate(284.5,202.5)"/>
<path d="M0 0 C1.25425781 -0.02835938 2.50851562 -0.05671875 3.80078125 -0.0859375 C14.04355228 1.12878308 20.18102155 8.27587118 27.08203125 15.23828125 C28.16142044 16.3149709 29.24140239 17.3910666 30.32194519 18.46659851 C32.57494509 20.71372768 34.82061899 22.96786351 37.0612793 25.22729492 C39.92358686 28.11241784 42.80351953 30.97916939 45.68918324 33.840909 C47.91930504 36.0565307 50.13975578 38.28164843 52.35745811 40.50969505 C53.41540296 41.57029411 54.47628821 42.62796904 55.5402317 43.68255043 C57.02869641 45.16077682 58.50361201 46.65136653 59.97583008 48.14575195 C60.81551834 48.98862259 61.6552066 49.83149323 62.52033997 50.6999054 C66.7669158 55.94178505 68.117958 61.04513565 68.125 67.8125 C68.14433594 69.04871094 68.16367187 70.28492188 68.18359375 71.55859375 C66.87499515 81.62552943 59.9706137 87.69996478 53.11328125 94.515625 C52.06387767 95.57027388 51.0149925 96.62543882 49.96659851 97.68109131 C47.77509135 99.88296209 45.57633336 102.07725734 43.37231445 104.26660156 C40.56408081 107.05765294 37.77670418 109.86853454 34.99470234 112.68570328 C32.83555902 114.86692251 30.66471467 117.03619886 28.49037743 119.20226288 C27.45844834 120.23337804 26.43029438 121.26828709 25.40621376 122.30719757 C18.79428991 129.0001222 12.83905039 134.34142548 3.31640625 135.94140625 C-5.20116271 135.93055584 -11.63432156 134.45849474 -18.15625 128.765625 C-23.10383399 123.47850093 -25.4006016 117.70211537 -25.75 110.5 C-24.99296764 97.12620746 -16.68354366 90.00079961 -7.5625 81.25 C-6.27856293 79.99620839 -4.99599746 78.74101058 -3.71484375 77.484375 C-0.59631957 74.43146117 2.5401935 71.39822143 5.6875 68.375 C2.18482726 64.18517146 -1.38147758 60.20979949 -5.3515625 56.44921875 C-6.26164062 55.56943359 -7.17171875 54.68964844 -8.109375 53.78320312 C-9.99302061 51.97110483 -11.8862854 50.1689521 -13.7890625 48.37695312 C-20.82224097 41.52859539 -25.15735242 35.3400312 -25.8125 25.375 C-25.39634704 17.32937611 -22.80724588 11.35244036 -16.875 5.875 C-11.45178812 1.27234365 -7.10107143 0.07253393 0 0 Z M-12.125 17.0625 C-13.96226895 20.64033954 -14.61099067 24.36484273 -14.3125 28.375 C-12.05985213 34.11888656 -8.35317256 37.64954986 -3.984375 41.8203125 C-2.53101001 43.24063989 -1.07789221 44.66122025 0.375 46.08203125 C2.66436414 48.30281315 4.95761945 50.51936094 7.25585938 52.73095703 C9.4781225 54.87507152 11.68499915 57.03410686 13.890625 59.1953125 C14.58633606 59.85580597 15.28204712 60.51629944 15.99884033 61.19680786 C16.62989685 61.81780365 17.26095337 62.43879944 17.91113281 63.07861328 C18.47278137 63.62011017 19.03442993 64.16160706 19.61309814 64.71951294 C20.6875 66.375 20.6875 66.375 20.54972839 68.37400818 C19.55805793 70.67539896 18.46340492 71.94240672 16.66821289 73.68725586 C16.03407974 74.31147934 15.39994659 74.93570282 14.74659729 75.57884216 C14.05807175 76.24247269 13.3695462 76.90610321 12.66015625 77.58984375 C11.95604111 78.28259903 11.25192596 78.97535431 10.526474 79.68910217 C7.51383444 82.65269027 4.48385349 85.59832212 1.45532227 88.5456543 C-0.753352 90.70006957 -2.9529879 92.86342312 -5.15234375 95.02734375 C-5.83884506 95.68895004 -6.52534637 96.35055634 -7.23265076 97.0322113 C-11.12385832 100.86291132 -14.07874949 103.92867832 -14.46484375 109.62109375 C-13.89369179 115.44684371 -12.57098972 118.31457957 -8.3125 122.375 C-5.46256957 124.08495826 -3.25374757 124.69182022 0.0625 124.75 C0.79210937 124.77835937 1.52171875 124.80671875 2.2734375 124.8359375 C9.88996535 123.38164901 15.63602759 115.71481672 20.828125 110.5 C21.80095766 109.52851657 22.77408687 108.55733003 23.74749756 107.58642578 C25.77796373 105.55889595 27.80479927 103.52782399 29.82910156 101.49414062 C32.42034952 98.89146849 35.0205152 96.29792012 37.62344742 93.7069397 C39.63108801 91.70653205 41.63393358 89.70137813 43.63536835 87.69476318 C45.05631824 86.27183709 46.48128533 84.85292628 47.90631104 83.43408203 C48.76770691 82.56638184 49.62910278 81.69868164 50.51660156 80.8046875 C51.27571838 80.04397949 52.03483521 79.28327148 52.81695557 78.49951172 C55.75769688 75.15950051 56.98459072 72.44082901 57.0625 68 C57.09085937 67.27039063 57.11921875 66.54078125 57.1484375 65.7890625 C55.69414901 58.17253465 48.02731672 52.42647241 42.8125 47.234375 C41.84101657 46.26154234 40.86983003 45.28841313 39.89892578 44.31500244 C37.87139595 42.28453627 35.84032399 40.25770073 33.80664062 38.23339844 C31.20396849 35.64215048 28.61042012 33.0419848 26.0194397 30.43905258 C24.01903205 28.43141199 22.01387813 26.42856642 20.00726318 24.42713165 C18.58433709 23.00618176 17.16542628 21.58121467 15.74658203 20.15618896 C14.87888184 19.29479309 14.01118164 18.43339722 13.1171875 17.54589844 C12.35647949 16.78678162 11.59577148 16.02766479 10.81201172 15.24554443 C6.66811366 11.5970141 3.33393817 10.93042741 -2.0625 11.0546875 C-6.39590319 11.67159559 -9.02995257 14.18090411 -12.125 17.0625 Z " fill="#0C5EC9" transform="translate(327.3125,236.625)"/>
<path d="M0 0 C6.07048364 3.75602909 10.92640605 9.53949937 13.0625 16.375 C14.7078715 24.36680441 13.65936016 31.47241805 9.5 38.5 C5.35468836 43.60505418 0.48704214 48.08024525 -4.25 52.625 C-5.53393707 53.87879161 -6.81650254 55.13398942 -8.09765625 56.390625 C-11.21618043 59.44353883 -14.3526935 62.47677857 -17.5 65.5 C-13.99732726 69.68982854 -10.43102242 73.66520051 -6.4609375 77.42578125 C-5.55085938 78.30556641 -4.64078125 79.18535156 -3.703125 80.09179688 C-1.81947939 81.90389517 0.0737854 83.7060479 1.9765625 85.49804688 C9.01031441 92.34696298 13.34373722 98.53468059 14 108.5 C13.62146079 116.03529607 11.27269816 122.2752586 5.6875 127.4375 C-1.03629056 132.65890512 -6.62922581 133.83987393 -15.0234375 133.99609375 C-25.37676275 132.51870914 -31.68023797 126.05087685 -38.73828125 118.890625 C-39.79120515 117.83853158 -40.84494683 116.78725602 -41.89945984 115.73675537 C-44.09672459 113.54233478 -46.28503377 111.33947251 -48.46704102 109.12988281 C-51.25018369 106.31263924 -54.05294703 103.51593284 -56.86251545 100.72507095 C-59.03798913 98.56021606 -61.2035334 96.38564132 -63.3662014 94.20800018 C-64.39555534 93.17350117 -65.42769286 92.14176352 -66.46276283 91.1129837 C-78.74440894 78.87803052 -78.74440894 78.87803052 -80.03125 69.71875 C-80.0209375 68.4915625 -80.010625 67.264375 -80 66 C-80.0103125 64.7728125 -80.020625 63.545625 -80.03125 62.28125 C-78.61787789 52.22136616 -71.77152427 46.17809121 -64.890625 39.359375 C-63.83875149 38.30480139 -62.78747189 37.24963508 -61.73675537 36.19390869 C-59.54089939 33.99218207 -57.33804157 31.79778406 -55.12988281 29.60839844 C-52.31437099 26.8156744 -49.51720414 24.00537137 -46.72507095 21.18929672 C-44.56003237 19.00973421 -42.38547007 16.839874 -40.20800018 14.67273712 C-39.17334997 13.640736 -38.14160932 12.60580856 -37.1129837 11.56780243 C-26.85935171 1.24123342 -15.1052842 -6.60856184 0 0 Z M-32.640625 23.375 C-33.61345766 24.34648343 -34.58658687 25.31766997 -35.55999756 26.28857422 C-37.59046373 28.31610405 -39.61729927 30.34717601 -41.64160156 32.38085938 C-44.23284952 34.98353151 -46.8330152 37.57707988 -49.43594742 40.1680603 C-51.44358801 42.16846795 -53.44643358 44.17362187 -55.44786835 46.18023682 C-56.86881824 47.60316291 -58.29378533 49.02207372 -59.71881104 50.44091797 C-60.58020691 51.30861816 -61.44160278 52.17631836 -62.32910156 53.0703125 C-63.08821838 53.83102051 -63.84733521 54.59172852 -64.62945557 55.37548828 C-67.57019688 58.71549949 -68.79709072 61.43417099 -68.875 65.875 C-68.90335938 66.60460937 -68.93171875 67.33421875 -68.9609375 68.0859375 C-67.50664901 75.70246535 -59.83981672 81.44852759 -54.625 86.640625 C-53.65351657 87.61345766 -52.68233003 88.58658687 -51.71142578 89.55999756 C-49.68389595 91.59046373 -47.65282399 93.61729927 -45.61914062 95.64160156 C-43.01646849 98.23284952 -40.42292012 100.8330152 -37.8319397 103.43594742 C-35.83153205 105.44358801 -33.82637813 107.44643358 -31.81976318 109.44786835 C-30.39683709 110.86881824 -28.97792628 112.29378533 -27.55908203 113.71881104 C-26.69138184 114.58020691 -25.82368164 115.44160278 -24.9296875 116.32910156 C-24.16897949 117.08821838 -23.40827148 117.84733521 -22.62451172 118.62945557 C-18.48061366 122.2779859 -15.14643817 122.94457259 -9.75 122.8203125 C-5.41659681 122.20340441 -2.78254743 119.69409589 0.3125 116.8125 C2.14976895 113.23466046 2.79849067 109.51015727 2.5 105.5 C0.24735213 99.75611344 -3.45932744 96.22545014 -7.828125 92.0546875 C-9.28148999 90.63436011 -10.73460779 89.21377975 -12.1875 87.79296875 C-14.47686414 85.57218685 -16.77011945 83.35563906 -19.06835938 81.14404297 C-21.2906225 78.99992848 -23.49749915 76.84089314 -25.703125 74.6796875 C-26.39883606 74.01919403 -27.09454712 73.35870056 -27.81134033 72.67819214 C-28.75792511 71.74669846 -28.75792511 71.74669846 -29.72363281 70.79638672 C-30.28528137 70.25488983 -30.84692993 69.71339294 -31.42559814 69.15548706 C-32.5 67.5 -32.5 67.5 -32.36222839 65.50099182 C-31.37055793 63.19960104 -30.27590492 61.93259328 -28.48071289 60.18774414 C-27.84657974 59.56352066 -27.21244659 58.93929718 -26.55909729 58.29615784 C-25.87057175 57.63252731 -25.1820462 56.96889679 -24.47265625 56.28515625 C-23.76854111 55.59240097 -23.06442596 54.89964569 -22.338974 54.18589783 C-19.32633444 51.22230973 -16.29635349 48.27667788 -13.26782227 45.3293457 C-11.059148 43.17493043 -8.8595121 41.01157688 -6.66015625 38.84765625 C-5.97365494 38.18604996 -5.28715363 37.52444366 -4.57984924 36.8427887 C-0.68864168 33.01208868 2.26624949 29.94632168 2.65234375 24.25390625 C2.08119179 18.42815629 0.75848972 15.56042043 -3.5 11.5 C-6.34993043 9.79004174 -8.55875243 9.18317978 -11.875 9.125 C-12.96941406 9.08246094 -12.96941406 9.08246094 -14.0859375 9.0390625 C-21.70246535 10.49335099 -27.44852759 18.16018328 -32.640625 23.375 Z " fill="#136DDA" transform="translate(196.5,238.5)"/>
<path d="M0 0 C1.5036622 -0.0087032 3.00731554 -0.01907249 4.51095581 -0.03097534 C8.58136427 -0.05768353 12.65140052 -0.05892084 16.72187948 -0.05384874 C20.12631228 -0.05170424 23.53067055 -0.06148905 26.93508732 -0.07105958 C34.97045384 -0.0932254 43.00563335 -0.09413883 51.04101562 -0.08203125 C59.31584643 -0.06995409 67.58999689 -0.09457205 75.86471164 -0.13717139 C82.98260055 -0.17246059 90.10027346 -0.18439715 97.21824658 -0.1778959 C101.46356602 -0.17427863 105.70840018 -0.17945661 109.95363998 -0.20732498 C113.94801324 -0.23256689 117.94133008 -0.22851657 121.93568802 -0.2025032 C123.39611933 -0.19779056 124.85662598 -0.20317356 126.31697083 -0.21974945 C135.21108637 -0.31337344 141.53940179 0.31431334 148.21142578 6.54931641 C152.79600077 11.91662371 152.93772943 17.14068081 152.72314453 24.09619141 C151.74214783 30.71604699 148.7095157 34.62300731 143.51095581 38.63168335 C137.67008534 41.87177785 130.91128588 41.12343641 124.42285156 41.09863281 C122.91918936 41.10733601 121.41553603 41.1177053 119.91189575 41.12960815 C115.84148729 41.15631634 111.77145105 41.15755366 107.70097208 41.15248156 C104.29653928 41.15033705 100.89218102 41.16012186 97.48776424 41.1696924 C89.45239772 41.19185821 81.41721821 41.19277165 73.38183594 41.18066406 C65.10700513 41.1685869 56.83285467 41.19320486 48.55813992 41.2358042 C41.44025101 41.27109341 34.3225781 41.28302997 27.20460498 41.27652872 C22.95928554 41.27291144 18.71445139 41.27808942 14.46921158 41.30595779 C10.47483832 41.33119971 6.48152149 41.32714939 2.48716354 41.30113602 C1.02673223 41.29642338 -0.43377442 41.30180637 -1.89411926 41.31838226 C-10.7882348 41.41200625 -17.11655022 40.78431948 -23.78857422 34.54931641 C-28.37314921 29.1820091 -28.51487787 23.957952 -28.30029297 17.00244141 C-27.31929627 10.38258582 -24.28666414 6.47562551 -19.08810425 2.46694946 C-13.24723378 -0.77314503 -6.48843432 -0.0248036 0 0 Z M-14.78857422 13.54931641 C-17.23978819 17.22613736 -17.61276183 20.27852603 -16.78857422 24.54931641 C-14.09578171 28.06490663 -12.1081836 29.79916803 -7.78857422 30.54931641 C-5.8740544 30.64394387 -3.9565674 30.68416609 -2.03971863 30.6897583 C-0.27967247 30.69832352 -0.27967247 30.69832352 1.51593018 30.70706177 C2.79965515 30.70817963 4.08338013 30.70929749 5.40600586 30.71044922 C6.7745324 30.71507966 8.14305766 30.72010462 9.51158142 30.72549438 C13.22657164 30.7385984 16.9415438 30.7450594 20.65655351 30.74950504 C22.97898681 30.75243892 25.30141522 30.75654431 27.62384605 30.76100922 C34.89445275 30.77467871 42.1650482 30.78434812 49.43566686 30.78821111 C57.82071286 30.79269105 66.20559578 30.81023821 74.59059221 30.8392117 C81.07735616 30.86084594 87.56407429 30.87091631 94.05087394 30.87225223 C97.92269553 30.87329898 101.79436371 30.87917916 105.66614723 30.89707184 C109.30972734 30.91358283 112.9530392 30.9156935 116.59664345 30.90693283 C118.56456074 30.90579866 120.53246925 30.9194925 122.50033569 30.9336853 C128.79027422 30.90404498 133.74642998 30.82747882 139.21142578 27.54931641 C141.66263975 23.87249545 142.0356134 20.82010678 141.21142578 16.54931641 C138.51863327 13.03372619 136.53103516 11.29946479 132.21142578 10.54931641 C130.29690596 10.45468894 128.37941897 10.41446672 126.46257019 10.40887451 C125.28920609 10.40316437 124.11584198 10.39745422 122.90692139 10.39157104 C121.62319641 10.39045319 120.33947144 10.38933533 119.0168457 10.38818359 C117.64831916 10.38355316 116.2797939 10.37852819 114.91127014 10.37313843 C111.19627993 10.36003441 107.48130777 10.35357341 103.76629806 10.34912777 C101.44386475 10.3461939 99.12143634 10.3420885 96.79900551 10.3376236 C89.52839881 10.3239541 82.25780336 10.31428469 74.9871847 10.31042171 C66.6021387 10.30594176 58.21725578 10.2883946 49.83225936 10.25942111 C43.3454954 10.23778687 36.85877727 10.2277165 30.37197763 10.22638059 C26.50015604 10.22533383 22.62848785 10.21945365 18.75670433 10.20156097 C15.11312423 10.18504998 11.46981236 10.18293931 7.82620811 10.19169998 C5.85829082 10.19283415 3.89038231 10.17914031 1.92251587 10.16494751 C-4.36742265 10.19458783 -9.32357842 10.271154 -14.78857422 13.54931641 Z " fill="#146FDC" transform="translate(276.78857421875,95.45068359375)"/>
<path d="M0 0 C0.94537628 -0.00857025 1.89075256 -0.0171405 2.86477661 -0.02597046 C4.85659597 -0.03741097 6.84849885 -0.03849157 8.84033203 -0.02978516 C11.86767987 -0.02346907 14.89110414 -0.07040816 17.91796875 -0.12109375 C19.86197428 -0.1256412 21.80599022 -0.12704604 23.75 -0.125 C24.64403534 -0.14341949 25.53807068 -0.16183899 26.459198 -0.18081665 C33.36104976 -0.0805643 37.77037579 2.14885972 43.0078125 6.6015625 C47.59238749 11.96886981 47.73411615 17.19292691 47.51953125 24.1484375 C46.7518017 29.32914681 44.82974168 33.02645067 41.0078125 36.6015625 C35.25565265 40.58767962 30.93203878 41.21716305 24.015625 41.203125 C23.07024872 41.21169525 22.12487244 41.2202655 21.15084839 41.22909546 C19.15902903 41.24053597 17.16712615 41.24161657 15.17529297 41.23291016 C12.14794513 41.22659407 9.12452086 41.27353316 6.09765625 41.32421875 C4.15365072 41.3287662 2.20963478 41.33017104 0.265625 41.328125 C-1.07542801 41.35575424 -1.07542801 41.35575424 -2.443573 41.38394165 C-9.34542476 41.2836893 -13.75475079 39.05426528 -18.9921875 34.6015625 C-23.57676249 29.23425519 -23.71849115 24.01019809 -23.50390625 17.0546875 C-22.7361767 11.87397819 -20.81411668 8.17667433 -16.9921875 4.6015625 C-11.24002765 0.61544538 -6.91641378 -0.01403805 0 0 Z M-9.9921875 13.6015625 C-12.44340147 17.27838345 -12.81637512 20.33077213 -11.9921875 24.6015625 C-9.29851519 28.11830135 -7.31454433 29.86340444 -2.9921875 30.6015625 C1.25121675 30.82234664 5.49366346 30.8297165 9.74243164 30.84179688 C11.80331092 30.8514826 13.86318337 30.88252328 15.92382812 30.9140625 C25.41924155 31.0720028 25.41924155 31.0720028 34.0078125 27.6015625 C36.45902647 23.92474155 36.83200012 20.87235287 36.0078125 16.6015625 C33.31414019 13.08482365 31.33016933 11.33972056 27.0078125 10.6015625 C22.76440825 10.38077836 18.52196154 10.3734085 14.27319336 10.36132812 C12.21231408 10.3516424 10.15244163 10.32060172 8.09179688 10.2890625 C-1.40361655 10.1311222 -1.40361655 10.1311222 -9.9921875 13.6015625 Z " fill="#1A7CE9" transform="translate(188.9921875,95.3984375)"/>
<path d="M0 0 C0.94537628 -0.00857025 1.89075256 -0.0171405 2.86477661 -0.02597046 C4.85659597 -0.03741097 6.84849885 -0.03849157 8.84033203 -0.02978516 C11.86767987 -0.02346907 14.89110414 -0.07040816 17.91796875 -0.12109375 C19.86197428 -0.1256412 21.80599022 -0.12704604 23.75 -0.125 C24.64403534 -0.14341949 25.53807068 -0.16183899 26.459198 -0.18081665 C33.36104976 -0.0805643 37.77037579 2.14885972 43.0078125 6.6015625 C47.59238749 11.96886981 47.73411615 17.19292691 47.51953125 24.1484375 C46.7518017 29.32914681 44.82974168 33.02645067 41.0078125 36.6015625 C35.25565265 40.58767962 30.93203878 41.21716305 24.015625 41.203125 C23.07024872 41.21169525 22.12487244 41.2202655 21.15084839 41.22909546 C19.15902903 41.24053597 17.16712615 41.24161657 15.17529297 41.23291016 C12.14794513 41.22659407 9.12452086 41.27353316 6.09765625 41.32421875 C4.15365072 41.3287662 2.20963478 41.33017104 0.265625 41.328125 C-1.07542801 41.35575424 -1.07542801 41.35575424 -2.443573 41.38394165 C-9.34542476 41.2836893 -13.75475079 39.05426528 -18.9921875 34.6015625 C-23.57676249 29.23425519 -23.71849115 24.01019809 -23.50390625 17.0546875 C-22.7361767 11.87397819 -20.81411668 8.17667433 -16.9921875 4.6015625 C-11.24002765 0.61544538 -6.91641378 -0.01403805 0 0 Z M-9.9921875 13.6015625 C-12.44340147 17.27838345 -12.81637512 20.33077213 -11.9921875 24.6015625 C-9.29851519 28.11830135 -7.31454433 29.86340444 -2.9921875 30.6015625 C1.25121675 30.82234664 5.49366346 30.8297165 9.74243164 30.84179688 C11.80331092 30.8514826 13.86318337 30.88252328 15.92382812 30.9140625 C25.41924155 31.0720028 25.41924155 31.0720028 34.0078125 27.6015625 C36.45902647 23.92474155 36.83200012 20.87235287 36.0078125 16.6015625 C33.31414019 13.08482365 31.33016933 11.33972056 27.0078125 10.6015625 C22.76440825 10.38077836 18.52196154 10.3734085 14.27319336 10.36132812 C12.21231408 10.3516424 10.15244163 10.32060172 8.09179688 10.2890625 C-1.40361655 10.1311222 -1.40361655 10.1311222 -9.9921875 13.6015625 Z " fill="#1D84F1" transform="translate(105.9921875,95.3984375)"/>
</svg>
