<svg width="512" height="512" viewBox="0 0 512 512" fill="none" xmlns="http://www.w3.org/2000/svg">
<g clip-path="url(#clip0_240_2)">
<rect width="512" height="512" fill="white"/>
<path d="M156.934 0.0988093C159.327 0.0944632 161.72 0.0892863 164.112 0.0833463C169.911 0.0714088 175.711 0.0688207 181.51 0.0711662C186.23 0.0729546 190.951 0.0711821 195.671 0.066948C196.346 0.0663537 197.021 0.0657601 197.716 0.0651479C199.087 0.0639379 200.459 0.0627258 201.83 0.0615114C214.66 0.0506782 227.49 0.0527991 240.32 0.0588994C252.02 0.0640552 263.719 0.0528325 275.418 0.0338416C287.471 0.0144292 299.523 0.00626192 311.576 0.0100021C318.327 0.0119017 325.249 0.0243169 332 0.0101076C338.354 -0.00252292 344.146 -0.00383517 350.5 0.00912124C352.819 0.0114673 315 0.00906478 358 0.00900927C401 0.00895376 427.983 0.00937374 467.5 0.00911841C506.516 0.00907829 509.999 0.00876888 512 0.00911841C512 1.78084 511.998 51.2919 511.998 51.2919C511.998 51.2919 511.903 96.7204 511.903 120.183C511.903 143.646 511.872 111.697 511.888 123.178C511.903 134.66 511.902 145.402 511.888 156.896C511.892 159.289 511.898 161.681 511.903 164.074C511.915 169.873 511.918 175.672 511.916 181.471C511.914 186.191 511.916 190.911 511.92 195.631C511.92 196.306 511.921 196.981 511.922 197.676C511.923 199.047 511.924 200.418 511.925 201.79C511.936 214.619 511.934 227.449 511.928 240.278C511.923 251.977 511.934 263.676 511.953 275.374C511.972 287.426 511.981 299.478 511.977 311.531C511.975 318.281 511.977 325.031 511.992 331.781C512.004 338.135 512.002 344.488 511.989 350.842C511.987 353.161 511.989 355.48 511.998 357.799C512.14 400.818 512 443 512 473.5C512 478 512 482 512 487.5C512 489 512 498 512 511.833C491.5 511.5 430.5 511.833 406 511.833C405.185 512.007 389.643 511.682 388.803 511.861C376.5 511.861 366.578 511.847 355.083 511.833C352.691 511.838 350.298 511.843 347.906 511.849C342.106 511.861 336.307 511.863 330.508 511.861C325.787 511.859 321.067 511.861 316.346 511.865C315.672 511.866 314.997 511.866 314.302 511.867C312.93 511.868 311.559 511.869 310.188 511.87C297.358 511.881 284.528 511.879 271.697 511.873C259.998 511.868 248.299 511.879 236.6 511.898C224.547 511.917 212.494 511.926 200.442 511.922C193.691 511.92 186.941 511.922 180.19 511.937C173.836 511.949 167.482 511.947 161.128 511.934C158.809 511.932 156.49 511.935 154.171 511.943C114.32 512.075 88.9994 511.943 52.9994 511.898C50.9993 511.898 7.62394 512.009 -7.03037e-05 512C-7.03037e-05 503.512 -7.03037e-05 474.499 -7.03037e-05 468C-0.000349253 466 -0.5 461.5 -0.5 459C-0.500051 453.501 -0.402114 417.707 0.000140071 392C0.0127695 391.173 0.000173233 390.5 -4.98295e-05 389.5C-0.000117421 378.001 0.10241 366.963 0.130062 355.036C0.134702 353.035 0.120539 350.251 0.114598 347.859C0.10266 342.06 0.100064 336.261 0.10241 330.462C0.104198 325.741 0.10244 321.021 0.0982053 316.301C0.0973139 315.289 0.0973017 315.289 0.0963923 314.256C0.0951823 312.885 0.0939809 311.514 0.0927665 310.143C0.0819327 297.313 0.0840452 284.483 0.0901458 271.654C0.0953019 259.955 0.0840755 248.256 0.0650837 236.558C0.0456704 224.506 0.0375154 212.454 0.0412557 200.402C0.0431554 193.651 0.0407638 186.901 0.0265539 180.151C0.0139227 173.797 0.0160039 167.444 0.0289609 161.09C0.0313071 158.771 0.0286524 156.452 0.0203531 154.133C-0.107106 115.721 0.403705 54.7872 0.403373 53.7887C0.403042 52.7903 0.02035 6.82993 0.0203345 0.0988093C9.78919 0.0988093 52.307 0.0986605 54.3078 0.0985983C56.3087 0.098536 65.8126 0.0989083 67.3133 0.0988832C84.3204 0.0985983 108.831 0.0651479 118.335 0.0651479C127.839 0.0651479 132.841 0.0651479 133.841 0.0651479C134.842 0.0651479 145.439 0.0849791 156.934 0.0988093ZM221 88.8571C214.214 95.962 199.097 112.766 199.097 123.177C204.369 124.935 209.989 124.858 215.509 125.237C216.709 125.327 217.909 125.418 219.146 125.512C229.844 126.257 240.211 126.173 251.016 126.173C251.016 108.381 251.016 90.5893 251.016 72.2585C239.729 72.2585 228.831 81.5295 221 88.8571ZM262 72.2585C262 90.0502 262 107.842 262 126.173C273.615 126.173 284.913 126.103 296.446 125.237C297.717 125.15 298.987 125.063 300.296 124.973C306.709 124.613 306.709 124.613 312.921 123.177C307.354 104.502 290.801 85.4408 273.981 76.2522C268.217 73.3831 268.217 73.3831 262 72.2585ZM293.95 75.2538C296.728 79.0079 299.517 82.7372 302.468 86.3572C311.479 97.4639 318.83 109.212 324.902 122.179C340.699 120.762 356.233 117.994 371.83 115.19C372.173 112.254 372.173 112.254 370.576 110.869C368.531 109.336 366.484 107.815 364.404 106.329C363.61 105.762 362.817 105.194 361.999 104.609C341.365 90.2894 318.383 80.6792 293.95 75.2538ZM205.587 78.1866C204.551 78.5053 203.516 78.824 202.449 79.1524C192.978 82.1491 184.043 85.8578 175.134 90.2299C174.432 90.5666 173.73 90.9033 173.007 91.2503C164.209 95.504 156.079 100.412 148.113 106.08C147.322 106.638 146.53 107.197 145.715 107.773C144.63 108.568 144.63 108.568 143.523 109.379C142.878 109.85 142.233 110.321 141.568 110.806C139.836 112.223 139.836 112.223 140.188 115.19C145.266 116.029 150.344 116.864 155.423 117.695C157.147 117.977 158.871 118.261 160.594 118.546C173.806 120.73 173.806 120.73 187.115 122.179C187.366 121.678 187.616 121.176 187.874 120.659C196.194 104.106 205.904 90.173 218.068 76.2522C214.245 74.3412 209.49 76.9832 205.587 78.1866ZM108.889 144.53C102.195 153.562 96.6324 163.039 91.3885 172.973C90.6925 174.291 90.6925 174.291 89.9824 175.635C89.5429 176.484 89.1034 177.333 88.6505 178.207C88.2633 178.955 87.876 179.702 87.477 180.473C85.8834 183.922 84.6102 187.512 83.276 191.069C110.624 191.069 137.971 191.069 166.148 191.069C168.454 181.185 170.761 171.301 173.137 161.117C174.699 155.954 176.245 150.943 178.067 145.891C178.848 143.661 179.627 141.431 180.403 139.199C180.735 138.271 181.067 137.342 181.409 136.386C182.225 134.233 182.225 134.233 182.123 132.163C180.996 131.992 179.869 131.821 178.707 131.645C174.483 131.004 170.259 130.359 166.035 129.714C164.214 129.436 162.394 129.159 160.573 128.883C143.46 126.287 143.46 126.287 137.31 124.979C123.35 122.128 116.589 134.362 108.889 144.53ZM371.334 125.416C370.625 125.544 369.915 125.673 369.184 125.805C366.924 126.214 364.665 126.629 362.407 127.046C351.594 129.034 340.809 130.821 329.895 132.163C331.39 137.2 332.906 142.227 334.501 147.233C339.085 161.818 342.405 176.058 345.87 191.069C373.218 191.069 400.565 191.069 428.742 191.069C418.59 167.867 407.672 148.959 390.8 130.166C390.324 129.605 389.847 129.044 389.356 128.466C388.861 127.917 388.366 127.367 387.856 126.801C387.416 126.298 386.976 125.796 386.523 125.278C382.201 122.498 376.058 124.547 371.334 125.416ZM193.106 134.16C189.233 144.082 185.691 154.022 182.872 164.3C182.639 165.138 182.406 165.977 182.166 166.841C180.02 174.882 178.678 182.818 177.131 191.069C201.513 191.069 225.895 191.069 251.016 191.069C251.016 173.278 251.016 155.486 251.016 137.155C242.944 136.661 234.872 136.167 226.554 135.658C222.754 135.423 222.754 135.423 218.877 135.184C216.849 135.061 214.822 134.938 212.794 134.815C211.239 134.718 211.239 134.718 209.652 134.619C204.124 134.287 198.644 134.091 193.106 134.16ZM299.442 134.815C298.011 134.904 298.011 134.904 296.552 134.994C293.022 135.212 289.492 135.435 285.963 135.658C278.055 136.152 270.147 136.646 262 137.155C262 154.947 262 172.739 262 191.069C286.052 191.069 310.105 191.069 334.887 191.069C331.457 173.838 331.457 173.838 326.899 156.999C326.405 155.331 326.405 155.331 325.901 153.629C323.9 146.988 321.616 140.547 318.912 134.16C312.394 134.079 305.945 134.401 299.442 134.815ZM62.3709 207.044C59.1399 211.743 59.1554 215.636 59.1364 221.146C59.1299 221.972 59.1233 222.799 59.1165 223.651C59.0968 226.388 59.0852 229.126 59.0752 231.864C59.0712 232.8 59.0671 233.735 59.0629 234.7C59.0421 239.654 59.0278 244.607 59.0184 249.561C59.0074 254.672 58.973 259.783 58.9334 264.893C58.9073 268.828 58.8989 272.763 58.8953 276.698C58.8905 278.582 58.8789 280.465 58.8604 282.349C58.836 284.989 58.837 287.629 58.8439 290.27C58.8311 291.043 58.8183 291.816 58.8051 292.612C58.8577 298.133 60.1523 301.335 63.3069 305.887C69.676 311.036 75.4465 311.026 83.2673 310.999C84.1726 311 85.078 311 86.0108 311.001C89.0447 311.003 92.0785 310.997 95.1124 310.992C97.2871 310.992 99.4618 310.992 101.637 310.992C107.542 310.993 113.448 310.987 119.354 310.98C125.525 310.974 131.696 310.973 137.867 310.972C149.554 310.969 161.24 310.961 172.927 310.951C186.232 310.939 199.536 310.934 212.841 310.929C240.21 310.918 267.579 310.901 294.949 310.879C294.788 309.452 294.788 309.452 294.625 307.996C294.505 306.744 294.386 305.492 294.262 304.202C294.071 302.343 294.071 302.343 293.876 300.446C293.958 296.542 294.557 294.943 296.946 291.909C300.702 289.404 303.582 289.326 307.929 289.912C311.221 290.917 314.294 292.298 317.418 293.738C318.299 294.13 319.179 294.522 320.087 294.925C322.884 296.173 325.672 297.441 328.459 298.71C330.335 299.552 332.212 300.393 334.089 301.232C338.24 303.089 342.385 304.959 346.524 306.841C347.297 307.185 348.069 307.529 348.865 307.883C350.479 308.674 350.479 308.674 352.126 309.481C356.214 311.014 359.722 311.302 364.021 311.266C364.806 311.271 365.591 311.277 366.4 311.282C368.977 311.295 371.554 311.287 374.131 311.276C375.935 311.278 377.739 311.281 379.543 311.285C383.318 311.29 387.093 311.283 390.868 311.269C395.688 311.252 400.507 311.262 405.327 311.28C409.051 311.291 412.776 311.287 416.5 311.279C418.276 311.277 420.053 311.28 421.829 311.287C435.925 311.966 435.925 311.966 448.307 306.469C452.716 301.498 452.856 297.099 452.866 290.771C452.87 289.942 452.875 289.114 452.881 288.261C452.895 285.518 452.902 282.776 452.907 280.033C452.913 278.127 452.919 276.22 452.925 274.314C452.935 270.315 452.941 266.315 452.944 262.316C452.95 257.196 452.974 252.077 453.002 246.957C453.021 243.018 453.026 239.079 453.028 235.139C453.031 233.252 453.039 231.365 453.052 229.478C453.069 226.835 453.067 224.192 453.061 221.549C453.07 220.772 453.079 219.996 453.088 219.195C453.052 214.392 452.248 211.125 449.709 207.044C444.6 202.073 439.297 200.805 432.304 200.799C431.024 200.794 429.744 200.788 428.426 200.782C427.013 200.785 425.599 200.789 424.186 200.793C422.679 200.79 421.173 200.786 419.666 200.782C415.528 200.771 411.391 200.774 407.253 200.778C402.79 200.78 398.326 200.771 393.862 200.764C385.119 200.751 376.376 200.749 367.632 200.752C360.526 200.753 353.419 200.752 346.313 200.747C345.302 200.747 344.291 200.746 343.249 200.746C341.195 200.744 339.141 200.743 337.087 200.742C317.82 200.731 298.554 200.733 279.287 200.739C261.66 200.745 244.033 200.733 226.406 200.714C208.309 200.695 190.211 200.687 172.113 200.69C161.952 200.692 151.791 200.69 141.63 200.676C132.979 200.664 124.329 200.662 115.679 200.675C111.265 200.68 106.852 200.682 102.439 200.67C98.3972 200.659 94.3559 200.662 90.3144 200.676C88.8537 200.679 87.393 200.676 85.9324 200.668C72.9169 200.335 72.917 200.335 62.3709 207.044ZM304.933 300.895C305.51 308.17 306.381 315.333 307.571 322.532C307.815 324.034 307.815 324.034 308.064 325.567C308.596 328.837 309.133 332.106 309.672 335.375C310.046 337.66 310.421 339.945 310.795 342.23C311.577 346.998 312.362 351.765 313.149 356.532C314.159 362.651 315.158 368.772 316.154 374.894C316.922 379.603 317.697 384.311 318.474 389.018C318.846 391.276 319.215 393.534 319.581 395.793C320.092 398.937 320.613 402.079 321.136 405.221C321.286 406.158 321.436 407.095 321.591 408.061C321.735 408.913 321.879 409.765 322.028 410.643C322.15 411.385 322.272 412.128 322.397 412.892C322.809 414.944 322.809 414.944 324.902 416.71C327.265 412.128 329.628 407.545 331.99 402.962C332.792 401.405 333.595 399.848 334.398 398.291C335.556 396.046 336.713 393.8 337.871 391.555C338.226 390.865 338.582 390.175 338.949 389.465C339.288 388.805 339.628 388.146 339.978 387.467C340.463 386.53 340.463 386.53 340.957 385.573C341.834 383.844 342.668 382.094 343.499 380.343C344.871 377.772 344.871 377.772 346.868 376.774C347.1 377.306 347.332 377.839 347.57 378.388C349.257 381.488 351.405 384.142 353.608 386.883C354.602 388.133 355.595 389.383 356.588 390.634C357.116 391.299 357.644 391.963 358.189 392.648C361.097 396.323 363.965 400.028 366.837 403.731C368.02 405.252 369.203 406.773 370.387 408.294C372.077 410.466 373.767 412.639 375.454 414.814C376.947 416.737 378.444 418.659 379.942 420.579C380.379 421.143 380.815 421.706 381.264 422.287C383.611 425.288 386.046 428.058 388.803 430.688C389.804 429.881 390.804 429.074 391.834 428.242C393.174 427.165 394.515 426.087 395.855 425.009C396.511 424.48 397.167 423.95 397.842 423.405C402.055 420.022 406.345 416.816 410.77 413.715C408.106 408.388 404.694 404.092 400.84 399.56C397.301 395.391 393.941 391.112 390.629 386.762C387.971 383.274 385.276 379.819 382.55 376.384C377.754 370.335 373.156 364.205 368.834 357.804C369.97 357.682 371.105 357.559 372.274 357.434C376.836 356.861 381.227 355.855 385.683 354.742C386.492 354.544 387.301 354.346 388.134 354.142C390.688 353.516 393.24 352.883 395.793 352.25C397.536 351.821 399.279 351.393 401.023 350.965C405.271 349.921 409.518 348.872 413.765 347.82C410.268 345.489 406.587 343.896 402.751 342.223C401.941 341.868 401.132 341.512 400.298 341.146C397.633 339.977 394.965 338.813 392.298 337.648C390.44 336.835 388.582 336.022 386.724 335.209C371.521 328.56 356.281 322.003 341.018 315.496C336.196 313.439 331.383 311.365 326.572 309.283C324.618 308.44 322.664 307.597 320.71 306.754C318.894 305.969 317.08 305.18 315.266 304.391C314.192 303.929 313.118 303.466 312.012 302.989C311.074 302.582 310.135 302.176 309.169 301.757C307.019 300.775 307.019 300.775 304.933 300.895ZM83.276 320.863C92.9503 342.974 103.364 362.513 119.82 380.214C121.217 381.766 121.217 381.766 122.518 383.528C124.583 386.093 126.037 387.619 129.391 388.012C132.377 387.785 135.244 387.3 138.191 386.758C139.565 386.537 140.94 386.32 142.315 386.106C147.001 385.367 151.676 384.567 156.35 383.763C158.758 383.351 161.166 382.94 163.574 382.532C165.06 382.279 166.546 382.025 168.032 381.768C172.717 380.969 177.403 380.33 182.123 379.769C180.519 374.403 178.901 369.041 177.263 363.685C176.595 361.475 175.927 359.265 175.259 357.055C174.933 355.998 174.607 354.942 174.272 353.853C170.984 342.915 168.702 332.1 166.148 320.863C138.8 320.863 111.452 320.863 83.276 320.863ZM177.131 320.863C180.327 337.232 180.327 337.232 184.557 353.249C184.854 354.251 185.152 355.252 185.458 356.285C187.662 363.594 190.125 370.739 193.106 377.772C212.412 376.829 231.714 375.796 251.016 374.777C251.016 356.985 251.016 339.194 251.016 320.863C226.634 320.863 202.252 320.863 177.131 320.863ZM262 320.863C262 338.654 262 356.446 262 374.777C267.951 375.106 273.902 375.436 280.034 375.775C281.899 375.879 283.764 375.984 285.686 376.091C287.183 376.173 288.681 376.255 290.179 376.337C291.322 376.402 291.322 376.401 292.488 376.467C296.977 376.71 301.436 376.815 305.932 376.774C303.452 358.044 300.18 339.476 296.946 320.863C285.413 320.863 273.881 320.863 262 320.863ZM381.814 320.863C385.536 323.654 389.072 325.447 393.3 327.243C394.378 327.706 394.378 327.706 395.478 328.178C396.991 328.825 398.506 329.469 400.022 330.111C402.345 331.096 404.661 332.098 406.977 333.101C408.45 333.729 409.923 334.355 411.397 334.981C412.09 335.282 412.783 335.584 413.497 335.894C417.523 337.659 417.523 337.659 421.753 336.837C425.212 328.93 425.212 328.93 428.742 320.863C413.256 320.863 397.77 320.863 381.814 320.863ZM395.605 362.796C394.483 363.082 394.483 363.082 393.337 363.373C391.493 363.843 389.649 364.318 387.805 364.793C390.057 368.189 392.309 371.546 394.794 374.777C398.617 373.262 400.519 370.989 403.031 367.788C403.737 366.902 404.442 366.017 405.169 365.105C406.966 362.992 406.966 362.992 406.776 360.799C402.878 360.799 399.352 361.827 395.605 362.796ZM215.509 386.695C214.243 386.782 212.977 386.869 211.673 386.959C205.285 387.321 205.285 387.321 199.097 388.755C204.666 407.438 221.218 426.479 238.037 435.68C244.279 438.683 244.279 438.683 251.016 439.673C251.016 421.882 251.016 404.09 251.016 385.759C239.039 385.759 227.397 385.797 215.509 386.695ZM261.001 385.759C261.001 403.551 261.001 421.343 261.001 439.673C278.627 435.757 290.606 425.25 300.939 410.72C301.697 409.677 302.456 408.635 303.237 407.561C303.993 406.453 304.746 405.343 305.495 404.23C306.176 403.231 306.857 402.233 307.558 401.204C309.424 396.482 308.781 392.674 307.929 387.756C303.853 387.41 299.775 387.083 295.698 386.758C294.579 386.663 293.461 386.567 292.308 386.469C281.777 385.645 271.676 385.759 261.001 385.759ZM175.52 390.993C174.674 391.121 173.828 391.25 172.957 391.382C171.166 391.654 169.376 391.928 167.586 392.203C164.859 392.62 162.131 393.03 159.402 393.439C157.661 393.705 155.919 393.971 154.178 394.238C153.367 394.359 152.555 394.479 151.719 394.604C147.362 395.282 143.344 396.196 139.19 397.74C158.814 418.261 190.794 431.031 218.068 436.678C215.289 432.924 212.501 429.195 209.549 425.575C200.539 414.468 193.188 402.721 187.115 389.753C183.186 389.753 179.395 390.402 175.52 390.993ZM346.868 396.742C345.055 400.339 343.247 403.938 341.439 407.537C340.924 408.56 340.408 409.582 339.877 410.636C339.385 411.617 338.893 412.598 338.385 413.61C337.93 414.514 337.476 415.419 337.007 416.351C335.797 418.769 335.797 418.769 334.887 421.702C340.14 420.194 344.544 417.805 349.24 415.088C349.975 414.668 350.709 414.249 351.467 413.816C353.265 412.789 355.059 411.755 356.853 410.72C356.028 406.798 354.41 404.598 351.861 401.484C351.14 400.594 350.419 399.703 349.676 398.785C348.781 397.774 348.781 397.774 347.867 396.742C347.537 396.742 347.208 396.742 346.868 396.742ZM310.924 414.713C302.323 425.608 302.323 425.608 293.95 436.678C302.383 434.64 310.731 432.611 318.912 429.689C318.294 429.051 317.676 428.413 317.039 427.755C314.646 424.306 314.074 421.676 313.412 417.599C313.169 416.665 313.169 416.665 312.921 415.712C312.262 415.382 311.603 415.053 310.924 414.713Z" fill="#116AD6"/>
<path d="M314 222C324.23 222 334.46 222 345 222C345 225.63 345 229.26 345 233C343.02 233.33 341.04 233.66 339 234C340.638 249.019 340.638 249.019 346 262C350.29 248.8 354.58 235.6 359 222C362.96 222 366.92 222 371 222C374.584 230.557 377.443 239.293 380.25 248.125C380.713 249.573 381.177 251.021 381.641 252.469C382.764 255.978 383.883 259.489 385 263C386.977 257.28 388.734 251.562 390.188 245.688C390.365 244.998 390.542 244.309 390.725 243.6C391.559 240.258 392 237.471 392 234C390.02 233.67 388.04 233.34 386 233C386 229.37 386 225.74 386 222C395.9 222 405.8 222 416 222C416 225.63 416 229.26 416 233C413.69 233 411.38 233 409 233C408.899 233.921 408.799 234.841 408.695 235.79C407.93 241.111 406.363 246.211 404.875 251.367C404.568 252.443 404.261 253.518 403.945 254.626C403.298 256.887 402.649 259.148 401.998 261.408C400.998 264.882 400.006 268.359 399.016 271.836C398.386 274.034 397.756 276.232 397.125 278.43C396.827 279.474 396.529 280.519 396.222 281.595C395.945 282.554 395.668 283.512 395.383 284.5C395.018 285.77 395.018 285.77 394.645 287.067C394 289 394 289 393 290C388.05 290 383.1 290 378 290C374.04 278.45 370.08 266.9 366 255C363.806 258.291 362.647 261.581 361.398 265.293C361.036 266.352 361.036 266.352 360.667 267.432C359.899 269.683 359.137 271.935 358.375 274.188C357.855 275.716 357.334 277.244 356.812 278.771C355.536 282.513 354.268 286.256 353 290C347.72 290 342.44 290 337 290C333.283 277.419 329.625 264.821 326.102 252.183C325.568 250.271 325.029 248.36 324.49 246.448C324.165 245.274 323.839 244.1 323.504 242.891C323.213 241.849 322.923 240.808 322.623 239.735C322 237 322 237 322 233C319.36 233 316.72 233 314 233C314 229.37 314 225.74 314 222Z" fill="#0D60CC"/>
<path d="M205 222C215.23 222 225.46 222 236 222C236 225.63 236 229.26 236 233C234.02 233.33 232.04 233.66 230 234C230.645 240.344 231.962 246.333 233.562 252.5C233.796 253.418 234.03 254.336 234.271 255.281C234.843 257.522 235.42 259.761 236 262C239.537 253.609 242.406 245.017 245.25 236.375C245.713 234.975 246.177 233.575 246.641 232.176C247.764 228.785 248.883 225.393 250 222C253.96 222 257.92 222 262 222C266.667 236 271.333 250 276 264C277.173 259.564 278.337 255.126 279.5 250.688C279.834 249.425 280.168 248.162 280.512 246.861C280.828 245.653 281.143 244.444 281.469 243.199C281.909 241.526 281.909 241.526 282.357 239.819C283.111 236.994 283.111 236.994 283 234C281.02 233.67 279.04 233.34 277 233C277 229.37 277 225.74 277 222C286.9 222 296.8 222 307 222C307 225.63 307 229.26 307 233C304.69 233 302.38 233 300 233C299.836 233.896 299.836 233.896 299.668 234.81C298.442 241.236 296.831 247.473 294.996 253.75C294.713 254.73 294.429 255.71 294.137 256.719C293.544 258.77 292.948 260.821 292.35 262.871C291.432 266.018 290.521 269.167 289.611 272.316C289.032 274.315 288.452 276.314 287.871 278.312C287.462 279.726 287.462 279.726 287.044 281.169C286.79 282.037 286.537 282.906 286.275 283.801C286.052 284.566 285.83 285.33 285.6 286.118C285 288 285 288 284 290C279.05 290 274.1 290 269 290C268.642 288.945 268.283 287.89 267.914 286.803C266.588 282.901 265.259 279.001 263.928 275.101C263.352 273.411 262.777 271.72 262.202 270.029C261.379 267.603 260.551 265.178 259.723 262.754C259.465 261.993 259.208 261.233 258.943 260.45C257.953 256.953 257.953 256.953 256 254C255.642 255.055 255.283 256.11 254.914 257.197C253.588 261.099 252.259 264.999 250.928 268.899C250.352 270.589 249.777 272.28 249.202 273.971C248.379 276.397 247.551 278.822 246.723 281.246C246.465 282.007 246.208 282.767 245.943 283.55C244.114 288.886 244.114 288.886 243 290C240.47 290.073 237.967 290.092 235.438 290.062C234.727 290.058 234.016 290.053 233.283 290.049C231.522 290.037 229.761 290.019 228 290C225.495 283.671 223.615 277.292 221.863 270.719C221.579 269.665 221.295 268.611 221.002 267.525C220.102 264.184 219.207 260.842 218.312 257.5C217.7 255.224 217.088 252.948 216.475 250.672C214.979 245.116 213.488 239.558 212 234C209.69 233.67 207.38 233.34 205 233C205 229.37 205 225.74 205 222Z" fill="#126AD6"/>
<path d="M96 222C105.9 222 115.8 222 126 222C126 225.63 126 229.26 126 233C124.35 233.33 122.7 233.66 121 234C121.596 240.735 122.851 247.028 124.562 253.562C124.796 254.476 125.03 255.389 125.271 256.33C125.842 258.555 126.418 260.778 127 263C127.389 261.793 127.777 260.587 128.177 259.344C129.615 254.883 131.057 250.424 132.499 245.965C133.124 244.032 133.748 242.099 134.37 240.165C135.264 237.392 136.161 234.619 137.059 231.847C137.338 230.978 137.617 230.108 137.905 229.212C138.165 228.411 138.425 227.61 138.693 226.785C138.922 226.077 139.151 225.368 139.386 224.639C140 223 140 223 141 222C143.02 221.927 145.042 221.916 147.062 221.937C148.72 221.951 148.72 221.951 150.41 221.965C151.265 221.976 152.119 221.988 153 222C154.857 227.497 156.708 232.996 158.554 238.498C159.183 240.369 159.814 242.24 160.446 244.111C161.354 246.798 162.255 249.486 163.156 252.176C163.583 253.432 163.583 253.432 164.018 254.714C164.278 255.494 164.538 256.275 164.807 257.079C165.038 257.765 165.269 258.452 165.506 259.158C166 261 166 261 166 264C166.66 264 167.32 264 168 264C168.112 262.894 168.224 261.788 168.34 260.648C168.98 255.526 170.255 250.612 171.562 245.625C172.024 243.847 172.484 242.068 172.941 240.289C173.246 239.124 173.246 239.124 173.557 237.936C174.074 236.006 174.074 236.006 174 234C172.02 233.67 170.04 233.34 168 233C168 229.37 168 225.74 168 222C177.9 222 187.8 222 198 222C198 225.63 198 229.26 198 233C195.69 233 193.38 233 191 233C190.666 234.378 190.666 234.378 190.325 235.784C187.781 246.171 184.97 256.471 182.053 266.76C181.3 269.419 180.551 272.081 179.803 274.742C179.323 276.44 178.843 278.138 178.363 279.836C178.14 280.628 177.917 281.421 177.688 282.237C176.115 287.769 176.115 287.769 175 290C170.05 290 165.1 290 160 290C156.962 282.604 154.271 275.149 151.75 267.562C151.386 266.488 151.023 265.413 150.648 264.306C150.306 263.278 149.963 262.25 149.609 261.191C149.3 260.265 148.99 259.339 148.671 258.385C148 256 148 256 148 253C147.34 253 146.68 253 146 253C145.764 254.208 145.528 255.416 145.285 256.66C143.855 263.091 141.628 269.233 139.438 275.437C139.026 276.62 138.614 277.803 138.189 279.021C135.164 287.672 135.164 287.672 134 290C128.72 290 123.44 290 118 290C116.042 282.864 114.085 275.728 112.133 268.59C111.226 265.276 110.318 261.962 109.409 258.649C108.363 254.842 107.322 251.034 106.281 247.226C105.953 246.034 105.625 244.841 105.287 243.612C104.987 242.511 104.686 241.41 104.377 240.276C104.11 239.303 103.844 238.33 103.569 237.328C103 235 103 235 103 233C100.69 233 98.38 233 96 233C96 229.37 96 225.74 96 222Z" fill="#1674E1"/>
</g>
<defs>
<clipPath id="clip0_240_2">
<rect width="512" height="512" fill="white"/>
</clipPath>
</defs>
</svg>
