<?xml version="1.0" ?>
<!-- Uploaded to: SVG Repo, www.svgrepo.com, Generator: SVG Repo Mixer Tools -->
<svg fill="#000000" width="800px" height="800px" viewBox="0 0 32 32" xmlns="http://www.w3.org/2000/svg">
<title/>
<g id="Android">
<path d="M26.49,30H5.5A3.35,3.35,0,0,1,3,29a3.35,3.35,0,0,1-1-2.48V5.5A3.35,3.35,0,0,1,3,3,3.35,3.35,0,0,1,5.5,2h21A3.35,3.35,0,0,1,29,3,3.35,3.35,0,0,1,30,5.5v21A3.52,3.52,0,0,1,26.49,30ZM9.26,19.57a1.09,1.09,0,0,0,.79-.32,1.14,1.14,0,0,0,.32-.84v-4.8a1.17,1.17,0,0,0-.32-.82,1.06,1.06,0,0,0-.79-.33,1.15,1.15,0,0,0-.83.33,1.11,1.11,0,0,0-.34.82v4.8a1.08,1.08,0,0,0,.34.84A1.18,1.18,0,0,0,9.26,19.57Zm11.88-7.28a4.39,4.39,0,0,0-.72-2.45,4.71,4.71,0,0,0-1.91-1.68l.75-1.36,0-.07c0-.11-.06-.16-.18-.16A8.45,8.45,0,0,0,18.2,8,5.77,5.77,0,0,0,16,7.53a5.27,5.27,0,0,0-2.2.47,9.18,9.18,0,0,0-.93-1.43c-.13,0-.19,0-.19.14s.28.49.83,1.4a5,5,0,0,0-2,1.71,4.32,4.32,0,0,0-.73,2.47ZM17.91,25.07a1.11,1.11,0,0,0,.82-.34,1.17,1.17,0,0,0,.34-.86v-2.5h.8a1.18,1.18,0,0,0,.88-.36,1.22,1.22,0,0,0,.35-.85V12.7H10.84v7.46a1.19,1.19,0,0,0,.36.85,1.16,1.16,0,0,0,.86.36h.84v2.5a1.17,1.17,0,0,0,.34.86,1.07,1.07,0,0,0,.8.34,1.08,1.08,0,0,0,.8-.34,1.18,1.18,0,0,0,.35-.86v-2.5h1.55v2.5a1.2,1.2,0,0,0,.33.86A1.11,1.11,0,0,0,17.91,25.07ZM13.6,10.41a.43.43,0,0,1-.43-.45.39.39,0,0,1,.13-.29.45.45,0,0,1,.3-.13.44.44,0,0,1,.31.13A.39.39,0,0,1,14,10a.44.44,0,0,1-.13.33A.43.43,0,0,1,13.6,10.41Zm4.7,0q-.39,0-.39-.45A.42.42,0,0,1,18,9.67a.37.37,0,0,1,.27-.13.51.51,0,0,1,.34.13.39.39,0,0,1,.13.29C18.77,10.26,18.61,10.41,18.3,10.41Zm4.41,9.16a1.11,1.11,0,0,0,.8-.32,1.14,1.14,0,0,0,.32-.84v-4.8a1.17,1.17,0,0,0-.32-.82,1.08,1.08,0,0,0-.8-.33,1.09,1.09,0,0,0-.82.33,1.14,1.14,0,0,0-.33.82v4.8a1.11,1.11,0,0,0,.33.84A1.12,1.12,0,0,0,22.71,19.57Z"/>
</g>
</svg>