<?xml version="1.0" encoding="UTF-8"?>
<svg version="1.1" xmlns="http://www.w3.org/2000/svg" width="1024" height="1024">
<path d="M0 0 C2.68882463 -0.00417998 5.37762389 -0.00954067 8.06644088 -0.01631981 C13.88002408 -0.02860697 19.69352648 -0.0299339 25.50711823 -0.02376938 C34.1528236 -0.0146266 42.79845509 -0.0227516 51.44415484 -0.03406062 C66.89254982 -0.05367142 82.34091115 -0.05608564 97.78931561 -0.05086542 C111.31203053 -0.0462985 124.83473217 -0.04691954 138.35744667 -0.05270576 C140.17523218 -0.05346265 141.9930177 -0.05421863 143.81080321 -0.05497371 C146.55045499 -0.05611897 149.29010676 -0.05726886 152.02975853 -0.05843295 C177.48275705 -0.06912956 202.93575116 -0.07387191 228.38875103 -0.06596279 C229.34712514 -0.06566562 230.30549925 -0.06536844 231.292915 -0.06506227 C239.07429128 -0.06261363 246.85566752 -0.06000189 254.63704375 -0.05737813 C284.97768012 -0.04727905 315.31826112 -0.0556281 345.65888977 -0.07887268 C379.79340216 -0.10498188 413.92788123 -0.11778336 448.06240398 -0.11068493 C451.70655842 -0.10996894 455.35071287 -0.10929454 458.99486732 -0.10864449 C459.89206586 -0.10847468 460.78926439 -0.10830487 461.71365075 -0.10812991 C475.21944936 -0.10583308 488.72521689 -0.11377445 502.23100853 -0.12693596 C517.60274029 -0.14188968 532.97439953 -0.14263379 548.3461298 -0.12486505 C556.93267826 -0.1153464 565.51905729 -0.11664538 574.10559422 -0.13409974 C579.86035324 -0.14467087 585.61498461 -0.14037565 591.36973127 -0.1246197 C594.63583495 -0.11607497 597.90154952 -0.11561824 601.16764661 -0.12888902 C645.09421154 -0.29452966 688.18176765 11.33306282 724.01069641 37.38768005 C724.57337219 37.79486267 725.13604797 38.20204529 725.71577454 38.62156677 C733.99379365 44.66701468 741.61231293 51.30241713 749.01069641 58.38768005 C749.5095636 58.8593158 750.00843079 59.33095154 750.52241516 59.81687927 C784.26209872 91.83271653 809.32583701 140.90431516 811.1050267 187.87817192 C811.14223126 190.75877787 811.14910217 193.63793702 811.14491749 196.51878357 C811.14726972 197.6250204 811.14962195 198.73125723 811.15204546 199.87101638 C811.15871431 203.58621625 811.15827787 207.30138097 811.15786743 211.0165863 C811.16116739 213.70400705 811.16485568 216.39142476 811.16900891 219.07884407 C811.17831866 225.69577464 811.18225422 232.31269853 811.18452788 238.92963483 C811.18749428 246.85691166 811.19619438 254.78417966 811.20494216 262.71145184 C811.22577199 281.87362936 811.23625492 301.03580841 811.24507176 320.19799461 C811.24928124 329.26877756 811.25450289 338.33955984 811.25975629 347.41034223 C811.27764717 378.47831765 811.29264097 409.54629327 811.30007648 440.61427307 C811.30055124 442.56427236 811.30102713 444.51427166 811.30150415 446.46427095 C811.30185871 447.91476989 811.30185871 447.91476989 811.30222044 449.39457185 C811.3034216 454.29364177 811.30463706 459.1927117 811.30586243 464.09178162 C811.30610258 465.06400743 811.30634273 466.03623324 811.30659015 467.03792045 C811.3144774 498.53690277 811.33789702 530.03584737 811.37041837 561.53481323 C811.40476116 594.8589989 811.42443184 628.18316252 811.42772073 661.50736618 C811.42813824 665.16994477 811.4286178 668.83252335 811.42914391 672.49510193 C811.4292671 673.39689219 811.42939029 674.29868245 811.42951721 675.22779968 C811.43184393 689.70572089 811.4474745 704.1835981 811.46798575 718.66150366 C811.48830046 733.23261477 811.4936945 747.80367338 811.48421512 762.37479603 C811.47902172 771.01704462 811.48477458 779.65911766 811.50674979 788.30134077 C811.5203541 794.09236515 811.51909691 799.88326999 811.50634783 805.67429583 C811.49951433 808.96215436 811.50083876 812.24961808 811.51590792 815.53745842 C811.66933183 851.25200119 803.86585462 884.86467424 787.01069641 916.38768005 C786.68843079 916.99353943 786.36616516 917.5993988 786.03413391 918.22361755 C760.76983527 965.26040121 716.25267104 1000.36885752 665.58247375 1016.29930115 C648.84282961 1021.26110336 631.39883984 1024.54740769 613.93203163 1024.52190113 C612.83145912 1024.52425336 611.7308866 1024.52660559 610.59696341 1024.5290291 C606.90101233 1024.53569762 603.20509659 1024.53526152 599.50914001 1024.53485107 C596.83551905 1024.53815106 594.16190113 1024.54183936 591.48828161 1024.54599255 C584.90541843 1024.55530213 578.32256197 1024.55923784 571.73969302 1024.56151152 C563.8530946 1024.564478 555.96650505 1024.57317819 548.07991129 1024.5819258 C529.01520916 1024.60275612 509.95050548 1024.61323893 490.88579462 1024.62205541 C481.86019445 1024.62626511 472.83459494 1024.63148676 463.80899532 1024.63673994 C432.89305909 1024.65463152 401.97712266 1024.6696248 371.06118202 1024.67706013 C369.1206837 1024.67753488 367.18018537 1024.67801077 365.23968705 1024.67848779 C363.79625944 1024.67884235 363.79625944 1024.67884235 362.32367169 1024.67920408 C357.44851326 1024.68040524 352.57335483 1024.6816207 347.69819641 1024.68284607 C346.73071664 1024.68308622 345.76323688 1024.68332637 344.76643954 1024.6835738 C313.42694211 1024.69145962 282.08748261 1024.71487591 250.74800173 1024.74740201 C217.58936259 1024.78175307 184.43074563 1024.80141628 151.27208841 1024.80470437 C147.6268866 1024.80512188 143.9816848 1024.80560144 140.336483 1024.80612755 C139.43897704 1024.80625074 138.54147108 1024.80637393 137.61676797 1024.80650086 C123.21362828 1024.80882663 108.81053285 1024.82445204 94.40740891 1024.84496939 C79.9079564 1024.86529498 65.40855667 1024.87067306 50.90909256 1024.86119876 C42.31169981 1024.85600943 33.71448363 1024.86173863 25.11711654 1024.88373343 C19.35343917 1024.89735488 13.58988179 1024.89606584 7.82620292 1024.88333147 C4.55560381 1024.87650902 1.28540052 1024.8777934 -1.98518007 1024.89289156 C-60.84261811 1025.14751842 -113.32184083 1003.7766797 -155.17680359 962.51268005 C-162.07941601 955.57717848 -168.27378207 948.32428244 -173.98930359 940.38768005 C-174.39809753 939.82854919 -174.80689148 939.26941833 -175.22807312 938.69334412 C-202.61754355 900.8661768 -213.67214436 856.93829942 -213.49723816 810.79710388 C-213.50185865 808.10395605 -213.50805762 805.41085268 -213.51614714 802.71771717 C-213.53045167 796.91017413 -213.53024468 791.10278037 -213.5199585 785.29523087 C-213.50470379 776.65860721 -213.51262752 768.02210737 -213.52479172 759.38548431 C-213.54576252 743.95227801 -213.54406609 728.51913829 -213.53247607 713.08592579 C-213.52238374 699.57945795 -213.51980102 686.07301442 -213.52456665 672.56654358 C-213.52502496 671.21871634 -213.52502496 671.21871634 -213.52549253 669.84366027 C-213.52673804 666.1954545 -213.52801166 662.54724873 -213.52933159 658.89904298 C-213.54154683 624.72881961 -213.53050675 590.55863846 -213.508944 556.38842161 C-213.48996389 526.08053463 -213.49166249 495.77271489 -213.51078796 465.46482849 C-213.53224163 431.35408212 -213.54068027 397.24337299 -213.52833891 363.13262081 C-213.52705619 359.49135273 -213.52580481 355.85008463 -213.52456665 352.20881653 C-213.52425034 351.3123505 -213.52393403 350.41588447 -213.52360814 349.4922528 C-213.51907273 335.99967214 -213.52435222 322.50711854 -213.53448486 309.01454163 C-213.54595793 293.66122598 -213.54298617 278.30798687 -213.52136189 262.95468068 C-213.50967976 254.37921899 -213.50875795 245.80392334 -213.52394659 237.22846622 C-213.53299673 231.48126865 -213.52719061 225.73420262 -213.50992751 219.98702436 C-213.5005244 216.72533273 -213.49918743 213.46402688 -213.51155144 210.20233595 C-213.71538973 151.90884041 -191.98446214 99.65566132 -151.11430359 58.20018005 C-144.17764883 51.29641992 -136.92247116 45.10966895 -128.98930359 39.38768005 C-128.4408075 38.98420349 -127.8923114 38.58072693 -127.32719421 38.1650238 C-106.2641203 22.80601797 -82.02465625 12.09721561 -56.86430359 5.57518005 C-55.81182434 5.30060974 -55.81182434 5.30060974 -54.73808289 5.02049255 C-36.56525537 0.65270492 -18.61704173 -0.04745877 0 0 Z " fill="#1C99F7" transform="translate(212.9893035888672,-0.3876800537109375)"/>
<path d="M0 0 C9.13487156 7.19778942 14.31162579 18.3504074 19.75 28.37890625 C21.04203173 30.75066852 22.33867923 33.11978915 23.63671875 35.48828125 C24.48109497 37.04240723 24.48109497 37.04240723 25.3425293 38.62792969 C27.12462109 41.73729411 29.04284041 44.67023609 31.0625 47.62890625 C31.42899658 46.96060791 31.79549316 46.29230957 32.1730957 45.60375977 C58.65974154 -2.55640722 58.65974154 -2.55640722 80.9921875 -10.015625 C89.13666865 -11.41401705 98.25061311 -11.019191 106.0625 -8.37109375 C106.83722656 -8.12617188 107.61195313 -7.88125 108.41015625 -7.62890625 C119.47539851 -3.76376753 127.25485512 3.57607932 133.0625 13.62890625 C133.57039063 14.48742187 134.07828125 15.3459375 134.6015625 16.23046875 C137.87148326 22.71550713 138.51579739 28.67156474 138.5625 35.81640625 C138.56886475 36.64769043 138.57522949 37.47897461 138.58178711 38.33544922 C138.27425279 53.31400461 129.44995748 66.14775527 122.015625 78.640625 C118.58211392 84.4184847 115.22897523 90.24212753 111.875 96.06640625 C111.23836426 97.17113281 110.60172852 98.27585937 109.94580078 99.4140625 C107.98412553 102.81867958 106.02323749 106.22374904 104.0625 109.62890625 C101.54254706 114.00441413 99.02180859 118.37946759 96.5 122.75390625 C95.87834961 123.8322876 95.25669922 124.91066895 94.61621094 126.02172852 C90.47627995 133.19649427 86.3075821 140.35393968 82.125 147.50390625 C77.04974877 156.18152866 72.03991233 164.89496193 67.0625 173.62890625 C61.5224827 183.35006242 55.92875191 193.03785283 50.27905273 202.69580078 C44.12483258 213.2197525 38.03880004 223.78270762 31.95361328 234.34667969 C28.82569852 239.77550567 25.69391552 245.20209906 22.5625 250.62890625 C21.31248121 252.79556208 20.06248122 254.96222875 18.8125 257.12890625 C16.3125 261.46223958 13.8125 265.79557292 11.3125 270.12890625 C10.69366943 271.20156738 10.07483887 272.27422852 9.43725586 273.37939453 C8.18814482 275.54447696 6.93895871 277.70951607 5.68969727 279.87451172 C2.55047691 285.31506331 -0.58740563 290.75637841 -3.72265625 296.19921875 C-9.74497329 306.65096824 -15.78419337 317.09190173 -21.875 327.50390625 C-27.29435334 336.76987159 -32.63545389 346.07882634 -37.94967651 355.40527344 C-43.26607839 364.73345645 -48.64011657 374.02655126 -54.0703125 383.2890625 C-57.12476214 388.50269206 -60.1480387 393.73276223 -63.14257812 398.98095703 C-63.50933655 399.62327774 -63.87609497 400.26559845 -64.25396729 400.92738342 C-65.14869561 402.49443358 -66.04312856 404.06165238 -66.9375 405.62890625 C-65.7881546 405.62475818 -65.7881546 405.62475818 -64.6155901 405.62052631 C-45.92614736 405.5541212 -27.23672833 405.5045552 -8.54719257 405.47346973 C0.49112385 405.45803545 9.52936126 405.43701208 18.56762695 405.40258789 C26.45020965 405.37257982 34.3327351 405.35330629 42.21537334 405.34664077 C46.38479601 405.34274773 50.55405498 405.33367122 54.72342491 405.31171608 C58.65750424 405.29117015 62.59135429 405.28510852 66.52548218 405.28958321 C67.96004805 405.28876602 69.39462257 405.28290907 70.82914162 405.27128983 C89.5784521 405.12702959 104.42605753 409.56655772 118.12109375 422.5859375 C131.24064534 436.37041763 137.48276622 454.04807031 137.3515625 472.94140625 C136.64425394 481.96436948 134.19767528 490.59272901 130.0625 498.62890625 C75.37694821 498.72047913 20.69140418 498.79095381 -33.99420921 498.83316757 C-40.45162463 498.83817034 -46.90903989 498.84334764 -53.36645508 498.84863281 C-55.29477247 498.85020668 -55.29477247 498.85020668 -57.26204578 498.85181233 C-78.07226884 498.86921341 -98.88244767 498.9007495 -119.6926445 498.93751743 C-141.04880887 498.97493506 -162.40495008 498.99714385 -183.76114589 499.00526023 C-196.93705876 499.01074627 -210.11284657 499.02806818 -223.28872094 499.06057212 C-232.3262152 499.0817301 -241.36364489 499.08810336 -250.40116211 499.08291176 C-255.61386926 499.08035201 -260.82635802 499.084252 -266.03902626 499.10572815 C-270.81699736 499.12526908 -275.59460428 499.12612745 -280.37259255 499.11250183 C-282.09556543 499.11081911 -283.81856153 499.11582914 -285.54148909 499.12843898 C-301.37284926 499.23751201 -315.01660962 496.58526562 -327.1875 485.59765625 C-338.15665538 474.1299029 -340.53215408 461.95550434 -340.27734375 446.734375 C-339.80153285 436.03159133 -335.16886951 427.34539909 -327.9375 419.62890625 C-327.35355469 419.00371094 -326.76960937 418.37851562 -326.16796875 417.734375 C-318.61729664 410.43804132 -308.13335295 405.54299544 -297.59710693 405.47068787 C-295.97334137 405.45600464 -295.97334137 405.45600464 -294.31677246 405.44102478 C-293.13425903 405.43526932 -291.95174561 405.42951385 -290.73339844 405.42358398 C-289.4843573 405.41368439 -288.23531616 405.40378479 -286.94842529 405.39358521 C-283.52728879 405.36741669 -280.10617537 405.34554672 -276.68500042 405.32558322 C-273.10819186 405.30369668 -269.53142543 405.27632105 -265.95465088 405.24952698 C-259.1832742 405.19963615 -252.4118741 405.15468395 -245.64045167 405.11150461 C-237.93068339 405.06210137 -230.22095737 405.0071947 -222.51122999 404.95182502 C-206.65335907 404.8380604 -190.79544925 404.73120937 -174.9375 404.62890625 C-174.54972885 403.93409653 -174.1619577 403.2392868 -173.76243591 402.52342224 C-171.96638565 399.30668624 -170.16874671 396.0908406 -168.37109375 392.875 C-167.45668518 391.23646057 -167.45668518 391.23646057 -166.52380371 389.56481934 C-162.42196435 382.23032376 -158.24560779 374.94358589 -154 367.69140625 C-153.02933594 366.03226196 -153.02933594 366.03226196 -152.0390625 364.33959961 C-151.53117188 363.47471924 -151.02328125 362.60983887 -150.5 361.71875 C-146.8053669 355.41320206 -143.14897319 349.08596189 -139.5 342.75390625 C-138.56619507 341.13367554 -138.56619507 341.13367554 -137.61352539 339.48071289 C-136.35173174 337.29094291 -135.09009466 335.1010827 -133.82861328 332.91113281 C-130.70069852 327.48230683 -127.56891552 322.05571344 -124.4375 316.62890625 C-123.18748121 314.46225042 -121.93748122 312.29558375 -120.6875 310.12890625 C-98.1875 271.12890625 -75.6875 232.12890625 -53.1875 193.12890625 C-52.5677832 192.05471436 -51.94806641 190.98052246 -51.30957031 189.8737793 C-50.06939239 187.72416991 -48.82915873 185.57459267 -47.58886719 183.42504883 C-44.6639977 178.35581413 -41.73969167 173.28625689 -38.81738281 168.21554565 C-37.43943062 165.82464028 -36.06115828 163.43391953 -34.68286133 161.04321289 C-33.71209018 159.35906662 -32.74178126 157.67465394 -31.77148438 155.99023438 C-31.18173828 154.96736328 -30.59199219 153.94449219 -29.984375 152.890625 C-29.46713867 151.99303467 -28.94990234 151.09544434 -28.41699219 150.1706543 C-26.9375 147.62890625 -26.9375 147.62890625 -25.12207031 145.11254883 C-23.64123784 142.68813171 -23.64123784 142.68813171 -24.56567383 140.14526367 C-25.01837646 139.31486572 -25.4710791 138.48446777 -25.9375 137.62890625 C-26.38826904 136.79012939 -26.83903809 135.95135254 -27.3034668 135.0871582 C-27.82593994 134.18956787 -28.34841309 133.29197754 -28.88671875 132.3671875 C-29.77617188 130.83288086 -29.77617188 130.83288086 -30.68359375 129.26757812 C-31.32425781 128.16994141 -31.96492188 127.07230469 -32.625 125.94140625 C-33.2998338 124.77950277 -33.97430656 123.61738954 -34.6484375 122.45507812 C-36.04857089 120.04166585 -37.45025019 117.62916165 -38.85302734 115.21728516 C-42.0624122 109.69623637 -45.24894948 104.16200404 -48.4375 98.62890625 C-51.96274126 92.51330206 -55.48916878 86.39843978 -59.03182983 80.29290771 C-60.0649294 78.51210624 -61.09706171 76.73074767 -62.12890625 74.94921875 C-63.42256088 72.71633542 -64.71802164 70.48449715 -66.015625 68.25390625 C-73.98016372 54.49538442 -79.57469321 42.56014343 -76.25 26.2578125 C-72.26290923 12.15347891 -65.09146856 2.1569612 -52.36328125 -5.0859375 C-34.3772443 -14.61477189 -16.13056325 -11.4149752 0 0 Z " fill="#FEFEFE" transform="translate(476.9375,186.37109375)"/>
<path d="M0 0 C0.57161865 0.99290039 0.57161865 0.99290039 1.15478516 2.00585938 C8.07404382 14.02101663 15.00377176 26.0294354 22 38 C27.49947067 47.4098944 32.954492 56.84470569 38.39453125 66.2890625 C42.57349158 73.53951541 46.77747989 80.77483863 51 88 C57.74713114 99.54722486 64.4333937 111.12902119 71.10888672 122.71777344 C74.23680148 128.14659942 77.36858448 133.57319281 80.5 139 C81.75001879 141.16665583 83.00001878 143.3333225 84.25 145.5 C84.86875 146.5725 85.4875 147.645 86.125 148.75 C106.75 184.5 106.75 184.5 108.62792969 187.75512695 C109.86810761 189.90473634 111.10834127 192.05431358 112.34863281 194.20385742 C115.2735023 199.27309212 118.19780833 204.34264936 121.12011719 209.4133606 C122.49806938 211.80426597 123.87634172 214.19498672 125.25463867 216.58569336 C126.22540982 218.26983963 127.19571874 219.95425231 128.16601562 221.63867188 C128.75576172 222.66154297 129.34550781 223.68441406 129.953125 224.73828125 C130.72897949 226.08466675 130.72897949 226.08466675 131.52050781 227.45825195 C132.54826225 229.2239205 133.60740082 230.97154305 134.69042969 232.70385742 C136 235 136 235 136 237 C136.65284816 236.99631283 137.30569632 236.99262566 137.97832775 236.98882675 C153.91384408 236.90022565 169.84927392 236.83416942 185.78497601 236.79275131 C193.49158805 236.77218592 201.19803499 236.74418168 208.90454102 236.69824219 C215.62689467 236.65818869 222.34912867 236.63252349 229.07159835 236.62364602 C232.62629482 236.61846232 236.18064915 236.60640722 239.73523521 236.57707977 C243.71776437 236.54449257 247.69971075 236.54405233 251.68237305 236.54589844 C252.84187973 236.53151733 254.00138641 236.51713623 255.19602966 236.50231934 C267.20760936 236.56218317 277.48651702 239.61351525 287 247 C288.5778125 248.1446875 288.5778125 248.1446875 290.1875 249.3125 C293.89436839 252.85461868 296.45803205 256.56348221 299 261 C299.49113281 261.82886719 299.98226563 262.65773438 300.48828125 263.51171875 C305.63765106 273.67991096 305.99975202 286.93866332 303.11328125 297.92578125 C299.06340025 309.37577704 290.92914811 319.48923692 280.125 325.25 C269.5631625 329.86469687 259.98890916 330.40604751 248.6171875 330.29296875 C246.94996525 330.28736317 245.28273802 330.28309762 243.61550903 330.28010559 C239.25893147 330.26873248 234.90266106 330.23933159 230.54620361 330.20599365 C226.08813632 330.17512893 221.63001868 330.16156544 217.171875 330.14648438 C208.4477768 330.11445348 199.72392677 330.0633501 191 330 C193.14094728 333.7498042 195.28228575 337.49938468 197.4239502 341.2487793 C198.14882365 342.51792716 198.87359959 343.78713073 199.5982666 345.05639648 C204.54317535 353.71728144 209.51119003 362.36430835 214.5 371 C215.72548444 373.12617298 216.95077023 375.25246047 218.17578125 377.37890625 C220.52183638 381.44789348 222.87903944 385.51003553 225.24789429 389.56576538 C226.71286962 392.07765335 228.17050958 394.59375327 229.62695312 397.1105957 C230.321178 398.30647156 231.01849129 399.50056115 231.71923828 400.69262695 C237.52612017 410.5756291 242.80403376 420.09413152 242.5625 431.8125 C242.54823975 432.96081299 242.54823975 432.96081299 242.53369141 434.13232422 C242.14135479 445.03837508 238.40794108 454.9058126 231 463 C230.42636719 463.67546875 229.85273437 464.3509375 229.26171875 465.046875 C221.74048209 473.33113567 211.16911209 478.39495227 200.01953125 479.3359375 C186.23819976 479.63337631 175.87562367 476.85668127 165 468 C164.39800781 467.53464844 163.79601562 467.06929687 163.17578125 466.58984375 C157.0526213 461.2374312 153.45497884 453.66313287 149.51318359 446.67285156 C147.27168877 442.71352834 144.98799207 438.77887798 142.70898438 434.84106445 C140.77735504 431.50174283 138.8508324 428.15952393 136.92578125 424.81640625 C133.12080182 418.20884965 129.3109349 411.60412307 125.5 405 C124.2499765 402.83334689 122.99997653 400.66668021 121.75 398.5 C121.13125 397.4275 120.5125 396.355 119.875 395.25 C114.25 385.5 114.25 385.5 112.37475586 382.24951172 C111.12564482 380.08442929 109.87645871 377.91939018 108.62719727 375.75439453 C105.48797691 370.31384294 102.35009437 364.87252784 99.21484375 359.4296875 C93.19252671 348.97793801 87.15330663 338.53700452 81.0625 328.125 C75.64041301 318.85436069 70.29675988 309.54063301 64.97976685 300.20953369 C60.36515971 292.11292157 55.70915114 284.04211199 51 276 C45.94369077 267.36502443 40.95392878 258.69393681 36 250 C30.46014067 240.27875494 24.86625068 230.59105132 19.21655273 220.93310547 C13.70792098 211.51313459 8.25361737 202.06231733 2.80859375 192.60546875 C0.22719878 188.12318597 -2.36489906 183.64732865 -4.96484375 179.17578125 C-8.12301952 173.74100879 -11.26120441 168.29528579 -14.37841797 162.83691406 C-15.38061246 161.08360181 -16.38666459 159.3324806 -17.39892578 157.58496094 C-35.75817887 125.7565694 -41.46663364 88.95173422 -32.48046875 53.19140625 C-30.54445069 46.15818574 -28.16153832 39.58466964 -25 33 C-24.70754395 32.38366699 -24.41508789 31.76733398 -24.11376953 31.13232422 C-9.13822574 0 -9.13822574 0 0 0 Z " fill="#FEFEFE" transform="translate(577,355)"/>
<path d="M0 0 C7.34588371 5.27780689 13.75553565 11.4780039 20 18 C18.62551133 21.63632623 16.99565142 24.97064121 15.09375 28.359375 C14.52019775 29.38345459 13.94664551 30.40753418 13.35571289 31.46264648 C12.74332764 32.54747314 12.13094238 33.6322998 11.5 34.75 C10.86634521 35.87672119 10.23269043 37.00344238 9.57983398 38.16430664 C5.75615296 44.94425733 1.88287374 51.69059588 -2.09301758 58.38232422 C-4.66421618 62.71336774 -7.19488266 67.06572684 -9.703125 71.43359375 C-10.03063248 72.00373703 -10.35813995 72.57388031 -10.6955719 73.16130066 C-12.32028979 75.99044435 -13.94227155 78.8210744 -15.56030273 81.65405273 C-25.43864934 98.86358239 -33.9140417 113.26115477 -54 119 C-67.10313828 122.20585813 -78.62991891 119.67868492 -90.1875 113.25 C-101.13433641 106.25233875 -107.67938279 96.31563431 -111.4375 83.9375 C-114.931425 59.48002503 -101.56588505 41.34136829 -89.62890625 21.1953125 C-87.18535395 17.06188186 -84.82811518 12.89417248 -82.52734375 8.6796875 C-81.96563477 7.67252686 -81.40392578 6.66536621 -80.82519531 5.62768555 C-79.76223573 3.719334 -78.71985116 1.79932079 -77.70214844 -0.13354492 C-75.24006911 -4.49119661 -73.45877182 -7.30649653 -68.61328125 -8.98046875 C-67.08169234 -9.34712427 -65.54367957 -9.68814386 -64 -10 C-62.741875 -10.38414062 -61.48375 -10.76828125 -60.1875 -11.1640625 C-39.6835167 -16.03679766 -17.39310042 -11.35835063 0 0 Z " fill="#FEFEFE" transform="translate(308,714)"/>
</svg>
